<mxfile host="drawio-plugin" modified="2024-08-19T20:11:30.430Z" agent="Mozilla/5.0 (Macintosh; Intel Mac OS X 10_15_7) AppleWebKit/537.36 (KHTML, like Gecko) Chrome/122.0.0.0 Safari/537.36" version="22.1.22" etag="PyLg-Wqew1brbQ-s2Nm3" type="embed">
  <diagram id="E17CGX6NsTnODeEcKfn-" name="Page-1">
    <mxGraphModel dx="876" dy="607" grid="1" gridSize="10" guides="1" tooltips="1" connect="1" arrows="1" fold="1" page="1" pageScale="1" pageWidth="850" pageHeight="1100" math="0" shadow="0">
      <root>
        <mxCell id="0" />
        <mxCell id="1" parent="0" />
        <mxCell id="3" value="" style="shape=image;verticalLabelPosition=bottom;labelBackgroundColor=default;verticalAlign=top;aspect=fixed;imageAspect=0;image=data:image/png,iVBORw0KGgoAAAANSUhEUgAABLAAAAL9CAYAAAA7N59HAAAAAXNSR0IArs4c6QAAIABJREFUeF7svQeUXdV5t/875bap6r13IQRIqFBCByFAVJsa29iJcRw7WSvJP22tlJWVrPT62fnslXzGjjGm2iADMZgqgRBCSEgg1EBdGo00o6m339P+6937npmr0cygMtJczfyOfZnRzCn7PPvcM/s8933fbQRBEIALCZAACZAACZAACZAACZAACfREwAWQBdpWfYL0D19HdYaoSIAEBisBo5cTNyB6IYBeJ4ADA60RH0dqHIx58HpMXr4EsA0UVxisCHnep0nAoMA6TXLcjARIgARIgARIgARIgAQGCwEKrMHS0zxPEvhcAhRYn4uIK5wlAhRYZwksd0sCJEACJEACJEACJEACA4aAByDDCKwB0588ERI4AwIUWGcAj5ueEQEKrDPCx41JgARIgARIgARIgARIYBAQOAWB1dvD7flG6vNqrQykcy23viH7cuuRk2sPUwhPjhPXOj0CFFinx41bkQAJkAAJkAAJkAAJkMDgIXCSAmugCZ3eJMpAO9dyvJjJvxx7pfc2UWCdf312PrWYAut86i22lQRIgARIgARIgARIgAT6gwAF1gnUKbDO/oVIgXX2Gff1ESiw+poo91dKgAKL1wMJkAAJkAAJkAAJkAAJkEDvBCiwKLD64T1CgdUP0M/wkBRYZwiQm/dKgAKLFwgJkAAJkAAJkAAJkAAJkAAFVjcEWIepf98YFFj9y/90jk6BdTrUuM3JEqDAOllSXI8ESIAESIAESIAESIAEBiuBQR+BJQmDolPk1Zk82DWNsFO4BDDUJvKfcNvOi+f4nwQIguL60I//RskxZCu93+C4n/sIYHb8JDyyiaC49slfqqVn8XnKTrdOt7frdqefVClt7nrOned94pmoIx3fFSd1umG7Ozc9jZ2c3JF0vwujIOy90ivnpHbS+0oh/+L++2CPfbILCqw+wcid9ECAAouXBgmQAAmQAAmQAAmQAAmQQO8EziOBdbyC+fwYHiVDOkRDKJxEDwG++pUBM5DHcvmXDwNmCStRSHqR3wZGoF56PQOGL/8NpZJImk6JEeowZWICX7VBfJdsLmuGew71h188FbN4QPEWpiH7LxVrnQKr9Mw79Ftx/8cruFLxJGcRCrPjLZEcCx4QmAE8EVjSEFM1VkkaddrHsdFcAm3yYAT6jI6Xd5qz/D4wTMVZs+tOF5ZeoqaSaKYpX70OZSf70MeS/Wny8v/QJQZ+gMA01e9Vt+seLr70tqot+pdaq3Wse/I3CWmb2t6yAN8vstHblzgtBMKwW+9n6Auqo2Vhb+qVvSIgS6EvrnjyzTura1JgnVW8g37nFFiD/hIgABIgARIgARIgARIgARL4HAJlILC02uh8qNfaQwc5iVwyTUtJo7znwlU2RfRDUbAUt1N+RKRAUWqIUpGtLFgI5BwtE4ElO3SVpJHj2YaNKEz4vquOY4mk8UU2ifAQGaKFgiOuwvTg2yIsfOV2bN+C6ZnwPAeWaSq9o92DFjeuciZauPi2AT/wYYjI8eRMLMAwIXomMLQE0a9QFknb9N50S0MRoxWCawbwLe2YTF9rIREmlgcYvg8twkTxCAHZQgDoxbMCuKYB1/EU9Jhlq7XgigAy4Bi+3qm0y9QSLfCLMkaxkZ0rfaRaZUWj8HIuIjBheQZ8U20Bz8/AsEz1b+lI24jC8j2YXgDfDOVW2NOh6dECUcSNyCgxQo7vwvU9WHZEOzQl6gKYcp6BAUuZQQOe58EQqaSuFLk+9BWlpaRVJOnDCzx4slpRYFq+7KMYGddLxJOhhJps76trwrDVxdnRZ1ryAb5VZHDcvkolldKfRbcl5xEKNwO+IVxNmEr4SWc5HZKtHO5jFFjl0AsDtw0UWAO3b3lmJEACJEACJEACJEACJNA3BMpQYIVxR54ZIGc4StbYFRXIeS4KxUgorTxCmXU8CiMwEPMBO+shFliwAxMFy4QbM1AwffhKgACJwEY048MQsWIVY6NE0oigKYZD5Q0DmRjgRHw4pqNUSMI3EckAMc+GYfhKkWgRIUJKyzjHFFEUwIGPvB3Aj1qImBYsF4i6IkMMZKMi1bSIi/sBrLyHiMiiggdbSbtQYMn5mTpOzAQydoBshanEi5IvImG8ALGCgZhEQwUefBVZpuJ4YMBTwsQ3AqQiPrIxEVEWrMBEwjdgF3wYjgffMpGP+HAjATzbh2Vb8H0JzdICTe9P6yGVPleMzLK9AFWuhUhWhJ+ppJyHDPwYkLOEmImIYSPhBIjlfRWVpmPWiiKpI3pNWhrANXwlDR0TyFsBvIgBKxaDHbFVZJbvOUDOhS2cPBFnAQzXh6XOqahDRcSFYgqWYucaHrIRH7mYKL0ANgxUOhaihQC26rjuo/pUSqVtIg8XedNHwQaMiAXLByJugEg+UDLNhY9c1EA+JjKqNCO1RGAFShd2CE8dVSYiTItTyzcR86D6xPLcDiHbN2/2M9sLBdaZ8ePWvROgwOIVQgIkQAIkQAIkQAIkQAIk0DuBMhBYoYqSr6UpcVnbQ6YCsKeNgTmiBgX4kFip45OuSlWIPlWRCXEHsI9lEew5jEjeR5vtw58wHLGpo5SPEfkUPZpGsLMetuvBFOFRjI0pxncpyZKKGvCnjYQ/qgKFaICoAcTTHvxt9Ui0i/jwVTSQCJ0wCkxFbZk+0hEfbTGg6oKpQG0cgRcgIgLrSAqZhia400bBGF6looUqpL0H2hEcOgYjXdCyS1IPOxLxAM8EHCNAa40F+9LpKmxLInWivoVISwaRvc2w2vIwVeqdRHiJopH4LBFYgZJ3LcNjCIRBVRxRw0JFHvD2HIHf2AbXBpzaGCJzxsKrsmHblops6kzK66zMpfpKIsBgwHYCxOsz8D+pk7g2eKaHvJmFNXkE/LFD4dk2IoaFRGMO1o7DMFwtEMP+VuhFtSlh5SNrechIwNWwKrjDKxGMqELN8KGoqqnWUVnZPLJt7XBbM4g052Acawfas4iKwJMAMpV6V9Sg6oIylUzMGj5yI+NwZ4wE4hFI9FVtiwfz03oglYfEonVdRF4pIWcA7VEPwfihMKeMVDIw4gPR+hTMPc0IHBeOFaB9WAzG3LHwI2K5iuSKqYDHp6iqK1XJwY74s8BUArMq5cHbdQRmczvsjoTT/r+RUWD1fx8M5BZQYA3k3uW5kQAJkAAJkAAJkAAJkEBfECgTgVV6KvLYLxEs7VEX2XEVGPfwClTOHtdRv6hYsqrTgHTdWCJaCkBh22G0PP4ijKYkmioCVN24GBPuvlYLg4wHrPsM7c+9B7M9A0ticopmLKzW5BkGknEgetlcDLl1MeyxNTAsIDiaRPYX65Fe9QkSsGD7OopGZJPUyZIUtbzh4VhFgNykIZj7G/ciOrpGZ/IlC8i9sRmH127EkC9ei6GLZgNRU7f3gz1ofOJXqEy6sFWqod5nGG0maYmpaIDMzBGY8UcPqrRI9TvZ765GFH6xHvkt+2GpSKIwJU1HYMn/0raH/MLJmPLQcmBEpdrOaHTQ9PTryG7agXzcgD9pGCb+5u2Ijx3ambnY03UW5n1mgMKHB9H6X8/DDiyV5pmM5TBi2RLU3rAIqK1QPsnbeAjt//UCzEIAy9dpoSrVz/DUNjnZLh7AG1OF+PRxGD57CiqmjAPG1MKISM0qrbwUZ+ljL0BQn0Ru1wG07apDZG8jvEPNiLsBosHxNcMkIi4XAbBgAoY9cD3sEUPksMAndSg8/hZyR1pVCmZ3iwgsxw5wNOqg8qYFmHjvDZpNHgjW7kR25Tol1PIRIDdzOCZ96y5Y1RXHF0WTtMOwxJr2nScWTVP5oYBZn0frz1ch2PgZbMHTF+/zPtgHBVYfQOQueiRAgcWLgwRIgARIgARIgARIgARIoHcCZSawlLySUlQAWmIukhMrMfWRO1AzZ3znk7yrH/RL8rA6zzHMP8wB+a2H0fCj52A0t6Mh4WPIbZdh2hdv1OumXARrdqL1mXdhtmUQkVpVRYMlWki0jwij9oiP9KgYJtx3PaqWzATiNpB14Ww8gJb/fhmRdAFRV8sV2cozfPgRAxk4aBgVxYjblmD0tYthJaJKeBS2HULqubdx+MABDFlxOcbetBjW0ApAsuK2HUHd957F0CZX1cqSFL9ihStVdSptumirNFFx/YUY97WbAanpJYuwOJxC9oWNyL6+CRFPiy3t43z4hoec5aE9HgDXX4iZX71NAqWAAoCtTWh46jVkdx1ASpoxZThmf/NuJMYP0/vWTShWve9yKYXltdJA/sMDaP3PZ1Q0mMiiYxV5jLllKYYtXwIMrVI1ttz396Plu8/DypuwA4ktkh17cE1J7QvQGg8QmT0eQ668AMPmzYJZJfbQlBJWx1eIDwtOScibXL9eAKQKyG/8FO2rPoa3qx4VrohFXbvLMwKVkpizgdyl4zD+KzcjNnKI3nbzIeR/9Aay9S2whWM3iydpoJaPumoH1csvxYwHlun2OECwejsyP38fmaZm5CV9cO5oTP72XbBrigIrDBeUcwjPQ44bXqfh78N/O9KXWTQ//QbwwWeIFEVmOdzGKLDKoRcGbhsosAZu3/LMSIAESIAESIAESIAESKBvCJSpwJJmNcVdtE2qxsxHbkftnHH6oT/nAUfagPZ8R4rWCSBEbDgB8p8dRePLb8PI5nA47iiBNfPeEoH19na0PP0eLCWwpASSTiNU+icwVNpYOiLix0fs8pkY88WrEZswVMmcoC6F9BNrkVm3DZV53QKJvvLhI2v6yMaBzNyRmPOte2AOr9YGpjGP5CsbkHz1faQDF4VLJmHSvdeietoYJZPcAy1o/fGvYG6th+VJkXi9X50G6KPZyKNtdAKT7r8RNcvm6WnvZBHx0u4h9/onSD+1CnY+UPJLRYUZvqr9lIy4yIyIofbOyzFmxVLN0gEKv9qK5uffRb65Fa0JH4XpwzHvt76AChFYsn0uD/9QK4xsochFV9XS/5fi7z6QBQqfHkHyF6tVBJbUiTpamceYW5dg5C1LtcByAjjr9qH1O8/DzIuck4Q9TxV0T1sOWqsNxC+dibHXLkRi1nggZndKHjlHqZ0lfZ7LAbYFVCeAyoiWQqrYlYTsOXB2HELy9Y8RfLIfkZyniu1LPxasAGnbQG7xGEz6yk2Ijyz244d1yP7wLRTqm2C73dfAkrTVrBXgcE0eNbdcipmhwCoA/uodSD79PvJNbfAkAmtyLSbedRXsipgqhC+LFHbPRg1ERw9DZGhCS0E5VmMaaGgtnqdOJ1T29lgGra99AH/HIUSKMzz2zZv9zPZCgXVm/Lh17wQosHiFkAAJkAAJkAAJkAAJkAAJ9E6gXAWW+J6iwJr1yAoMmT1eRcwExzJIvbkRye11qvB4d4uqy+QBVrqAQmMzHKeAw1Ueam9biln3lQis1dvQ8vRaVTdKBJbMMqeFkRYJEgDlmDr1rmViBcbcey1GXDFXRz5lfBQ2HETr//wKiaOp4ux74rYCpCwX/rgaVN94MYbduVTNPiiyyNl+FK0/ehX+/iPISIrh2ApM/eptGLFouo5wOpaB8/JmtL2wDrYrUUpSAF1kmhR2ctFoF9A2tQYzvnYHqi+eUFIwTKez+e/tRerxVfAa2lStLVPS6Axf175KuMiPr8GUB29E4tIZWqIkAySffBftr24AfB8tlQFSU2ow/5tfQOW4YYp3YX8jml/7AM6BY4hJoXFPosx0hJriVPAQkTTKZAHmkVaZixAZ28PRqjzGisAKI7CcAO57YQSWlIPXbctbLo7FHcQvnYEJd16japRJaqSSco4Ht64Frdt2I9eUhN+ahp8vKLnl1SQQGz8Uo+bPRHTUECBe3Cbvw/+0Ee0vvQ93027EXFul6ymBFQVyi8Zg0sPLkChGYPkf1iHzw7fg1DepguzdLRIUlbF9HKlxULN8wYkC65kNcI61qxkjM5UmImNr1TUiqZsisXK2gcaKAFOX/RpGzp+qo8ocD7k129H01oeKqRlYMH1LzeQYkxkhG9pgtGdLZizs/xsZBVb/98FAbgEF1kDuXZ4bCZAACZAACZAACZAACfQFgTIQWKU1fsKsNKkjJWKjdVIFZj1yJ4bMnqCkhn80ibZnVqF5wy6YKtJI15+SMBYprC1eRmaHkwLdEVV0yEcOvhJYNSuWYNZ9N2hqkkKoBNb7sNpyKoVQC6yimpHZCMWJiAAyfBwbZsFYMA0zv7Ic5pCoEk7+kSQyP1mN/Nqdqii5YZpK7jTHCgjmjsTEh5YhIamPLhA0ZJB7fQvaXl6PaLqAnOGjsSrAhHuvxfCbLgHiUSDtwdt0GG3/tRJWWmahsxAEkmjnIbAKqItk4S+diukP3YyKSSOOF1hiWbYfQ9vT76CwdR9ijjAwFZO8LRFRLtw5YzD3q7cjOn6ojvrZ14rk428j++FnSrhIza7klBpc+NtfQKVEYBWA/I46HHtmFfKf1iMhNad8KSSvVUZYf8s2ZOY8Uwku+akSWJV5jL1taVFgVaoILBFYrd+VCCxfyTVXitzHPRRmjcCE265E9cXTdeSVA/gtBTgf70bzBzuR31cPP5VT0seTVE8bcC0Dfk0MFXPGY/Tl81F10XQgIhFhYpsC5Nd/ivTza2EcbldSzTF8NZtkdvHYToElfSgC69HeBVbBMJXAqq/Oo/bWBZh13zJ9DUk7V29H8un18BuTMHwRcp6eKVNdRz4C01czPx6pDDD3Sysw9rJ5QEymWPSQ/d+NqH/2bRiO1AQz1OQDMhuicJTvpUB/udS/0mK3dNZPmWHTQKucW42DMQ9ej8kiK20dnceFBE6VAAXWqRLj+iRAAiRAAiRAAiRAAiQw2Aj0s8Dq+qwblgKS+lONiTzaJiUw85G7MWT2RF1zSKTRU+8g+cFu2Hktq1QhcCWwRIxooVUsb64EjsiHukr3eIGVdBG8vaOYQigCS0dgqdiikkAc2V5SyFoqTLSPqsLk+34N1Uunw4xHgLSP7GvbkXxmNaxUDpYpogRoqHYw9OaLMXL5ZYiMqAbSQO7jOjQ//iqidW2IeIGaFa/FclBx7VyMvP8aREbV6iiqva1I/5/n4B1JwnYs+IFIMR9B1MHBRAZD7roM425YisiQKp2y6PiwoiJEADTk0fT8WhTe2oREXmSIzEQoxcs9HKpxEbtqLmbftwwRqS0l9bje34Xs02/Dq2tVnBoqfSSnDekUWLLOjsNIPvk2/J31iEutqWLprI4UQiEWmKrYuGTzyRoye+SRiqLAumUJMKwSKGiB1SYphAUPMA2koz5ah9qovW0xxt+4GGaFrSPfWgto/t/34XywC35DEhHHgOl5KiNPzkfOW/4ndb1klkpz5lhMWXE1YjMl9dAS64igIYvsSxuQfetDFdXkmgayMR+ZxeNOEFjZR3UKYU8RWAXLQNoOUF9dQO3yBZh9/00dKZgisNqfXAs0pWB5WqKGte3lu1Bg1VV7mP6lFRh9ZVFgFTw4L25G8zPvws57sIoF6kW5irgqx4UCqxx7ZeC0iQJr4PQlz4QESIAESIAESIAESIAEzg6BshdYccx65B7UisAqiMBKofDku0it3wsrF8AuqYatRZYs4VfAM31kpAB3lYPq0ggsJbB2FlMIOwWWCDBVUinck3xjmUhaPpoTBlIza3DhN25HYuwItUawrQntz69DauMOxCxLHatldBRTf/du1EwfC9gmUJdB9pcb0fTaB6jOGYj4ukC8RCq1zRmK8V9fjqrJY/XUi/UZOD95A6nN+xDJBPBgwzV9FOwsDlTlMe3b92DkwjmqTdmmJBoPHsSkSy/QAisbIPXmZmSfWwu7Ja/qYMku05aH/UM9TP31GzHq8vmwRL61AS0vf4DcyjWI50S8AA2VHtqn1uLCb0kE1nDF29lWj+yTaxDsqEfElwTJQM0YKIvIQz1jpNkRLSQxcMcJrFuliPvxAktSP0XgtddYSCychpG3X4bo1NHagKU9uO/uweGn3kCiJa8kpW1IPSxd+VzXk5cOChCYAfJ+HslKE5g8HFOXXaWLp6vQORvBtsPIr90CpyUNR1IIIy6yi0oisLxiBNaP3kS+vglRYdjN4phAWiRorQishZgrEVjFGmL+KhFYa5TAEomneBT3oTSbRGBFPRyq8jDtyysw+op5QNxSqZcisFqfXtshsHT82vGTE56dN/3p7ZUC6/S4cauTI0CBdXKcuBYJkAAJkAAJkAAJkAAJDF4CZSywjsXzaJscx8xQYIlgqE8h98S7SG8QgeUpcSKiQBYVvSIRVCI3iumAnikFuH0lEKpXLOpMIexBYJVGYBWDYlSB8ELERBscJTGmPnADRl99CUxJd2vzkVyzDW0/fwteOo9UlYnh1y/AyBWXwaqtUO1y1h1A8merERxoQqzgK7EkhcXzZoD6cTbGfOU6jFg0FwgsoLWAwqsfo+WX65Bod+EHNgqWj3Q8j9zMYZj4tVtRNXWs2m/rpl3Y+/E2LPjirUBC8uoCeJv2IvnUO3D3NSLiWfBsIBnxcWiMhfnf/gKqZ4xXqY7Ym0LrL95D/t2PEXWMDoHVNrUW80sF1vZ6pJ5cjWDHEdgSoaZSLXW9cVmUcPGL9bBU/Jqk2xVTCG9dipHdCCw4LnKmj4YhBoYtX4xJd14FQ9ovEVa7mpB89l24W/YjmgpgSH0oy1LF8cOpEKXOuU71lLa4yBounEobwbAquFELEZiwXQuxpAc7mQfyAdwIkIl6SJemEHqAt+kgkj96DU59a4+zEEpUVTYq15BTFFjL9clLEXclsN4BmtIUWEwhHLx/R/rgzCmw+gAid0ECJEACJEACJEACJEACA5rA+SSwRBgcTqL92beR3rAHVs6F5UtRcV143TalCHaAuGnB9zwEgQfPhBJYdVUeqk5CYHXqMB1NoySNIYInULWNjlQU4F84HrO/ejti48K0v0a0Pv0m6nZ+BnfSUMz4yp2olqLzondSLrJPrEJu7U7YOReGpM/5sj9DMt1weFiA+LILMfWOq2FVxlT9ptyWejQ/+gISRzMAbORsD60VHoZcOx+j7r4c1vAaJU+Ovbwe9Vt3Ys5dNyAyfYxWeAdb0fbTN5DduEvVpfJiFtrjQMOMaiz8/x5CdIjUowL8Dw4i/bM1KOw7Aktqi6kILB9tU6o7I7BklsLtdWh9ejWcnYdVnTAlCaV2lAHFPSKpg54JU0ksqddlqqL3jWENLEkh7BKBhYKLlO3h2IQExn7haoy7doEGnQeyr3yI9C8/BBpSiMpshVLBKmKiYIjM07NEqhRC6XOVKqqTTn0LyMuMi5a+FiRtMCozHXr6ey8q7XKRDAWWpGxKkfrNB9D2o1fhHG5Rhe9PWAyZjdJHNuKjvspF7bJFmHf/LZ0CS1IIn6DAYg2sAf1X4pycHAXWOcHMg5AACZAACZAACZAACZDAeUzgfBJYHuAeS+HY8++gdcseRBzRJXpGPNEWVmAg4RiIpQowRRYFqqTSKQmsMJqruzJEIm1aYx7SIxMYdstCjLn1Mm250j7aXl+PHa+/idol8zD9jhsQGVal0uH8T5tx5IcvIFHXDlva6UmembTXVHWZGqo9pOYNx/yv3Y3o6Gollwr7m9D2g5dh7WiQRD2kIh6ahhmYfP8NGHblBYBlK4G1579XIn2gHsOXLcCYmxbBtG2g1UPrj19FYfUWxDwbSTjIDI/Duno2pjx0HaxYDEgHyLy2Bckn34CtCuGHEVhFgSVF3CcMVwFP2T1H0PDSWjj7GlSdJilUrqPeAF94y6x57Q6MdEEVnZcekQisHgXWd5+HLwIrFiB94WhMuvc61MybpHeYAY799HV4b2yDlXIRCUxYhqG8XNZ2kbd1aXSdtqjfc6pov8R9+SZcS2Sm7jnDk7pZAWzXQAK2km2ZaID0knGY/NVlSIjAkqLr247g2M9WI3ekWaVEdrdIyqLM5NhY4WLY1Zdg3u3FiQBEBEoEVlFghdszhfA8vh+y6f1GgAKr39DzwCRAAiRAAiRAAiRAAiRwnhAoc4HVPjmBGY/crWtgSaxNrgDns3oUGmV2OR1to0SGRAAFhpq9z/tgJ9Lb9iFSME5ZYJVGYIV1sEKZJV9zloG2BJCdPwozvnYL4iNrVRucTw/hs3fXoXbBLIy/5EKZkhDB4XZkn30HbRt2IdbuImpZKgVPBJaIGNe00BTNo2GkgUt+50EkZo3W2x1LI/fMWqTf+AhGYKI17qN1SjWmP3wLhsydpFLiUF/Atv/7UxQammFdOR1zv3ILbCnOngUKz69D5uUNMFoKOGYUkJ9Ug4lfuAZVV8yGIfKrMYfUz9ch/eoHiMFS7RfBIxFYLVOqcVEosMS3tWeQ39eAIJkrtj0sMm4o5iKt3M170b5uK6JZOTdbCayGqhzG3roUo7pEYLV893kErov2qI/MwnGY9dByxCeO1AKrzUPdoy/BXPsZYo4WktLJMiNlrsYCxg2FW1Ot+rRUMKrrQJiqAup6FkndNiDSkoV9pBmFbAG5iIXc4jGY/NWbEB9VLVX74TdkUdhVjyDv6PMrXYqiLhRmqZiP2NjhGDZtgm5AmEL4xDsImtLFCQVKK7CJaPOQirEG1nlyN2Qz+5EABVY/wuehSYAESIAESIAESIAESOC8IFDWAqsALbDu0gJLjJKkkYnBkHbrjDK9hNMXtrnwfrEOra+sR6wgxcmNU4rAKlUjHYXcSw7hWhJhZKBhJDDsposx4abLYFVFgbyHlrp6RIdVoHLIMCDrI//+Z2j+n1dgpzxEHUvNkKhqdMm8iYbUwTLRbrloqfEw+f7rUHPNPBiJGJB0kXvlY7Q/+aaSXU0JH86iSZj2wI2oGjccaHeBtXux9/k3kGluQ/aiUZj/9TsRmzgMkDS4NbvRtvJd+J814kikgPzc0Zj/jbthjRui8v68PQ1IP7YK7s7DOipM0jBN4GiFh+ap1bjom19AlURgdYRaickq4S1gwpJUOSD/5sdofm4VKqRdgS5k31CVP1FgrduPlu88j8Cxk6F1AAAgAElEQVTz0B73kV8yCXO+dCusETV6f4cyOPjjl2Bv2oe4Z6uIL2lXPhoA04Zj9C2/BmPmZB12JUvHFJaG7jaJvpKXinAzoKaE3LwLyRfXIHm0GYVYFPklUsT9JsRHV6vaaWZBKsebel89RGB1XF+RjpAvzbkbgdU1co8C67y4C7KRZUCAAqsMOoFNIAESIAESIAESIAESIIGyJlDmAis5KYHpEoE1Z7wqpq4ElkzhV2oKQpEh5yIC64WNaH35PUTzHoIzEFgdNbCKfkz6USKVcoaPpoQDf+YITPvSclTMlXpXRYNmiHEB/PosWp5+De77nyp5Zfu2qhClEuAktVH2BRM5KdBeYcJfMhETf/16xEYUazOt2Y3WH/4S+VQOTYkA1bdfiikrroBVlUDQmIX7gzfQuGU38oUCWqfUYPID12PY4plaNB3IoumJ12C8vwtHa4HCpRMx/1t3w5ToqzSQ/egA2n78CuLHMipFLwj0zIJHKzojsLTAKl65ImtCYRWKo1AYZoH865vRtHI1qtpcBCgVWJd1RmA5Adz3igLL9ZCMeshdPgUXPHw7jGEVSgahLo39P3oR9kf7URlEVESTYwHZaAB39ihMuuc6GBdM0LMVdreoAl3KZOnf5gLgvc+QfHoVMkdaUYjFkFsyFhOVwKrRskumGBQhquRoL+9U+Z0t+YrFlYSHRPit2o7k4+/AlwisEo/aOYslI7DK+v7HxpUNAQqssukKNoQESIAESIAESIAESIAEypRAWQssB+2TKjDjkTtRO2eCkihBMo/8rjpkGlsAx1PRTJI6puWWiVjagLn5ELLbdiPq+vBNHYF1qMpFzW2LMfO+Yv2ilIvg7Z1oeXotrLYcIuKVijMXSk/15DLk544RIJMI0D7EQM3yhZhw2xVARUSlpCnRkzXgrf4UjS++jWhdKywpJh6YKkVNiQ1JXVN1nAwUzADpCNAwMY65v3M3qqaO1oJrcz2Sz7yFo7sPIVlrYcyXr8P4KxcoqeTvbkHLP/0MTnMSHgI0Drcx9LYlmLziCi1i2gM0Pb0KwRufoL4WqFh+EabecxVM2bihgMxbW9H2izWoTHswTFFqvioof7RSIrBqcHEYgRUAheYkktsOwGlJ6RpRxTQ7M1DkEXVt+NsOobBlH2J5iWmykbLdjgis0WEKoRPAeW8/Wr/zPGQWwlTUQ+bSiZj9pVthTxyqxVurh0P/7wVY63ahwhHhZ+gILKl9NW0kRi9bDGPGmDCHUb+hOqKwAvixAEZtHEZlhY6QEoG1fheST76FTH0LnHgMmSXjlMBKjKpRnN2jaaR2HISfzavi9N0tUsBfBF8m6qNi0giMmjFVR3kVa2D1JLCkaR5TCMv0xsdmlRsBCqxy6xG2hwRIgARIgARIgARIgATKjUA5C6yYi/bJocAar6SE15hE+8o1aP94LyI5VxXqFvkikVaGGUHCtWCLmMnlVESMZwZaYFW6qFlx5gJLDJIIjXwsQFvURXbeSEz+wnWokdpUEgHkAGh00P7oK8ht3o1Y3oMZmDADqTWlF9E8ygOJA7EM5CLAgSGeqqk1bPEsNesh9rWj5eUPsG/dBlgTh2PCl2/AsLnTgJwHb+0eNH7/RViuD88ycCzhIXH5HEx/aBlQG1fRTNnXNiO5cj32RwuY/JUbMPKKOTCk8vnuFmSkvtbGz1AhbZUMQiVogCOhwPrtL6Bq/HDFO7vrMI7+bDWyn9YjVpyBUBXMl5cPxAMLZsGDVRCvZKmoMplh8EhVBuNvXYquAktSCI2Ci0zER2b+GEx56CYkZo3rqCnV+ONXEby+HbGsFJeX8uwSJOWhUBuDPXE4MKQSnlS6UsXadcl9VftKRODoGEZfcSGGTJukhVgqQP7tLcj8fA2c5jRycRuZxeMx+eGwiHuA3EeH0PTUmygcaUNUpR52XQw1+6RcQw0VDoZffQnm33OT7utiCmHyp2vgN6U6AtakTWE0FgVWud3w2J5yJUCBVa49w3aRAAmQAAmQAAmQAAmQQLkQKHOB1Ta5AjNVBJYWWH5jEqnH30Jm017E84Dh+MpVqMpSkr7nS2ZYAFvVmxKB5fepwDKkipUhkUGemh3w4AgftcsXYe5d12mpkfURrN+P1ifeAg63IiLF5fUciR0CqyPQx9DZkFKG6VC1i5plF2HKPdfAikWAFhcNa7Zix8pfYsKSeZh011WwRw5F0Oogt3IdMi9sUOcpgq416sKaOw7jHrgOcYlUKwDeRwdw+LE3URfPY+43bkft7HFADnA31SHz6KsIGtoQlXJiRQkkqXonCKwCUNhZh7YnV6Gw/QiiXmn5KX1eEoklkV3yX3n5AZC2XdRXZTGuB4FlOi7yEaBpXAVGf+EqjP61i/SORZj9cgNSL2yA2ZhB1LdVVF1g6lkAHTuAb4mb0q0WceW6LrwIkI8YSM4ZhosevgPVE0brCKz2AM0r18B/9UP4jq8i3XKLxmOKmoVQ6oEBzsb9aH/0VeQPtyAm+aGli/qnAcc0kLZ9HK5yMXT5Alx4/3Id+VUAglU70P5TSSE8UWDJ1iKwkiziXi53O7ajjAlQYJVx57BpJEACJEACJEACJEACJFAWBMpZYMULaFUC6y4MmT1BSYmgMYnsT1Yjv3EfooUAhhPAK0bOqJQtSc8zJOoJqr6TROZkLa9PIrCK8x0qqSLHyEVc7KnNI7HsElz00K26OzMegje3I/3z9xE0JWEFolrUvHjHCaywUpOkyLmGliPBgomY+5t3wK5NKDly7OPd2PLMS5hy5UJMvXEpEI3AP5RF0/+8jMiHB1QNJ9fykLEDZMdUofbuyzDm2oUqmsmrS2HPD19CptbCjAduQOWYYUCrg8Jb25F5cjUiBVdFUElQlgi1ngSWu7MO6Z++DXf7EdiuaDi9/nGzAErEWFHTCYKs7eJwZR5jb+s+AssueHBs4Gh1gJqbF2PyPVfDiOs6VN6nx9D21DsqJTGelZkIi2LM8FVb1XEl4qrYzw5cZKKBqiMWuWYuZt1/I+yKhL5WDqTR/PQqYNMueH6A9ihQWDQOU1UElhZY/oaDSP/gVRQOtyIqB+hmEYEljA/UOqhdvgDz7l+m11ICazvae4jA6iqwpn95BUZdMQ+IW4AweHEzWp9eCzvvqdJax1PsvSRXf9w7VP02dTXLEsCBgdaIjyM1DsY8eD0mL18C2EZJWmd/tJLHPF8JUGCdrz3HdpMACZAACZAACZAACZDAuSJQxgKrMZFHy+QEZn/9ng6BhYYk8o+9jdyHexB1gEAJLJ1qpifNc1RNJ3nYNgxLRSjlehJY7+xEy1Mn1sDqrZa3ChWS44nAsh3sHaIF1vwHb9UP7mkPeHMH2p//AGhqg+WL7hEJoyOWZAkFkJr4TqSN6aMx7qIwbShm/vrNiEpR+MBA+7567H7zPYyaPxvjL71A/cxbfwCNT7yOqgPt8AwfrumjYALNlQEiN12EmV+8AUaFDS9ZwIGn3kBkdC1GXXUxojWVCI4kkXv2PeRXbVc1v2RWRPlfqcBqmVqDi8IUwgLg7qhD+onV8CQCyxV3JPLOULW3tDfUQkMrOo0gY3uor3SUwBoV1sAqBHDW6RpYImwC00BzhQ/j4skY98VrkJDaX9KBKQ/5dbvQ+PNViDZmEJP6YY4Umtdxa7rylk4elNTCjOWguSJAYVwtZj20HDXzJsOwTSAbwHtvN9qeXY2gvhWubSAVNZFfXCKwJKJvowis1+AUo+W6e9tJYFY6Egqshbjg/pv0aqoG1jYkH5cUwvQJKYSqr1UElo+6Kg9TRWBdOQ+ISdidFlhtUoONAutc3e14nDImQIFVxp3DppEACZAACZAACZAACZBAWRDoZ4GlpUTnEk5uJ6l1DYk8micnMOfrd2Po7Im6vlRDEjmJwNqwF1HXQCB1oIoCS/sUiQsRvSJ13U1VBFwJrCoHNbct6SzinnYRrN6B5qfXwmzP6nS6YoFypUckkKQksku3UI5gq597housXcC+IQVUhAJLVlERWDvRvnI9gmNtiHyOwAprOLXFXKRGJzD0loUYtXyxSjksNKXQsGsPEmOGY/hESQE04L6wHs2/+gCVzY4SWJ5EYZkBWqIenCVTMePBmxAbNxR+zkHdmxswcuZUxCePVNKtsLsRrY++gujuZtiS+qdMna8S8sIIrJYpRYElsxDmAW9nHZJPrYaztR4JgekbWrqJ+LKKUs6XuQdF0+m4spzto77CwdgVSzGyRGC57+1D63dXws77MG0T6ZiBhoSH4XddgQk3LAUqdQpo0JZD689Wo339p4i2e0gUTBjKXxkwfd1emTgwaztojrnIjKrArDuuQ+2iOTAqorr+1eE00i+tR/K1DbAcD348gnTCRn7RWEyRCKyROgLL23gQmR+81msElhZYPuqqXVTfuhBz7ysVWFuha2BlehRYqVigUkSVwJIIrKLAcl/YjPan1sJ0dMQgI7DK4o7IRvQTAQqsfgLPw5IACZAACZAACZAACZDAeUOgDARWKStRICInRBo0FlMIZ3+9JIXwaArZn6xBTgksH6brwS8pvq0jdYoxTqpWFZC3PBysKqD6tiWYfd+NOjcr7cJ9ZxsafvY2gtYMIp7UtioWg1fRW1KkXL/sIIwtEqklqkZqVznIRBwcqHGOF1jFCKy259brCCzVHtm+s35UKOnC85Z/S1HzlgoD+cUTMP+37oJZEUEgUTrtGRgxG5FEHGj30PLoq3DWfYqqnD5LKcAuIqvNdtEyYygm3nsdRiycoSKUckeOITakFmY8BuR85Nd8iuZnV6GiMa9qV+m0NYnA8pEv1sBqKwqsSiniXgCcnYfR9vRq5HbUIeaZiodwUul8hnACAi+A5RmwTJFiBnJWgKMVBYy5bQlG3roEGFoJFAKIwGr7zkqYeYmQM+DYPlqjPrzZozHu9l9D9cVTYEQtMYnwpOj6h3vRsnY7zP3Nqv1wfBi+A9fLw4tbyNZYcKcMx+jL52HE0vkwY1EluYKmApKrPkbmtQ8ROZZWfVCISAQWkF80DlO+srwjhVAEVhiB1VMK4XEC65aiwBLbJBGAq7TA8pozktnYIWN1j0u2qa8jsCpdTP3KCow8TmBtQvKpd2G4RYFVsn1pSma53EuYQlguPTEw20GBNTD7lWdFAiRAAiRAAiRAAiRAAn1HoMwFVtukCsySGlizJuiaRQ0pZB57B/mNexF1RGD5eka/UBgUU80kSkfVdJcZAy0fB6tLBJaIhayL/PpP0fD6+/DTedi+CV8VaAdMU+KsLETTHqzWPMyMFgx60XEySmDZDg7WOLoG1oO36V8rgbUd7c+tQ9CchCVVzTtic/TW3aUoSiF3kTkN0yqx4HfvVVFUqp6QF2hTJf30aSOaf/Imgh2HUeGYSvSpcuZGgHbLw9ERBkbfdTUm3HypqrMUeFoUiW0Kml3knnsXyXe2oKJVp+OFWk7K4OdFOlV6aJ1SjYt++15UThgmxblQ2NOA5l++j+z+o4gZlo6EUvJK16JS/3YBO+nCbk4rgaX21aPA+oUSWLKepNdlRWJVAokFMzDujssRmzhK14iSdNB2F+7RJNyPdiHZ0Ip0czuMQgGe5SFSW4GKSSNQdclsRMcNhRmP6PNMO8h9sBdtL66FebgVsYI010feDpCMGshfOg5THr4ZiVFDFVN340GkHn0Nbl0rYj3UwOpWYAnAUGA9sQZeU+a4CKqOGSctH6mopBC6mCIC6/ILgJiugeX+4kOknl6rBJbqD5mAoONKDuOx+u6tfqZ7osA6U4LcvjcCFFi8PkiABEiABEiABEiABEiABHonUK4CC0BTvIC2yQnM/PpdqJUUQg8IjiaRfuxt5DfsQcQFLC/oqI8kJxqouk5FSWRquaMjsBxUrViCOZL+JUFUTgA0tME73AQogSAJcMUy7YYJU6Ku9rciuXYb/N0NsAL9+K6OoaKeXORsF/trCqi4aQEuemiFtg8pF3hzK1LPvwdP6iIpKRJWieqhK1QdLAMpy0P9WBsTH7oBIxfNhllha3GlQrQ8OK9vRvqFjTAaUioaStIsRa4YpoGc6eFQNIfhyxZi4j1XwxxWoQ1VUTAFdXm0/MczwL4mVOQtNbOfLBI15BsSgeXjaKWD9qk1mPfb96FywlAdCteeRyCMMgUYphZLHQpOwq9cH3AtODvq0b7yHcWpYIrAcjH2tiUYcetiHYGVD+Cu24f2//OCElh6TkYfjunr6LMEMOKyeRh+5UWIzBsLI2rrtofGT44rUVh5D4jZQNTQ/VjSHEk9zG89gNTKtXAPtiBRsGD7cg2IKAuQjAXIXzrheIG14QCSP3odXl0bYtojnbAI40zEQ12Nj5qbF2B2SQphsHorkp8nsCIuDlVLDazbOwWWowVW5um1CCiweJcmAZlVtfSzCBIhARIgARIgARIgARIgARIggS4EykhghTPz6dQ4EVgOWiYl1CyEtcUIrKAhicxPRGDthu1AzaQXFvhWLqP4CKTinmS2OgPIFiOwqm5brAVWpCh2JLrJ0dFIJ4RGuQA+a0Hbc+/C/2gfImIxlLrRs+GpWQhtLcYql12CeRKBpYq4u8BbW9H23FoEzWlYIoFKZujrfp47EVFSO8pAfa2LxPXzMP3ua2HXxFQ6nViqoKWApideh//uZ4hnfdgqMEuixvT8hgXLw7F4AfYlEzH2geuQmDZGH1ZOL+PD396Epv/7c9hNOcR9W0B1hPtIFFfB8tFQ6SA5tRoXfPNeVEgElpoWUIqDyX7C3ukSQiac8gEKG/ej5fvPIeqZcEygscLBmFsWY7ikEA6r0gJrvRRxXwk758MWiNI/Un/LBtK2j0ylhdiciai98gIMnTkRxtAqXS9KEIY5eXK8cJEmSV20nAu/rhHtmz5DftNu+IdaEM8bsCXlsQghY/tIJoDcgvGY+vDNiMsshOLeNhxASgTW4TZVpL67RZqaswMcrvFRvewSzJA0VGErMx2u3lYUWOnuI7AMH+1RD4erfUx9+A6MXDoXiMkOPbgvbULmmXcpsHhTJgEl0ymweCGQAAmQAAmQAAmQAAmQAAn0RqBMBFYY3dQRcGMAzXEXbeMqMPWRO1Azc7yOwGpMofDEO0hv2AW7oIuHlz72hN/LfsR5iHeSouKHKxxULl+EGfffIPmBeglDtbpWkZffCRcRWD9bA2/zXkQ9EUWiW/Q+pe6USKP6ChcV112EWQ/dqg8oKYTvbEXbSi2wdGqimhOxI2Wvu+4IYKIQsdAQz8KbMxKzv3Y3ImOqO0XJ7lYc/ckrsD87iphrwPB11Jg6mcCACwfpuIPU2AqMePhGDF8wS28rzJpz8F/dgvZXNsBMOYioml6di+zJsQI0Jzykp9Rg1iN3IzFpaM9XTWlniUDKBshv2I/m7/0MscBSheWb4w5GLVuEoUpgVauIN/eDg2j73kpYaVdxURM6IlAF4aUQfcEKkIoaCEbWYNglMxGfPR6xCUMRHV4LVEYAS1WP14vIx5SDoLEd2T0NcDd8guadB1VqpVwXEV9H0YVdKxIznQC8iydi3JdvQGxMrRJY3sZDSP/odbj1rYj0EIElO3EtA0erAiRuuhiT772uk+07O5B8UmpgpboXWCaQivhqVsbJD9+NEUtmaYGa8eG+shmZn6+hwOIdmgQosHgNkAAJkAAJkAAJkAAJkAAJfC6BchVY4kUiPjK1ESSWzoI1qlYXCm/Pw/hwP1DXCsOXGKTuBJbWFqr+kwE4ZoD2iAtjzlhUXTwVnsqE0ymBhopE6qxKJd8q2RQYiDbk4G05AKuuVUUMqYLnEn0l36k0Qg+tUQfBjFGoXThHyRjL8RHd0wx/60EgXVD7FzkVxi/1FIGl1rFMpCIFZIfYGLJ0PnxJA1S1kQJYB1vhfLQXdktOpemp+CsRNBJNpSLWJA2wgFTCh7VkFhKTx2gCfgAzVYD14V6Yh9uBgq9mZ1SnLLWslMcz4RsG0lEfuWFRVC6dBb82AtMQPSgr6eJMcs6ytop6KxbbV/WvHAPmwTa4a7cqOSaMMjEXkVnjYc0cDz9mq7ZG6trhvbcddj5QfDuPX2yHEaCgZhcMVG0se3gVohOGwx43DEZtBSIVcUQtG77jwss6QHMW9uEW5A82IGhJwxD2EnMViBsTYdgpsCTdUiLcnHFViCyaBr8yoorzRw+lYHy4F35rRs1w2N1iGCLlDKTiPoyZoxGbPwWBITMiAva+Jvib9wHpfPGaK4m302GAqiZYa9xD1cK5sEQMWgYs14S5vQ7mx/uL0W36MmQNrM+9Y3GFAUqAEVgDtGN5WiRAAiRAAiRAAiRAAiTQZwTKQGCFmW5aOuklFCSu6cOxADci4sSE5QaI5CULy1bpfFKp/cQUQh1hpCRDcY+e6cG1fBRMF47ImGI9J1MEkzIHnl5TBJYIHpiIuxainqXSB7W78eGbUhJcyywDHgqGh4LtwY2a8IMANgzEPRvRghQ89xEYErXVKbB66jc5XhAY8CI+8kYBXiQibkjFfEkbI66PmG+qtsh5ibASHqYv9aw0Nddw4VmB4iWzL4rek9bKLHxxx0DUkVZL5JM+Hylyr0WeztGTyCmpSZW3XRTgdoguFRWn0jF9JeQkfTGMRJNvIjARdQ1EXM1bZfYJE+k3KXjv+YiYwtLQM0eKGCupVdYZnaZ6FK4hEVmATJOYN/ULURtWxEbMigCuC7/gwBRh5VmqDpopUVexKAJh3qELO2WSeErfMJG1HBSi4oyEjomEF9HtDjwEKqrtxEUEFgwbjulCrse8qaYIUFIzIhLLLxazL26q69trSEFgwjMD+BHAi0BdL3L9WKaFSN5Dwj1eWXUenUXc++wexx2dFwQosM6LbmIjSYAESIAESIAESIAESKAfCZSBwArPvqTKkv5RGCFUTDUTIWAEhopAMgxDpw6qr52RM2EKoZI3hogmFYelBIyqXyWiQu03jNLSda20LtDqQ5mdYgSPRA6piCfVOJ1CqNupvxMRov6nCorro1lqGxFSOrqrI9qrl25WCYZyLio90VUyS7aT0lNKmYk4UpFT+pxFJpnFNLmO81HNLBaxD7RkUdMEGiKdTBiSdqdmWhR+YYkszbKzD3RkmdJAgagtndSpz1afiYpSC5HoUlaqX2RdvbahisSrr0VgOqVT/14tRYEVdnQpf0VZ+qA4y6InO7H0vsIoJbW+RKbpPEQdaWZbuoi/mhqx4xLS7S2KOjkzmZlSB+eJuJJUQ13NXuRX94sJ0xRBKT0tfHR1eXUdhnQ6g/g655xUJy/tC6CyNi3pSfmfzHRpwfAkiq7ziMdH5/UUq9d/9wrOQth/7AfDkSmwBkMv8xxJgARIgARIgARIgARI4EwIlJHA6vY0ihJKBJTO9Dvxwb77Iu5aYHVdlIoJrUrHL0ssgjqEFhPhf/UxtQLRa4YaqyR9UW0gkU2nGzkjYkmfn4pD0v/oWER9mKG0Uz9VGqSkunlPF0FnW/Uape3TZ9OVk/BUW3U7J1gXViUi0OhIxdRtL5WEp3KJynFL2ySRberfuhs6e00EW5FZ55Wh237ilaKFYNh74U7UJaJYa2HX/WKomR47Z7iUPXXKOGlfV7LH7UcitMyioCy2Tu1PFcYv7eNToXTu16XAOvfMB9MRKbAGU2/zXEmABEiABEiABEiABEjgdAicJwKrt1PrTmApudONwNIGI5Q6PQmLE6XO8cc/UWBp4XK68kr2rtMMe1pEYOmmh3InjFc7mWP2FFkkezw+Aksfo/NYp3JJdeI+s+ihrgKr67/DNumf63Po/G9P59opsLo7p8+d/6zj5CTqTrIwS86xR/FVcqRixNep8Cy3dSmwyq1HBlZ7KLAGVn/ybEiABEiABEiABEiABEig7wkMRoGlKIro6F4ZlSS69cC7a1RTuNrJyKSeuvDzBFZPx5T9HT+r4IlHOBWB1RmJ9LlSp8uBuot46/sLtuc9aqV0tgVWN8fvRWCVCrZzyeJsHIsC62xQ5T477p7Bqd5xyI4ESIAESIAESIAESIAESGBwERiEAqszkay3mKfeLoOBKrBOX14JLQqsE68ZCqzBdTvl2Z4+AUZgnT47bkkCJEACJEACJEACJEACg4MABdZp9DMFVnfQKLAosGAXa5WdxruKmwxuAhRYg7v/efYkQAIkQAIkQAIkQAIk8PkEBqzAkgfp7lPrek81+3xkpUXcj1/7TFIIe6/RFKZvdd+6vkghLBaoL6bDnU4yDwXWYBJYgAOgNeLjSI2LMQ9ej8nLF4MC62TuH1ynWwHOFEJeGCRAAiRAAiRAAiRAAiRAAr0SKHeBdRKpaaWy5TjxogTWiQXFw4Lop39lnI0IrHDWvu4KoOsZEHtfepJYvdW/0nsU8dRVWJ2PAkudy+nWwFKzU/ZAuKRQfLdr9FoD68wK2p/+Ndr3Wx4vfg24SmC5OFLjY8wD12PyLYsosPoe+6DZIyOwBk1X80RJgARIgARIgARIgARI4NQIhHPYoYvAqsmc2n64NgmQwOAgUKriJF7Pg1+MwAow5oHrKLAGx2Vw1s6SAuusoeWOSYAESIAESIAESIAESOD8JkCBdX73H1tPAueaQI8CqxoY86AIrEsZgXWuO2UAHY8CawB1Jk+FBEiABEiABEiABEiABPqSAAVWX9Lkvkhg4BM4UWB5OgKr2sKYB6+hwBr4l8BZPUMKrLOKlzsnARIgARIgARIgARIggfOXAAXW+dt3bDkJ9AcBCqz+oD54jkmBNXj6mmdKAiRAAiRAAiRAAiRAAqdEgALrlHBxZRIY9AR6F1jXYvItC5lCOOivktMHQIF1+uy4JQmQAAmQAAmQAAmQAAkMDgIs4j44+plnSQJnSKCrwHLhoS1MIXzoWkxeToF1hogH9eYUWIO6+3nyJEACJEACJEACJEACJHASBERgZYG2N7cg/T+voyZd+ph6EttzFRIggUFHQGYhdEwPScvHkRobY0Rg3byAEViD7l11IbIAACAASURBVErouxOmwOo7ltwTCZAACZAACZAACZAACQwIAh2pg+HZeAGQNdDy1hYkf/QaajIUWAOio3kSJNDHBOTeAQQIDCAwAniWiVQEOBoHxv/6tZi07BIKrD5mPph2R4E1mHqb50oCJEACJEACJEACJEACJ0HgOIEVBIDnA3kLR97YhCP/8wpqHPsk9sJVSIAEBhMBkVZaXgWA+t6AZwBpK0BzhY3pD16PqTddAlhG8feDiQ7PtS8IUGD1BUXugwRIgARIgARIgARIgAQGEoFSgyXfyysPNGz+FAdfWouo4w+ks+W5kAAJnCEBFXGl9qH/K/4qMAz1ciwgFTMx9cbFmLL4AsAqrnCGx+Tmg48ABdbg63OeMQmQAAmQAAmQAAmQAAn0TkA/g3ZGSYivcgE/78LLFgD6K15BJEACpQR6ySpWcssC7EQUVtzW9xVmIfP6OQ0CFFinAY2bkAAJkAAJkAAJkAAJkMBgINARiCVphH5HiMVgOHWeIwmQwOkSUOFXJRuHssrs5menewxuNygJUGANym7nSZMACZAACZAACZAACZBAzwRKnz31WgGMMEeIkRO8dEiABHojEN4jukZykhoJnCEBCqwzBMjNSYAESIAESIAESIAESGAgEZBnTg+ABEvIK6xrc5zAosQaSF3OcyGBs0bghBlNz9qRuOPBQIACazD0Ms+RBEiABEiABEiABEiABE6BQNeHzs5UQtauOQWMXJUESIAESKAPCVBg9SFM7ooESIAESIAESIAESIAESIAESIAESIAESKDvCVBg9T1T7pEESIAESIAESIAESIAESIAESIAESIAESKAPCVBg9SFM7ooESIAESIAESIAESIAESIAESIAESIAESKDvCVBg9T1T7pEESIAESIAESIAESIAESIAESIAESIAESKAPCVBg9SFM7ooESIAESIAESIAESIAESIAESIAESIAESKDvCVBg9T1T7pEESIAESIAESIAESIAESIAESIAESIAESKAPCVBg9SFM7ooESIAESIAESIAESIAESIAESIAESIAESKDvCVBg9T1T7pEESIAESIAESIAESIAESIAESIAESIAESKAPCVBg9SFM7ooESIAESIAESIAESIAESIAESIAESIAESKDvCVBg9T1T7pEESIAESIAESIAESIAESIAESIAESIAESKAPCVBg9SFM7ooESIAESIAESIAESIAESIAESIAESIAESKDvCVBg9T1T7pEESIAESIAESIAESIAESIAESIAESIAESKAPCVBg9SFM7ooESIAESIAESIAESIAESIAESIAESIAESKDvCVBg9T1T7pEESIAESIAESIAESIAESIAESIAESIAESKAPCVBg9SHMs70rz/NgWZY6TBAE6qthGOp7eTmOo16ynuu6HS/f9xG+wu3CbeSr/I4LCZBAeROQ93q4hO/jnlpcum7pOvLz8Hfh9/LVNE31c/kq9xj5ats2IpEIotGo+l5+Jq+uS+m9qLwJsnUkQAIkQAKlBOT+HY4tZSxY+jeidLwoP5fxZaFQUGNL+V6+yrayXTiWLP3bFI4zS8esn/e3i71DAiRw/hAoHU+Gz6Rh67uON0vHlzLOlPGljC3j8bgaZ5aOb7sb7/Y0rj1/aLGlfUmAAqsvaZ6lfZXKpvABUgYMMpAIBxPZbBaHDx/GoUOH0NTUhCNHjqCxsVF9n0qlkEwmkclk1IAj3C6fz6tBSKngOkunwN2SAAn0EYHw/drd7rqTU6WDCRk0yEBBvsrAIZFIIBaLqQGEvIYMGYLa2loMHToUo0ePxrhx4zBp0iSMGTMG1dXVHUIr3Eco0Dmw6KPO5W5IgARIoAwIhJIqHCfmcjkcOHBAjTEbGho6Xi0tLZDxp7zS6TRk/XCb8EPV8G+W7DOUXaV/l8rgdNkEEiCB0yAQSqnSD0BlbBmOMWXcGI47Kysr1diydJwpY8y5c+eqMaaMK0tfpR+Ycox5Gp0zwDehwDoPOjiMkBIB1dbWBhkwiKDavn07tmzZgq1bt6K+vh7t7e0dEVjhp2HhtqVRVl2jrkqjuM4DHGwiCZBALwQ+7w99+Hu5D/QUkSUDDvmdfJWXiK4JEyZgypQpuPDCC9VrxowZqKmpUcJLXt1FZ7GjSIAESIAEyptAOCYUSSXjS3mJrJKx5aZNm7B371415pQxaBjhLx+EdpVRcpbdRWLJz7v+XSqN7ipvOmwdCZBAdwR6i/QP1+8qoUo/ZJXfhVH+Iq7Gjx+P2bNnq/HlvHnz1IenIrzkJfLr88a27KXBRYAC6zzob4mk2r9/vxpMbNy4Ub1kcCGfcsmnXjLoCAcSXcOzQznV22n2lJrEm8V5cHGwiYOOwOmkYPT0Xu5pX6HYKv19+IlaGK01duxYXHDBBVi8eDHmz5+v5JYMQCSii2mFg+6y5AmTAAmchwRESB07dgy7du3Ctm3b8MEHH6iXjDtlfCnSKozUL/3wo+updv3d5/2d4vjyPLxY2GQS6EKgOzFd+tzZ3TNpqdwKM4zCCK4wAkuElURlichaunSpklrTpk3DqFGjjks3ZIcMXgIUWGXa9zKoaG5uVoOKd955B7/85S/x7rvvqhTA0kUMdniDkAfHqqoqlQpUUVGhvkrkhIRzyitM+ynNQw5r34Q3j9JPyrrmNpcpKjaLBAYdge7q1nUdKHT9hLs0FTn8vrSWiXwvMlweVkSOy4OLpITIQ4z8O6yPUjrgCMHLJ2U333yzel188cUq9TAMI5f1GZ016C5RnjAJkECZE5CyEzt37sT777+P5557TkVbydiz9J5d+rdGxpQyxpTxpTxghrVrJIpCPuCQMWhYQzGM3g3HlF2jfUvHmmWOic0jgVMmMBgEbXdjSgEV/lzuJWGkZhi5KWPM8CW/k/I28pJxpyylZXLC+5DcX+QD0ttuuw033ngjLrroIsgHqOHz72BgfcoX4CDYgAKrzDpZ3rDy0Lh582a89NJLalBx8OBBdRMIU35kQCEPhyNHjlQhllKrRky1mGn5Gqb1yEAjFFph1ERYNC8cXIQCKxx0hIMMyqsyuzDYHBIoIdDTp9vdpWWUFtINBxFhTZKwRokIKrnHyL0nFFeSkiwSXVJHpJaefEovtU8kGlTuSbKvcLASphuOGDEC11xzDe68805cffXVapAhxw8nn2AnkgAJkAAJnHsCpX8bJEVQZNX//u//4le/+hX27NmjPhwtlVXygafcz2WMKfdxGW+GY0xJ6ZHaNvISmSXiStYPayqGQkvGqeGYsnQSkPAhlQ+e5/464BFJoC8JlKYMd50wTMaI8gFo+EGpiCsZY4YvGWNKpKeMMeWedPToUfWqq6tTP5PxaWmJGxlHyv1o2bJluOOOO3DppZdi+PDhanzJe0lf9ur5sS8KrDLqJ7kRSAj3yy+/jBdeeAEbNmxQpjp8SJQBgrx5JcJBXmKkpS6NRDtI6o4MHrqm/pTWuempBkFPCHhDKKOLg00hgZMgUPqQcipRT6WSSw5T+t4PJ34QgSWf2IvAkgee3bt3d9Tgk0FK6TJ58mTcfvvtWLFiBS6//HL1oMOFBEiABEjg3BMo/bsgH46++OKLeP7551X0VZgeGNajmT59uopwkNSdqVOnqjGnjC9FYIVjzNJxZXg2pWnjvY0de0spOvdkeEQSIIFzRSCM4g+faUu/ygenIq2knrNMFCHjzB07duDDDz/EZ599prIAwvuKCKtZs2bhrrvuUlFZixYtUrW0+Mx6rnqyPI5DgVUG/SBvagmhXLNmDR5//HGVLihmOoyOkk+4JP/32muvVfVmpMidPCDKz3vKP+5uUFF6qt3VqCkdWPBGUAYXBptAAqdIoLvIrJN5L3f3UNHbPUIGE/JJmYisjz/+GG+//TbWrl2rIrTkfhamKS9YsABf+tKXcM8993SEfJ/iKXF1EiABEiCB0yAQ3sPlniwfQLzxxht48sknVVkKGXPKIn8fJFJ/4cKFuO6661RUg0zQIdKqdIzZ9eGz6wckHD+eRgdxExIYpAS63i9CKS445F4jY0yJxJIyOhItunr1alWbT56NwzRnyTaSZ2IZY95yyy1Ksp/KB7eDFP2AOW0KrH7qSnkDhm80sc4//elP8ZOf/ASffvqpeuPKIuHXMr3ol7/8ZVx11VVqUCHTj/YWfl16EwjtdncPsN09nPYTCh6WBEigjwicqcAKw7VPRnqFAw1JPZRPy2RwIZ/qS0pKGDkqAxFJP5HBxW/91m/hkksuUfe1k91/H2HhbkiABEhgUBKQvwkSwSBjzCeeeELNKBimf4uguuKKK/DAAw+oqP6ZM2eqEhSne3/muHJQXmI8aRI4KwTC+0kqlcK+ffuUyHrmmWewatUqVeoirJElUaJyDxORJZGjXAYHAQqsfujnMF1HUnNkYPHjH/8YTz31lErPkd/JA56EcUt4pKThSMSVTFMvS9cpSfuh+TwkCZBAmRI41+kZpZ/Ky4BCRNZ7772nHpYk9Fs+LZM2SQ0+KfD+rW99S9XGkn9zIQESIAESOHsE5MMFiZD97//+b5U2KBGycj8WcSUPffLhqBRFltlkw/RAac3pCqyzdybcMwmQwGAiED4nlz7zyhhTgjzefPNNPPbYYyo6S34mKYXDhg3rGGNKFKmkFHIZ2AQosPqhf+WNKZ+Abd++Hd/5zndU1IIUsJOfSyj3lVdeid/8zd9UX6Uoe2kRO4ZH9kOH8ZAkQAInRUDuYVKg85NPPlGf9sunZZK6Ij+XQr/yaf+3v/1t3HrrrerfXEiABEiABPqegNQl3LhxI/71X/8Vb731VkfKoHwYunz5cnzzm99U4koe/DibV9/z5x5JgAROn4CMGcNyFKWZRfK9PC9v3boVP/jBD5SYF4klz9Qi4a+//nr8yZ/8iaqLJXWjuQxcAhRY56hvw0gFkVHyvczi9bu/+7uqJoG8+eTnEpXw1a9+FX/wB3+gCrRLJNa5jqg4Rzh4GBIggQFMQKJLJexbZrn6h3/4ByXrw3vgnDlz8Dd/8zdqFhm5x3EhARIgARI4cwLhg57cayUS9o/+6I+wfv36jgdBGWPK+PI3fuM3VB1VRlqdOXPugQROlkB3JR5OdttyXa+/7iEirOQ5+tlnn8W//Mu/qBmzZdwp0VhSF+vv//7vVekdzoBdrlfOmbeLAuvMGZ7UHkpvXBLS/U//9E946aWX1Kdi8umXCKtHHnlEPdTJzC9dU2xYW+CkMHMlEiCBMiAQ3q8k+koKBv/bv/2bmlVVZryS0O4lS5bgT//0T9XEFJLOwoUESIAESOD0CYQfEMg9Nhxjrly5Ut1z5YMCmVlQoq7knivpg4yAPX3W3JIETpXAQJRXwqC/BJbwFGElY8xXX30V3/ve91TZCvmZRF4tW7ZMjTElEov3ulO9Ws+P9SmwzmE/yRtOahCIvJKaBJJqI/Jq2rRpKhrroYce6ijS3t3sgv15sziHmHgoEiCBAUJAHqokleWjjz7CX/zFX+D9999X9z2RWDLjlQww5FMyRmINkA7naZAACfQbAZkASOoQ/vVf/zVeeOEF9QGp3FtlFmuJvLrzzjtVmQqWoui3LuKBBwGBsH5TT6faX9LnbKDvr3MpTTGUMeXLL7+s0qXlg1JZJAhEJg+ScaekSnOMeTZ6v3/3SYF1Fvl3nRZU3mRiib/73e9CZh6UQcSECROUvPrGN77RUUSTswaexU7hrkmABM4JAZFX4Swx8lVSWv7sz/5MfZVPyeT+d9999+Fv//ZvVUQA67Cck27hQUiABAYAgdLxZXg6Bw4cUOPL//iP/+i4x8okQCK0ZFIgPsQNgI7nKZQdgTC6qrsoq3AcFD7X9TaLfNmd2Ek0qD8FljQvrBEt8v61115TY8wdO3ao+5/87nd+53eUvJdnbWHfX+09CZRc5RQJUGCdIrBTWT0cYMhXiUKQejB//ud/jj179qiaBOPHj8fv/d7v4eGHH1azDEquLt9cp0KY65IACZwvBETgS80/SSdcs2aNugcOHz5c3QNl0orRo0d3CK/z5ZzYThIgARLoDwJdH5alJsyjjz6Kv/u7v1O1YWQsOXPmTPzhH/4h7r333o6ZrPujrTwmCQxkAuF7Ud6DoTiRKPMwzS08d3lPhhJFvu/ueY/PgKd+pYTRWDLrtZTm+fd//3ds2bJFFXYXcSW1AL/2ta+pchWMPj11vuW6BQXWWeyZUiu/efNm/PEf/zFWr16tHtwkvFHqEfz+7/8+xo4dSzN8FvuBuyYBEug/AmE4vQzMpLC7DDD+6q/+Crt371aNGjlypJqNVcK9Jb2FCwmQAAmQwOcTKH1w3rRpk4o0kAhXWWRcKWNMmfVVPiDlg/Hn8+QaJHA6BEKBIvKqUCio5zmZEU+e9eRnsoQBDaHEKhVZpcfk+/TUe0A4i6ySIBAZYz722GNKYkmwiESdXnzxxSoqVYq7sx7WqfMt1y0osM5iz4SDC4k8+Md//Ef853/+J9ra2pQFvvrqq/HP//zP6hMyedMxtPEsdgR3TQIk0G8E5D4og4swfUXqAEoq9fe//31VgFN+f/PNN6v7odRq4UICJEACJNA7gdIPSGUGLkmVkSh/eYCTMabUVP3Lv/xLFYEQpnKTKQmQQN8SCD+gk6+SxibZNiKhKisr1bhH/i3PdzL+CZ/1pAWlz32l0ur/Z+8+oC2qqnv/bzTvb97z2VCxNyD22CN2UbCBFSwYNaJoYqHEkNgVTLEkAirGqFixgajYYkcEQUWlI4IYsWKMwZIYNWrMf3xW3rxjczj33nPu3bed89tj3HHb3muv/Vvr7DXXd805VwDWytun2uL73/9+yzXNI/XnP/95cxgx537ta1+bdBUrl3fTXRmAtUZN0k8w97GPfax70Yte1JLL+fvtbne7lmzuzne+c0tmnCMKRIEoMC8KWC372te+1ryw3vve9y6EEh544IHN1Tsu3vPSE/KcUSAKrFYBk2bv0f3337+7+OKL2/vz9re/ffM4YGNmQrxahXN9FFhcgYImPK18FjksgFU8sL73ve91F1xwQfOAvOlNb7qw43KFD4JYo6lj8nldXW8rsH/qqae2d+KXvvSlBhJB/Ve+8pXdYx7zmLZLoWOxMM7V1SBXr5cCAVhrpHQBrIsuuqg76KCDune/+93dL3/5y+a+KMmcyVpcGddI/BQbBaLAplaAsWeXLMmF5SpgxNnu+HWve10z9AL2N3XzpXJRIApsAgXYmRIWS0/x8Y9/vIUrXe1qV2s2pryCCcneBI2UKsy0AgWwfv3rX7c5XgEskITTgsTiPpO77LJLd81rXrOBFPYN0FxeWP0InACs1XWXCtXkefWud72re+lLX9rSVdBamgqbBt3iFrcIwFqdzJvi6gCsNWwG1Peoo47qnvvc53Z2h/GSEoMrfOa2t71tVsbWUPsUHQWiwOZWQNjLX/3VXzW3biuXJluPfexj29+23XbbBQNjcz9FahcFokAU2BgFeLOyJ1/ykpd0wmaEyuy6667tb3JgmbTliAJRYO0U6HtgCReUSJwHlq/jjz++5WPyOb3b3e7W3f3ud+/sCgpiAVXlfVUwSy3jFbS6tupvnvaTn/ykO+CAA5qHqrbxTrRpEAeSaL06nTfD1QFYa9QKPkQMCmEyXmAS+3lpMSwe/OAHd1e+8pXX6M4pNgpEgSiw+RUA+L/whS90T3ziE5ubvYOBYdUM6OeCnyMKRIEoEAXGK/DNb36ze85zntMdc8wxLUxmxx13bLkEd9ttt4UwmWgXBaLA2inQB1i8fgpggVK8IoWt/eAHP+hufvObd/e///27u971rt0Nb3jDNh/shxA6v77ihTVMe2mbj3zkI20nVmkr6H3f+963tYk2qHQV0XsYvde7lACsNVLcB8eW8XK6nHXWWY3Gy0dwxBFHdDe60Y0usTKWD88aNUKKjQJRYNMq4B1pUwv5Ad/ylrd0Vst4EAh/sZsWAy9HFIgCUSAKXFoBwOqd73xn9+IXv7g7//zz2wmPetSjGsC6znWuEw//dJoosA4K9EMI+wALLPnEJz7RHXrood1Xv/rVttuy/MeSifvafvvtWxqZSpdQHlmL7U64Do8yk7fgSMKmZGM6bnCDG3QveMELLpULayYffsYfKgBrjRpYLDRvq2c/+9ktLwGPKxM13gY8C7LrxBoJn2KjQBTYMgp4N0qy+bSnPa0744wz2nvxQQ96UPNalfg0RxSIAlEgClxaAfD/Wc96Vttpq3Z5fetb39o97GEPW8ivmsXR9JwosLYKLAawgCj5rw477LDuzDPPbE4MV73qVRvE4iHJoYHHudQJ/lfgqu+JtbY1n4/Spaf48Ic/3D3iEY9oD0xfoP9Vr3rVQiRUPwfZfKgyG08ZgLVG7Xjuuee2BMVcux1yXklQfOtb3/oSu2wl3nmNGiDFRoEosOkVYPwJr37605/eQgcZG1zt//qv/7qFWueIAlEgCkSBSytwyimntOTtJ598crMp2ZhvetOb2vsz4Co9JgqsjwKTAKxanONtdY1rXKMlEb/nPe/Z7bzzzt3NbnazBYAViDV8m2kfSdxBKxsGWTS9zW1u03ZplZOscmblnTm89mtdYgDWGijsA8F1VLI4rt1cSZ/0pCd1z3/+89vLqw+tArDWoAFSZBSIAltKAaHVgL9tp+3YA2i98IUvzERsS7ViKhsFosB6KMDGFD4oNOY73/lOC7dmb3pv2uksRxSIAuujwKQAS23M9+xOyBOLM4N8THe5y11aWNsVrnCFVuG+B1bCCYdpQxsG2SzokEMO6X784x+3ebjNgkREJRpqGI03opQArDVQ3Xaqb37zm7t9992387MXFtr7uMc9ruV4qcRx9UIL+V2DRkiRUSAKbBkFhBEyJs4555z2vtxjjz26N7zhDQvh1nlHbpmmTEWjQBRYQwVMmHmq/u3f/m3bfZAHqwkxb/873vGO2fxiDbVP0VFgVIFpAFYBKrmvLNTxlrQ74f3ud7+WE4udw0tLSCHHh4QTDtPfvC/lIRNe/a1vfavpK8+qRdLRzYJiaw6j+XqUEoA1sMpeZmivRJq+bJ96/etfv03Gdtlll/b76NbG+cAM3AgpLgpEgS2lwHe/+93mpcpzlXFxpzvdqfv7v//7ZuBlK/gt1ZSpbBSIAmuoABuT19VBBx3UyXnFfrzVrW7VffCDH2zJ22uSvIZVSNFRIAr8PwUmAVhyYDnP4fMKTAFVwLNwQp5Yd7jDHbrf+73fa55YldC9D7ESrbPyLkf7f//3f+8e+MAHdp/73OfaPFxIIS+sHXbY4RIFZz6+cp3X+8oArIEV90H5xje+0XITvP/9728vrfvc5z5tp5jb3/72Ldlm3wOrXmgDVyPFRYEoEAW2jAIXX3xx97KXvazt2OOdeeMb37i9MyV0B7RyRIEoEAWiQNcmX1/4whdaAveTTjqpefU/8pGP7F7+8pc3r45xi6TRLQpEgbVRYFKA1b+7a8wDK5zwlre8ZcuJZa4onNDfwasCWPU9EGtlbeidyFP1qU99asu16ue73vWuLW2FPGT9IwBrZRpvxFUBWGug+mmnnda8CU4//fRWutwEvryY6igaH4C1Bg2QIqNAFNhSCvzsZz/r3vve97b3Jsi/7bbbtkUA703GXI4oEAWiwLwrUHYjb6tnPOMZ3YUXXthd8YpXbLtd77///t3lL3/5eZcozx8F1lWBaQHWqCeWcEL2Di9KEEtOLAt48to5gK7apbBCCtf1AWfgZjSXzscCqQ2Cfv7zn7f5OA+sxzzmMQFYW7SNA7AGbjgflBNPPLF79KMf3X3/+99vpduu8wlPeELbLjUAa2DBU1wUiAJbXgHGxZe//OW2KuYdClo95SlPaXleGHg5okAUiAJR4H88sI488sjuaU97WveLX/yiu8pVrtLCrR/+8Ie3sKQcUSAKrJ8CKwVYasjbB5zyJZxQygReWNLNCAdm+4x6YsUjffq21Ubem6Ki9tlnn+6nP/1pA4RglkXS/hEPrOn13agrArAGVl6yuA984APtQ8KrQIK4t7zlLd2ee+7ZXkS1ZWc8sAYWPsVFgSiwZRXwPvz617/e7bTTTs248LsJ2T/8wz80wy5HFIgCUWDeFfBe5D3w6le/unvuc5/bJmXXvva1u7e//e0tFCaTr3nvIXn+9VZgKYD1qU99qnn9yIFVwMpn1Oe2D7D8DD7bHe82t7lNS+zOE0tOrPJAL5BV3ljr/ZyzcD8h13vttVfb7Zo3Gy//5z//+QvebtUms/Cs8/AMAVgDt7ItOiXWZFyAWSj6m970pm7XXXdtd+qDq7p1jI6BGyHFRYEosOUU+Pa3v92SbJ533nndb37zm/bO5FnAiMsRBaJAFJh3BdiPPPsPO+ywNjE2ETbhtUmQHKs5okAUWF8FpgFYtbugz60vEIUn0DWvec2Wy04I8Hbbbdfd9KY37e5973u3xO7+zh5ygFhAl++ZN07fzmeccUZzLpHmh352vn7Ri17UFgEyH59ez42+IgBr4Ba46KKLmnFhheyXv/xld9vb3rb9fOc737l9YAKwBhY8xUWBKLDlFfBe/Od//ueW10V+F6ExtoQXfs0rK0cUiAJRYJ4VqDAYea9scCGMUL5AO5hJ4P77v//78yzPXD57P6IjQGNjusA4gFVJ14877rgGms8666wGneS6AqDsiCdtgk0Xbne72zWPq+td73otZJDH1ZWvfOX2O5gFclUSck/onMqFlTafrs0tjv7FX/xF9+EPf7hd+LCHPay9S29yk5sEYE0n5aY4OwBrwGbwIuNF8Dd/8zfNC8sL6h73uEd3yCGHLKyOBWANKHiKGkQBO3IYIA2cBsYyigYpPIVEgQkV+Jd/+ZeWVNO7k4FnQvaKV7yirUTmiAJRIArMswI1UT733HO7gw8+uDv22GPbuC09BZuzPwmbZ53m8dn1AzAD0OSt00/8PY96rOczL+aBxdvqE5/4RJv/ASdy1fmM5dShtgAAIABJREFU8rLiRcne4X1161vfuiUS9z+/1xwR6PJVXlv+7ufaoVAbB2BN3tL0+8Y3vtEddNBB3Tve8Y6mnXxjdr/WBnVE08k13egzA7AGbAEfkAsuuKDtCIPwGlR233337qUvfWl3s5vdrN0pAGtAwVPUqhTQP4GCf/qnf2p5Naz4XOta11pIBJsX+arkzcVTKiD8WsggD9Yf/ehHbSceSdwf8pCHTFlSTo8CUSAKzJYCNVH+0pe+1GxMmwX5m5CYF7zgBd31r3/92XrgPM3ECugH//Ef/9F961vf6v71X/+1haSx52onu4kLyolTK7BUCOHHPvax7vDDD++++93vtjkgTyteV0LZeGXJ9ynNDIB1y1vesnleWVDWlgCVHMra0HehhPXVz4MVO32yJjPfkfvq7/7u71pUFN3udKc7NRtTvrEArMl03ExnBWAN2BpeZF/96le7Aw44oDvhhBMawHrEIx7RdjrYYYcdArAG1HpWiup7O62359MPf/jDliRb/ox/+7d/a6sQ3GmFbm30bkbrrcWs9Ket/ByMOWExf/mXf9ldfPHFbZtj/dGOrjmiQBSIAlGga+Dqz//8z9uurY7999+/JSPu53GJTptDgbW2Y6p8C5HHHHNM95KXvKR59my//fbd8573vO7BD35w89hZy3rUovy8gpTFABYbWgghm0Y0jlQI8tXZjf6cc87pvvCFL3Rnn312axthwNLMWLTz+09+8pMGsHhr1ZfrwKz+zoR6+bzqPu0n3Hz8Bz/4QYNXPid0M+cRfn2ve90rAGtaQTfB+QFYAzaCFw+q/id/8ifdqaee2gDW3nvv3dy9rYY44oE1oOCbrChty4UbGOLRNO7w0qzEjQYkKyo1ALne/9br+OxnP9tgqx1S3JuhIz6cQWyVaD0GRnrZ7KCMAIN+7bqyHvdfL61zn+UVAFE/9KEPtT7Ixd4qMkPDOzRHFIgCUSAKdN2nP/3plivQ5NfBG8s4bgezHMMpwH4HEngGFyjo57EtWx5UABl8l+doMbtvuJpduiRe9H/2Z3/W/eM//mOzpXjoPPaxj22eeTe84Q0XEoavRR3YcKWLvL+1w546VL6mcfcV6khb3kZl+7I7abmWwG1oDRYDWOxY3pLCCK90pSs17ys5sDwvyOh/xx9/fPfNb36zeV/d737363bZZZfWjwDJ8sAyR/C3glds5AofjI08eWtqJ3OzN7/5zd1znvOcdqENgqSpuP/9779QUDSdXNONPjMAa8AW8AHhGmrC9ZWvfKW9hMEs23TW6lgA1oCCb8KiTMLl8AEyHaPtXTHsV73qVbvrXve63dWvfvVmeIp/N8it58uTe7P++Z3vfKfV1aD4x3/8x23lTijhesA0hpcVZStUDB8rUDzAGDFlFK2nJpuwS81FlSoEworlU5/61AawGLMA1pOe9KS50CAPGQWiQBRYToFPfvKTbZHp/PPPb6daIH3605/esSlyDKcAGGM8+sAHPtBsIXCq7DnQxpe/S7TNXrLg4mvHHXdcWAAsG2YtbSl1kmOJ7fa5z31uAQYJva/caGtpSxXA4UFtA5af/exnzXYTGic0i4077uBlDbjxJGT/ATSPe9zjmlfMVrL5xgEskMkCtZBO3lZAHpAI2tmgxjxAm33kIx9pnljsXbk+JRWnm//7qgVdIYTKqHxYpc9W0mm4T+bKS5Ka4u1vf3v3p3/6p+1zok1sFCTVTzRdua4bdWUA1sDKexkLeUHVDXA+KFbITMYqQfboLfMSGrgRNqg4L0QrK095ylPaQN6HV9q4v3pXBo1B25a5ErFyI5a4erFVvKEfS7irhIYMNAYEIwwwMIhe4QpXuNTtlloVW+mK2Xvf+97uCU94QhvUlfH4xz++JfJWl3wuhm7xzVuetueJ9/nPf74ZsXIVSHoqhNDnKUcUiAJRIAp03Uc/+tH2TpRXx3tTjlULURbAcgynACAj3OiFL3zhpWyRghZl97BVeNzw6HjgAx/Yvm51q1s1KLOW8MrTWviT90ouHykhjKP6woEHHtgWg4yjK7XPJlGz7Fz5f4Vi2U3YM++8884tQbZd9sYdNrx60Yte1L3rXe9qeZ94Jx1xxBHdgx70oDXXbJLnmvScxTywKp8VUAecWNxm54JRInLsWA/g8dDiiXbzm9+8e+hDH9rmAOxfnlcAVu1MWHmvkrx90pa59Hk8244++ugGe7UbWChHGdgbgLVyXTfqygCsgZXnFvqoRz2q7UZoYJGbwJeXWQDWwGJvwuIALEbD+9///gVX6j6I6UOsfvX1D4O/3Ba3ve1t2+C11FEGyWoME0bDaaed1lnRtWomySSIthg8WuxeZcBMC5x8Pt7znvdcAmA98YlPbDnj1KGOlZa/CbtHqjRGgWrf6o/yBgJYIKoV5P322y+6RYEoEAWiQNe1DYJ4pQqH8e606YVxc9yiUwRbuQIAlsmtMLzRY9Szqr9YCVrd/va37/bdd98WFqZdJrGNqow+FJu09jx7ePR8/OMfb3l+JPRny/EGK4A2ajOOs+dWak+6DsCy6zqY5rjnPe/ZEmaPA1jO5/lvsZJHjLHfIr98rODfJHq5x2h9x/3uvEnK67fhpNdUHVzrGQAqoApsAhH9TRgqiOW7duJtxb513imnnNJ96lOfahE7wJY8WOYBNKuIjAJYFrYTOjjpJ2L8ecI3a86hzUS/gNR77LFHANbqpN2QqwOwBpb9i1/8Yvfwhz+80XUTdOFYcrrUIDb6kpzmRTlwVVPcwApo2wJYvJr8blACNIUIGoD0Cd5OjKOvf/3rzX3aZN3fDVQMHiuqvLKWGnT7/ahWgMpQmcZdnJegVQl1MmD2B8k+QFrKqKotnKfty8p897vf3YzvyoPFAwu0GAewpi1/4OZNcWukQPVlfVDoLQ9A3gUMPQaufC85okAUiAJRoGve3XYeNCn27rRzq7QV2XFu2N4xCrAsKoIrQtz6IAGIYMOBEVIiVE4oAMdinJ3OJvHCqnGQPVXlL7d414dSnl7uVV/C19iTjrp3lTsOZJVtVbak7/0F90nqz56V52kUYFmQ7R91fwDLhi0FsITAAlgSz4+zffs2b/2/6tuPcOhfW7bppABrHMRa7tqqA/tF2GmFULL92dY+p2Xf0rHSiIBZ+g2nB6GEgPSNbnSj5g202267NaCnbJ59vgKwVv/5BhiPPfbYtuujg9ffa17zmrbZWjywVq/vepcQgDWw4gYxg5yXlkN+Al41ZVwEYA0s+CYqbhzA8oJ805ve1JIzlhHAwDHQGegNXly/K2eaQU+fkZS1DJClHrESjVrdca9atZlmJa1vJI3CMPd2D3/vhzb2yzcQ6+8GcO7q1deXG/iVXSGEBn0HQxzAkkvCUYZU/TxJmZuoS6QqUyig/whrFULAuDVhYOB6f+aIAlEgCkSBroX8W/Sp5OKve93rWtj1cl7b0W46BQAs+XGEEDrYNhYXLVADCgVN2HJAhVxHJsO8oNgt7CDpEXghLWfLOZ+dxQ7iQeVegE4fIo2zffpQapy9NG7hcRyk6dtXwt08j6gAi0jLef2UzcgDC7QDYhw8idi2fQ+svq0pSmUagDVqAypLPX0O6EsvcGg1NiI9QQ62ufA9ZSp7KXu6D7DYwtqQ55W/+65/qFMBKP3KQjd92fsXXnhhC2sTDeH3Rz7ykd1ee+3VcocpLx5Y031ulzpbe9goyGfYYb7kM0vvAKzhdF6vkgKwBlZaEsUHPOAB7cXqsAIjFr0GsACsgQXfRMX1AZYQQr+DSu985zu7+9znPgsGT1XZYGn1zgvUKiqvPcaCOPi3vOUtY0MCaoCU+Bz0kiTSdVbdePlxiZUcntFwhzvcod3fwDluUDdIA0iSSNZKFVggFr8MJy63EpkKW6hBWfiCXVMYbCeddFLzJGN0qdsVr3jFVgf3Z8CoC0Ogf3hmu69YCTF4+8yAeg5JFf/gD/6gDeQFzeQHo1/tTriJmjxVGVAB/UdfsiMM41a/4YElBDtHFIgCUSAKdG3c5IFl0cq4zmuFR0HGx2F7xyjAYksdeuihDTCM7h6tHcq7A+Q699xzW2V4a7F1xoURFizhhc8GY8sBGxYDeVCxo3iiK8PGNn4etaUKrIAmwFnlXmW/WQwU0legTX1OOOGEZo+CKg6Jw4VP2RDg5JNPbmGINlBhT7LBJKh3f2OyfEH953a9RSe7WbuvvL88idhy6mURUihlbS6g7ne/+90bbPV/XtYA1tve9rZWznIeWBUtYNdsuTLZCOxOcy1l09hmWexHz13waSmgpQ14R6k7bb72ta81ryifLXYzkEh3ERRlz5rL9cssgEVTWvAoU6ayhXCKwAD1ODeAfOqs/Np5UD1pz56ng8Vuc0i2NJtIO9C94Fy/PYft8bNfGj3lHTPHcugzQgjt2BmAtfXaPwBr4DbzItp1110XqLuk2La3rYEnAGtgwTdRcUsBLPkIHKODqUFZnwGOGDKOu971rm0QlMegfz6YZJBjgIBKBkUDYe3g51yDHePH6o1wRCsLgJTVwNF7VxLNI488ckFFOxNKvlneVla3GMi8otzfIecGA4nhwWUekDJgO1xngGf4MCIY2oyvWrF0DnDGK83KJs1oUFsvq6OBuowC14EYdlnKCvMm6uxrUBX9QJ9kVDPm9QNJXmvL4zW4ZYqMAlEgCmwpBY455pg2rtZ4bPw2Sfa+zDGcAuM8sF7xilcsAKzRO7FZgCu7jvPy8Ltk3aCO5O7VPv5uIg2aWEC02GncKzuqQhBrJzu2lN38TLItSrLv2EnlfaUe7DSLoMZLB/vMwiiI1U/6zWYzH/FsyvjDP/zDFq72jne8ozv11FNbsvGCL8pRB7ak+yoLxOlvFuBc3kNAVG1cVXbmaNghG1TybB5pjgohnARgsXHZmrTyZeGTXrWoWh5ObE8QywIq0Gjhs3a0HtdedLcYzKYG8Ty/z1W1gWdgU4OXt7jFLdrnjl0LbLlnLfRqUwDzqKOOaht3gVnaG8ADl0ETO9T39dUnpEtQV3auZ2E/W/Ttw0r1L4CVBO6r+3z73AG9oqQcPks+NwFYq9N1o64OwBpYeR4pAJYXuxec1RgDRn/wGr3lalxeB65+iluFAosBLLusGEgdo23tGgM548BKncOKF0PJSlKBJ+dJPqg/8XwqI2hcme5RK3MMDwDIoDvqxm7wBpEKYLlGQndGSh9gvf71r2+ehBXbz0uK8WAwrvvXPRlV5fHlu514rHAYyJXvc2CV8Y1vfOOCa74yDCz9sqoZygtHIu8ArFV0zi1wqb7js6D/MYb1Hwb5c5/73C1Q+1QxCkSBKLD2CsgbaSLNS8YBAABY67V78do/4ea4wyjAEvIlpBAYWSwk0KKi8coCHZuIF5WfLUq6hj1jnJM6QqoI8AT46NtsBUbYRLXg7Tr5kZ71rGc16AGg9A+2mIm4XaXLQ8eOhEJN+9CDrQewWPhUtnI8Fy/+ssEqV2uljii7jDcRW7KfL8g8R3/0LMbssjv7cK3qyZa1W+bLX/7ydt6kAEtZwKBnEwlQHl51r7Kp63fP6xy7+dFLuNio51ql8ZCfWP3pUcfo81cbVHvaAdSXHFXO7XtgAWFsVQBLPXj4gFNlK7tHlQcEyg/GRmbrg1b6C6hSERH6jN+V0ffA2hyfkK1VC7rTFcDafffdW+UDsLZWG47WNgBr4PYbBVi2kZWEOABrYKE3YXHLAaxRt2OP4IWqzwgztQLmHG7WjB6gyADJSBBmxwuKt5bfDchW96wK+W4wZHBZRZJHyFbGyrZ6xAOK0WBA74cZTAuwasVXnZRjpYsbNMPGYM49uu5fBhLoJORw//33bwYYjZTDgONuzR3c6lR5YakjF+qCVe4F/lmBXG1+g03YZVKlngIFsHgA8sDS9gxjG2HkiAJRIApEgW5h4xPgIwBr7XrESgCWxUXjFQ8sttwNbnCD7qMf/Wizfdhs7B9e9K985Sub5xJbCOjg5WQXaLaUUD3Ag8eRkD6gh3eO623uA+TwmmLblQ0JQFkUtOAzKcAqe5Qtx8uLLbfDDjs0W04Yo3C6s88+e8GWdH+eKwAd8FKgCFwCBdh/Fmv1S/YcTyK2XOUzdT1bVBmTAKwCQxY8PbMFXG3iUKaFXvVQd4ur6sGGBtIAJPDH/UAqERD9NC7CJC0Sg7+Vs4sNLVRQxAKQpAxhjspljwhVZJOIjOBJZrfx8kYrD6w+wCoQSSfllb6gCX21mXqoO1va37W9cE314HkF+vmqJO4JH1z5570AlkV6IZoFsCywC2tNCOHKtd2oKwOwBlYejPDSNuD4QHCXlZA7AGtgoTdhcdMArAqZ48lkVY+XkwHNAGkXlje/+c0LObAMokJR3/rWty6s1tlul9eWHUv6q4EGe/kIjjjiiGZQ1O6GdvezGsWgKrdnAIthMKkHFmOrVrncX1ifpJ1WmdRbn2d0yd8lzEGooPtb4Xvta1/bnqvqyiXcih93cIaA1WRGj4EEtDDg1+Gzs1wizU3YHVKlKRXQV+Sf4C3Y98AKwJpSyJweBaLAzCoAfJQHFhszHlhr09TjQgjZajyQxnlgATfve9/7mrc68ATYVA6s8qQHQQo0VRgfKCWUj2cXu8d1bCO2obxMbEM5sthH7CyTb6DKYh9bzrg5LcCqDQCUd+Mb37h5RvFKAYPYW+7PfgNkpJAA0fQ1UOUFL3hB80ACXBzO9ezsTWUAQupk0dGiK+/7Ojwb7WoHPh5di4UQsjUrt9fTnva0Vh91ANme/OQnN9sX+CmPKfanDQ7o/41vfKPd0v18VtQZ9HK9BWCLprzTKqqAJ9qjH/3o1g5AoqM8vewsz/Zmq5ZXnHbVBtJ0FJikwSjAUjfwkv2t34CD2kwdQDEhpBar1aNsdeFsns+5BbG0yWK5bNem989eqQVEP/GJTywALPoCWH/0R38UgLUFmzwAa+BG41UCYHnR9QFWuXeX+2j/tgkhHLgRNqi4PsAykBqQDIwGKKCncgLoGwAOIAR4GnCBHwfPI1CJx5IVNudxceahVTtbiscHuIRaGTz7uQb0JeX7P+MAEFAvCSEPP/zwNoi6h7oZQOUumBRg1WBv1UkyU4O9lSEDfT//hpU7BoPBuZKzg2dCaQ3K/VUk5zAkKu+An+lRxka/KQuebVDz5rZrrID2ZfzadlyOC/2akSinSI4oEAWiwLwr4B3JHjBOlgeWfJkJIRy+Z4xL4m5B2i65fU924IRtxFtJGJ/8pOwegEc7uYadxpY7/fTTG/yRD4kdxJZjKzmvgNCop/6nP/3pliO1rmHLPfvZz26haibgDkDKRHzSEMICWBYfRYgIK+yHJdZk3+KpZzrkkEMWBAba2Gjbb7/9JXbnswHL3e52tzaGu57N69mlsRh31C6EiwEsNqpoAoualeDcYiiPKnUeTSlR9rcFVFpUblg5piyK8sZiU6gn7eR7pTU9fX5e/OIXt/boz9HKnnYNRwRAUbnKoQNAV5EFowDLM7Ph3Yv96z4FHJXhfDa4xWYalH0NArJ5eGHpN2xrX8l/tfLPeL9NP/WpTzWPPG0LLJsXAYzxwFq5vht1ZQDWwMoDWMBCxTB7gRscCjIEYA0s+CYqbhRgqZrVJjH4XMMrz4HVF8YRLxNGDzdi/YVRJIG1rYcNXvqMcyRNl8/AOQZBMEtYntWyKrNk8LvzeGKZ/Esq6V4GQskkrSAyWtR1Gg8sg3t5YNnBo+9GPgqWuF4DaIyGMmZsJw2oifNfKcDaRE2dqqyRAlZZGZoFsPQhBn6OKBAFosC8K2Cs5YFlPK2NUyTgNplODqxhe8cowGLLCd3j+VReSu4oXYKFwrPOOmshkbm/8yQGOHbaaadm8wgL5E0lrQjvKmUAV+YHEnrXHGE0TAxssggq/6lFTNcZI3m5s6dWArBqB0veUerI7uz3HwBOfSyGfuYzn2n2Zi2GCvG3gMkLqW/7jQIs57FlVwqw3Fs0AbhQ+d6k1wDTQKnRhf+CbtJnCNtkh7KFQQrX8dzyjIAvW5THmGf0PxEOtBiNlCng5P7Sd4CP7Gb3BvDM70QWOAApIZT77rvvwiZe7ilclKdW5ctSJ89Wu1BKu8FLzHd/ky+N3SPKwTV9eBVnh5V9xhcDWCAo2CmaJQBrZdpu5FUBWAOrPwqw5B5C7gOwBhZ6ExY3CrBqQNX2lS+gwvf6u+75m610rVgJyzPgW1lzPQ8tu7DJgeU8qz1WYBkP447+AMed2cBcWzobEA3eFUY4TQ4s5QBYBl6Dq4Fc3oYa4PteYOrFgLBKCNA5eCUKIzToO6qe03hgbcImT5UGVmAUYFlRttFAjigQBaLAvCtQAMuEi+ePwzjPszoAa9jeMQqwqvRRiFC/F8zhdSMptzxJgBdbjn3E3gI3eIBoOx5XFiaFrvVtotHy2YrgCXtKKKH7sL3sbigBuMXJaT2wACx1srjKmwpoGfX8Uif3ZsPxnpdw3r0txgorBH4KDLh2aIAFQLEZeS/xWLLAC/gBWJX/qw8m/Fz2db9NRhdYlcdLC1AEt8Aj87RxcKj+Rgcas89BNe0HLIGRUmCom/oCWDyuKjG/fsDmZvdW3fp19lxsHoCQp51yhZQCbEIky+tq1L4etqfPfmkBWLPZxgFYA7frKMDyshUOFoA1sNCbsLg+wBIv3x/cVbcG0vKa8rtwPDH3vJq4phu8yphxnnIMmlaVnG91hncTI8Lv5enXN66q/NNOO23B8PB/K4e2VhaixdiV12DaXQiVw+jizVWGWdWhbwAwtLhBG5QdVsysFMu3EIC1CTvvJqlSH2DpT2BpANYmaZxUIwpEgQ1VYBzA4mXd3xluQys4QzdfCmCNQhGPDUjxpLILOXtO0m5/M44BEzx+eMpJscDDCTQSviRpdx3jdu/zNzmdLGRa8Kt78eYSbsajfiUAS73kWuLZJTRv9PCM6im9BaDC809dpHcAgGyusxjAUpYF2dV4YAmp430thFE9pJ+ocLx+yop+vZfzUFJfOaYqvQUQKDwToKsF58W6sPxloiF8+dnxzGc+s12vbuWBVQCLjW3hlt1rgbqO0qzupywhkRamlWFTJlCRje0IvBrmpVK6m5PUrvC8Knlg8WiNB9YwOq9nKQFYA6sdgDWwoFuouHEAywvSrit2FKzDgOTvcg4wBnhE2U1QeODoAMxNnJFRLtS2UOa+bYcXxsQ4Q6rKEJpoFVDCSgd4xKCQBNSq3TQhhNzMeWC5J+Nlr732aqtOixkM8jUAD7Y9dng+AzRA178mHlhbqIOvQ1UDsNZB5NwiCkSBLalAH2BVCCEbgSdNjmEVGAVYleKBHcV+KrjAlmO7SSjOLmPjVLLusnUAGPmchJJZjHQIA2TL8YwfZ8f1n4a3EIAFWjl4DvEaYoexI1cCsNxTcnRhcMobPQqwyNPkXu7tOUAfOZvkEapzKrdU5cBS1hAAi/3KbmR3spPBIgnnF/M2XA5gqZfPSuWotaMgL29JvJc7KjUGqEZv9wKr5OSye6D/g8m87IAodeSBxwMLZKyjD/387DogTJgoO18fkrIDaHNM8kzL1T3//x8F6H388cc3yOznAlg8+wKwtl4vCcAauM0CsAYWdAsVNwqwVJ1hw+uJ51TfHdjgxmjgCj2anLHv/gzwGMTlTPB3Xlq2/7VKUy/kcRKpCw8rBopwPgfDirHC8GCATeOB1QdYdmQpgLVY85x55plt9WwlAMtqH7CXlact1PkHqmoA1kBCppgoEAVmToEArPVr0lGAxVvepje8niqBOJusdknmke73xZJtn3POOc3bCsACZISXidBgGy4FKrS5XKIAFu97v7MdeQLx6OI9tRqABU5VSF5f3YJqAJaFz9e97nWt3usJsEQfCMuTuoLNy1PK32pHvoJB04AeAKsiJMAiuxwL4asQv1EN6ndQSugk4FU7SIquAZ/kIlsJwFK260CwAKz1+WzzwArAWh+t1/ouAVgDKxyANbCgW6i4cR5YVsesynhh1iA7uqIybhCuv33oQx9qIaiVOFL4HyOGq3o/FLFkqr/5Xd4sg+vnP//59m8hhIwQhpPzJOWcNIRwNQDLvW5+85u3lbTaorjqC9DJ52HliXFkJSQAawt1+oGrCmBJeitkQr9hLPrKEQWiQBSYdwXGAaz3vOc93Z577jnv0gz+/ON2IZSQW7hmf/fnvhdS37umX6HaUc+1FULIK195PPRHvT/6Hll+Pu+88xrAYg/6HUCzezQgJkxxLQBW1X9SgCVEUuJ6Gwg5VuuBBRjxRALq2IcAIu8m9sBiIYTLdQLaaQMAS5vwlJNEn7Zln/ft8f7PFpHlgrUgrT7azHWgGjtffdn6vLL8fzEPrH4dlS+8lGfZOIAV76vlWnT6//PAEtpZHljCeOVBiwfW9Fpu9BUBWAO3QADWwIJuoeIWA1hyB/QB1jSPBELxZLJ9b7lRA0F2TKkE6uPKcy7QJb8BGGDAZ1zwnrJa5Nr18sBaCmAxvu0yY/CnXwGs2q1wGq1y7tZXIABr67dhniAKRIG1USAAa210HVfqKMCSxwhw4sEj9GgUMvUXD8eBB4uQYIfk66CFMnjTs3/YZ66p6/q5sITt8RoBS04//fRWVd5IvNt51bt2IwGW+oE1cmVJ7A5g0Ya9ybtrpbsQCpFlw9KMfSiEU1gdzfoheaNtpz5lT9KTlrR2vUMy/COOOKJpxpON/iBZPyVGgas+wPrBD37QNi/6+Mc/3tpPHXjQyZ/k+d2TrQ+yDQGwHve4x61fZ5+jOwVgzU5jB2AN3JYBWAMLuoWKW8oDq5IGLrei0h84nQsyMZpe9apXtYHYaht35wMPPLCBqNEk7uTyt29+85vdc5/73LZix0XZip3BlycVd3FlT7ML4Vp5YMnfwYBQR3WSi0ACy9oeOmGEW+gDMEBVA7AGEDFFRIEoMJMKBGCtX7NOA7CWq5V2A0x42VhU9LOD55wQNt7xfQDmf2Urfve73239oIT4AAAgAElEQVSJzHn+SGzOlmNP2qFPqgXnbSTAqrrahbAPsHhgSVmxUoAlbPATn/hES2ZeIXu3uc1tWpn3ute9LpUbCrhyXHTRRW1nTsnR/Y3NLPWGPKy0smjKi4tXG/tSRILQ0J133nkBclV7ln1t10a5ZHlKAXTKsYgstNJ12pcNG4C13Cdh4/8fgLXxbTBUDQKwhlLy/5XTB1hejlYgsgvhwCJv0uKGBFj1iMq0ba8+ZGB2GJAlUr/3ve/dVpD6O1wacK0EgV4ShBr4Hdttt127Rv6rOn8zACyu3ICcJKXqxdCwGia5ZuDVJu3oa1itAKw1FDdFR4EosOUVEKYk7L6SuCeEcG2adDmANW735aVq4nx5sOQ0PeWUUxoE4fUDgvA8l0OrvyDJ9mPLSTguR1LtRC1ZPIizxx57LOTiYj+BXMBMeXLZLbpCowqGCTsUMgfIOORINUepnF7j6r9cCGGVzQOLfWnxVN3tPM1DCcjqH+W5xv4EjiSE//Wvf9126pNj6sEPfvACnFKmZzj55JNbHizeZjyc7E7MA6psxPIC81zHHnts09jhXqBa7YboPDra9c/npnKY2TWSZ1c/96pr3VOb2NHbZ+7CCy9sdaXXU5/61LZIvO2227Z6xANrbT6HQ5cagDW0ohtXXgDWwNqfeOKJbXXAyy8Aa2BxN3lxywGs5byvxg3y/sZ1mcFicBeH75BLiju1/AkgFhdmBi2jgGu53FJ2IVQn8fkMIK7O17jGNRZusxkAlhW2Aw44oOWFYCjIC8HYuNWtbtWMFZ8h9Zf/YBr9NnlXSfUWUSAAK10jCkSBKLC4AgAWr2VhTI7sQrg2vWWxHFhCCAGMaQEWW0yZdqUDbkAnNo3d9ZRp8Q5A4SFvx2eJ26WOkPZBfinXA1524RNWZ5GvvLbYesLiXvSiFzUx/B3AsjjoKNCzFgCrwh3BHd5Sp556avN8ApgAHs+l3mxUfwN8HKILlgJYFQoohytYpHz3otGjH/3ozo7cNKi2YBt/6lOfap5q559/fntmCe4r8XuFHbKTP/OZz7TdvS0KK5ONyZaWFF9+WW0AXikTbNRmvoNX7FJQTKSAnSRL2/LAAgX9vNocWAkhXJvPdQDW2ui6EaUGYA2keoV+lQdWDSJWIHjPZPI9kNCbuJg+wLJq5ncDqF1UrEyttA8YyL/85S+38D8DdIXbKXv77bdvA67VO6DLwM2YYQD1B2bJMK3c9b2aNgPAsrW0xJhcvtXXoA9i7bjjjs3YYfgwVmrnxE3c/KnaAAoEYA0gYoqIAlFgZhUYB7CEoq3UvphZoVb5YEMDLNVhE7LRXv3qVzfPI2FubDKLkGw5do+d8YQNyl0K2ggbBFOAGjsW8j6y0YlE8nVcfPHFl/LA4pHFE6mfW2stAFZBNMDtZS97WffGN75xYddsC6bydNm5EBQSNWDhtVJY2LBnMQ8sWrEJeVWJKLABkfA9eolCuPGNb9xCL90DlLIICp6ph+vYjw95yEPa4u0tb3nLS+QXY2fIrwV2AWkO+irLuVJY0J0HGA80sFEbuLcwRnO60Z24eWCByQCj+kwCsNwXiJYSZDSJewDWKj/Ai1wegLU2um5EqQFYA6jez1t00kknNQ+sWvWoEMIYFwMIvcmLWCuA5bENnpJHMg4k9GT4lEFUsLT6YfU1g7FVJatXBvrRnVs2A8Ay0L/vfe9riTUZElX3ehbJN+WMkL/LzzlmW4EArNlu3zxdFIgCq1MgAGt1+k169VoALPcGV77yla+0vKbyKoEytXhXXl3sn749J7zubne7W7ODQCy2EEBS9pIcWHZT64cQTgKwnv70pzfv/iFCCHknffGLX2zheRZcq/7q6QCweD2ZEzmAIYuyfYDFvuWx1U9mX+d6HpEF7Na+95ufHe7jZ/cFr9i+vPvBvtHDeTQDxkAn+bv8rdqhbOuKpPGdRvJeiWTgMTeaSL4AFmgISgVgTfpJW9/zzJ9sqqVNfY6yC+H66j/k3QKwBlAzAGsAEWegiKUAlqSbq8npVPH4Vu94d33yk59sq3Pi+XloVV4Bg6x8V4DV7rvv3rZZvs51rrNw7z5I3QwAS7PzGJO3wBdXeStoDADGBOgGYHHLDsCagQ/JMo8QgDX7bZwnjAJRYOUKBGCtXLtprhwFWMLMAI9HPOIRDWaMLhhOUzabTfiaHQnZc3Jj9e0edhoPK55L0kXstttuDcjc6EY3arZc36vKffsAy+/+z7toOQ+sIQBW6eC+Qu4stNop246JPMPsyOd5eZkBWKJS1A/AEoa3FMAqTV0P9PGekbvqjDPOaHpZALW4W6AJ6Lv5zW/enAiAsFvf+tYLeo22j2vUT9QM2xN80ybqW4CM/SnkUVSAXRXlypLewrOMOiX0ARaYp520m/DDpXZNjAfWNJ+c1Z8bgLV6DTdLCQFYA7REANYAIs5IEdyOGSVWdBygCzfmHXbYYRAXfwOrwdEKVwGs733vey2BpJBCXldyBBhkuaP3twbub82sbgw0uQAYT3Vwi+bKXoOzciWw/NznPtfuq68DYwBZrayNazpQStnc4JV1tatdreUsYJCNO4RFnn322c29nrt234iwy4udYkY9yGaky+QxegoEYKU7RIEoEAUWVyAAa316B5tE3iNRFWXL8dywmx24VIuGq6kNeMH+8gXQWJAEo9hLYAx7DsAS1gaaOMbdl52mrpKdO9hc0i7wGKrffQd+jjvuuIU0FMLhnLeUbSWEj/135plntnurB5jGvqwwv/7iLKDENmU3suVqN0D3AJTcz6Fc8Ojcc89dAFwPeMADWsjh6FHPzAYVKug5pMwAsUAo3l3sX2kyaCWBPMg4SeSL+grZFH7Ilma7KpPtrjw2K4DFBr3iFa+4aJnqxrMOwAPc3JtGktIvtfjqXNewf9UF7ALLtE2O4RUIwBpe040qMQBrAOUDsAYQMUWsSAF9j5FgJUpeAF+r8fRaUSVyURQYSIEArIGETDFRIArMnALG+9qFsJ/EPTmw1r+phwBYVevyorcA6gsoYcuNelot9pTj6jJk/Sa576QeaZOet1SLVqigXK++ACJgzfdJoNVSz2Px1OKuxV9QLAun6//ZWss7BmCtpbrrW3YA1gB6B2ANIGKKWLEC62GorLhyuTAKTKFAANYUYuXUKBAF5kqBAKzN09xD2l19T6aVAJgh6zKNwv37TgqmJj1vmnrk3CgwqQIBWJMqtfnPC8AaoI0CsAYQMUWsWIEKDdwoI2bFFc+FUWBEgQCsdIkoEAWiwHgFArBms2f080h5wtrZr773n3olgGs2VVvbp+onil/bO6X09VQgAGs91V7bewVgDaBvANYAIqaIFSsQcLVi6XLhJlMgAGuTNUiqEwWiwKZRIABr0zTFulSkD7YCrv5H8vXy4IpdvS5dfN1vEoC17pKv2Q0DsAaQNgBrABFTRBSIAnOvQADW3HeBCBAFosAiCgRgzVfXCMCar/bO0669AgFYa6/xet0hAGsApQOwBhAxRUSBKDD3CgRgzX0XiABRIAoEYKUP9LyNiBEPrHSJKLB6BQKwVq/hZikhAGuAlgjAGkDEFBEFosDcKxCANfddIAJEgSgQgJU+EAWiQBQYXIEArMEl3bACA7AGkD4AawARU0QUiAJzr0AA1tx3gQgQBaJAAFb6QBSIAlFgcAUCsAaXdMMKDMAaQPoArAFETBFRIArMvQIBWHPfBSJAFIgCAVjpA1EgCkSBwRUIwBpc0g0rMABrAOkXA1hi1g855JBu//33T/z6ADqniCgQBWZbgQCs2W7fPF0UiAIrVyBJ3FeuXa6MAlEgCgRgzU4fCMAasC1/+9vfdieddFK38847t1Ivc5nLdC9/+csbwPJzjigQBaJAFFhcgQCs9I4oEAWiwHgF2JhHH310t/fee3e/+tWv2knHHHNMt+eee2aRNJ0mCkSBKLCMAgFYs9NFArAGbMtJAFZ/W9y6dXYXGbARUlQUiAJbVoEArC3bdKl4FIgCa6xAANYaC5zio0AUmGkFArBmp3kDsAZsyz7AAqp4XVUIYXlgBWANKHiKigJRYKYUCMCaqebMw0SBKDCgAgFYA4qZoqJAFJg7BQKwZqfJA7AGbMsArAHFTFFRIArMnQIBWHPX5HngKBAFJlQgAGtCoXJaFIgCUWCMAgFYs9MtArAGbMsArAHFTFFRIArMnQIBWHPX5HngKBAFJlQgAGtCoXJaFIgCUSAAa6b7QADWgM0bgDWgmCkqCkSBuVMgAGvumjwPHAWiwIQKBGBNKFROiwJRIAoEYM10HwjAGrB5A7AGFDNFRYEoMHcKBGDNXZPngaNAFJhQgQCsCYXKaVEgCkSBAKyZ7gMBWAM2bwDWgGKmqCgQBeZOgQCsuWvyPHAUiAITKhCANaFQOS0KRIEoEIA1030gAGvA5g3AGlDMFBUFosDcKRCANXdNngeOAlFgQgUCsCYUKqdFgSgQBQKwZroPBGAN2LwBWAOKmaKiQBSYOwUCsOauyfPAUSAKTKhAANaEQuW0KBAFokAA1kz3gQCsAZs3AGtAMVNUFIgCc6dAANbcNXkeOApEgQkVCMCaUKicFgWiQBQIwJrpPhCANWDzBmANKGaKigJRYO4UCMCauybPA0eBKDChAgFYEwqV06JAFIgCAVgz3QcCsAZs3gCsAcVMUVEgCsydAgFYc9fkeeAoEAUmVCAAa0KhcloUiAJRIABrpvtAANaAzRuANaCYKSoKRIG5UyAAa+6aPA8cBaLAhAoEYE0oVE6LAlEgCgRgzXQfCMAasHkDsAYUM0VFgSgwdwoAWHe84x27Cy+8sD37wQcf3B100EFzp0MeOApEgSgwqkAAVvpEFIgCUWDlCnz605/udt111+6///u/u8td7nLd4Ycf3u2zzz7dNtts0wqt7yu/Q65cLwUCsAZUOgBrQDFTVBSIAnOnwCjAAq9ArBxRIApEgXlXwKTrqKOO6vbee+/uV7/6VZPjmGOO6fbcc89MvOa9c+T5o0AUWFaB448/vttll10CsJZVavOfEIA1YBsFYA0oZoqKAlFg7hQIwJq7Js8DR4EoMKECAVgTCpXTokAUiAJjFAjAmp1uEYA1YFsGYA0oZoqKAlFg7hQIwJq7Js8DR4EoMKECAVgTCpXTokAUiAIBWDPdBwKwBmzeAKwBxUxRUSAKzJ0CAVhz1+R54CgQBSZUIABrQqFyWhSIAlEgAGum+0AA1oDNG4A1oJgpKgpEgblTIABr7po8DxwFosCECgRgTShUTosCUSAKBGDNdB8IwBqweQOwBhQzRUWBKDB3CgRgzV2T54GjQBSYUIEArAmFymlRIApEgQCsme4DAVgDNm8A1oBipqgoEAXmToEArLlr8jxwFIgCEyoQgDWhUDktCkSBKBCANdN9IABrwOYNwBpQzBQVBaLA3CkQgDV3TZ4HjgJRYEIFArAmFCqnRYEoEAUCsGa6DwRgDdi8AVgDipmiokAUmDsFArDmrsnzwFEgCkyoQADWhELltCgQBaJAANZM94EArAGbNwBrQDFTVBSIAnOnQADW3DV5HjgKRIEJFQjAmlConBYFokAUCMCa6T4QgDVg8wZgDShmiooCUWDuFAjAmrsmzwNHgSgwoQIBWBMKldOiQBSIAgFYM90HArAGbN4+wFLsZS5zme7ggw/unvzkJ3fbbLNN+2KA+J4jCkSBKBAFLqnAj370o+6+971v9+1vf7v946CDDmrv0BxRIApEgXlXoA+wfv3rXzc53vCGN3S77777JWzLsjHL7px33fL8USAKRAEKnHTSSd0ee+zR3peXu9zlusMPP7zbZ599FublmZ9vnX4SgDVgW40CLB+E613vet21r33tAe+SoqJAFIgCs6nAb37zm+6ss87q/vM//zMAazabOE8VBaLAChXoAyzvSsdNbnKT7ipXucoKS8xlUSAKRIH5UeCnP/1pd+655wZgzUCTB2AN2IjjQgireIaHrxxRIApEgSgwmQLxwJpMp5wVBaLA7CswGkLY97Tq25p+jr05+/0hTxgFosD0ClQ0VDywptduM10RgDVga4wCrH7IYIyJAYVOUVEgCsyFAgFYc9HMecgoEAUmUGA0hHBcuEtszQmEzClRIArMtQIJIdz6zR+ANUAblsHgu/jae93rXgurX9e61rVWFUKYeNwBGihFRIEosCUUkNflnHPO6So8JgBrSzRbKhkFosA6KDAuifv222/fXf3qV1+wOQOw1qEhcosoEAW2pAJCCC+44IKEEG7J1rtkpQOwBmjExQDWZS972e5lL3tZt++++y4kcB/gdikiCkSBKDCTClx88cXdXe5yl+6b3/xme74ArJls5jxUFIgCK1BgHMB65zvf2ZIS2zQoRxSIAlEgCiyuwAknnNA2CooH1tbvJQFYA7ThUgDrkEMO6fbbb7/sPDiAzikiCkSB2VbgX//1X7s73vGO3YUXXhiANdtNnaeLAlFgSgXG7UL47ne/OwBrSh1zehSIAvOpwPHHH9/tsssuAVgz0PwBWAM04mIAS/jfoYce2u2///4BWAPonCKiQBSYbQUCsGa7ffN0USAKrFyBcUncAaw999yzFZqUEyvXNldGgSgw+woEYM1OGwdgDdCWS+XAOuywwwKwBtA4RUSBKDD7CgRgzX4b5wmjQBRYmQKLeWABWIFXK9M0V0WBKDA/CgRgzU5bB2AN0JZLASweWAcccECMiwF0ThFRIArMtgIBWLPdvnm6KBAFVq5AANbKtcuVUSAKRIEArNnpAwFYA7RlANYAIqaIKBAF5l6BAKy57wIRIApEgUUUGAVYvK6OPvroFkIYD6x0mygQBaLA0goEYM1ODwnAGqAtA7AGEDFFRIEoMPcKBGDNfReIAFEgCgRgpQ9EgSgQBQZXIABrcEk3rMAArAGkD8AaQMQUEQWiwNwrEIA1910gAkSBKBCAlT4QBaJAFBhcgQCswSXdsAIDsAaQPgBrABFTRBSIAnOvQADW3HeBCBAFokAAVvpAFIgCUWBwBQKwBpd0wwoMwBpA+gCsAURMEVEgCsy9AgFYc98FIkAUiAIBWOkDUSAKRIHBFQjAGlzSDSswAGsA6QOwBhAxRUSBKDD3CgRgzX0XiABRIAoEYKUPRIEoEAUGVyAAa3BJN6zAAKwBpA/AGkDEFBEFosDcKxCANfddIAJEgSgQgJU+EAWiQBQYXIEArMEl3bACA7AGkD4AawARU0QUiAJzr0AA1tx3gQgQBaJAAFb6QBSIAlFgcAUCsAaXdMMKDMAaQPpRgLXzzjt3/rbNNtt0hx56aHfAAQe0n3NEgSgQBaLA4goEYKV3RIEoEAXGK8CuPOqoo7q99967+/Wvf93syqOPPrrbc889Y2Om00SBKBAFllEgAGt2ukgA1gBtGQ+sAURMEVEgCsy9AgFYc98FIkAUiAKLKPDb3/62AasArHSRKBAFosD0Cnz605/udt111+ZkcrnLXa47/PDDu3322WdhASDOJtNrulFXBGANoHwA1gAipogoEAXmXoEArLnvAhEgCkSBAKz0gSgQBaLA4AoEYA0u6YYVGIA1gPQBWAOImCKiQBSYewUCsOa+C0SAKBAFArDSB6JAFIgCgysQgDW4pBtWYADWANIHYA0gYoqIAlFg7hUIwJr7LhABokAUCMBKH4gCUSAKDK5AANbgkm5YgQFYA0gfgDWAiCkiCkSBuVcgAGvuu0AEiAJRIAArfSAKRIEoMLgCAViDS7phBQZgDSB9ANYAIqaIKBAF5l6BAKy57wIRIApEgQCs9IEoEAWiwOAKBGANLumGFRiANYD0AVgDiJgiokAUmHsFArDmvgtEgCgQBQKw0geiQBSIAoMrEIA1uKQbVmAA1gDSB2ANIGKKiAJRYO4VCMCa+y4QAaJAFAjASh+IAlEgCgyuQADW4JJuWIEBWANIH4A1gIgpIgpEgblXIABr7rtABIgCUSAAK30gCkSBKDC4AgFYg0u6YQUGYA0gfQDWACKmiCgQBeZegQCsue8CESAKRIEArPSBKBAFosDgCgRgDS7phhUYgDWA9AFYA4iYIqJAFJh7BQKw5r4LRIAoEAUCsNIHokAUiAKDKxCANbikG1ZgANYA0gdgDSBiiogCUWDuFQjAmvsuEAGiQBQIwEofiAJRIAoMrkAA1uCSbliBAVgDSB+ANYCIKSIKRIG5VyAAa+67QASIAlEgACt9IApEgSgwuAIBWINLumEFBmANIP0owNp5550XSj300EO7Aw44oNtmm20GuFOKiAJRIArMrgIBWLPbtnmyKDCvCrARff3sZz/r/vf//t/d7/zO76zIJvztb3/bHX300d3ee+/d/frXv25l+H3PPfdcUXnz2h557igQBeZTgQCs2Wn3AKwB25JxcdJJJ3UAFmOFcRGA9T8C9yEfXQL0Bux4KSoKzIgCKwFY9a6dEQnyGFEgCsyQAmX7fOtb3+re/OY3d9e85jW7PfbYo7va1a7WXeYyl5nYFqpyjjrqqACsGeofyz1KtbvzzDHGHdP0o+Xut5L/F6BVj/U83Lc0qXnFUnOL/jxkknpmrjKJSlvrnACsrdVeS9U2AGvAtgzAurSYVgkvuOCC7thjj+0uuuiibqeddup22WWXZsRd9rKXHVD98UVpk/UeVNf8oXKDKDCjCqwEYPmM++LVkCMKRIEosJkUMGn+1a9+1f393/9996pXvapVbdddd+0e/OAHd3e/+927K1zhChO9uzYzwCqA4dkKIGSRcrhe2IdY/VL7izcbpfcvfvGL7sQTT+w+8YlPNK/A+93vfs3G/93f/d3hBFikpNGF8X7/61/Sh1zTVIqmWSCbRrHNf24A1uZvo0lrGIA1qVITnBeAdWmRvvnNb3aHH3549453vKP793//9+6GN7xh80q7973v3f2v//W/JlB15acYTP/rv/6r3ccgBGQFZq1cz1wZBdZagWkB1m9+85vuJz/5STOcr371qzcovlGG/Fprk/KjQBTYegqwQU455ZTuuc99bnfyySd33ln/5//8n2YLAVlPeMITupvc5Cbd5S53uSXtk60CsAoi5D08XF/9+c9/3vqNPjIKsGqR1gLOei/iuPc3vvGN7hnPeEb3mc98pi0kgVfPfvazuzvf+c5rOhaX91Uf7i1m47MP6DeNR1VBWd/BuMwdhuvPG1lSANZGqj/svQOwBtQzAOvSYn75y1/unv70p3e+08cE88UvfnH3pCc9qdt2220HVP+SRbmXybDJrUHdwH+Vq1ylGY45okAU2JwKTAOwfMa/973vdX/zN3/TXfGKV+z233//7lrXuta6eHZuTvVSqygQBTabAj/+8Y+7F7zgBd0b3/jG7j//8z9b9UyK2UImxbe97W27P/7jP+4e8pCHNBtlMc/0zQqw1Ovf/u3fWn4vkIC95Tnk+grEGqY3fu1rX+vOOOOMS4QQ0lb/AWeMf9e//vUbFNV/2LvrAbPcGxAw9qqj+uy4447dX/zFX3T77LPPmra/vvbTn/60+4//+I+mi2cWlju6MK6OZ511VieE13l9b8HlWse5+vKd7nSnpnGOra9AANbWb8N6ggCsAdsyAOvSYn79619vE0yJRstL4u/+7u+6hz70oQ0mrZWBY8XKfd797ne3St361rfu/uzP/qy7/e1vv2b3HLArpagoMJcKTAqwvEvOOeec7tWvfnX3/ve/vxmtj3zkI7unPe1pzYCOt+Vcdp88dBTYFAoUbDLJ/uAHP9gA1nnnnbcAr/xQts//9//9f911rnOd7i53uUv38Ic/vPuDP/iDbrvttrsEgGBb1vmbLQeWusnt5QusA07YfELJ1trLflM09hpXQl868sgju4MOOmghl2x5A5UXEp19gSzbb799d//737+7613v2qCW/rVWdjbvQilCnvrUpzbvQve5xz3u0bwN73Wve62pMjy//uqv/qr70pe+1KDd7//+73cvfelLu+te97qXuC+4atHcHGQ0B5a+6m8+p31NFybI22zTvCP/4R/+oemaY+srEIC19dswAGsN2jAA69KiWnE0sL3mNa/p/vmf/7m75z3v2T360Y/ufu/3fu9S7tBDNonVwGc+85nd61//+jZAGcwNYr6v1WA+ZP1TVhSYRwUmAVg+z1/5ylcavHrTm960EBogl8yTn/zk5vF5vetdL55Y89iB8sxRYIMVqEkyO4N3yBFHHNEW037wgx80W6SfiLtvi5iEAw6Pe9zj2gIfG8kiX+XgqXw8mw1ggRjSQvzt3/5t83oHUt761re2nRHBkxyrVwBA2XfffRcATHnpVZ9wB+1QXlnGwgc96EFtB/Sb3/zmzdZeK7tXfre3v/3tDRDp2xaSHvvYxzYPvLU8AGHgTP4tesivqx43uMENLnFbXlpCGt/whjcspBLpn0C3Oka9H0GtG9/4xt0xxxzTQFb/s72Wz5ay106BAKy103a9S44H1oCKB2CNF9NLv2L4/+///b/rMrEEsJ71rGc1gKVdrG5aFbzb3e42VRz8gN0jRUWBKLCMAqMA64UvfGH3ohe9aOEqK6Xf+c53GozmXSmvnoNx7nN++ctfvoXjMGytmJZBmkSs6XpRIApshAI//OEP27vqXe96V/Ma5REybiJcMMI763a3u13zJpXk/drXvvYlFvsALHmzgAPXAAdg0VoBinGa9esfgLX2vaoAljuBgne84x1bCo7qMxaKjYXGT3ln9Q0g8VGPelT3nOc8p0GYtczhpD/88pe/bPdl4zvWcpMm9xsFWML8xgEsEBlQ/ehHP9rqBeaxFfRbC2HsCfW+xjWu0d3iFre4RKggfXl0WQznJVnHen7W1r53zdcdArBmp70DsAZsy80CsLzchdiAOMBRJTA34NXOIP0XsP97ycsXVQPila985TYQVS4pL3nx5V7i08TWu149rII4DKpiymsQMagafC+++OKFFSSTUPd32OGEAfijH/2oDYj+7nrnjFyEZVIAACAASURBVBuQ3c+5ynvJS17Sksd7PgahVRju+TWZ9Tz0yGA04IcgRUWBVSgwDmAdfPDBCxO+M888szvssMO6j33sY+0z3g8JqM+xz7Vt6g888MDuRje6UXtfZTfSVTRKLo0CUWDFCnj3sGPAK++t973vfd1Xv/rVZqP1J8R9bxq2jveYJO+77bZbC8eySQWbZzMBLLadsEELhbzsK4TwFa94RfeABzxgIXyNJ5kvNqZFCEflylrOS4tOyvXd+54NWVqAJjUO0IZ9WHlOAQpe//4PUAivo6nvk2z20Yd0tQjLtlQXh3KuetWrtvuNwprRBRPX2IWb3cs7eDQZ+3KdqwCWPuKe7FoQy1GLN+oGyIA4H/rQhxpQUkcLt3/4h3+4YFOP3qvmC2x0ZZgzsIuFsdYOmUslP3e9cVsfr0UkddQelW9KP+mD27Lh/d/f2fjO0RfMU2qOMDpP8bvncs25557bFqm/+MUvNv3lkrNhFH1rrqH+nsUcQ/8pO8B3/RCYAoA9s42lhPoqZ/RzqV7KqGdQD+2uvy01f/B8wKKvurc2MbfyP/3CvZWhX3v22nSKHv/yL/+ycK3/6b8FCJfrM/5f/dBnodrXM5TOyqy+WM8x64t9AViT9JytcU4A1oDttJkAlpeU2HAGkxe3F/x97nOf5onkpV4DUr1gbYFbMeyMA1s8cz0WZ/6e97ynO+mkk5oL7cMe9rAWhjfpAYx97nOf6z7+8Y+3l6kX5iMe8YiWp8ZhkPv2t7/dYsy9yNXT7iXyJ0ha6UuMPYDmxX7Na16zrSYBUre5zW0ulSjUIPq2t72tGYuf/exn24DuMBhbzZTkuXYm5Kovbn4tV4om1SnnRYEo0DVDmGF+4YUXNjl4YAFYPrMmfbai9/lmxJZxPE4374r99tuveWN511RoRTSOAlEgCmyEAjVZ/9SnPtXyYh133HENavQnjAVNqn4gzw477NBCsthEt7rVrVo4kwTZBYLWywNrtG7qKHxLDkIQ4dRTT22T/LI1hUCqPxvPwiH768Mf/nB3/vnnt/cxACCdBLtyMUCiPHlUXScE03v9pje9abvOxNuYIDm+urnXXnvt1d3sZjdrNqPE3RY8jCVgANtPknOLGnKh0tVEfjHPpEr4/f3vf7877bTTun/6p39qicC/+93vtubhsaMsZcqxWh6/dV0BHLY477sTTjihASUhdjvvvPNEEK36QQEsZYJDICg7ufpOwQf3dh9gRnv4u3DUl73sZQs2d5XpWrqcffbZC55IvLdAxitd6UrtfN5/9GQnWzQeB/7ML+Q/0xbGaXY5j0DzDPcAD+3Cqb8XAKIBvWzuxFanLVgDzgij1Xc8nzaq8Md6Vu2pP3g+8wqQ0nOatzzwgQ9cAHVA1n3ve982jxl3qBdP7Xe+853NnpA3jGd3H2DVdf6v3aUsMMdwP59FYZraY9xnw7Wu8xkxv6KNPk8b8xf/e+9739s00K76kv/p47T0fCAdXVwrNJIe5j9sJPddbO5SsMz8i7ann35667vmUfTSlvShNX08CzhWxywv6gdgbcTotzb3DMAaUNfNArA8koHfQGZ7Wy9DL1gGhDwFd7jDHRYMBnVmfPzpn/5pe5Ea0O0QKOG5gdmE0eDH0BLTbuCRe2bSBOxWv1772te2BJRewgZFBkc/lM/L1da75QFmUGCsveUtb2kvXgOklzqDzXMYGA2Sj3nMY9oAAmo5vHSV4e+f/OQn2/0c/ZW0am7PaaUKqFtuBXDALpKiokAUWEKBcQDLuwOIPuSQQ7oPfOAD7TNen/e+Md4vtiZIf/Inf9J2SGKsrWUIRRo1CkSBKLCUAuyQmliahB9//PENRn3+859fCIXu2yv1jvPeYntZfDTBBXL+8i//ciGX1kYArLKp2Idsx/4Evr846meTbMBNwm2AgJcM28wk2u/yFrLv+hCryjPJZwfyImKDgka8brzXedZYoGUDFsB63ete1yCIRQ72L8+X0YUOEIlnGygIJJW3/6i3jwVVAIy3E2Bix9vKX1ZeT9pGnao8eZgK3Pif+oMX6myXPlpI1O952NdLeTb1+1LfAwto6AOsUeignhZ+6KZ8YXH0ANnqoD9Y9Y//+I/NAwmgqx0yq9+pa4WzWnTefffdG1gaPUASQPEjH/lI00cf5YEHGDroKIRPgvWCf+YXgCOAox4F/WqhiYby5bLlAbiK+vB/MExY5Gc+85lL2PZ9jy9tri18TkCsccckAKv6Yell/gO4+V3Iomcylxl3uNZn9a//+q/bAr0DuJIvTqJ7dgzbxDzEc/mbKBHzsWOPPbbN2/Sf/ufJMwpp5FEnPBRY7Ns11dfpqe/zxNO+IJp26B91LnilfX0BZNNE2GzFN34A1lZstfF1DsAasC03E8Aq91QGhpesF6EXE2PDF48kL0YuwwZTCQ6txlSyc8aSwct2uJKQWjlxvkHFC9EgOsmEEMBiVBhQC2AZWN2nVlRAKgaAurgHLy1GiNUC59QKjAHW/2tQMSl93vOe1/3RH/3RggFUAMtLqlyG+wN87U7GIFQPKzbZKWfAD0GKigKrUGBcEncG8Stf+co22asJSRnZi618ltHnPcXYYzBbTY635SoaJ5dGgSiwIgUKXtUEna1oAi2Pj9w8IEktNI6+0wqsVFgh7xgeRmU/bQTAIoL7Cxu0SNpPhF3PyNYqb3cA61WvelXz5rcgwQuLPQpOsMPYY/0Qpnq/sx/taOccmvHkAkNMtJ0PDrHhLG7Sx8/sRt5X/uYe/q4e5bGmXrVrncToD3nIQxrE6u9Cx9ZU9stf/vLmCVMev8qjv7qwNautLIICAbSwKArOOYRtWfA1fgmTK1AhryPAUik9lutU/RxYxjSAozywSqvSjx2tfPd1SPsBeFm4rkPUA7vfglCFYHomZWgLfbMWjGnF20dY/lOe8pT2nH3YxyMJ2AET6ew8bW28dQAnPLTMQ3izOYftTj/X0r3KqzDRGqc9IwhlvkB7533hC19oAAuUGQWnZcuru76ir/GsGndMCrDqHuprMwZzKnMl/UCaEvno6r6jEBQY5AUuksRz6ss2meEtpjxzMXDR/2jCM1DkiL5SutCicnbVc+ivgCL4C3yNgil2lAU/7S6Kpp7BXAocBB376WXUx9wOQLvlLW8503OiAKzl3jZb5/8BWAO21WYDWF5aVpAMAFaQ1M8Kit8NsgYLnkpeola3rJj8+Z//eXshe8k5vFy9tLmhWrlC6f0+6a4mfQ8s9+eBZTAbBVjCG51bE08eXgZ4nlmuMegxTNTXCoyJrBe8FTSDVO0u6JkMcM51H6uc7ltu+Nyh3cNgaIDLpHbAD0CKigKrVGAUYJlc+IxKgswwHzVYlwNYqsPgZ2ALF+gnYl3s2lU+Qi6PAlEgClxKAe+b0UU/fxMiJN0DbwkhUeVh2i9gHNypv4Ff3m+TLCgO1Sz17uRVZHIOhLAxTezVw7vWImiFEApVYm+ZTMszJI+X+rNHhXDxEipP+AJz7DbhlkLI2XT+LywcnKkd7voAS3nsUtfLoQRcCAdj1wIlvHh5ZfGgKXDCk99En61Z17I1AUKTeW2iXACHLWqSbwxxD/aqybDQOGFZ4+xRIExkg3yM7k8PnjMWXtWroMxy7bIUwOp7camXkEs2MbDpd14/bGGhYuqov1mUBtU8A13ZxxaR6QXMOEf4Gg8tHl00MSfg+aYNyrtKvcE98wIAS5tJM9IHWGAJACmSowCWelioFhXivsZotjuwqU31KdqZc/CgAr94rLkO3AEotSNd9EE6CkkEEJWlHiCPflUgbVTjSQGW62gMimlr0NN8yN948T3/+c9fAKp9gAVegq36q8+0EEDeh6JLPIe/qe+RRx7ZygKqPIc2EyboPPMVcyG5ssAw8xnwUXtY5BcyC4r1cxPTG7gyr1MH96IdT0Whh+CqZ6e1zywtK/QXoDQHpFn/WZbrn1vp/wFYW6m1lq5rANaAbbmZAFY9lhcT48JL1kvXC5LLKzDFq4qhgfj7Ozdg7q79F75JI1ddhgR3VaBpnBvxYjJOC7CU40Vu4iqO36BbCQ+9jLnkWvUwoTVwerl74XLRruSdymBIlfeYl72VHIOgAXP0mNUX9YBdO0VFgXVRYBRgVRJZn/0K36iKLPe5ZbjVqrJyvLe8WyrUoAzT5cpZlwfPTaJAFJhpBQo09N839TcLcmwtC4kml+PecaPAvYAV73aTapBlvY5+XbxjhUXxVirPERN3oXKjycpBAOFl7Ez2J8ggjAoUqfpXaBOgwWZTNn2cK9zKxN573HkFsPrpIniysAl5AimTl5M6ggA83kQbgDtsY/DmiU98YrMfAQZlglHSXHge93UOW5KnfyVgd55nAXeUZVFYu3le3mbOB3m0r/uYNPMYAm14idVC6qRjWQEs9xU9AVAAhP3D/9yLlxtoIueR+6s3+x9EZDNbBAYqQCr/Vw692MjAn34F8LGh2f4AH8DqXM8v7FPbFnCcFGBpS/3bQQf1stMm+KKN6El7ObnAQ4DKPUEs4Icndt9jDbgC1NTR34X0AWXacVSXGuv7f58WYLnWHAp85A1eC+NgnY0WRu/pXM+nfvon2FSho65l04BMBbC0X+WP4zEOPNaGA9pV/zUP83kXiqlM4YRCc2lZ7wOg9IADDmh9ziHHnP4AvvK0oql7AV36CG82YI7++ojy5QeeVbsoAGu9Rom1v08A1oAab0aA5UVV0MegbGAChBg8XlhWYgzSBjGrNl5yfUPLM3E19bJF7k0E+y6/y8k3CcCy2mIVxrmO8hLjXt739PLCVjcvcfW3SuZ3L1uDat+7YhRg8dACvsbFq8/qi3q5tsn/o8BmU2AUYPUNz8VCa5Z6hrqm78EwOoHcbBqkPlEgCsymAuVdNM77syaWnrzOGzcR7//NhFfyZwBI7tL+It5aK1jP0AdYoIg6LQaw1MmGQKAVu8+5vH94OvneX1zgIQIs8RJx8DIDvpxXGo16YAEZ4ActCiCVDuoLWsg5ZkJv4VbdQQC7KPL00QZCBuVe4i3m4FHEC0zy+H6YYT0/O9TOuMCYg9ePvK+8umqsqZ3zKgSxPG2qbsvZoH2ABTK5H8BR0IONDg7Jn0RL4aj1bEIJ7bDHa80zgVkWgN1TdAMPHkCq33eq/7H7wTKLyexzzw/EmCtUe3k21/MedM8KIZSb1j3KA6sPsEROAJnC1fpjMxuf7W6uwqYHdbUpwKYOFRlCNwALiAOIwDQAjqcZb6Nxn5tRjScBWKOfIXWTkB94orn5SQFksKkOwEm9eKY5D0h1nn5Z4K88sHxWHLQFm/RxQKxgHU1rIY59pH3pUVEoHA+0Bw80B886uY55u/kMgGjqq31HF++0s3oqrz6PYBgot57vkrV+V/XLD8BaT7XX9l4BWAPqu1kBlnoZ2KwcGLQNEhJPOrwQregg/lYzQKrRSd/oIKu8Sd3VxwEsO3kASTVIenFyz7bCoFzbL3sBc6Pt56yp+1rZMOhaBXG4lnsy9+capJYDWMsZDAN2ixQVBaLAhAqMA1hLXTrN53ix99qEVctpUSAKRIEVKzAOWvULW+5dNu569pH8O7xPhOWVXbfiSk5x4UoBFpuQ1wdvqsrNKoxQTh+QRblsPZ5NJv2SfJvMgxO8r4CCuncfYLEd5QMCPoRKjct3WJ4nJug8iwASC7rgilxF7qtM0MrP7ivkkZeWn/uwpexXzyDUzqJqhb2pq5CtcYu9BSOmafs+wCpoyVavxWbeaurheXi2uS94IR0IjzAwSX3tCO5vwtBq8Zf3mKiLep4Cqerpb+xt+ojaqDQgAB0I5T7uyzuKbuMAVj8HFo81ZQImQJpwxVFYa2EdgAPKKlcaKCb3FHhXRx9g+QxYhDe3GAVYzh/32QKwwB0huMvtQlj39HwAqPpLZeLgUSetivlK3QdMBBl9+RvHAN5XwmjrnFGApR/uvffeDa7yUBv3eTd3oyEATG/1Bu54C/qufqCezxYdJe7nweh7ebCPzt04OJgb8tzzP1E2PN5q9+YpXglb4tQArC3RTBNVMgBrIpkmO2kzAqx+zQ0AwJDBqw4rQYCR//Fg6hP6xZ66P9Atp8w4gNXfhdD1fYBVLs9eoF7o/aMGfm7GXsoMEOdLKmkAAbLGASzXVXL68sBazlhc7rny/ygQBYZXYK0BVj73w7dZSowCUWByBRYDWdO8m6oM9povi5DyRAnxWq9jJQCLLQYcfPCDH2xeTQCFvwEJPE8ACuWCMP7Pewic4G0EoAgPKxvVecLhgKJK4i50qjbsKB1G9XY/SdCBG+FqQBAPFbAMbHEfuYlcBySAM+6/lG0MpoBWoASb2oIqUNT3yum3S79Ok7R7H2CNXluh8gXsKucRHUAgXksFpYSrgS/0VU9eTZ67r+lofZzrOuXRWXv4nS5+FtXR98Dyd4CwdgcHWXin0QR8cbDXtfliXj7uA0jJH+a5AFo7FurndfQBlmdh448DWIvpWwALPFVHcBT8tBC+1NwH8AHwhO459BHAyPxDXd3PnIb26sjjinb6M71qHsO7TT8rDywebWCpTWcqKfy4dwXPK15WPNgAS58Jv/sc8HZzPaCqHrwBeX1Vfrf+c/m/+mo/nyO7SLqfRPKeDcia1FFhvd45Q9wnAGsIFTdHGQFYA7bDZgdYXrwGKy9bA7UXmNUKsMjLt5+voAa8vhEwOhBMMvCuBGDJy2UAHH151stcmQYqruIOubkMiF64fYBlcOYarl0Mhv0QwknqPmDXSFFRIApMoMBaAyxVyGd/gobIKVEgCqyJAkMDLJN3E3xhYZvdA8uz8yIRasjOk/ib95BwO5BGUnXn8G6RR4q3Cy8dHvcm4oBQ2abjABZPFN5S/VCzUc/b8kQCCyTFBhjABrtliwJgD4MtzqMtr7CyjRdrOzCE1z9b07mABY8sEGccBFgNwAI3hJrRpcYz9QT/eFKx6dm74IVF4AJczgU6ePiAIPoKG1o9l4JzYJIwTqFlAIl7AYtAifInAVhSlVg8L4DFfhf6ttgujO7Jswls8LOFZxEX/f49CrA8cz+EcLlxfhzA4iUFVi516L+8n3jseR7tIUm/MF710wcs0vMyBDSVB17xMOwfox5YvLP0O16EBSPH9Tf1FtbJC8tcSBv47NgcgLecz4kwXW2qrQDa2slwFGBV3wDwlOvZpHDhkaV9Z3HX5gCsNRnWNqTQAKwBZd/sAMsLiiuwwUeyTS83LyurI7bYNZCXd1X/O4lG3YsnnQiOA1juJ5l6DTDlgWU1wWGb2doCeFzzFMCSH0G9JHrnjWUFZRzA8lLu58BabmAbsEukqCgQBaZQYC0B1hTVyKlRIApEgU2tQNlk7B8eRPI21e5861HxlXhgqVfl9OFFb6ESzDLxN+HnlQOICIcEBXj/gFo8Xnzvh+QVwAI6QA72LPgEtIzmcxqduANjAJbk1QCEyT/owAYV9gW2uFdt+rFc3td+GBw7GpzzLIBSH2D1zxsFa0u12WgOrNe85jULObCUD5oBFZ6lvvr3LZuX1w6YAraBa8L4hJyVjV916C9gs5955wAa2oYmypF7Fii0GF4eWJ5pnAdWAaxK4u535S3WX7WnndLluwU4heAJKV0OYFUS90ls/JUCLBrZ6ZF2wu4c+qY24r1FI3CLx5gDUOXRJIF6eV+pH1ja98AS9grAAnGj4KgPsujBg1G7gWDaXQQNIMijUSqYk08+eSE/mv6wlB7V1tXH5XoDNe2wGIC1Hm/S3GOlCgRgrVS5MddtZoDlBXj66ae3lSyrTl7eNfAZfLhv993P64VXcdMFrPoD2ySDxGIAy4pKDbAAliSTtX20lyfDZrGDkcHYKIBlRxfG0CjA8n+ragWwwDsga5J6D9gtUlQUiAITKjAKsOw85T1RcHu0mEk+y85haDMQawV/wurktCgQBaLAmisgd5JcTybGvCHGgYSywQo2sOm8G3mNmLT28wOteYX/36Km+7ARR3chrBCz0V0Iq15sstNOO62BNzCJJw47FKiywxpPFDDCu9uCJrglfKyeucrp70Joss3mYz86d9zYUH/jUQTkSNju3u7BQx/YAVeU41zjBY+Yfn6jxbRVN1/qAbiwcSvHU/+aqsNKAdbVrna17v3vf38DHf18WqPPO87LC1QBPtjlno2unrX6VL/fVdk0EWbHw0i7AYU0Av3AkX4S96UAligJicUdIiN4vS0VQshjqe+BBRaNAqzahbByYK0XwDJ/shDPU6nCMf1u93SJ8gsmAZjglXDS0rjaaRRgmcfok/J90bh/fr+v8J4zrzFn0zZCCH3+AD/tCuBWQn0bPNicgJcWKNgvs9q3D6ncV53Nk4QSJoRwPd6kucdKFQjAWqlyY67brABLvQwcDB0JC7kBm9D57sUo95XVKC++ir2ux1tqgJxEumkAlhd6GSxW0hY7RgHWYh5YBbA8gwSHjKIArElaLedEgY1RYBRg2cXH1s4mRLxGR49xk5S+sef/VpolR7USamJTW7BvzBPmrlEgCmx1Beq94/skEL3/vAU6ajGQV4qdwD7wgQ90J554YgvvqqOfm2i0DL8rQ+ggr5dp6zFUG7CveMADFN7f/V0Ia8e1cfcy8QdQTMYdEk1XYnV5mr71rW+1yTRvKEnVq6w+AJK7hwdW2akWMYEo4XPlUTIahsWDBUCpXfHYwsLqQCyTfN4tvIMcoKDyeKMsFwpYz6h+NFjMi6b6zBAAa7GQxqpLP3LC34Rm2s0RJFQPMMvz0WC0LLDKMwCrPINo5m88ieRtojXdwddJPLD6AAvsAbCWCiFcCmCpqxBCnm4nnHBCm7cIQ1UvQGeSz8JqPLBoKeec/uv++sbjH//45lElh5rnq93dRZPYbXH089sPIVRfOxXy2pP6hFeVo++xV7/LAew++qln8NzaUFSL8yXtBxz9D0T1+bJD4WJ9pQ+FC8CO679DvS82upyEEG50Cwx3/wCs4bRsL3Oxx3bnqBcPMi6x5CQv1AGrslCUelgh4X6L7n/nO99pRoGXnJhyg4ADpZfUkgvs6EBdLt+eof436fOsF8Cic22D7HmsTFQOLBqIL5egUdusxOhci7ZJmVEgClxSgVGAJWef0Bgu8gxDRt+4leXFJnd2YgKuTE6sXM/iimL6UBSIAuurQB9gTXvn8moXenXmmWe2iaicNvLXLAY1/N0kne3GK/Wss85asDHZcQDWRh2gBsDhy+IiLw45jtRpMUChrkCSZNPe72xU3koWLEAjZdGYl488TRYpHX27kyaVxF0d/A4CmMyDNJW8vCb+vtP+K1/5SrN16Q5Y8erh+SUJtoNHGC8Yz2K8AHnYkrTvw7MCkcYsnlyScvu/pN68V9Sl7u3c/i5wBSYntaP7IYR9D6zlAFb1ibpPQR/A1LXgB5DXj4ioOrsGnKKxNuAd6Bnuda97tfaRe7bmFxsBsITLaRvQVz+TBqUS/U/yWVgtwLLgDq4Kp1SWdCwWzenJC8vnVP3A2FHPb7qNAix6g1Cu9yzlhdV3ItDHtJ38V5wSyuONl1ftGuhnDgD6pb+xocDCcUBV/7/gggtafTk01A6Xs+p9pV8EYE3y6dga5wRgDdhOmw1g1eD2xS9+sa0UeNFz2fVSBdWsqFgVKeOBBxaXWCssZSwwsqzaMLS4o/JkmmYiuB4Ay2qblbs+wPIytqoGbGkX7rli1hlEAVgDdvoUFQUGVGAUYB100EHNALvwwgtbWPG73vWuS3hiLTUB4DZvpZL7Pi+ufO4HbKgUFQWiwIoUYJedd955zeMKwJFCgb3SBy2j7zW5gnbdddfmCWSyyZYBbRwbCbAKzPDy4OFugdTEm7c/O7OfTH1ULNfy7mGTsS9NpnnIAkD0AbRM5gGucaFm4wAW3diokqgDUqO7udmBG3wRiQAgOB98sbjLRlSmZ3COhOAAjrEDhADF1K0PpXjZ8HbhZQMuOIRyAT6uKxuct86XvvSl9kwAkP9Nc6wWYNW9QBfPDsh5Nl5toKExFuyoo2AbmMeGBvsKzpkjWBTiJaQPgjfrDbDUk4fek5/85AbYgBeafvSjH20J7ic5VguwtC3wTA8wzWdULiztTBe7owu15Fk46ok4CrAKaNJUe5if8dqq5Ov+r72EBvqc6U/aCHytDQ4qn5j8V/qrHRz1f1EngG1BseqTrvd5MAcExSz6m/v53MrhNSlcnUTrzXROANZmao3V1SUAa3X6XeLqzQSwvKS8RLmn814w+QOqxPMbnL1ozznnnDbQSpSo7txMvRytnJUHmV1iDGBeygYIsd2umfTltlEAy7MyquxkY6WPAbTbbrs1N99aGTPQWe2b9FkG7CopKgpEgTEKjANYJhdlsFpZtFouUSqjriZxVVS9t3yuGekmP7ywpvUcTeNEgSgQBYZUwLsJQDAJ5RHPWx9EYXvVe6smlzWhNYGVVJnHPIDlZyGDoDy7xrGRAMv9vYPBOJ4fQJRDTlO7odkRzwFMsS9HD9CH14x8PnbJLi9/mvBGMbmWu3D0KJ0qB1bl9wEKaAZGAVh2Z7zuda/bxgugEOwwWWeXOti0xhM5q8pbDNiQLxaYsOhbtrH8RsLadthhhwbpeMBoS/XnxaJOvLQsnNYOe9roq1/9agOOwAKgJ5xdnq6yQ5ezP5Wrjq7x80o8sEo/bcXTTx2PPfbYNifgHWQXciGBYIuxE8SjwYc+9KGmG1BHW/YzYFLtSpuV5MBabQih51EnsMXnQfurnzFf32PvW8DS9rVb42gfGgJg0YnXlc9z9V110c7ALO8seeDKm6pvp/Q9sPrhrq41T3vAAx7QEvWDWvoaRwK523j7uYd+DpbyAuvDR++Yys+lvV3vM+RcedNool/y4vTu8NmtHTTBXzaWSJxZPQKwZqdlA7AGbMvNBrAM2gYp9N0Ay6WVkcHTysvdqp8Ps4HRC9JLVD4BXg/ovxeyn63+mFh6CRvorOBYiVpu4CXtpLsQyXbDyAAAIABJREFUGnRWmgNrnAeWF/dnP/vZZugZZBwGagOvwc3KhGfjOj06uAzYJVJUFIgCUyiwFMBSzLnnntuAvCS2dq/qA6yaBFaItFXEPryaoho5NQpEgSiwKgXqfWSyyRaTtBwQ4CUiHMskkg3V3yjHDf3NpNe7y6Lb/e9//xbqBXiw0Xj8gCAFbTYaYKm/0DQLDd7LwIBJM4/92oTDc4ALowcNLLLyOjExLy3ACLsQWoAcl5y+D7CAKuNAeV8ZF3h2AQFVB//nbeKrdiyU+xVkM06AQv3wQBN6UAIc+N73vrcQpWDRk5eKdgAgtCPw5ne5FpXH5lR2QRYbDilH7iLQQXsCdkLw+mFdo+GA/foMAbCUVyF/YJp5AUhlHsAGZhvrc0CeZ2M3G4+1ifYEVSTdBxb7HkWT7kI4VA6s+lzpO2wBkEgbOXgk2YyKfS/slKfYOADq3NUCLGWogx0htae5TrWhOQnvQRBq3A6W40II9Ssgio2jbvqTfkRr+eLkLSubxxzGc5m7AVP93MX6d30ezYEK1mpbENnnyeeBZjzHvJu8b/zPnEidKwfXql6Am/TiAKxN2jArqFYA1gpEW+ySzQSw1OXss89e8LBSZ55VkrVXPgEvMQOVF62cBVbDvLiEG9rdg/HBKPGCdp4XsVUaO32sBmAZ0IGjGqBrF8IhAZYBQtJnda2tmj1vGUhe+MKRRl/+A3aHFBUFosCUCiwHsHyGTQR4iprIje5OyDiTCNVEgiE7ba6RKaub06NAFIgCYxWoyayJp3cVe0MoNGBQXlejF7KJhALxHLLrm0lqpWwAO/x/swEsz2nSDPjIM8rDx+9la4Ej3scWQkcP14IAQBUbtDYW4mnGLrWgOpq7RxmjHljGBeCFrUcj34GACnEseONaYwIPLd47Qt8KSPXrVt5yvLVAEqF0oIL7AAq++1IWWxJs4CXnCygoMOl5LPgKqQTqaAEQsKtHAVb/ufw8NMCqMgti8ejhqSM8EISqsbJ00H7+Bpw+9KEPbXMCAE//7C9ebwTAqjqCMLQUylefq8rZ6zPE08yi+7g+pN+xFbQPLzJzG+3E62maQ3SKcoTsVf8y1xJWqm+NW+gfBViuU1+hr+Bi2Tb9BbrafEZ/443pXGDbnE15vrSX56/om7e//e3tcwVG9stSRs2H9GfhheZ95mWcG2Y5V2gA1jS9e3OfG4A1YPtsBoBVCf9M7GyZK1zQapKVCcaFF5+XVz8OWighsGUFzGGQQuLFToNLvLbk0bK7B6NqXELAxWRUDy7WVl/UzYqYkESGWb3Y3d8KXOUksLqorosdQBdj0KqHwxbHBjFu4P1B3/2cy1WfFly5rWAYuBg7DBN5s+KBNeCHIEVFgVUosBzAKiNf/guTFGHCte08qF7wyiQin+tVNEQujQJRYNUKmNybyLLDLBDWpHGctw0vCImghWkJV+NJyk6piWnZNpsNYIFVJrxCuoQQAgLgUXkumXjb1c+iwygkKrAkUsC7m33mb0K/2XfAEHt1FAKMAiy2HrBiFzo2LlvW5B2ksZDpfBN1oYzCpAAGiap5aY3zkKlxxtgiegEgARb8rE2V57nY1QAJwCP8bjRZt/Y2pslJZOIMNvBi4hmkvQsq1f36+vRtWbvwCt1zX0AJlLAx0bjrFuu0fQ0LOoq8+MhHPtJJFcJrh71OS2On0Dtgg4ebCAm/V5hcH3Dw4AEowT4HbzttR2uH3E3aAsDkreaQs5ZmpcFonemmD9Bc/wJqwDYwt3/4HzjjGYA4sJi3kgMg5MWn7uMgknmAdCgVSmmDJ7/LXTXN4X52QzTHUKZn8nzaWJ+bFGCZv/Am0776ijaXCw44dQBL5jrmZY973OPa+6HK7wMs55ZHovY0h/OZNM8CUZWnTq4VQivUEbzjgTXuszaNFlvh3ACsrdBKk9UxAGsynSY6azMArKqoFzt44wXm5WZAMqkb5xpqgDGwGJgdzjX4GNz9z0vPqprBg5vxOJfuxQTyIlUPg7ijVqv69WAkcO2ul66BUl0nLbMMEy/40cOzey5wzH1qZdAAbABwzSShkBN1gJwUBaLAqhSYBGCVgcb9nVHMADWZYNRJ6srtvrwVVlWZXBwFokAUWIUCbEKTawuEJpDlEdQHWCAVu8pEW6JwE2820DivEVXZbACrQrp8Zy+yOX03mS8vrKVsOudYjOD9wlbkOSv/lIXMpd7j7lc5sApg8bi3g6D7C50C1Xjs+g4MsGvZfKIL6D6J7ec52I/KACEBMX8Dq5TDLrZ4shiMUTcLLuAKW1WYmLr0+8By9aApuOegiTFuXGL7abuqugEwvjyf+/jOxtdm9Yw0K0gyDiZ6ttqIwLnAYy0glTebsivs1f+Vv5inj2uAqYKFnpW93g+Vq2c1b1BnbaRdah5Ba22z2EYC7gHgudbP7sFjqpKhT6Kl60BN3mnC9WgjR5q8XNKwLPV8/RxY7gVgyT8FUoGC9NKHtbtyzIlo5nn0t6W8pPqfSfMeZSnTPWsu5rOgfZXl+7zYTAFYk/TsrXFOANaA7bSZANaAj9WKKs+uWjFbbsAd+v4pLwpEgdlXYFKARQkriVaNTVoYdVZBawdV/887avb7S54wCmx2BUyQwRke37zhy4YyAQVReASZAAstM4leLnxnswGs1ehf4Ww8znjwsDPliJIzqlJdLFb+UgBr1Nuowv0Wg4Lj7lEQoP+/2nWv76kyaZkFrPqeVVX2Ro9VBafUB2RayuttNe3dv3YzPPNq60Cro446qnluWegHmHyWeX71bZFRzUZDCNVDjjEAS3hr9Sn9rfqhc/pfK20HdQb6AMZRaLVaPVZap/W8LgBrPdVe23sFYA2o7ywDrIJYvi9nYA0oaYqKAlFgjhSYBmCRhYFn5ZdBZjV8CANvjuTOo0aBKLDGCnhHCa2TY8bkqbw9ABopDB772Mc2DywTynp/LVWlWQJYPGyOP/74Fj7Ii4f3i3A7HmvLgaHlANYoxKLpNBP0PsDqw6dxYGuSLjQKsCa5Zj3PWeq5+t5iQ9VpmrYY6p5Dl8NjUF99/etf32wRIcDvec97mhdVP9H9pABLuHEfYPX7THkzTvKOGPecfQ+6xfriLLTJcm0cgLWcQlvn/wFYA7bVLAOscn2vGPgBZUtRUSAKRIGmwLQAyzWbfWKQpo0CUWC+FQDYbV4jF1ZthiMHEO8roWf9BNrLLRDOCsDy3pYnC7w67rjjmkctAPDKV76yhVOuBmAtp+FG9MatOE5txTqvV9vSBgx5/vOf33IE86aUT0o4rBQpS8GgxTywRgFWP/JlyOdaLQwbsi7rXVYA1norvnb3C8AaUNtZBlgDypSiokAUiAJjFVgJwIqUUSAKRIHNroA8n7wzhBbxvJKfZzlIM+6ZZgVgCWU64YQTWs4qnlgAgJ+FD8oRtdwmHIt5YEnQPg+eJOvR31fqbbYedduIe/Q90YQDS7pugype4PKSHXbYYS05/XKf68UAljBjHlibEcBuhN5rcc8ArLVQdWPKDMAaUPcArAHFTFFRIArMnQIBWHPX5HngKDAXCggxklxcmNxqAMusACyJw1/ykpe0HdtM6Hlf2f0aAKjwq+W8WMYlcQ/AmouP04Y8ZB9g2d3PZgP6oL/LYWeHdf3YsdxnXPjhM57xjLZzJmAlB1Z5YAVgrV3zBmCtnbbrXXIA1oCKB2ANKGaKigJRYO4UCMCauybPA0eBuVBgNKfSchPcxUSZFYB11llndQcccEB34okntqThu+22W5vA26Fu0gk8eLD77ru35O/AoA09ArDm4uO0IQ9ZAIv34JFHHtk961nPajv86a+8r+yELBfnJMdiAOumN73psh5ck5Sfc8YrEIA1Oz0jAGvAtgzAGlDMFBUFosDcKRCANXdNngeOAnOnwGpCs2YFYL32ta9tIViSt1/jGtfo9ttvv/a1XPhVv7PInSXsEFAQgviGN7yheXCtFA7OXUfMA0+tgM+uPmtn0be97W2tr+24445tl9Gddtpp2dDXuuFPfvKT7pnPfGYDYfo8DyweXDe5yU0mBrhTVz4XtLxlu+66a/Oak3/Qzo/77LPPwjsj746t00kCsAZsqwCsAcVMUVEgCsydAgFYc9fkeeAoEAWmUGBWANbZZ5/dkrgLrQSfTNzlEXJMOom86KKLWgJ4k1E5s+5617t2N7jBDaZQM6dGgckVqJ385L8655xzuosvvrjBpm233bazq+iVrnSliQsTTiz5+ze+8Y12zXbbbdcAGA+uST0QJ75ZTlxQIABrdjpDANaAbRmANaCYKSoKRIG5UyAAa+6aPA8cBaLAFArMCsCy6+AorAKhJoFX5cHG8+oXv/jFwi6OPCqEI+aIAmulQD+MsH4GnOpr0vu6FsTSh/3MC0vut2nLmfR+Oe9/FAjAmp2eEIA1YFsGYA0oZoqKAlFg7hQIwJq7Js8DR4EoMIUCswKw+gmx6/EngVfOXSwEs8qctJwpZM+pUaDlWgOY+v2svLL0uZX0uyoz8q6PAgFY66PzetwlAGtAlQOwBhQzRUWBKDB3CgRgzV2T54GjQBSYQoFZAVhTPPKlTg3AWo16uTYKzK8CAViz0/YBWAO2ZQDWgGKmqCgQBeZOgQCsuWvyPHAUiAJTKBCANYVYOTUKRIEo0FMgAGt2ukMA1oBtGYA1oJgpKgpEgblTIABr7po8DxwFosAUCgRgTSFWTo0CUSAKBGDNZB8IwBqwWQOwBhQzRUWBKDB3CgRgzV2T54GjQBSYQoEArCnEyqlRIApEgQCsmewDAVgDNmsA1oBipqgoEAXmToEArLlr8jxwFIgCUygQgDWFWDk1CkSBKBCANZN9IABrwGYNwBpQzBQVBaLA3CkQgDV3TZ4HjgJRYAoFArCmECunRoEoEAUCsGayDwRgDdisAVgDipmiokAUmDsFArDmrsnzwFEgCkyhQADWFGLl1CgQBaJAANZM9oEArAGbNQBrQDFTVBSIAnOnQADW3DV5HjgKRIEpFAjAmkKsnDrzCvzgBz/ojjvuuO4nP/lJZw7m2GabbdrPN7nJTbp73OMe3e/+7u+O1eGHP/xh98lPfrL78Y9/3M6/7GUv2877r//6r+4Wt7hFt9NOO3WXv/zlZ17DeXrA7EI4O60dgDVgWwZgDShmiooCUWDuFAjAmrsmzwNHgSgwhQIBWFOIlVNnXoHzzjuvO/DAA7uzzz67QSjw6nd+53cahNpjjz26gw8+uLvyla88Vodzzz23O+CAA7rzzz+/++///u/uMpe5TDvPz3vvvXe3//77d1e72tVmXsN5esAArNlp7QCsAdsyAGtAMVNUFIgCc6dAANbcNXkeOApEgSkUCMCaQqycOvMKgFBPfOITu1NOOWXhWUEsX49//OO7l7/85d222247Voczzjij22uvvbqvf/3r7f/luQVg7bffft3znve8brvttpt5DefpAQOwZqe1A7AGbMsArAHFTFFRIArMnQIBWHPX5HngKBAFplAgAGsKsXLqzCsAYD3hCU/ovvjF/5+98wCTqsj6d32rgjlnxQBiwKxgQF0TBkwrrq5rxJyzgrpiZM2oq66oqBgx7ZoD5pxzzgETiogRxV1xv//z1n41/0vbPTM9dM/c7n7reeaZdG/dqrdu3zr3V+eceiZMO+20YfHFFw/LLrtsDAdcZZVVokBVKgzw448/DpdeemkYPXp0DCN85ZVXojcWnlj77LNPGDRoUJhrrrnqnmEjdVABq35GWwGrgmOpgFUcJqsZlPQ9uelWEL1VSUACdUBAAasOBtEuSEACVSOQVwErm38ITxaLBNqDQFbAItyP0D/CAikIWoQPlnrn+OWXX6JwxfdRo0aFv//97+Haa69VwGqPgeugayhgdRD4KlxWAauCUBWwSgtYiFcYNf/+97/DhAkT4s+dOnWKyRU1dip4E1qVBGqYgAJWDQ+eTZeABKpOIG8CFrbdv/71r/iFLYdNN9VUU2nXVf1O8AIQSALWc889F/NV7bffftFzKlta847x/vvvh5NOOikMHz5cAauOby0FrPoZXAWsCo6lAlZpmLDh5XTEiBHhxhtvjC69/fr1izHqpXYIqeDQWJUEJFADBBSwamCQbKIEJNBhBPImYH3++efxpf/uu++Otty2224bNttsszDLLLMoYrXhLsFWJgE5XPlCIMRe7tKlS5hppplkWsA0K2DNMcccYd9991XAasN91yinKGDVz0grYFVwLBWwmhewRo4cGZMivv7663GXkEUXXTTceuutcWJOKyStWSkpd8gwACZOnBiNgrRDSdout9y6PF4CEqgeAQWs6rG1ZglIoPYJ5E3A+uc//xn+8pe/hA8//DDadeQMwq5baqmlSoZu1f4oVKcH2KrYqd9++23MzTRs2LBouy6//PJxp71VV101V0xpK+3DrqbtRFVUw4ZvjrYCVnXuxXqtVQGrfkZWAauCY6mAVRxmCh/E+2rgwIExYSIx6Rg6t99+e1h66aWjy3naAjfVUqmJkBj3xx9/PF6XOjGsSPJIfLxFAhLIDwEFrPyMhS2RgATyRyBvAtZ5550Xjj322JhLKKWGeOihh8KKK64Y7bxK2XH5G4nqtWjMmDHhzDPPDKeddlpk2KtXr3DKKaeEtdZaq3oXbWXNyZ4nb9TLL78cF6T5eYYZZgirr756mGeeedpVZFPAauXAeVgkoIBVPzeCAlYFx1IBqzRMJr0XXnghnHDCCdHVHMGqb9++4dxzz43b1KYVnGwNlTJ8mODYEhcRi7LbbrtFIW3++eefxPMrTcwVvCWsSgISKIOAAlYZsDxUAhJoOAJ5E7AeffTR8Ne//jU88sgjcee3TTfdNJx66qmTeNY33CBNZodrQcAaP358OP3006MNT17brl27hrPOOiuKbHhitVdRwGov0vVxHQWs+hhHeqGAVcGxzIOAlVcRhnb9/PPPcavbp59+Ok5wvXv3jq7RiFmppJ0K481ZoZ1sXnvttbDHHnuEp556Kro58zOhjIQuMmauElbwQ2BVEpgMAgpYkwHPUyUggbonkDcB68cff4y2FQuU2HLrrLNOWGyxxULnzp3rdiySnVopG7UQVDEB6+STTw5rr712bpj+8MMP0SsMTzES+C+88MIBbzza2J5jr4CVm1uiJhqigFUTw9SqRipgtQpT6w7Kq4CVRK1KT7pZsSkRKjWhZ49lJ0JKEq6KbXHL8andk2MkUEcSsBDOKIUCFn8rtc1u60beoyQggUoQUMCqBEXrkIAE6pVA3gSsxBkRAzuKPFiU1tpthYuu5S7CYndzTrG8plnbtzXtydrI2Z9TeotUR2sXWttqcxcKWIRj4tWWFbBKcUq2cym7thjvUp+V5pghYLFrH15X2PQIWOeff35Yc801J/HAKlZHWjhO1y3GM/2NPFvcV6VsdAWsen3SVadfCljV4doRtSpgVZB6HgSsNDHg0vvpp58GJhkmAsSiBRdcMMw444zNGhYkZCRX1Lhx46J3EispuAaTL4qVNsQgdkbp1q1bWGSRReKuM601DH766afYJuqhsEvNAgss0GR4pJ0KP/744zhZYZDwf44jxp5Jna1uv/jii7grC20gDHD66acvajBxnbfeeit88MEHYfDgwXG7Xa6xxRZbRBGL0EV+h02PHj30xKrgZ8GqJNAWAgpYbaHmORKQQKMQyJuAhZ312WefRbsOW3DmmWcO8847b4thZGPHjg3Yeth0lNlnnz3mT8Lmw76jNCcAZRc58e7HLvzoo4+inUg+JgSV+eabL/7MsaUEEAQS2sHcwzFcG5sXuxBh5pNPPglvvvlmDJOjjdjR1Itt3JztyznvvfdetDOXWWaZMM0007T6Fi0UsHr27NmUA4u+kG/s1VdfjX3FhiWagP7OPffc0W4u5Ib9/O6778Y+0GbazhhhWxcrnA+XtBvi119/HX+GDTY3v8Ps4osvDtdee220z+knyfxXWmmlpsVpjiXXbZZTVgykPdTDuPHOAV/6wX2QeHE8fSrFWgGr1beVB5oDq67uAQWsCg5nngQsJoMbbrghXHfddXGXEEL2yAPVp0+fKDqV8npC8LnwwgvDSy+9FCcs4tn32muvONldeeWV4bLLLosTzRJLLBF233336C7eWgELIemCCy5oCiFkR5XDDz88ClBMmEyCd9xxR1zRofB3tsRlAmSnG5JFfvnll4HYe/oz22yzRRFrk002ieGIbDGcVv84H+Nh7733Dt99910UsjiPtrLVLpMkdcCByZI+lxLCKniLWJUEJNAMAQUsbw8JSEACpQnkTcBCQMDzhsVN7Cm8hNICYbYX2HgsqD7//PPhrrvuCm+//Xa0JRFjKCySYsMRfrjBBhuEVVZZJQospcQLxCUEHBLG41WBgEVd33//fRRoOBdRhTQVLFpiwyZhLNsuRBTC4GgT7V9yySWjrfzOO+/ETYYQWLA7uR5tpF6Sqm+22Wbx2FRnsoOxm8kHdskll0SblXP22Wef8Mc//jHa3q0pxUIIWYTFbr333nvDww8/HHd9ZFGY9w4WphF/sMuxh+kz9mxqE0yGDh0aWXEOot6f//znsO2225b0XGO8uAb2OGPL74ztTjvtFK655ppw5513Ni0o0ydsbxa14ZPeLw488MCw+eabN9nl1AHHUaNGxX489thjUQxj3GgXbeYeoI71118/rLvuunHcEBOz3m/Zdw4FrNbcUR6TCOiBVT/3ggJWBccyDwJWcg9GDBo5cmRMWJ5WlnbdddcwYMCAOAkWulunFRdEL0QlPKX425AhQ+KExYTHBMwkT91MxBzHikuhgdHcSgnnYBRwPhMt2wSzYkfBBR2BjMmea3NNJj8MiBdffDEKUFn3aK5DPayI0cYdd9wxil1Mnhz3yiuvxG2HWZ3j2JQoPrsCxN9YbSO8sNRqVAVvEauSgAQUsLwHJCABCbSJQN4ErGeffTYccsgh4YknnohCxZZbbhm9hfAKSiV5DbEQibCDdxIeW8kzKutNhU2HaNG/f/+AzYpXUaFNiQjCDngsiLIpEIIPwlFheBznJcGJxUyEscL8TIg7++23X4ArdSy66KLR7sROZREUezfZjsmzCdu0e/fusd9/+MMfmhY/6S9tO/LII6N3EoIdhfroN7ZuaxZ8CwWs5ZZbLopN5JBFhELwoa2F7UIsQ1SjPyTTT7Y1It39998fF4SxpxGEtt9++xgCCN/CQj9Z+L7vvvviAjZeaNQ9aNCgWPcBBxwQLr/88t/sHF5YzznnnBP23HPPeD3qRKRCcOK9ApEPYTAV3iOwzVPIIPfARhttFMVERM2UcqTQu0wBq02PkYY9SQGrfoZeAauCY5kHASvbHYyEQw89NE7wFIQaVsrwqsp6KvE/JgUmE3YVIREjfUHoYpJitYlJhQmRyZMJmsnmsMMOi6F5hWJYdoLOGhRMNOz+h5cVRgr14fmUJlnqRcDC0EiGDV5STKRMnnyxQsNkzESIAZTEKCZhVoo23njjJgOFFT5Et2+//TZ6YVE//UgrfbQ7hVbedNNNcRXLIgEJdBwBPbA6jr1XloAE8k8gjwLWwQcf/BsBi1DAZFsiEmFLnnHGGTEFBfYdIWIIQQgVFJ79fKUUE3gUYS+yMIknVVYMQ7w64ogjmuxRFi2x37ArEaiwGamHRU9+xs5bdtllo4Cz3XbbNaWLwFbFNkQkgWtKwUE9nMd32sh3FkKpD1EqiSzkpsJ7a7XVVmsSprAz8Ty64ooroq1KXxFi+L0wSqDU3ZYELOxx2kgbsJP5O+3C6wt+fOca9JUv2oVtT4jjscceG7beeusmry/ajz2MKEU/CUs8+uijo81crFAfmx0hxGFv4xF34oknht///vfhmGOOCSNGjIjeU2lhmesyZnxP7wDsOr7DDjvEdwS4IFohSuItR1ux72FCNAX94++pTvpJv1dYYYVw9tlnxzQf1K2Alf9nVJ5bqICV59Epr20KWOXxavbovAlYTLR///vfw/HHHx9XkZhEWHEh9I+JIXklJSMDLyREKb5jBDCp80WIHZMJE9nw4cOjkcFkwsoMk1/hilJhosv0e6GAVeiBVShg0S4muKWXXjq6OxMmSPgfEzGu2ddff310pWY1imtsuOGGgQkT92l+x6OLfF6EDzIR45FF+dOf/hRFMkSvlBwSLy53I6zgh8GqJNAGAgpYbYDmKRKQQMMQyJuA9dxzz4WDDjqopICFvfb4449HryR2KsTOYnEUDyBSUCQPK579ePjjqYTHD/Yqi67YrITrIUJhYxN2iE2LgIIwhi1L3iW8nBBlELIQXLD7brnllihykW8LW5KQtOOOOy6KItiItCUJWITFJS8uFjkRahB8OBaRheviZUbOJ2xJ+sW1sKeJREge/NSB9xbRBSyiIjThsUR/W5szttADK0UV0A6iCugrglzKTUvKj5tvvjlyRlDieNrPzoVpp2/YIbbhHceiLm3Hm4qoiMLQSux9wgexlcm1hXCE8IRwhUjFWGFbs9h91VVXRXGKfFewXXnllZvyn3Fs8jrDmy2NG+yJluD9gbEl9JFrUA8hptj2CA30BWaEpCJmJm8xQwgb5nFX8Y4qYFUcaYdVqIBVQfR5E7Do2j333BNFKbyxmNSYLNjNBMMg6x3FxMHEzESB8MP/8YZiZSnFs2Ms4C5OLismddx6i+UUaI2AhUCGgHXRRReV9MCi/bhps/rCziYYAmn1hf8xIeLSjFt66gurXIhdaaWGtjABI7ax1TOFPrJ6xypVSnjJcSlZZAVvCauSgATKIKCAVQYsD5WABBqOQF4FLMQTRCZCCLExCSHELiPfEZ5XeP/zOyIEC42IIynBegqFIwqAc7ELEVE4HpGF1Bechw2KIIUNx7HYeYQFIqwg1KQwtGTPcW088xHFWMTFhmRRlvoQnLIeWAhYXBN7l6iDv/3tb1EYS/YvbcE2Jm8TYgp5oRCrsJFPO+206KGUCvWwyIrQhYcv9h7AAAAgAElEQVRZEtZaEz5IHVkBK50DW7yZEAsXX3zxptQdKdwPOxdximgCCjY2ERik5MCDjbZiA1MHAmFa9KXt2PLZvLiIetTD+YhdiFPUjUcXhWNZICcCgzBB3h/IR4ugha1eGKbJOeTgYmwJYUSIIySS3xHh0uIxfWGc2BQArz7eXxAK6S/XJ2qjkKEhhA33CJysDitgTRa+XJ2sgFXB4cijgMVEkA0LZCJiMicZY9bjiISVuAeTqJ3C5PLXv/417ghTmD8qhfeVmownR8DCzRzvqBQaSA4vXKHxAqNkvcaYNDE6mGRZHeN/rNbhJo5hlAqGBAIWhgeFCZ3VQFikUritbwVvC6uSgARaSUABq5WgPEwCEmhIAnkUsBAbsK8QWbbaaqumHFjYirww4r2DaMLvLDBiW+KFlYSmbC4shBg8pxBxKOSkQuzCBmTHQuxDPO8ROvCcR9hIicKz6Syw6fhCaOL61MvvePRjE+ONVUzAwssf0Yz8VklcSTcaIhCCShJuELSIRsDDn36lknJ6Jbuy1A6IpW7gQg8s6sOzCTEOcS3Z2Fl7mLYhIjIWeGSlhPSXXnppFPeog/cBbGRyh1EWWmih+DueZimtCMchMmFHM3bUS3QD184ufCNgIUQiWqVFb8QsuGYFLOqDGcIZXmLUh6DHwjQCYbL1aU96J+EYro1tjydd2tCJd5TCooDVkI/BNndaAavN6HJ3ogJWBYckjwIWbcJDiRUnJiWEneQ2nEQejsF1G5EHt2D+zqoMSTRbu2tKMYzFYtVTDqxSHliFAharYKy2pQSOhYYAhgxiFGGPTOasrmFMYISkUihgkVQSl++Uo6GCt4BVSUACk0FAAWsy4HmqBCRQ9wTyJmAR8oVXUDEBC0+kf/zjH2HnnXeO3k0ITAghLEwS0kfJetXzO+IFi5NJ2MDmS4IIIXzbbLNNtFOx98gtRage9l5hCojklU9OJQQbbNoUcojQgqBSGEJIG0mCjiiGZ1eyO9NNRZuol/BFbE1EHIQ1xC7ElkqVQg8suLGQC+e0W3bhtWgX8yd88XijLxyLaEQ4IbwQktjciU2PCLNkDMjXRZTGrLPOGquE/4MPPhi9reAFW0IgEcbwYEuF/xESCFvycCFukbKExfE0XrQJZkRLEGqJwMbfktdcyn9bjBvjxnXZwAlxjdxleHFl28B5CliVuusaox4FrPoZZwWsCo5lHgUsuoeAg4CFSMVEQPjfdddd17RLDBMFEwMTJKVPnz7RG4vVkckpkytgMQmyeoTBkjV0sgYPORVYDSPnAH9nksP4IDwwlUIBC0EMkUsBa3JG13MlUHkCCliVZ2qNEpBA/RCoBQGL3EvYVyQCZ6MexB0EFMLp8LzZYostmryIsqkssnZeCitM37Gvb7zxxugZxDyBkIFnFYJNc/lL8Q5CkEGwSjtyE7rGQiYCD0IMYlQKISQUEK+iZZZZpuhmR7SXROh4XJF/FRGG8/FGqlQpFLAQkVjMTbZwsevQLsQnFoERmxDXYEeOqn79+jWJSkRbsFiNGMg5a6yxRtwVkPcCfmfMsKnJlwVzBCn+j+da1sONMEPeE2CFMIZHXaGARTsRIxENWGgm+T4FrzVyeBUKhKlftBsBjp0TSfrPdfv27RvvneS5l45VwKrUXdcY9Shg1c84K2BVcCzzKGAxIbE6gqjDqgw/E39OfitcfXGRxkWXCZhJHtGIfAK4aTe3OtIabJMrYJFkklwI5FTIel4l92zagHs4LtCs8lEwKjBOsuGBClitGS2PkUDHE1DA6vgxsAUSkEB+CeRVwMrmwMLeJAcWi6PYY2k3Pbyb+J2QtKxA1RLtJM6Q4xQvJJJ7k9cJ7yG8+gt3ws7Wx7mED5L/9dNPP40iDTlQ8e6hjkIBC0GHNBt4FBXWi41PQfz5wx/+0CRgkZaCsMhKlewuhNi+5IDCgwyPs1Il2cVEXNA3EtdTEPgQ77D7KfQXDzJ2IORn/o5HGqGfeGThLcUiL7nGiMbgXQBPK/6XTQ+SBCwWvxGw4HXuuef+xgOL/3HPImqSPzeFizbXj8L/cd3VV189Cmns/JgNnVTAqtRd1xj1KGDVzzgrYFVwLPMqYDFhsJKBFxYrIIhU5BRgwmWXkDvuuCMaAkyaGBhMEuutt95vkiVOLqrsLoSlQggxUFgdos2sjrHzIQJWdsKiHWmypk4ELHYt4W+sUDFRYjylooA1uSPn+RJoHwIKWO3D2atIQAK1SSCvAlaxEEI8lLAnscmw4YoJMVkPq0LBKOttn9JhIK4gYJGEHeGIyIHmBCy8ktgpkZA4ckBRD7vlkUqDOgp3ISQpOwLWIossMsnCKXdLCiF88sknJxGwsFmxQytVkoAFOwQsxCEELES4Urlnk02MJxl9Q5ziWEL8EKeSgEUfyJFFGCfhebDjeLy28JrDYwvBinxj6X2AkL/C6+LhhVCJV1QKISwUsOCBgIXnHOOEOEY9pCZhgbpYipLUD+pMmzHxnV3IEd2WWmqpiDm1RwGrUnddY9SjgFU/46yAVcGxzLOARZJzVqowfnDNJcSOMEKSYBJOhwcTrtZs9YuwlQ3BqxSitghYGBIkmCwUsJKIhTilgFWpEbIeCXQsAQWsjuXv1SUggXwTyJuAhTiEV1TywEpJ3PGCR+RgURKPIGw48iwheCAmZXeeS/Zcdse/9LckVKRd9JLnE+FnpIwgRLFUKBp1kOuJFBOEHiKoIZAQjkcIIV5FxQSs4cOHx131CnOuZgUsxKQUQoiXUjUELDzXEG9YzCWCgry0zSWEx4YnpI9wPZLcIxAhHhFtkWXEDo6ECbIzJIVwPgSyVVddNXJhB0LOZ6Gbv7MDZLYwJvSdPlNHKQELXrxvkOoDkQzBjLLxxhvHsUPEKlUIPUyJ5ekzYiMCaBLiFLDy/ZzKa+sUsPI6MuW3SwGrfGYlz8ijgJUmXBqNGMSE+OGHH8aJgVUxtrxFIMK1mmSUhA8ySTZnELQVWbkC1nTTTRcwJFojYCHGUfTAauvoeJ4EOp6AAlbHj4EtkIAE8ksg7wIWHvN45uDNg3iBeEQIG7mVECLw7kHMQJQpTA3B7whVeFghoGCnYouS7wrBAg8ehKO33347DhD5WrFrEctKeSZ98cUXUawhbQZCy1xzzRVzNZEXinOyIYRcGw+scgQsBBU8waohYCEeJaEPZoQ+0v5SfSVEb9CgQTEiAdsfLixOF+5cSD+xmUkdghBFRASMyPuFJxZpRRAbCT+EE6lGUkkhgN9++230ZCPNR3MhhCm5PDubIx7wO7tGMm4pcXyxT1vyxMr2NeVLy/5ND6z8Pqvy2DIFrDyOStvapIDVNm5Fz8qjgJVcsJmwmNzwwrrzzjubkjeutdZaceLF0CC+nvwEbFtcLCkmx2BY8J2VncIthltC2VECFtdlheyRRx6JTdxll12i1xlu2RYJSCA/BBSw8jMWtkQCEsgfgbwJWM8++2wUPcgLheCUFbCgR7gdHlp4amGPsmjK4ilJw7MLpYgSKeE6m/eQwwkPKXIfsWseUQEk9GYHacQXjkXMwZZjl0Ps0aywgT2OOEXCdYQa5hYK3kjYvHgdYecWClhcDwEL+7A1HljFBKyUDJ02Uge5pJI3UWvuqMIk7pxDe4iOIH8YnkvZttFXhCg8pwjV43xCAzkWEQybvlD0Ip0I9XEO5yMMsmiM4IjQx/hce+21UYgsFgGBgIVQSf6slMQdwYtww7QLIe2GBf8nTQm5t/i5e/fuMek93nTcA4XjhtiJ8EbCeY6fbbbZ4rghLhYWBazW3FEekwgoYNXPvaCAVcGxzLOAxSSC8IRAhfs0kx0TPjmwPv744/idCYY8WYUTSkJEIkwmFTy4SHS5ySabRK+tUqtBxSYaBDRybrUmB1alPLBYtaNft9xyS2wrBgqx9OyymIQ6Vvj4mTFszkW7greLVUlAAgUEFLC8JSQgAQmUJlBrAhbP9CuvvDLuWEe4HnYnIYSE9LGjHCIVhVC/d999N+5+h4iC+IMtitBBviY2FeIYhDBsVYQLCt5FeCexGJuEIry3SCCPqEZIHeGN2H6IMQheeAMlwSsbQoj9lzyw2ipgYWvj9UXoHqFziC8IcIsttlizuyVmR7xQwMImRZDCZoXb73//+yhi8TdC7UgRcs8990TPMrynaAPpQRAKsdMLxT2uRb/ZsRBBEMGInQ5Z6EaY4mfCPuGMHV6sIPwNGzYsRm0gMuFNhVCJmIioB2/GNuWxQkgktJEwQux/hMzDDjssen0lQY7rc7+MHDkyvqcgWPK3nj17xr7wvTDfmQKWT8tyCChglUMr38cqYFVwfPIsYNFNJjU+vGnyT6sqtJsJkVWpYiscnMskQqJKjCeMA3ZvwRAgXr7Y6kwxrB3lgUXiTvpGrgQMASZPYvDpM27sfJG0nu+tFeMqeNtYlQQk8H8EFLC8FSQgAQnUj4CF3fnmm29GexFhioVU7DDyLSFkYXPy3CcJPNEBeAZxDsIHC6WEqa288spNHkx4B2HLYdPhpYWggXhCOCFeOnhlISCxcRFf1E19LFIiriCkJYElCTl4aJH8vBICFvYx+aoQYBCWaB+J5wnRQ6hpjY2Z3YUwHQ8z+oGQR7QEbMhNxYIyO4jTV4SoFOKH0JVCDostymLT8z6AiIRtnnZYhEnyvlpooYVKJsiH69133x292xC96OfSSy8dvaoIXUR8ZMdAvL+oO+XnYvGYa9MvhDJ2Dqc/nMO4cQ+QSD7toohdzrsHfWGcU1SJObB8SraFgAJWW6jl8xwFrAqOS54FrPSwJ3kjqySsDrFyQ2FiZ4IgN0FabSmMO2dS3nTTTeNEmbyUDj300KbtdVuDsa0CVtqFsNg1SOKOQdJcDiwMnttuuy0aUOysQt/oMxMjkywrVRhWGAYpxr41/fEYCUigsgQUsCrL09okIIH6IlBLHljJnsIG48URD6Fnnnkmev9geyHo4DWV0lPg1ZNSVOBtdPjhh8eFxuQhn/IijRo1KrDj3c033xx3FuTvLExi0yF8Ya9yTb4ohB9iv5I+IoUOprui0h5Y2NV4hJG8nnZQWCDFCw1vLEpLXv6FHljYqLQbDzVsWNglbzO8nxCuEIgoiDx4N+FBhUiIsFRKNIMdHm7kB6OtHEd6kN133z3a1Yl7sU8Q44R4xvvEQw89FL3jGAPeIfC8oo/UQf6zFN1AGhP+RjqPTz75JI4b90DyJqMNJP4nVQnvGQhoJJJHjCPag74oYNXX86y9e6OA1d7Eq3c9BawKss2jgFXYPSZ0wgDJWUAYIRMWkyOx7OweUyxJInUwsTAhEsOeEmGyIsJE3VzJTjZJwGKFJXlBkQCS3UUoTPxM+nh1cR4TIbkQUhL3YtehTuL4mxOwOI8k9azqsMqG8UMfmIDpP67iGFUIWK1ZHavgLWNVEpBAhoAClreDBCQggdIE8i5gYUcS7tWlS5coQqSQr7QbHWFreAsRHobokewwRA7EJ87D44odsZN4BQ1ss+QlxM+IL7feemvM04SHF8IHdmo6BpEHT6tFFlkk2pAIISnZe9bOSwIWXDkXzyYSjBcLIcQu5RjyeqVdCAtzYNEGdlpErMPupBACiXCTkpY3Z2dyDbyPCKUk5QfH4smEvY2nE/xeeumlyC71NeXZwpbv27dvFI3oNzxLRUhwHdpKfSR+Z+7lWNKJXHDBBbEehKjm2opoRmggxz/99NMxnxjjmdo1dOjQpigN/pY8sS6++OJwww03hNdeey32g3akdwXuF2xx8mSR7B3RkXeEwtDB9AkxhNCnZTkEELDw1KTwHooQzufTd79yKObjWAWsCo5D3gWslAeLHAJ4NY0ePTpOCuuss07cSYTJr1Th3KeeeirGvGM4YFiQR6ClROhpxYwJlhUXBKrnn38+Toy4KbOykry+mPh4uLAtL+exmsbuLqwilXq4YCCw4worOhyD8cHkjWtytlAfqzpMso8++mg0LDBcuCYrO+zOyPUsEpBAxxFQwOo49l5ZAhLIP4G8CVgk2sauwxse0ah3795hu+22+40NBtkkzmDnYYt99NFHMcwO2w2PIjylsC3xWEJISaXQ/ktiB/bbK6+8Eu69997omYRtijcSXkTzzjtvzDuFTUibkghWOMIsZiKopB3yCIPDLiVNRqGnVBKw6DMLp9iUtHv99dcPO+64Y6yaY/BMggkJ7hG4SNuBvZtyrjbngcX5CEFEBWDbYqMj5mDX9ujRI+bzYhGYftNX3jsQxjhmlVVWiaGUXLO5kvjxnTBAPN0YPwqeaoRAduvWrVUfBuog7xb14GFF7jFEKf5OZAdJ3QsL3GBIPzgHexxPMt4LGPfFF188CoRLLLFE9AJrLjJCAatVw+RB/0eAKCLeeSkIWAjNu+66qwJWDd4hClgVHLRaELCYOBChCBfkZ1yaSeKIy3BLAg6rJEysrHSxIoLw1Jx7ciFa4t7xssqutBSu8HCNFNrI+fw/u1NNYZ0w5xzqTgYKD6ViBgLX5TiMniSspfqYJEsZOBW8RaxKAhJohoAClreHBCQggdIE8iZgYVNlPZ+wCUt57iQBCBuML0QLBA/+juiSQgBTYvdEodQCZtamox0sSmLXUk8KS8N+TInEi9l41IHNmWxIbMcUAldsFNI1ky1L26g/22bsUtqBxxQCV+pXa23M5B0Fo3QO/YBtsqOTLc7vLNhiw9KOUpswFfaFa+BBhfcU3mGMA+eSX6xfv36RX0sl2fL0N3lepb8l+73Y7ovpPkjc6QtfJJvnugiQnNea9wsFrJZGyf9nCShg1c/9oIBVwbHMu4BFV9mRj1BAVkuYqJdffvkY/06ixZa2+c26KycBqLUJ3LOTWjVdNZtbqaH/9KGwzemcls6t4K1iVRKQQBECCljeFhKQgARqR8Aqx25KdiA2WPa89HPWPivXZizWjsLrNScgIQRlFz6bE83KEaI4lna0ZZfrrG2avSOKeaSVa1dTN15rhA/+85//jHYxebbI1ZV2TKz05zDlzy0c+9byLNaeQgFr7733jovyqc7mRLAkpCUWpFLhfYhziP4gby6bAljqh4ACVv2MpQJWBccy7wIWD2nyBTBh4baL91X//v3jbi54LbVUssZAS8eW+n85xk5br9HceZXoQzXaZZ0SkECIeThI3ksIBuXYY4+Nu1BZJCABCUggxJ2gd9ppp+jxQiGnKTmeGr00Z1u2ZPclIaO1AlZbxKJC0a4141VM5Ct2XlvsagS7O+64I4Y3EsqJl9iAAQNi2F9z4Zst2depn0lAyh5fTJTM/q3YOS31lzxahIARrklUyOqrrx5DxBjLJZdcMv5c6NGX6mRTKxiQcwwPNPJ5keKEPpDfVwGrNXdpbR2jgFVb49VcaxWwKjiWeRewiJcnESTx/rgOE+tPOGHPnj2bYvNbwtGWibKlOv2/BCQgAQgoYHkfSEACEihNQAGr9u6Oanv5t8UuJwcuCayHDBkSxVByaLFpUq9evZqSv7dWUEoj0pZ2tOVcrpOuRQL/nXfeOZDbl0L4IeIVXlQs0A8ePLhkOCTiF5tG8Z33N0Ia+eJ88qApYNXeZ62lFitgtUSodv6vgFXBscq7gMUHF+8rdlAhXJAk7Ox0knYBLHdVqYLorEoCEpCAApb3gAQkIIFmCChg1e7tMTkCTyV7TTtIWo/H1YsvvhgFG7yYyI1L8vpsmo32ei8oh03KV4ZIhYBF2CCeU0lwS15g7GTJjpilktqTCJ9dDkkon1KkpDoQtgYOHBh5WOqHgAJW/YylAlYFx5IHMDvcrb322k25ltjNAxfd5nYdqWATmq2KUBy29yXRJckSSdbI1sLNJUlvr7Z5HQlIoLEJ8PzEA4st1Akh5Jl5zDHHxDBCiwQkIAEJGELoPTD5BIjGGDp0aPQwwvsKgYfd2HgfKMyF214CVjm9yoYdEgZ41VVXxXxeCFpJgEKQYudH+lRqgyp2Rh8+fHgYM2ZM03mpHYQesoNiS5tbldNuj+14AghY6667bvTgw1uP+x4RM4/3ecfTyncLFLAqOD7FBCzcc5OA1ZEfEBIdHnLIIXG7YR7yK664YrjkkkviNrUd2a4K4rcqCUigRgkkgzQJWKNGjYrPJQWsGh1Qmy0BCVSFQKEH1vXXXx9zYGnHVQV33VWaEpYfdNBBMf8TC0WbbrppXCgiiTu/F8tVlVcQafdJdsLMfgboA7l92dWwlAMB57Cgnzy6sn1kkZ+cWnlwPsgr+1prF/fE/fffH9Zff/3YdO6P8847L4ag+vystdEMQQGrgmNWTMA6/fTTo4DVmu1gK9iU31Q1cuTIcP755wfi3tlud5tttgl//vOfY/igH9xqkrduCUigFIGsoczP48aNix5YCFjJAwsRyyIBCUhAAr/1wEoCVmKjPedd0tx8i2fSyy+/HAWrL774Inpc8QK/5ZZbNr0P1JKA5WhLoLUEuPdJ1L/hhhvG997kgcWmGD43W0sxP8cpYFVwLHjoP/bYY2GttdZqCiE87bTTAisdHS1gsdKQEhSy2jDzzDM3uduCwA9vBW8Eq5KABFpFoFDASh5Y7IrEM/Poo4+OXlgWCUhAAhL4rYB13XXXRfFBAcu7ozkC2bmW94GffvopHo6AhScKC0Z8ZXcR9N3Ae6qeCCBgEYXUt2/feJ/jzEEIIcn+fQeuvZFWwKrwmJEDi9jp5JJ6yimnhIMPPrhD8kylnTqSC2zaKpjvKVZco6fCN4DVSUACrSaQTdyKccGK8GqrrRa39eYZxSoxG09YJCABCUgghGuvvTZ6zLCTNIWQQvL8pBcwX8S8S4oRKJxrmW+z7wHp/+n+SYKX95P3U70QSALWRhttFLtEmCg7cSpg1eYIK2BVeNwef/zxGF87YcKEWPNf//rXcOihh8YVjo4o2Umr0C1YN+GOGBGvKQEJFCOA6E/y9j59+kQBq1OnTnFXpCOOOEJgEpCABCQQQrjhhhti0uEffvgh5iq64oorYkqIwuTbwpKABCQggf9PgA0L7r777pjzjUKOMzywdtxxRz2wavBGUcCq8KDlUcBqTRddZWkNJY+RgASqRQDjAgFrvfXWU8CqFmTrlYAEaprAjTfeGD2wkoB1+eWXh2233VYBq6ZH1cZLQALVJkDoLPmgN9988yYBiyTuO+ywgwJWteFXoX4FrApDVcCqMFCrk4AEGoJAoYA11VRThRNOOEEPrIYYfTspAQm0hsBNN90UBazvv/8+emBddtllUcDieWmRgAQkIIHiBMgDffvtt8ddWynTTz993IVQAas27xgFrAqP25NPPhkTxGFcUI477rhw2GGHxVhbiwQkIAEJFCeAgPXOO+/EHWI++eSTGHY9ePDgMGDAAJFJQAISkEAI4eabb44C1nfffRd5XHzxxWH77bePIdcWCUhAAhL4LQHEfvIG3nbbbTFnIGWmmWaKAhYLAEYh1d5do4BV4TF7+umnw2abbRbGjh0bPxBHHXVUfAGbYYYZKnwlq5OABCRQ+wRSnj7cu19//fWYn+DTTz+N+QkQsNgEwyIBCUhAAiHceuutYbfddgvs2ErhBYxt4NlRyyIBCUhAAv8lkM3zzO/kpmYBYLvttov/n3XWWcPQoUMn2QRDdrVDQAGrwmP17LPPhq222ip6EFAQr4488sio9FokIAEJSKA4Ady7n3vuuWhMfPbZZ/GZiYC1//77i0wCEpCABEIId955Z9hzzz3jM5Jy1llnhV133TWGw1gkIAEJSGBSASt5V40fPz5cf/318XlJmWuuuWISd0IK9cCqvbtGAavCY/b888/HHWE++OCDqP4edNBB0QsLpdciAQlIQALFCeDe/dhjj8UdYUaPHh2fmeziuvfee4tMAhKQgARCiLto7bXXXnGjC8ppp50Wdt99dxdJvTskIAEJNEOA1D4jRowI++yzTzxqvvnmC+eee25M6q6AVXu3jgJWhcfsxRdfjO7chMIgYGFoHH300WHuueeu8JWsTgISkED9EPjpp5/CPffcEwWrL774Isw555zh5JNPjlvGWyQgAQlIIIT77rsv7LfffjFfIOX444+PL2SzzTabeCQgAQlIoASBb775Jlx66aXh0EMPjUcsvPDC4Zxzzgkbb7yxAlYN3jUKWBUatJTH5eWXX47u3YTC8DfELAyM+eefv0JXshoJSEAC9UcA927yE2BckENwnnnmiQIWHlkWCUhAAhII4aGHHoqe/a+88krEQYqKAw44IIbDWCQgAQlIoDgB7MqLLrooRkVRFl988fC3v/0tbLDBBiKrQQIKWBUetDfeeCMaFw888EAUsMiHRRjMIossUuErWZ0EJCCB+iHArlqXX355zHs1bty4sNBCC4VTTz01PkMtEpCABCQQwlNPPRV3tn7iiSciDryxBg4c6CKpN4cEJCCBZgh8/vnnMWTwlFNOie/nK664YjjjjDPCmmuuKbcaJKCAVcFB4wPx7rvvhsMPPzzcfvvt8QOyySabhJNOOin06NGjgleyKglIQAL1RQD3bhJqnn322VHAWmyxxcLpp58edyW0SEACEpBACORZPeKII8L9998fcRBiPWjQoCj4WyQgAQlIoDgBNlcbMmRIDBuk9O7dO/6+6qqriqwGCShgVXDQEKz4gCBYDR8+PEycODGsttpq0UURpdciAQlIQALFCeDefcwxx4Srr746kGxz2WWXjTtsrb322iKTgAQk0PAEsDHJr3rssceGG2+8MfIgATEeBQj+FglIQAISmJTAf/7zn/C73/0uOpiQ0odE7iRtX2+99aKX/3LLLSeyGiSggFXBQfv111/DmDFjohfBmWeeGdgWnhjbCy+8MKyxxhoVvJJVSUACEqgvArh377bbbjH8mh0JV1pppeju3atXr/rqqL2RgAQk0AYCCFjvv/9+zA1IMmJ+x7bE5lxmmWXaUKOnSEACEqh/Akn8P+SQQ8K9994bBaytt946pvjp1q1b/QOowx4qYLdnADgAACAASURBVFVwUBGw8By46qqrYhjhzz//HGafffZw2WWXhY022qiCV7IqCUhAAvVF4OOPPw59+vQJH3zwQWDFjNWx888/P3Tt2rW+OmpvJCABCbSBAC9hX331VfTqx3OA52T37t3DFVdcEVZeeeU21OgpEpCABOqfAM9Owq/79+8fyFWNRxY7XuPNOsccc9Q/gDrsoQJWBQeVDwhhg3feeWfcOeuHH34InTp1iitlJCKecsopK3g1q5KABCRQHwRS/kC8rXhuUlgdw3t1xhlnrI9O2gsJSEACk0ngl19+CRdccEHAk4BF0znnnDMumq677rpuBT+ZbD1dAhKoTwLYmOzgus0228RdrhGw2I2QXVw7d+5cn52u814pYFV4gFkRe+SRR8J2220XCImhkBNrjz32CLPOOmuFr2Z1EpCABGqfAOHWjz32WNhwww3jIgDC/1577RW9DDQuan987YEEJFA5AghW7D6Ixz8CPykrtt9++/jctEhAAhKQwP8nwHs5Yv+1114b9t133/Djjz+G6aabLpx44olh//33F1WNElDAqsLAvfjii2GfffaJ2x1Tdt5556jy4uptkYAEJCCBSQngdXXllVdGY4KVMkKv2WmLlzRfyrxbJCABCfyXAC9jd9xxRzjssMNiUuJpp502vpSxE+EMM8wQj+EZSo4XiwQkIIFGJ8DzkLyqbHbBroMIWOSnHjx4cNhyyy0bHU/N9l8BqwpDN2rUqChY/eMf/4iGBDsR8qEhKbFFAhKQgAQmJUBel+OOOy6cd9558cVriSWWiKtjffv21QPLm0UCEpBAhsAzzzwTBX5CYqaaaqqYL5BUFSmXS9p1S2gSkIAEGp0A7+Hjx48Pe+65Z9y9FTGL3a0RsHg/t9QmAQWsKozbd999F5NsnnDCCU3eBMOHD4+J3Im7tUhAAhKQwH8JYFx89NFHYZdddgkPPvhgfEautdZaMYH7Ioss4jPTG0UCEpBAhsDo0aNj8mHsSgR/NroYOXJkWHjhhePvPFO1Nb1lJCABCfzXxvzmm2+i0E+EFIU81QhY888/v96qNXqTKGBVcOCS2zY5XFKsLaovBgW5XMiDlVy8K3hZq5KABCRQswR4bj788MMx59Xbb78dpplmmrDtttuGoUOHGj5Ys6NqwyUggUoS4DlJHhc2AyJn4BlnnBG3gGe3a+xKdiIkkTshhRRDCCtJ37okIIFaJTBhwoTw9NNPxx0I2e166qmnjlFSfPE89VlZmyOrgFWFccPQeOCBB8Lhhx/epPayoxbJ3BdccEE/LFVgbpUSkEBtEiDchRBrEhGPGTMmzDvvvOHggw8Ohx56qC9itTmktloCEqgCAWxLvnhm3nLLLfEF7L333osvYSwAYHPOM8880cb0pawKA2CVEpBAzRHAriT/FR6rOJVgY/I7OxJS9FatuSH977vB/zIbWipCIJt34IMPPoheVxdffHE0NkgYx9bHxNtibFgkIAEJNDqB5NrNy9ftt98evQmWX375KGgRRmgoTKPfIfZfAhJIBJKAxfc333wzDBgwINx9991RrOrWrVtgd8IVVlghTDHFFApY3jYSkEDDE+D9+4033ghbbLFF+OSTT6L36oorrhjzrfbs2fO/QogbXtTkfaKAVaVh40UMl25WxL799tvo4o1XwUEHHRRmnnlmPzBV4m61EpBA7RAgmeY999wTn5NvvfVWXAnr169fzH/FToQWCUhAAhL4L4G0SIqA9dNPP8U8q+eee24gRAbRCuF/t912i2GEemF510hAAo1MgOckz0aEfRZJeSay6cV2220XTj/99PgurvdV7d4hClhVGjs+OC+88EIYOHBgDCfE64qdtdiZkMTEGBsWCUhAAo1IIDn+fvnll+HAAw8Mt912WzQ0pptuuui5yktYp06dGhGNfZaABCRQlAACVvIW4Bl61113hWOOOSbamhQ2CiJ3YJcuXVwk9R6SgAQakkDKR813vK5wHmH3QcQqPFXZ8XrLLbfUxqzxu0MBq4oD+P3334eTTz45nH322fHljMRxfHB23XVXvQuqyN2qJSCBfBPgRYwvXsD222+/uAshIv9iiy0WRowYEZZaailF/nwPoa2TgATamUBhxo+vvvoqDBo0KHr7482KcMXvO++8s6kq2nlsvJwEJJAvAtiYeF8df/zxgbQ+eF9tttlm4W9/+1vMg6X3Vb7Gq9zWKGCVS6yM4zE27r333uiF9corr8QVse7du8cVsjXXXNMXtDJYeqgEJFA/BHg2fv7559F7AMGKkGtCBlkp23fffcOMM86oB0H9DLc9kYAEKkgg5cKiyuuuuy4ce+yxMZk7L2irrrpqGDZsWOjatasiVgWZW5UEJFA7BNixlR0H8fAnTyC5rxZeeOG48QUe/ryPpwUBc2DVzrhmW6qAVeVx+/rrr+NWx+x+gEcWXgZ777139MQi/pbih6fKg2D1EpBArgiwMoZwRQ6X9OK1+uqrh8svvzzuouVGF7kaLhsjAQnklAAhMkcddVS49tprw8SJE6NdiY3JYoB5BHM6aDZLAhKoGgGEKXYbPOecc2KOQHYhxNtqq622iikqFlxwwapd24rbj4ACVpVZ80F6+umno1v3Qw89FBVfYnDZIh43b/O8VHkArF4CEsgVgfRMxK37/vvvD7/88ksUrRD6d9ppJ5MP52q0bIwEJJBnAjw/H3zwwbD77ruHzz77rMnGZJt4dt6ySEACEmgkAtiYI0eOjNFPbA7Egin5VQkn7Nu3r+/ddXIzKGC1w0CyWwwu3ex6QNgM3gXLLbdcOOOMM0KvXr1ibiyLBCQggXomkMJeyHfFs4+8LaySsTL25z//OXqlssGFRQISkIAEWkeA5+o333wTvVmvueaaMHbs2NC5c+ew8cYbh7/85S9hmWWW0aO1dSg9SgISqHECiFVvv/12OOmkk+KmaYQOzjTTTNH7ilBrFkvdobXGB/n/mq+A1U7jSCwuLt3stsWKGZ5XJJPD64DExamk3RPaqVleRgISkEC7ECAnAWHUrILx3GMHQsQr8hJccskloXfv3jGHi0UCEpCABEoTKMzdwksboYT7779/9DwglJCXNraLP/roo8Occ84Zn7VpEcHkxd5dEpBAvRHg+UbaHpxFLrjggvDdd9/Fd+3f//734bLLLovPwZSewtQ9tT/6CljtNIbsEPPiiy/GHbdI6I6IhYHRv3//cNhhh4X55ptPVbidxsLLSEAC7U8ALwFWxMhB8OGHH8aXKZ57hBJuvvnmYdZZZ42N0rBo/7HxihKQQG0TYIHgzjvvDAMGDIgeCDxHyYe11157RWFrrrnmahKxfMbW9ljbeglI4P8TSIL+uHHj4mLo2WefHb744otoY+IgMnjw4PDHP/6xybb0+Vcfd48CVjuNIx+kCRMmhJtvvjmcdtpp4dVXX43GxNxzzx222WabaGSQWI6/+eFqp0HxMhKQQNUJ8OzD8+qOO+4IQ4YMCS+//HLMSYCAv8suu8R8gLxcTTHFFIGXMBO4V31IvIAEJFCHBHhpI4yQRQJCCbElu3TpEgUswrSxN/W+qsOBt0sSaGAC2JN49N90003hrLPOCh988EEUr2aZZZZw0EEHhV133TWGDlrqi4ACVjuNJx8wjAk8r3iJO/PMM+NLHX8nB9aee+4ZDjnkkN/E5xpS2E4D5GUkIIGKE+D59e2334YHHnggepoS5oJIRaggK2KEt/To0SNel2N5HiriV3wYrFACEmgQAoTQnHjiieHKK6+Mz17CCWebbbaY0JiNg/B0TSKW9mWD3BR2UwJ1QKDY84q/ESqIcE8eQIQs/jb99NNH5xBszPnnnz/2HtuThVJLfRBQwOqAcfz0009jfO7FF18cvvrqq/hhS/kK8EjghS7lgjHZXAcMkJeUgAQmmwBi1OjRo8MNN9wQtzMmDyAGBIL9BhtsEI444oiw/PLLT7IjjC9Uk43dCiQggQYmwDMUGxNP/xEjRkQRC8GKcG0ErK233jp07do1vshhX7pg0MA3i12XQI0QwJ6kpAil5BDCpkDXXnttuPTSSwM/c9wMM8wQ+vXrFwYNGhSfdQr2NTLIZTZTAatMYJU4nJc4XL15qbvuuuuisZG2+dxwww3DjjvuGFZbbbXo/pj9wFbi2tYhAQlIoNoECJcmDwuGBc84xCvKtNNOG9Zbb724ocXKK68chXpDpqs9GtYvAQk0EgHsyddffz0ulPIMTiIWXglbbLFFDCdcc801Y7h2OYukKdeMdmkj3U32VQL5IJB9/pBX+umnn472Jd5XP/zwQ1wgJe/flltuGfbee++w9NJLuzFQPoauKq1QwKoK1pYrxcD4/PPPw/Dhw8NFF10UQ2soKMV4YO22224BMYtt5Yu5PBbuQtPyFT1CAhKQQHUJ8FzChfvxxx8PV1xxRUwqTNg0hZcndl4lH8tKK60U/1bOy1N1W27tEpCABOqHADYmuWCGDh0aRayU1Bh7smfPnvEFb4011ggLLLBAq/IOph0Msx4Q9UPLnkhAArVAIDmAkJYCr6tHHnkkOoBQZp999pia4sADDwzdu3dvsi9dJK2FkS2/jQpY5TOr2Bl86DAqCLEZNmxYeOONN5pywLDd51prrRU23njjuAUo7t8YHlkFmoakkBs/oBUbFiuSgATaQICcfs8880xM1n733XfHlydWydJuWNtuu21M2r7ccsuZSLgNfD1FAhKQQGsJJFuRxVEWE/h677334ukslJILa9NNNw2bbLJJFLLw+E+LpcUWSAtDeLLt0P5s7ah4nAQk0BYCPH/I7/fEE0+Eu+66KyZsJwVPei4RKkjOq/79+4eFFlooXiK7QOozqi3U832OAlYOxgf37gcffDAm3bzvvvvC+PHjozCFezerY3369Inu3oTczDvvvE1hNxghWQFLr6wcDKZNkECDEMBwYDXsm2++CS+++GI0LO65557wwgsvRK8rnk+ECC655JLRqNhoo43CwgsvrHjVIPeH3ZSABPJBAG//e++9Ny6U8qwmxJuCjYnH/zrrrBNWX3310KtXr7hTYXrxK8yPVSyE0LyF+RhjWyGBWieQxKj0bps29sHR49lnnw1PPfVUfEd+7bXXoo2J4E5aiiWWWCLsvvvuMWoJZ49UT6GIVet8bP+kBBSwcnJH/Pzzz+HNN9+MSTeJ5x0zZkx8OUwvgQsuuGA0NFZZZZUoZC222GIx1jflMMiGGao052RQbYYE6ogAxgQ7WlH+/e9/h7feeqtJuHrppZfi6v5PP/3UlNNquummi+L7TjvtFL1ISayZDIo6wmJXJCABCeSaAC90P/74Y3xeY2OOHDkyfPbZZ00LoJ06dQrdunULSy21VOjdu3cMMSQEh7BvbMyU8F3bMtfDbOMkUNMEeOfFxuQ5g0c/NuXzzz8fnnzyyYCNOWrUqCi+J9GcSCUWRnfYYYe4IRCboVF43mWfVT63avq2KNl4BaycjCsfuJQ/BiPjkksuiWE4GB0YD0mR5qUQL6wuXbpEAwNRa9lll425stgqGWPDIgEJSKCSBAgF/PDDD6NohSHx6quvxhBBdhlMW7VnPUBXWGGFuCKG5yjiOzsPphwqtCvtClPJNlqXBCQgAQmUJpB2hiX58dlnnx2TILMYkRYWsDV5CcQLi+c2ng0kQsbOZNEUbwee3dTDd5/j3m0SkEAlCCBcYV+y+QTvwHhZIVjhfUVUEuJWek/mPRdHjj322CMujvI+nLxGC9PsKF5VYnTyWYcCVg7GJZsckw8o3li8LJII+cYbb4yeWcT+8nc+jHyQk+skSesQrjA6+BnDA88s8hvMOOOM0ethmmmmiV+8RPLBT1+E97iyloMbwCZIoMoE0qSeDACeIby48IUrNsYDP7O6xcoXO7ogTBEeOHbs2DBu3Lj4DOJv/M53jk9GA88UnjfkHujbt2/caZDVfP6WfckxzLnKA231EpCABJohwDOYF0IWIEhdcfvtt8cFie+++y4+0/k/diFfeGBhX5IfK33NNddcTX/j+c4XtiVeXNiZfMe2ZE5IIYjME0nwSj83l5+m8CW0lgbUF+ZaGi3bWgkC6fOKXZm+sDWxK1n85As7k+84ZfD84Qv7ErsyiVTktMLWxMbEDqUOvnie8FzhebT44ovH3H3rrrtuTEnBO276zBnOXInRrJ06FLByMFZZz4TUnCRk8YF+9NFHo5FBjhlCdHi55MHAeckoSCtifMizBkRy/05eXNncBq6e5WDwbYIE2okAn/1CISsJWkkY57mS/eKFBqODv3Esz5Os4M4LC2I5q/PkH1h77bWjiIVRoTdoOw2sl5GABCRQJoEUVkiSd3byYvMN8hfy4shzPz3zs9XyTMe+RLBKC6BJqEq2aOGiaLFdC7PCVrFm17KAVcoDpC19ys7ZhZwKhbK21F/mLePhEihKoJhtyYHck1nPqZQ3NWtjJoGL4yjpHTUJV507d47iOV79bDhBGh08rrLClcPSmAQUsHIy7sWU4+yHH7X6o48+Cg899FBcNcO9EiGLDz+eWUnQakt3XDFqCzXPkUDtEig0dkt5SRWubGFMpJV2QkxI/EsCYPIP4PnJ/9xmvXbvC1suAQk0BoHsroJ4RyBcvfvuuzFJMoLWO++8ExdM8crl/+nlszVCSSmbstADt15sz5aYNOcZ0pLXSEv/b++7VS/q9iZeO9cr9TnIelsWc9hIwlUSyLEjSZfDzoKECLIwikc/kUYI5zpf1M49Uc2WKmBVk24F6+ZDj0iFQcEXLpbvv/9+NDIwOvDUwgU8iVoYHYhbaSWt0LWT31uadCvYfKuSgARyQCBN/GnFLOuhyc/JVZtVdIwIBCvctlntIpSElS/y7eFxxQ6pGBkpRFnhKgcDbBMkIAEJtIJAVohIP2MzYl+yKEpYDzlpSKRMrkO+sDFZTE0LpxyXQtCxT5O3RfLspd7sz1kxpp7mi8KX8vawrTvaAys7fqVEiVbchh5SwwQKP8OFYcH8ji2Z7MysjZm8OLE5sSOxM8nvzBe599hUYv7554/enuTeSx6fSeyqYWw2vUIEFLAqBLIjqskaBxgOX375ZcydhZiV8tSQqwYjA2ErGSY8CDBEMEJ4SeX/ycjoiH54TQlIoPoEEK8wElIiXl44MBwQqbKeVRyDN1XKpYdQNc8880ShKuVGyRoq1W+5V5CABCQggUoSaMmTJokSyVMLoQpRi5BD7EvsTL4QtLAh04JpyneTwoQ4L+0ulhZOW/K8og4WYWulYEczrxaWrAdzuX2ZnHNbulZzoYmtOTcdk4QJFsrTfdLS+f4/fwT4XPKOWG7hPkJgwo7Evkz5lZNoxe/YlhyT7My0IEpYIB5VfGdhlBzOHJcNQW5OpG3pGVJuXzy+9ggoYNXemJVsMQ+hFE/MQQhVKdEyDyf+z0OGF1MS5/EAIH8NwpceWXV0I9gVCRQQSIITRgIGQwpPzibW5ZQkiifjgOcCP6ecJRyj4eDtJQEJSKC2CZQbmpYErWRnsqBB4YUzzR3peykPpGKiWbHFEJI7jxkzpmYA46GM50i234X9KsdLqTDkKss3C6VcIapYveVAzs796drpbwpY5ZDM17G8N7LjX7mFsU+7lpZjGyJqp3fU1l6z8JmiHdpacvV7nAJWHYxt1hBJH/JC46RwYk2TaXaVpz3cnusAt12QQE0SyApR2c9/MUOg8DmisVCTQ26jJSABCVSUQKXsxObmlLSQUtGGV7GyNLcWCk3NeZC01JzWnFuugFWOyNBc+z7//PPwyiuvRJERj5oll1wyphZIYmZLffP/+SIwOZ+37L1fzV4pYFWTbm3WrYBVm+NmqyUgAQlUlUC5K/RVbYyVS0ACEpBAhxNwXujwIejQBhBGesUVV4Srr7465t8loqNfv35h7733Dj169NBDu0NHJ98X99mR7/GptdYpYNXaiNleCUhAAu1AQGOjHSB7CQlIQAISkEANECAlCcLVcccdF3OhJU9uUhP0798/nHDCCTFXph7bNTCYHdBEbcoOgF7Hl1TAquPBtWsSkIAEJCABCUhAAhKQgATaSoDcZy+++GI49thjwz333DNJ3lxCB7t27RrOOOOMsO666xZNaN/W63qeBCQggWIEFLC8LyQgAQlIQAISkIAEJCABCUhgEgJ4zowbNy4MGzYsDBkyJJBkP+tlxf/ZNGqTTTYJp5xySujevfsk5+uR5Q0lAQlUmoACVqWJWp8EJCABCUhAAhKQgAQkIIEaJ8AOg/fee2849NBDw+uvvx57k93RMO1AONtss4WjjjoqHHzwwSH9rdgukzWOw+ZLQAI5IKCAlYNBsAkSkIAEJCABCUhAAhKQgATyRIB8VyeffHK45JJLAnmwkoCV2ph2iPvd734X1llnnRhmuOqqq7orYZ4G0bZIoM4IKGDV2YDaHQlIQAISkIAEJCABCUhAApND4KeffgojR44MAwcODB988EFJ8QpPK4SsmWaaKeyyyy7hyCOPDHPMMcfkXNpzJSABCZQkoIDlzSEBCUhAAhKQgAQkIAEJSEACkQCC1EsvvRQGDRoUHn/88fDdd99NImAlz6sUJph+79atW9yR8E9/+pNeWN5LEpBAVQgoYFUFq5VKQAISkIAEJCABCUhAAhKoLQKIUV9//XVM3D548OAYOpjyWiVxK/WoMEl7p06dQr9+/aKIRUJ3zjMXVm2Nv62VQN4JKGDlfYRsnwQkIAEJSEACEpCABCQggXYgMHHixPDII4+Eww47LHphlSoIXYU7EpILa/bZZw/HHXdc2GGHHcJ0000XT3c3wnYYOC8hgQYhoIDVIANtNyUgAQlIQAISkIAEJCABCZQigMcU4YJHHHFEuOaaa8L48eObxKcUJpjOLSZgJbFqrbXWCscff3zo3bt3QNRSwPKek4AEKkVAAatSJK1HAhKQgAQkIAEJSEACEpBAjRL44Ycfwl133RUOP/zwwA6Ev/76axSfCsWrbPeSkJXdkXDaaacN++67bzj00EOjR5YCVo3eEDZbAjkkoICVw0GxSRKQgAQkIAEJSEACEpCABNqLAGLVq6++GsWrhx9+OOa+SiUJUKWELLysOJ+Sjl122WXDySefHPDGmnrqqdurG15HAhKocwIKWHU+wHZPAhKQgAQkIAEJSEACEpBAKQIIUxMmTAinn356GDJkSPw5JW5vyQMriVZZcYufyX+1/vrrh1NPPTUmdLdIQAISqAQBBaxKULQOCUhAAhKQgAQkIAEJSEACNUrgwQcfDAMGDAgvvPBC9KLK7iBISCBeVoQYZgt/42u22WYLY8eObRK9kpg1zTTThDPOOCNsu+22YaaZZqpRMjZbAhLIEwEFrDyNhm2RgAQkIAEJSEACEpCABCTQTgQQqsaNGxcGDhwYbrjhhihSJa8rvnfq1ClsueWW4ZtvvgkjR45satWUU04Zwwa7dOkSdtttt3D22WfHerKeWJzfq1evKGKtvvrqTf8zJ1Y7Da6XkUAdElDAqsNBtUsSkIAEJCABCUhAAhKQgASaI4DY9NNPP4WrrroqnHjiieHTTz+NIlM2bHCJJZaIOwo+/vjj4ZxzzmmqbooppogC1nLLLRcuvvjiMGjQoHD33Xc3eWFxIPUQSrj33nvHfFh4a1E/3y0SkIAE2kJAAast1DxHAhKQgAQkIAEJSEACEpBADRNATHr55ZejwPTMM8/8Ju8V4tMBBxwQQwsRuM4888wmgQsPrIkTJ4YVVlghPPDAA+Hmm2+OXlxjxoyZhAhi1eKLLx6GDRsWll9++UA4okUCEpBAWwkoYLWVnOdJQAISkIAEJCABCUhAAhKoIQLJw4omExb497//PXpWFYb/IVD17t07nHLKKWHllVeOuxMSCphCBJOX1oorrhi9sz755JNYD0IVOxhmQwnJhbXaaqvFa5HQXQ+sGrphbKoEckZAAStnA2JzJCABCUhAAhKQgAQkIAEJVJoAohI5rwj/w3uKkL8TTjghPPvss5MITlx3gQUWiJ5Xe+21VxSc8K5KHljZdiFgPfnkkwHB65FHHgkHHnhgePXVV5vqywpZ5557bthpp53C9NNPX+muWZ8EJNAgBBSwGmSg7aYEJCABCUhAAhKQgAQk0LgEEJOSoES+K3JbjRgxInpMpcL/8ZjaaqutYtjgvPPOG/9V6IGVjs8KWN9++2248MILw5AhQ8LXX389SZ38ss4664STTjoprLTSSubCatzb0J5LYLIIKGBNFj5PloAEJCABCUhAAhKQgAQkUDsEfvnllyhcHX300TFxOx5WeGYRFsjXYostFgYPHhz69evXlHgdD6xsCGHqbc+ePWMIIV5dlNdffz16dd12222B62Q9sOabb76w/fbbh+OOOy507tw5XssiAQlIoBwCCljl0PJYCUhAAhKQgAQkIAEJSEACNUoAQQmPq5tuuimGBL722mthwoQJsTcIWVNPPXUMG8Tjao455mgSmRCw8KzKClIIUEnA4lx+JzTx6quvjrsOvvfee02J4fl/t27dQv/+/WOYIQniFbBq9Cay2RLoQAIKWB0I30tLQAISkIAEJCABCUhAAhJobwLff/99eO6558Ktt94axazRo0dHAatHjx4xDJAdA6eaaqqmZjUnYD3xxBMxB1YqJHQn/PDKK6+MYtnMM88c1l133bDZZpvFMMK55ppL8aq9B9zrSaBOCChg1clA2g0JSEACEpCABCQgAQlIQAKtJUDYICGETz/9dPjHP/4R3n333bD33nuHbbbZJiZaz3pIlSNgUe8DDzwQQxTx6Npiiy1Cnz59QteuXUOnTp0Ur1o7QB4nAQn8hoACljeFBCQgAQlIQAISkIAEJCCBBiBACGBWmOJ3clW9/fbb4eOPPw6rrLJKmGWWWZryYSUk5QhYnIOH12OPPRZmnHHGsNRSS4WZZprpty+i5sBqgDvOLkqgsgQUsCrL09okIAEJSEACEpCABCQgAQnkkkChgJUayd9/r2YcsgAAIABJREFU/fXXSUIBsx0oV8CiPvJhkdyd0ESLBCQggUoQUMCqBEXrkIAEJCABCUhAAhKQgAQkkHMCpQSslppdroDVUn3+XwISkEBbCChgtYWa50hAAhKQgAQkIAEJSEACEmgQAgpYDTLQdlMCOSeggJXzAbJ5EpCABCQgAQlIQAISkIAEOpKAAlZH0vfaEpBAIqCA5b0gAQlIQAISkIAEJCABCUhAAiUJJAErHZBCEXv27BmeeOKJkrmzRCoBCUigkgQUsCpJ07okIAEJSEACEpCABCQgAQnUGQEFrDobULsjgRoloIBVowNnsyUgAQlIQAISkIAEJCABCbQHAQWs9qDsNSQggZYIKGC1RMj/S0ACEpCABCQgAQlIQAISaGACClgNPPh2XQI5IqCAlaPBsCkSkIAEJCABCUhAAhKQgATyRkABK28jYnsk0JgEFLAac9zttQQkIAEJSEACEpCABCQggVYRUMBqFSYPkoAEqkxAAavKgK1eAhKQgAQkIAEJSEACEpBALRNQwKrl0bPtEqgfAgpY9TOW9kQCEpCABCQgAQlIQAISkEDFCShgVRypFUpAAm0goIDVBmieIgEJSEACEpCABCQgAQlIoFEIKGA1ykjbTwnkm4ACVr7Hx9ZJQAISkIAEJCABCUhAAhLoUAIKWB2K34tLQAL/R0ABy1tBAhKQgAQkIAEJSEACEpCABEoSUMDy5pCABPJAQAErD6NgGyQgAQlIQAISkIAEJCABCeSUgAJWTgfGZkmgwQgoYDXYgNtdCUhAAhKQgAQkIAEJSEAC5RBQwCqHlsdKQALVIqCAVS2y1isBCUhAAhKQgAQkIAEJSKAOCChg1cEg2gUJ1AEBBaw6GES7IAEJSEACEpCABCQgAQlIoFoEFLCqRdZ6JSCBcggoYJVDy2MlIAEJSEACEpCABCQgAQk0GAEFrAYbcLsrgZwSUMDK6cDYLAlIQAISkIAEJCABCUhAAnkgoICVh1GwDRKQgAKW94AEJCABCUhAAhKQgAQkIAEJlCSggOXNIQEJ5IGAAlYeRsE2SEACEpCABCQgAQlIQAISyCkBBaycDozNkkCDEVDAarABt7sSkIAEJCABCUhAAhKQgATKIaCAVQ4tj5WABKpFQAGrWmStVwISkIAEJCABCUhAAhKQQB0QUMCqg0G0CxKoAwIKWHUwiHZBAhKQgAQkIAEJSEACEpBAtQgoYFWLrPVKQALlEFDAKoeWx0pAAhKQgAQkIAEJSEACEmgwAgpYDTbgdlcCOSWggJXTgbFZEpCABCQgAQlIQAISkIAE8kBAASsPo2AbJCABBSzvAQlIQAISkIAEJCABCUhAAhIoSUABy5tDAhLIAwEFrDyMgm2QgAQkIAEJSEACEpCABCSQUwIKWDkdGJslgQYjoIDVYANudyUgAQlIQAISkIAEJCABCZRDQAGrHFoeKwEJVIuAAla1yFqvBCQgAQlIQAISkIAEJCCBOiCggFUHg2gXJFAHBBSw6mAQ7YIEJCABCUhAAhKQgAQkIIFqEVDAqhZZ65WABMohoIBVDi2PlYAEJCABCUhAAhKQgAQk0GAEFLAabMDtrgRySkABK6cDY7MkIAEJSEACEpCABCQgAQnkgYACVh5GwTZIQAIKWN4DEpCABCQgAQlIQAISkIAEJFCSgAKWN4cEJJAHAgpYeRgF2yABCUhAAhKQgAQkIAEJSCCnBBSwcjowNksCDUZAAavBBtzuSkACEpCABCQgAQlIQAISKIeAAlY5tDxWAhKoFgEFrGqRtV4JSEACEpCABCQgAQlIQAJ1QEABqw4G0S5IoA4IKGDVwSDaBQlIQAISkIAEJCABCUhAAtUioIBVLbLWKwEJlENAAascWh4rAQlIQAISkIAEJCABCUigwQgoYDXYgNtdCeSUgAJWTgfGZklAAhKQgAQkIAEJSEACEsgDAQWsPIyCbZCABBSwvAckIAEJSEACEpCABCQgAQlIoCQBBSxvDglIIA8EFLDyMAq2QQISkIAEJCABCUhAAhKQQE4JKGDldGBslgQajIACVoMNuN2VgAQkIAEJSEACEpCABCRQDgEFrHJoeawEJFAtAgpY1SJrvRKQgAQkIAEJSEACEpCABOqAgAJWHQyiXZBAHRBQwKqDQbQLEpCABCQgAQlIQAISkIAEqkVAAataZK1XAhIoh4ACVjm0PFYCEpCABCQgAQlIQAISkECDEVDAarABt7sSyCkBBaycDozNkoAEJCABCUhAAhKQgAQkkAcCClh5GAXbIAEJKGB5D0hAAhKQgAQkIAEJSEACEpBASQIKWN4cEpBAHggoYOVhFGyDBCQgAQlIQAISkIAEJCCBnBJQwMrpwNgsCTQYAQWsBhtwuysBCUhAAhKQgAQkIAEJSKAcAgpY5dDyWAlIoFoEFLCqRdZ6JSABCUhAAhKQgAQkIAEJ1AEBBaw6GES7IIE6IKCAVQeDaBckIAEJSEACEpCABCQgAQlUi4ACVrXIWq8EJFAOAQWscmh5rAQkIAEJSEACEpCABCQggQYjoIDVYANudyWQUwIKWDkdGJslAQlIQAISkIAEJCABCUggDwQUsPIwCrZBAhJQwPIekIAEJCABCUhAAhKQgAQkIIGSBBSwvDkkIIE8EFDAysMo2AYJSEACEpCABCQgAQlIQAI5JaCAldOBsVkSaDACClgNNuB2VwISkIAEJCABCUhAAhKQQDkEFLDKoeWxEpBAtQgoYFWLrPVKQAISkIAEJCABCUhAAhKoAwIKWHUwiHZBAnVAQAGrDgbRLkhAAhKQgAQkIAEJSEACEqgWAQWsapG1XglIoBwCCljl0PJYCUhAAhKQgAQkIAEJSEACDUZAAavBBtzuSiCnBBSwcjowNksCEpCABCQgAQlIQAISkEAeCChg5WEUbIMEJKCA5T0gAQlIQAISkIAEJCABCUhAAiUJKGB5c0hAAnkgoICVh1GwDRKQgAQkIAEJSEACEpCABHJKQAErpwNjsyTQYAQUsBpswO2uBCQgAQlIQAISkIAEJCCBcggoYJVDy2MlIIFqEVDAqhZZ65WABCQgAQlIQAISkIAEJFAHBBSw6mAQ7YIE6oCAAlYdDKJdkIAEJCABCUhAAhKQgAQkUC0CCljVImu9EpBAOQQUsMqh5bESkIAEJCABCUhAAhKQgAQajIACVoMNuN2VQE4JKGDldGBslgQkIAEJSEACEpCABCQggTwQUMDKwyjYBglIQAHLe0ACEpCABCQgAQlIQAISkIAEShJQwPLmkIAE8kBAASsPo2AbJCABCUhAAhKQgAQkIAEJ5JSAAlZOB8ZmSaDBCChgNdiA210JSEACEpCABCQgAQlIQALlEFDAKoeWx0pAAtUioIBVLbLWKwEJSEACEpCABCQgAQlIoA4IKGDVwSDaBQnUAQEFrDoYRLsgAQlIQAISkIAEJCABCUigWgQUsKpF1nolIIFyCChglUPLYyUgAQlIQAISkIAEJCABCTQYAQWsBhtwuyuBnBJQwMrpwNgsCUhAAhKQgAQkIAEJSEACeSCggJWHUbANEpCAApb3gAQkIAEJSEACEpCABCQgAQmUJKCA5c0hAQnkgYACVh5GwTZIQAISkIAEJCABCUhAAhLIKQEFrJwOjM2SQIMRUMBqsAG3uxKQgAQkIAEJSEACEpCABMohoIBVDi2PlYAEqkVAAataZK1XAhKQgAQkIAEJSEACEpBAHRBQwKqDQbQLEqgDAgpYdTCIdkECEpCABCQgAQlIQAISkEC1CChgVYus9UpAAuUQUMAqh5bHSkACEpCABCQgAQlIQAISaDACClgNNuB2VwI5JaCAldOBsVkSkIAEJCABCUhAAhKQgATyQEABKw+jYBskIAEFLO8BCUhAAhKQgAQkIAEJSEACEihJQAHLm0MCEsgDAQWsPIyCbZCABCQgAQlIQAISkIAEJJBTAgpYOR0YmyWBBiOggNVgA253JSABCUhAAhKQgAQkIAEJlENAAascWh4rAQlUi4ACVrXIWq8EJCABCUhAAhKQgAQkIIE6IKCAVQeDaBckUAcEFLDqYBDtggQkIAEJSEACEpCABCQggWoRUMCqFlnrlYAEyiGggFUOLY+VgAQkIAEJSEACEpCABCTQYAQUsBpswO2uBHJKQAErpwNjsyQgAQlIQAISkIAEJCABCeSBgAJWHkbBNkhAAgpY3gMSkIAEJCABCUhAAhKQgAQkUJKAApY3hwQkkAcCClh5GAXbIAEJSEACEpCABCQgAQlIIKcEkoD1v//7v00t/J//+Z/Qs2fP8MQTT4Qpp5wypy23WRKQQD0RUMCqp9G0LxKQgAQkIAEJSEACEpCABCpMQAGrwkCtTgISaBMBBaw2YfMkCUhAAhKQgAQkIAEJSEACjUFAAasxxtleSiDvBBSw8j5Ctk8CEpCABCQgAQlIQAISkEAHElDA6kD4XloCEmgioIDlzSABCUhAAhKQgAQkIAEJSEACJQkoYHlzSEACeSCggJWHUbANEpCABCQgAQlIQAISkIAEckqglIC14oorxiTuU001VU5bbrMkIIF6IqCAVU+jaV8kIAEJSEACEpCABCQgAQlUmEBzAtbjjz8eOnXqFNihkJ0JLRKQgASqRUABq1pkrVcCEpCABCQgAQlIQAISkEANEkCM+s9//hN+97vfxdYffvjhYciQIb/pyQorrBAQsPDAyopXClk1OOg2WQI1QEABqwYGySZKQAISkIAEJCABCUhAAhJoLwIIWMmjiu8IWGeccUb8WyqIW8stt1wUsDp37tx0vOJVe42S15FA4xFQwGq8MbfHEpCABCQgAQlIQAISkIAEihLIilT8PG7cuHDkkUeG4cOHNwlYSaTq0aNHuPnmm8OCCy4YppxySkUs7ykJSKCqBBSwqorXyiUgAQlIQAISkIAEJCABCdQOgazn1fjx48Nll10WTjzxxPDll182dYKQwYkTJ4app546bL311uGEE04I8803X9P/9cKqnfG2pRKoJQIKWLU0WrZVAhKQgAQkIAEJSEACEpBAlQmQ/wrPq2uuuSace+654cMPP4w5sVJBoEpC1yyzzBK22267sO+++4Zu3brFvFkKWFUeIKuXQIMSUMBq0IG32xKQgAQkIAEJSEACEpCABAoJIFSNHTs23HjjjTFx+6hRoybJfVWM2Kyzzhp22GGHcOCBB4b5559/EhFLMct7TAISqBQBBaxKkbQeCUhAAhKQgAQkIAEJSEACNU7g22+/Dddff30YOHBg+P7776M3VTYvVqnuTTPNNGG33XYLAwYMCPPOO28UsZKXVo0jsfkSkEBOCChg5WQgbIYEJCABCUhAAhKQgAQkIIH2IpBEqeQhhefVd999F0aMGBHDBt97770YNsj/WxKxUh14Yu2yyy6hf//+YdFFF42J3S0SkIAEKkVAAatSJK1HAhKQgAQkIAEJSEACEpBAjRD49ddfm8QpmvzVV1+F2267LQwePDh88sknk+S8KqdL008/ffTEIifWQgstFKaYYoqm0/XIKoekx0pAAoUEFLC8JyQgAQlIQAISkIAEJCABCTQYAcSk9IXnFQnbjz/++Ji8PZXWhA7+5gXzf/4nzDDDDDEn1v777x8Tu2dFrAbDbHclIIEKElDAqiBMq5KABCQgAQlIQAISkIAEJFArBAgRHD9+fLjsssvCBRdcEN555502e15lRS9CCqebbrqw6667hn322SeGE1okIAEJTC4BBazJJej5EpCABCQgAQlIQAISkIAEaowA3lXffPNNuOGGG8Jpp50WPvzww+iRlfJeTW53SOKecmIdddRRUdBK+bQmt27Pl4AEGpOAAlZjjru9loAEJCABCUhAAhKQgAQamABi1ddffx2GDBkShg4dGn744Ye4cyACVltyVRUmhQctOxP269cvXHTRRaFz585RwEol+3MDD4Ndl4AEyiCggFUGLA+VgAQkIAEJSEACEpCABCRQLwQmTpwYRo8eHU4//fRw/fXXh7Fjx7a442CxvhfLlYVAtfnmm4fDDjss9O7du+m0YkJXvfC0HxKQQHUJKGBVl6+1S0ACEpCABCQgAQlIQAISyCWBJCaR++rCCy8MV111VUzinpK7t8ZLKitecTy/zzjjjKFPnz7hoIMOCr169QpTTz11LvtvoyQggdoioIBVW+NlayUgAQlIQAISkIAEJCABCVSUAKLTRx99FM4888xw+eWXx8TuSZiacsop48+//vrrb65Z6HmVclz17ds3DB48OCy99NKB8y0SkIAEKkFAAasSFK1DAhKQgAQkIAEJSEACEpBADRMgnPCrr74KZ511VrjiiivCmDFjWuxNVsAifxY5r9ZZZ50YNrjyyiuHTp06TZL3qsUKPUACEpBAMwQUsLw9JCABCUhAAhKQgAQkIAEJNDiBFDb4/vvvhwsuuCB6YpHkvTUFzyt2Gdxggw3CAQccEFZaaSXFq9aA8xgJSKAsAgpYZeHyYAlIQAISkIAEJCABCUhAAvVHIJtcfdSoUXF3whEjRoTvv/++KZywsNfpHHJcrb322uHoo48Oq6yyil5X9Xd72CMJ5IKAAlYuhsFGSEACEpCABCQgAQlIQAIS6FgCCFJ4U/3nP/8J7777bsyJdcstt4Qvv/wyNiz9P9vKaaedNmy00UZh//33D6uuuqo5rzp2CL26BOqagAJWXQ+vnZOABCQgAQlIQAISkIAEJFA+gQkTJoS333477kxITqzC3QkRujp37hzWX3/9cMghh4TevXuHKaaYQu+r8lF7hgQk0EoCNSdgFVP9W9lXD5OABCQggf8j4LPUW0ECEpCABCQggeYIpJxYeGKdf/754eqrr45J3lOZfvrpY8L2AQMGhF69ekXPq7QLoWQlIAEJVINA3QtYvqRV47axTglIoNYJEBrAbkEWCUhAAnklkHLrJFuOF2OLBCTQPgTS547v2AwffvhhOOecc8J1110Xxo4dGz2tNt100yhesdugNkX7jItXkUAlCGTn18LPbjYXXiWuVek6ak7AAgAP0awRk/05C1zxqtK3i/VJQAIdTSAZkm1pBxNUel4Wez4WTlh5n8DawsBzJCCBfBJInh7pGYWtR0nPIZ5f6Wf+znFtfWGmnl9//TWfIGyVBHJEIH0e0/f33nsvDBs2LFx//fVhySWXDAMHDgxrrLGGOa9yNGY2RQLF3hX4DJdaFCq1OJTXRaMOFbCaE5iygNMgJGNm4sSJkxgt6e/J0CmsN2vweEtLQAISqGUC5KP44osvopBfTmESmnXWWcMss8wSJzBWTqkDd//07Pz555/DVFNNFfNZZHNY5HUCK6f/HisBCeSXAM+kf//73+Ff//pX/EJc4neeUb/88ksgTImfv/vuu6ZO8Oyae+6547MqldbYexzz448/xueoRQISaB0BbIfZZpst2g8ffPBBuP/++8Pyyy8fll566WgzWCQggXwQwGZnrkyhvimkN7uATUuZQ2ecccb49cMPP8TfmWfZkCF9529tXSiqJo12F7Cy4lJzq/uA4wsjY/To0dHQwF01fY0fPz7wIsf/f/rpp2jgIGylLwwfDCB+T6t66Tv1tsbIqSZ465aABCTQFgI80xCayi1MQnPMMUeYffbZQ6dOneLXdNNNF+acc84obE0zzTRhnnnmCV26dAkLLLBAmGmmmZpELvNZlEvb4yUggdZ6wXMcz7UxY8aETz75JHz00UdNxve3334b+OL/2H3YfMm2w+7juZbOx7bjf8nGS9+TvZcV66kPG9IiAQm0jgA2A0JV+ozxecSGSJ6ReXzJbV3PPEoC9UMgeSYnPYQFHr74fGa/+DzPMMMM0fZHsOIY3g8Qs/iOWD3ffPOFrl27hrnmmit3gNpdwEoEsqISL2MofxgmGC9vvvlm3LYV4YrdLtL/EKU4lu8MTDJi0sM0a6yk+rleoVileJW7+9AGSUACVSbApMYExUtcmsz4ORml/Dz11FPHyYwvVlsXXHDBsOiii8bviy22WPSCwGDlO3VkQ3uq3Hyrl4AEaoxANs8ezwoEJ+w8Xnyx7bDz3nnnnfD+++9H8QqhChuP/3Msth5f/Jw8sUDAsywtcmYXJLOe+zWGyuZKoCYI+P5UE8NkIxucQGGapWwYcPbnQmELgTotcPMzX9j7M888c1wA79atW3wX6N69exS5eFdABEv1ZB2TWruA1dah6jABK62m4VH1yiuvhEcffTQ8/fTT4fPPP4/GC0YMx2CcJC+qZLgklT/7IC31c1vBeJ4EJCCBeiWQdSfOiv1ZwZ/nbBK0mMRYjVlxxRXDaqutFr+YzJi4mOzSs7leedkvCUigPALZRUpEqO+//z56Vj322GPh4YcfDq+//nr0nscLipBBRCoWI7O2XDHPz8IQCEWr8sbFoyUgAQlIQAKlcolnNZaUc5y/IVLhqcV7AV5aCFm9e/cOa621VozcQOTi/2nur3bkRrsLWBgoxGWyk8UDDzwQRowYEd56661ouCTjJXkKpJep5CXA9xSLmbwI0vd0KxbGeZq7xQ+pBCQggf8S4BmbvBmYZJL3anI15n/pK+XYyk5mKT8W3lkbbLBB2HLLLcNyyy0XJ64kZMlaAhKQAM8XFiLxtHruuefCjTfeGO6+++5o/6VnUBK+U2JZnjU8Y3iWJHuP78kmTHn5snZeqZXlYqJ6c2krHDEJSKB1BPTCah0nj5JAHggULvJkf8+mWUrvCOlvzN/JEzorSvHekOZg5mSiMn7/+9+Hfv36hT59+sSUJEnIqqYG024CFp0nmdhrr70W7rvvvnDnnXfGcEHCA4GVxCoMF1b6ibfkJYkXI3K0sNpPTha+cGdj5R+vAMBxDkZPUgizITJZgycrchUzbvJwo9kGCUhAAtUiQPgOL5ApLAcPCL7wjsDzlWd0+vrmm28CX19++WV8CeW4tBrDpMQExXN6lVVWCX/4wx/CSiutFOadd9744pn1kqjmBFYtTtYrAQm0jUASrj7++OPoWX/TTTdFb6uvv/46PmOS7YW9hi2HbcdzBFsPmw/jl9+TvUeIQja0GbsPe68wHDoramV3W80+f5Io7zOpbWPrWRLws+M9IIHaIcB8nMLtk5NQ+p7eA1KoPp7QKc8k7wSE9DNv8w7Az4V5yNMuvjwTmJcJKWRX0s022yysueaaYeGFF44hhtV6ZrSLgIWKh8fVyJEjw5VXXhlDBrOr+whQJAqbf/75Y4cXX3zxCIHviFe4qhWunCU1MHkHZF+saufWsqUSkIAE8kWAZykTGjlp2C6b5zW5ashTM2rUqPDZZ5/FPDbZQvL3rbfeOvzxj3+MOxLxYlroDZuvXtoaCUhgcglkc1yluthw54UXXgjXXntttPkwgCnJRkOkIiksYjd5NHr06BGWXXbZphAExKmswZsM8JSYNl2n0AukmJFc7Rwck8vP8yUgAQlIQAJ5JpB2/yVf5auvvhreeOON8Pbbb0cnJHKVs9DNXJsSxLPgtN5664X+/fuHXr16xQWpamzwUBUBKxkNqdMPPvhguPDCC2Pug+zuWXhRkSA45VXp2bNnWGSRRSbZvj3Pg2rbJCABCdQbgWLhAay0MFG99NJL4cknnwxPPPFEnMBYkckuJvAyuttuu4VNNtkk7mSY9caqN072RwKNTiC7cIjojeCNcHXZZZeFTz/9NApRPB94DiBYIW6vuuqqMYcezwpWbFNC9my+jMLw5ULOxZ5RCliNfjfafwlIQAISqBaBbOghURl4VpO7nHcCfsbrmpBDCvMxwtV2220Xtt122zjf46VVyVIRASu7ypV+Jizwgw8+iHkPsnmukqsZYtXGG28cw0+WWWaZuGKfQgCLrZqZu6CSw25dEpCABFpHID170xb1LELwovrss88GFifIZchkxnGE9RD6s9VWW4VtttkmPt8LPSpad1WPkoAE8k4gCViEHfAswNYjzxWpIdKKLMLVRhttFEMKWI3F0z7lMi2W5LUlz6qW/p93ZrZPAhKQgAQkUIsEsg5KaWdgojLwusZJ6ZZbbolRGilPFo5KJHnfYYcdwrrrrhtTBVQqpLBiAhYDkYwZGv7888+HSy65JOY/wIWcTuNWtsQSS4T1118/bLjhhtHzis6lort3Ld7OtlkCEqgXAs0tHmSf0/ycPC5STsOnnnqqKccNz/o11lgj7LXXXmHttdeOohalUhNXvfC2HxKoJQLp+ZBN6ErI4O233x4uuuii8PLLL8cVWD7n5LJCtCIfBs8CPDIRuCnZ80s9E4qljUisfI7U0l1jWyUgAQlIoB4IFDosZd8LsAVY0L7jjjviglaK0GDBCu1n1113jflyWcSiZHNVtoVNRQSs5O6dDI5HHnkknHvuueGee+6JiX8p5LkirIQOsAqH63g1S3aVTmOnmqStWwISqGcCzYXr8D+SwhNOeMMNN4SrrroqJnxMuXHIZXjwwQdHbyw8sZKI5TO5nu8Y+1bvBJIAxeLksGHDYooIQgZTnotu3bqFnXfeOdp8bLVdLKl6SwuW2nD1fhfZPwlIQAISqGUChfM4tj85c1nYvuCCC2K+rOTcRK5c7IIDDjggLnClTfba2v+KCFjJmCFs8KGHHgpDhgwJiFis0GO4LLTQQjGZF8obidmzLzJtbXhL52n8tETI/0tAAhKYfAJMTjxvSfrOosX5558fE7/z/GeCWmqppWJerB133DHuSDK5qy6T32JrkIAE2kqAzzqfeXYrPe+888Lll18ec19Q2BWa5K077bRT6N27d9xVMInVfu7bStzzJCABCUhAArVBABuBxO7oQFdffXW46667mnYxR8RiQfuggw6KeTEnJ7l7RQSstGvVM888E0455ZToQsZ2jLiNsfq23377RfGK7ZL5W3vks2qPa9TGrWQrJSABCVSfAM9cct+Q0HHo0KHh/vvvj5MWIhabcxx22GFhyy23jLvK6oFV/fHwChKoBgHsPXJckCJi+PBnEHawAAAgAElEQVThcXMHPvuzzTZb2GKLLeIKK8naEasLi5/7aoyIdUpAAhKQgATyQwCbgN3K33rrrZgbEyGLRS/+zsIW6UX22GOPsOCCC7a50RURsLj6iy++GI477rhw5513BjyxeGnp0qVLfJFZffXVJ8l11ebWFjlRoaqSNK1LAhKQwOQRIAciHlgDBgyIKzDMB6yydO/ePQwePDi+5Db3IutL7uTx92wJVIsA9haelXhenXTSSTG/KQXPK5K0HnHEETG/RbFV1ZZCBqvVZuuVgAQkIAEJSKD9CaQdzM8888yYJ5NFbWx80kgdeOCB4S9/+UsUtZLdX0703GQLWKzGkfuAsEFW5CZMmBCNFxK0H3300TH7PCtxKXln++PzihKQgAQk0J4EmAfeeeeduKiBJxaeWeRB7NOnT/TEYlGDUHImt8KXXQWs9hwpryWB1hNAvGJjnlNPPTUmbMfYnHPOOcPWW28dc92lHQaL1aiA1XrOHikBCUhAAhKodQLM+0nEwqEpmyeXCL3DDz889OvXL0w77bRRxMra/y29C0y2gMUKHK5hp512WnQr52WERg0cODCutE8//fS1zt/2S0ACEpBAmQTYjQxPrOOPPz565rLYwa6zvOwyP3Tt2jXWWDhJtTRpldkMD5eABCpAACP0pZdeCv+PvTsBt7ca/8f/oEQZypQmogxlSKWMJSlDREgpNAipZChKKUSZUqhQGkQoJTRpLiRShiRCkkwhQ99fyhD6X6/1/d+f7+rp2WfvfT7nnM/e+9zPdZ3rTM9ez1rvtZ51v9f7vte99tprr+aiiy4qkVhOF5XPQrSlUwYXJp/FDFQxi0gEEoFEIBFIBBKBEUOAkHXdddc1hx12WAl2cviTlFLyovvbuuuuW5zccyZgWaBcfPHFJTkv8UoF5bmyTQSpsVhxDRMSNmKYZ3USgUQgEUgEpokAG/G1r32t2XnnnZtrrrlmwf53YcOvfvWrO7eWp4A1TbDzY4nALCLgSGzC8/HHH19ynIqqf9azntXsv//+JecVMppXIpAIJAKJQCKQCCQCNQJx2J8TCm0ddOAfHmEnhmAnQVCcYMPoRdOKwIpQ8B/96EfN29/+9uaUU04p3nXJeZ02teuuu5ZQcgRnmMpkdycCiUAikAhMFgJOIznjjDNKfpzrr7++eFjWWGONcuCHLeax8E3harL6PVszGQjgcIimRKyck7yoPKWrrbZa2Ur4xCc+sURi5ZUIJAKJQCKQCCQCiUAvBKQX+d73vle2Dn7nO98pkdwrrLBCSUGw0047lZRTg+Y2n5aAFRWTyNP2ENsIhY4/+9nPLoLWmmuueQfxKj6Ti5Qc2IlAIpAIzB8EGCPRGzwsETrMucHR4Shdh32kfZg/4yFbOl4IcE7Kd0W8Ov300xtRlbb/IqAveclLmqWXXjpPFR2vLs3aJgKJQCKQCCQCc4ZAiFKRE+u4444rB8H84he/KHoRZ/YBBxxQ8qdH8FM/vWgoASsir5wqxZPu1JlvfvObJUEXb9w+++zTbLHFFrfLg1BHYEGqX4XmDM18UCKQCCQCicCcIBCLYFuQJHVnBwhXorAkcBTRkSLWnHRFPiQRGAoBuSo+/OEPNx/5yEdK3grOyu23376Qz/ve977J6YZCM29OBBKBRCARSATmHwK1HvTHP/6xpB+Q/8p6gCNMWhFrBLxikGsgAau9DdCWEKcOHnHEEc2NN95Y9jDaOij6Sg6svBKBRCARSAQSgRoBJxEec8wxJZLDQpjREsHBliy33HLl1jypLMdMIjBaCEjYLkn7pZdeWiom+grpdKJo5r0arb7K2iQCiUAikAgkAqOOQORQ32677Zpf//rXpbp270lLsOGGGw7kGBtIwAogLC540u1fFGnlof72sIc9rHjoJPTMCKtRHzZZv0QgEUgE5h4BtsKphCI3Tj755BK5K2njkUce2ay//vrN3e52t9vlTFTDtCdz30/5xEQgEOCgJFbZ/vu3v/2thPY7gGHHHXdsll9++QQqEUgEEoFEIBFIBBKBoRH405/+1HziE59o3vve9zY333xzyX+1++67N7vttlvJq9mP//cVsMIjHt8l4Dr00EPLdkFbCZ00SMyyFWTQsK+hW5kfSAQSgUQgERg7BOroXc4PyaBPOOGEkj+H8WKwbEW3KI4TSIY5RnfsAMkKJwJjgoB39/vf/36JvnKSqGuVVVYppxA6dVDkfV6JQCKQCCQCiUAikAgMiwAn9s9//vNmq622Ks5tawTRV7YWrrvuurdLR9VVdl8Bq/0h+xZ530477bTyMKdJCfmSgKvOYzJsQ/L+RCARSAQSgclCoJ0D0e9OryVYOZnQteyyy5aIrHXWWadEeKSANVljIFszfgh4T//xj380p556avPa1762RF8tscQSzS677NK8+c1vbu53v/uVCMrcQjh+fZs1TgQSgUQgEUgERgEB3IKGdPDBBzcCpOTCsktjm222KQ7uqaKwBhawIgLr3HPPLR65H/7wh0WwetGLXtR8/OMfL5FY/cK9RgGsrEMikAgkAonAokGAHbnllltKQujYliQptDxY2267bXOve92rVCxtyaLpn3xqIuAdFV1/9dVXl1NDpYfwjj74wQ8u0fcbb7xxEZrzPc2xkggkAolAIpAIJALTRQDXuOCCC5rXve51zTXXXFO4hpzqkrmvvPLKMydgqSBl7JBDDmlEYkm8ayvIG97whunWPT+XCCQCiUAiMI8QELl7zjnnlG3o8im6tt566+KFWWGFFTKR+zwaC9nU0UTAVt/zzjuvpIa4+OKLSyU33XTTIjo/4hGPGM1KZ60SgUQgEUgEEoFEYGwQsB4gXL3zne8s6UX8/vjHP75EZK233npTtmOoCCxZ4x1z6CH/+te/msc97nHN4Ycf3jzhCU8YG7CyoolAIpAIJAKLDgERHr/97W9LJO+JJ55YKiKnzuc+97lm9dVXX3QVyycnAolAEZB5RU8//fTiCXXqtIhIgvOb3vSmEuKfVyKQCCQCiUAikAgkAguLgFPJRXtbE+AfyyyzTPOxj32s2XzzzRdEe3c9Y2ABiyom2ZZ8CBJ6+n2TTTYpGeR5zfNKBBKBRCARSAT6IRAL5He9611le5I98BK4O+1MlEdeiUAisGgRcCLQEUcc0ey1117FWWlr70c/+tESKSnEP69EIBFIBBKBRCARSAQWBgHrAXrSmWee2eywww7lcCfpqXAPu/ucRtjrGljAEn31la98pRR61VVXlfJ44/bdd9+iluWVCCQCiUAikAj0QyASu3/yk58sp4388pe/LEmhJYfmgcn8V/0QzP8nArOHgPfzhhtuKNyOVxS5XGuttcoW32c84xmz9+AsORFIBBKBRCARSATmBQIhXsmpedlllxVN6ZJLLilOMvnVcQ65NxdawJITQeLdgw46qJAbDxZ9xSO31FJLzQuws5GJQCKQCCQCC48A+yGSl0Pk0ksvLaeNvPSlLy1RH5EgeuGfkiUkAonAsAh4N3/1q181r3nNa5rzzz+/CFhbbrllEbRyi++waOb9iUAikAgkAolAItCFQBwQeO2115Yc6xzbnNhrrrlm+flRj3rUwgtYjjfcbbfdSoFCyj30q1/9avOUpzwlj1LOcZkIJAKJQCIwMALsB4PFppx66qnF47LBBhs0Z599dgpYA6OYNyYCM48AweqnP/1ps9lmmzU/+9nPCpnce++9y7t6n/vcZ+YfmCUmAolAIpAIJAKJwLxDIASsm266qeS9etvb3lb0pWWXXbasDSR0j3va4Ay8hfDPf/5zSeipQNcSSyzRXH755c2qq66aORHm3ZDLBicCiUAisHAI3HLLLc2uu+7afOpTnypRHo9+9KPLyWf3ve99U8RaOGjz04nAtBBAFKWLcDooActp04svvnjzoQ99qNlxxx3zvZwWqvmhRCARSAQSgUQgEWgjEOKU7w5ykmddDk4a05e+9KWStmCxxRbrTC0ysIDFIyek/KKLLiqFrbTSSs0FF1zQrLjiiklqckwmAolAIpAIDIXAf/7zn+atb31rc+ihhza2qK+yyirN5z//+XIioSSOeSUCicDcI8ATesYZZzS77LJLOYFQ1JXDFl72spdlfrq57458YiKQCCQCiUAiMJEI1NFVp512WrPTTjs1119/fdGVpKl68Ytf3NzjHvdYOAFLYi3e8u9+97vN3e52t2ajjTYq+Uoe+MAHJqmZyGGVjUoEEoFEYPYQIGAdfPDBzQEHHNA4RpdT5JBDDmme+cxnNksuueTsPThLTgQSgZ4IOAXo05/+dOOUUO+lKHvv6fOe97zkejluEoFEIBFIBBKBRGBGEKgFrAsvvLCcPHjllVcWAeud73xn2flnO2HXNVAElu0d55xzTrP77rs3P/7xj5t73vOezfbbb1+Sejo9Kq9EIBFIBBKBRGAYBNiVY489ttlzzz3L0bmM1Nvf/vZmm222KR6XvBKBRGDuEeD9FHH10Y9+tJH7dI011igC1tOe9rQUsOa+O/KJiUAikAgkAonAxCPgQCc608UXX1wELNsJnU7e6yTCgQQsqJ188snNHnvs0fziF79olllmmbL149WvfnX5Oa9EIBFIBBKBRGAYBERgffGLX2xe//rXN7///e+LM8TPvu5973sPU1TemwgkAjOEwG9+85siJB9//PHNP/7xj2a99dZrDjzwwGbddddNAWuGMM5iEoFEIBFIBBKBROD/EPjhD39YHNpnnXVWEbBsHxQJ/vCHP7wTpoEFLMm1iFa//vWvS5Ld/fffv9lqq61yoZGjLxFIBBKBRGAoBIQNi8A688wzi5flt7/9bbP00kuXcGGnkPg5r0QgEZh7BK677rpy4uDpp59eTpyWLoKA9bjHPW7uK5NPTAQSgUQgEUgEEoGJR0CudfyfY9vpx89+9rML91h99dUXTsA66qijmn322af5wx/+0DzgAQ8oiXc32WST3Oox8UMqG5gIJAKJwMwiQMDy9fWvf73ZbrvtGovmpZZaqnhcnHgmcXReiUAiMPcIXH311SW6Xhj/v//972bTTTdtPvCBDzSPfOQj574y+cREIBFIBBKBRCARmHgEfvWrX5XUVMcdd1wRsJ70pCc1H/vYx8rBTn5vXwNHYMmH8I53vKP585//XBK3H3300c0GG2yQyXYnfkhlAxOBRCARmFkEQsC67LLLmq233rpsTXc4CI/LkUcembkVZxbuLC0RGBgBXlAnDl5++eWNbb6bb755EbAe8pCHDFxG3pgIJAKJQCKQCCQCicCgCMi/KXG7NYBL/k1a05prrrlwApYknu9+97vLqTTLL798c8IJJzSPf/zjy6Ijr0SgHwL//Oc/G19LLLFEc9e73rXc3qWo9isn/z+6COhfW07MCYsvvvjoVjRrNhIIELGuuOKK5iUveUkj6sO8sOGGGxbvSx4OMhJdlJWYhwgQsF760pc28lEQsIhZ73//+5sVVlhhHqKRTR4FBGw3Zy/kZHPd/e53b+585zuXvyWXHIUeyjokAolAIrBwCNxwww1FZzrssMNKQaK+nYi89tprL5yAxQOn4JtvvrlZccUVyx5FYV0WHSlELFynTfKnEWDbTkVaGJwPetCDmnXWWafkTjNucuyMf+/bZvLHP/6x+e53v1v6eOWVVy75UmwDq49IHf+WZgtmCoFYeFx11VVl2+BPfvKTYkuEDJ900knN/e9//5l6VJaTCCQCQyDgnXzRi15URGX2e9ttt23e9773lcj7vBKBuUaAreAY4+wwNl088o94xCOKoyw55Fz3SD4vEUgEEoGZR+Avf/lL0Zmcgmxef+hDH9p89rOfbZ7whCd0PmygLYQMyHve856SuJ0hIUJI8Ckz/GKLLZYGZOb7cWJKFBIoHPCQQw5p/vrXv5bjMJ0q8PznP7+5173uNTHtnM8NIVASuCnl+tik4xSrLbbYIgnmfB4YU7Q9thDaOviCF7yg+fGPf1xsiYUJ2yLPYl6JQCIw9wj86Ec/ap773OeWA3tEvsiH9d73vrcc3pNXIjDXCNx6663NJZdcUg6R4iQjqrIZtpo86lGPWqTrj3TQzfVoyOclAonApCLw//7f/ysC1gc/+MESYbvccss1J554YnFsTzsHlklaoUQsxoQIcf755xchy1GHec0tAgy4o65FvcTV7ly/28plANzznvcsg2FR9JXIK6eM2Y6ADLsIG/Kp8aDNxSVC6G9/+1shPnCwUB52m9uf/vSn5ne/+13JAWcbrbJEkYkyEpFoy1MdUaat8yHCDA5XXnll87SnPa256aabSsQVr+gOO+xQDn0w/tJDOhejfLyeERFYFskWy8aQ+Wm11VZrzjvvvGbZZZcdrwZlbROBCUHAu/j0pz+92Drv6c4771wErHQ4TUgHN03hYri87aK+BzfraqG5GL/BmcKWz6VNv+WWW4rz3MFRdoC4cK799tuvHAAyV3X5+9//vuD5eKRDR3AdP7cv7w3O6HRd/NOFK3Lu5XVHBDg+cQEBEsNcuLzcfLj4uF7GioW799BlTBlb2pZXIjCfEDC/H3DAAYVvmNfNmV/+8pebpzzlKdMXsADI2yGMPASsb3zjG2WRsShEkfnUoe22Iho6+fjjj29OOeWUO+QAqI2pPAHC/pEPYqNBsNJKK5WtOl1GdzZw/c53vlMIcCSE9dwtt9yyROiI4JuL65e//GVzzDHHlOggxoFw9pznPKdg4eoiQIwKccaWuEsvvbS56KKLmp///OeNEEfleA+8XLzSq666ajnQQE44go02TrqAFe3z/Qc/+EGz8cYbNzfeeGMZjwzvK1/5yiJSGn9zRTDnYizlM2YGgRCwfv/735fE7baHeG/MCRdeeGFuV5oZmLOURGBoBLyLT33qU4vTx3v6+te/vjgvLarymgwE8BcOUCIQkaWfgIXrL7PMMoXjyEdCzDRfz4VtJ2BZ1DhIykLfMwlY/vbyl798zjrkC1/4Qjk110UweeYzn1m2tkS+zxoLeHLy2/6CQ+JE7t1rr73mBLM5A2UGHmSO4eg+/PDDG3xg0MvaU6qBN77xjT1PKRu0rEV5H9HuwAMPLG03hghyTn61rsgrEZhPCHASxG4/78I97nGP5owzzih8ZNoRWCFgUcUYPjluHLHMqM2VEDKfOnGqtprsCQUi4nikwrvTyzPmfonTTfS254h+It7M1TH1SBLxyAQdWwgRDxO0yLCua6bDshlHiaJFrRmvti8SVx796Eff7vFtAmIrxSc+8YnmnHPOaRzvKYGoe9qJQxEY78Tznve85lWvetWC48bngtwtqveiFuhsE7VnGVYIJgNMoJQIOBL2T7eeMz0WpluP/NzMIhBbCJE281EKWDOLb5aWCEwXAe8iZxfhwDwfAtaSSy6Zi+/pgjpin8PjcRpcSBRWryvmaf/HI3EmEbNypK2++upzEiWC43KEvvnNby5bCHE4Tg8LnZmK4u+VDL7mH29605vKke7+5kCDt7zlLcVRF1FYbf74mc98pvB0DlQClm2PBK10+v/vaAvMfbdIfcMb3tBce+21A70psbvhYQ97WFlfPPnJT57yc6PMI82z6667bnkPtcvca9xYtM+lI3yUMRpoUORNY49AW8DiNPvKV75S3gXXHXaa3RazSJ+mi8CqBSx70kX2pIA192OGEKQ/ZOoPzxmhoCsfmSgiZEU36ytbdHbddddmq622Kupm+5rpSUz95EhCPAgdxA0evKWXXnrBYOx6Zvtvg9zTqyeQH1FfCJv6EJrk4XJEZ21I4+XwrGuuuaZ4/I499tgiGMIOUYEzAgJXxAq2vvssr5yEt4iOiLfZFLBmup8GHcVdz9V+ffy9732vhM3rY0R3Jk6Sm047p/OZQduf980MArWAtckmmxQBy/uCkH71q1/NCKyZgTlLSQSGRkBErQUhMllHYKWANTSUI/sBNjvyD0rW78Jxug5lMgbcj/PgT7jbRhttVASctdZaq+8aIOzxwthlJxyzEbHI54wVodLLQTbss7oErPbfQsCCAQFr9913Lw5Lwl47XYTP2iWBp9sahzMS/ohak3hC87B4G29wNKasWyxSCeXGJCz9rd8BYZ7JcSzHrhw5va5e4uRcv5y9MCJgic5zkI3LYp2ARciKzwy6lhikH3rdMyo4zXW/5PNGB4EuAevMM88s78K0BSwDe9999y1HKZtwTBq2VYniSQFr7jvfNjaGkcASC0HeC+Hd8hQwDL4MBkKMaDkCki0BDAPh5uCDDy5CEuPLuMYxxREWHsp/tM5z9L2JNI4vHsST5HPKEiZL7FG/IB0xYbYnzq5JO+oXBi8Gc7+JXVm9BCwn5cWzo53Kk8uJV4dgS5CJhbVIkSc+8Yll3NvGKUJLwmnlI3jKEpVoq+0LX/jCzpwh0V/tI6CDHMJ0kDwTvUhhlB+Equ43Zcf/Pc/vw76/NV5t7JFM/WzrauzfH9SDFGNEnbr2/vfr53qcKivwjTEbuA5i4Of+jZ5/T4xxKM/Os571rLLF2EX45RzJE8/m35jIFo8GAgQsds5c7j21RYctxBXymgwE8BXRLiLhf/azn5VGiQIhyNgqGHyELbUFzvwsjYJoosj/+ZrXvKbZbbfdSnR/vZ2w5o51xHpwQd+De8TfBuGS+GNEwRNT29ylzeW6FjzuiV0LtcO3a/HeLo9gJQLLeyH9hKTyIrBCaGlzCwKWdRPM8F788XOf+1xPAav+fDw76qqtgfFUHKwenW1O73/BB/0v+iD6qB/HauMRPMvn2pzLve06t8uv+56AxbFOwIIngdJY7NopEvXwTE549+LdvcoPLgzLGJv6PlJ99OLAXWMiMOzikbHu8rxe47muY5RPwCLAOcjG39Zbb70FEVj1c3r1T5RTc/+a97bfg17jp35v47meGbmD4+cImqiF2EHHZODXhUO9BpuMWTZbMSwC3lHrZ/OmMWKeP+uss4qo2/XODXwK4dve9rZy0pjBLMLCop2h6zfpDduAvL8/ArWAFZMOz47IIhN6TGRhrIlYIo4kQzNATN6Iy4c+9KGyYGwbpvic+8JLQpywBU9In/wDtTENY9Wr5lGfmLxicg8DVv8/xlMYP+PNpR62IxKUeL9EOwUBiQm1i9Bory2EIs54wjxL2LzcD6KEoh119BViJ1eB0w8i8op4K7oqtj0GLogdYvPtb397gQho65wtdKLdpsKkJhjaJjk8g83DqW21EWmXE/0eQlSXQfB5QhvMkAInu3WJj4O+w/W4Up96DER9og+6Jpt2G+Ie30UVipCDr/HVPh57kDoGOYvnaLvE+94Juckicq4WCfu/bXnHTCJQ97mfjXn500TvufS9d0l/5ZUIJAJzjwCbRsCKyG0ihe1a7Tl57muWT5wpBPAiwgrOGFsIOd0+8pGPFH4VXC04GuenvLdOpMQn2HnRsnjl5ptvvqBaMb8HJ4tyfMdV2GMLdgdB4ZL14rhf26Iu7gtRouZt8fngKcqORXY4Pjl1I5UEG2OBVNexi0cF17OF8eMf/3jh0BGBteOOOy4oI9ocdQsBC//2HJHGUwlYNRYh1qmrcnE3663auTcIxwpMQmBSrmh5fUiEG+Zk0eBXtVgZ3D/qrm+Vj2OpM9E7+q3tMI1+Up4thAQs3JsDFFbSUiy//PKdw6LmeiFGtfu/zUWtmwhk+DXBC9fUl8EHaz7exraLf8a6KQQ8Qq+2q7/xHXwz6tcuM9ZZOJBDkK666qrShPXXX78IWO2T17pEsXrtpL36F+9VD2M/uHS8MzHW2wJX/b7HoQ76LkS+aD/nvrUK7OodWPUaMsZ/V8fVmNXvcz2m+s0D+f/JRcA7aK299957lzme8H/22WcXUbfrGkrAUrBB5yQNAhYRYZCF5eTCvWha1t5CqA8YRmSkDvMPz4oJ6dRTTy2DQiJyF+FK9FD7GOKYVCX2lLDym9/8Zonisv2PiGVSZPR8nsfOaUXGQ9d2RM8RYXHyySeX0OmIUkJ6NtxwwzLBex6jx7snN1YYQlv+XvziF5dxJgeVyd2kbICbWNXhsY99bLmHEBUnLUaPqOtpp51WCBljjazx3rkkICXCIlCe7yWRn0BCUAKSExO333775vvf/375v/BFqrBtFfV497O6C3EUEWerob8hdgi/sOD2pTx1I6Zps2gT+DIKPHuEJoZB/UTUPeMZzyhEI4hW20jDxCmPjKfL/byCjBjcL7jggpKXCp6Sjh533HElGk9fMLRO8SHu9TvxRBSfnGvXXXddwUT4PiMrGlPdETtbv/QPDNWBSNo1PxiP6qvtPmMLgzLUM06IFIFDdTemkcV+0Z6ea8wSP5SJCMmvBAfjzOeNWVGHtj/oozDQi+Ytnp9PbQtY+pyAZUy6EFaCcwpY83N8ZKsXPQIELLY9oj9SwFr0fTLTNegSsHAgogE7GQve4JB4GQeTNQBhBu/BSTjqRP+3+YN5nuglussCRFQfzoO7stW4F7sujxZ7jIey+V2LdHXF//BDNl5dHvOYxxSOVQswuAm+x35ENIxdCrEIsmuEgBE8DQ/UVlv7iAa4TP18bcDNJBfHK/wcHFR7iQMRKRwn6OJiIvvh9vnPf75EEvQTsML5RxzQToczicbRVuKGeuBq1ltwIu7YuinybaptdsGtcV+cCC76EC+K3RC45iqrrFL4ONEa1+y1xRFPs12PkKkP2GhcXr0IUJ6hfDY9eDaM2Hd9HAdItTlsLWBFtBonMwd7Lx5QCyZRXs011c/aQ5utH6x7tBue+s56RT9Zv0R+HTlcv/a1rxXRxnrCeqkWkUKoCqFI/7gfHsrHaa0xjAXl4zKEKW23RqpPcdXn5557bnPEEUeUtYn+ti5wwZMApgztwFNFqb/uda+7w66OaCcurR7Gj3oRaj3D+6Es48YYt1aKdXtbaFKWtYw5ILj4NttsU/IHO5nWGtI6QD333HPPsr4R2KLPYz1hGyjO3m+bLL53yCGHFO4PT4KiABnrnoZW5HcAACAASURBVGF3hcz03JjlLToE2gKW+Y398B51XQMJWD4oIsUAM3GY8AxAL3kKWHPf2V0CFmPJsDF09cQUXgVEYpdddilGxv9NjgylyTuEJC0xwZtMCWKMkmeZlON4W581wRhYJmQiC7FCOV050Rh8k7SxY+LzeSKKJKARQcVwmxyJRmGYtt5665KgkwhjkkOYwmugniZIBAqRednLXlbKY9BdylDnT33qUyXEPTzJEc0V+ITqDzOeNDkOeI0YPcnueQt9hjGNnFld0V4h9iFsUTeGkeGojbXPwhOR0l9OW4M3YxPinvvhwmgxNE431D7imd/bXh+kkDqtri4klCCl74RlK197bQMh0AnH3GeffQom+l1UGfEtvK5do9m9sNxjjz3K9krt8Ax9ykhrP6J2wgknlHYYB8rcYYcd7mCM9Ath0NgTEYhURPtjK6s6aL8xyrAJJefl7aojPHxe/gAJUuEaRxLXIeMwMGaM2XXWWadhmC3SarI+92/y/H1ijGPjCcEjVLssCNiWFLDm79jIli9aBAhY5ki2z3sq8iQisBZtzfLpM4VALwGLAERoaC9ujQPOoJNOOqmsBcJhhjP5XXSQKwQvQhEHKFHA4h5/i3yhcR+eg8PhbRxsvsKxVK8rfA4nwwNwQXXBO50KSCAJpwiOa5GPV4XYgKOI7j3vvPMKd8FB66iViEwnEBCf8Mngpe6zcLdIt4gKUSyeV6dk8Dx8gshGKPC/QSOwcGsOYtzMZ+T6glds4YVXcFViHM6CX4qGE+XfK28Z7s0BjRfBj6CjzBCmlaueuBYHn8T4OKItebhX9GUIClJm2LmAu5kbcD99r2xCDi6H39UcGefSvwQy/aff8O3g6bCsBSxiiDZayxCwekVg9Yr4V57xQjT84he/WBzn+GnUK/peu9UD3/csHBpOnPouePgs8a0ei55rHOkjfUXw4SBXfqwvAi/PEO0lZYtdGSIcQzxSD1wVT44cdDGuYo0VOHpH8G1O9HpLpfdR9KR2fulLXypjCBeOcRPYGh/KIGJ5x7TXe9POmWxcaJN32jpF/a0bOPA5r/WzNQ4O/cEPfrBsiWUXrOf8Xb29f3akxAnvXfOV+sHa2IGdullvcYgn75upGX48ywkBy5wba2ECtHVw1zVtAYtRiEluPKEa31rXAlYsBHsJWDEpCkXeaaediqgRHh0TT6jl/mZiEbVkImG4a6HHJMMYhVcnxCiTNgOF5DKodXJ2CDOionNMdCZIk7vJKwQs9zAIjGIIWJ5holcfX57LqJlw/R5iVhgjIoc6v+IVr1iQA4wR8xwvgp9NsOHhMKHzAMY2PT8T4eR0UBZvIQGNKAIDXgunKIpuqr0DtReoS8ht/00dGBokgKEOkqVtjKl2wohhigS6nkcwJjqJNnNfPNfLHgIWI+0SYeS95CmpCQijxBghMSKx4rhinryDDjqoGPCuNngGzyZi9slPfrLco57IhegtddcWhpjoqf68PtpoPNQhyMr61re+Vdqifi5/i/5gGH2eAAUD7fR/nlGeHYJYWzRHHESy8ZZZeEVCfaQs+thzjJkok2E2ntUDafXzIDk4xnfGGM2a698QsJAjYwuhJHAmkRnNPstaTT4C5lF2JBZQKWBNXp9PJWB1OXVCGOAY23nnnQuvM1+z8exoOJfCScehxemFx4RgFTwnuGZEibC9OAAvu7IIQXUEB/4mwgRHiyTfeAsBK1JgqAsBS93OP//8wu3UBV9gY1zsfIgnnu0rthl6vjF/9NFHL4jEUiYOiMsQwPCHEMDa5fmd8IOHcOZ6fi8BqxbIPAN/wo/x1XCC4i/wil0CeI7nwyIWdkSh/fffvwgk7XxetsvJ40poIDaGcxCuwTW1JZyHynQPrkUowRHj2cGNrAlE3HE8utTRl3ppR5Tr58CqFrOIhMq2cyI4bFvAEjkfAtZUWwhD5Ik3M9Y58FGG9YC1jL6PZynXF05qHRHjD3YipIwBuy9cBFn91xawtMuCGg7wcCkvxjY8tFk/hqjl+XA1NjhijUmYcs7Dw5hWrjoFvzZWY+shXHF/gg9u7R7txKGNTUKxK7DE//WzeqiDdoYAqlwOcY79iHYK3m9OINpZK+DgyjOWjRNOxRDojAt9oxzvBQ4dkYkiKv3P2Ix0Je11hTWL9ZRDyDzD3CG3nPGReRYnz9YM06K2gOU98b4R7LuugQUsIYMmQwPOgtoio9e2sWEqnPcOj0BbwAo1Xyh0vdUsJg7/Jxw4NQYRMLEQC0zwwoZjQrSIJPiYGA0k9/HwCBV9+MMfXiZ1Ey2PgZBqXgiTrkFmS5kopdjGGK0aRMAyWYrAIojUBo9BMSGaRBkAEz/DzOvAsxS5GzyfAMMYICEhmiAf7mMgjjrqqCLeuBh8kUomTth4jmgvIcUMEY+h/fhCfGFjwuYBIZAxvoOM+/akbfIPfEXBhYiI9FCXGRP4woKnS38RiSMkGQbICnIXe/aV2Rawgsi4B7kjyClXFBnRUH9JPsqTyrAZB4wJwa69TRFWjBePprEjMg+28CNg8cxop+gvhLWXgOWeqCvjiGB6troaN/qOd4hXyPiCf4S8xxbARz7ykSUCDAEIEmqsqJMFFhErErzyovKC+oy2+7swbWOfITaGtIMwiTDDpUu8G/7NzE8Mg0CXgEUMZ1t6eV6HKT/vTQQSgeER8P6xo7HwM/dbYPfbZj78k/ITiwqBfgJW2x4aC2yxLXmimnBQvIlNxidwB/fYnieKixAUTjUR2XiOLzbeJfKCoxAn4kzzPItXgoGxxnZHHSzW8SEOrEEFLPY9nI04gK1gns8xolwOXZHw+GEIMBb9eAxHZkS64Aq4LpGJk9g2LbyDg1XksMj44IPaKcKI7fJsEeldWwjr94hjjdCkzdIouPBNOESEuHrhWBFJJtIGv/NF1MMLOY5DxMCtiEy2e9pShnvhtbgrjovTqz/c4al9xD9cT73dhxPipfo06ouXEm44YUMwiu1yuKD6ckC58FL9i3Ph3TCHKUckISai10KIqnNghYBli9lUPKAeo+HMho2oP/XH+7QHX8RZ9b91BHz1qz7FG/HNWHeESGPM4LOEvHodhW/qU2unyD8LL+KrNZIxoE/dZx1lvLi0F9/UJxbj+tQ6Sp/qB/UNpzJObH2iru4Lgc06LAQyEWYheipfHb1bxqP+xaO8N9ooul0/hJhsrHhn7b6wPojL/QQs4lZsXQ0RzfttvaR9+pFwbfzj1eyD9ZvL/droXa0DXGoMRRp6foiFIrmIWdZA/YICFtV8mc+dGwR6CVjmoq412tAClgd4wZAcE0Eu/OamY+unhICFTMQWQca1LWDFZ0xG9vETIE3cJkWTqckKUXDxWjAYykRukBMqOlHJRMXghaJugjY5M7wMj9+VSQwzERGdQmQhYFHXnWLUKwKLaBMRWGFIjCsiBCGJMTcZRgi39gub1R4TqEnPxE7AsjXMBB0GTdtM4EJUkRblEnMYYkJHjN96HDO4BBrlxzY0Ezgj5bMMBI+NyZyx9dl64g2DUveZNiIatlP6GV5CeXkMGf86HxNChdi5V8Qcb47+sAUUASBM1aIQASjIomfqK0bBeCA2M2aMDgGQ0eX5ISTFNgCEjUFhQNqXZyNiRKIIExYiLFQ4vK6eDc+pBCxj8NOf/nQRSI2XyBmhLKHrCEMIj+pAwIKXcRZEAV6ixcw/LjgZswi18mGERCAYxkwdrWXsEFwJmd4V70GMcWO2nf9i7t/q+flE74L5xXh3GasiQFLAmp/jIVu96BFIAWvR98Fs12BYAYvjy6IZ/7AoJ3bgWSKzRfa7/I1zyu94nwUxu26xi3/hnHWkM86Ji9ieZPHOznOo4RryasUCeDoClvrgE+yJSBEch40PMQYfYGdwBxw2tl3ZOosPEHCDE6qX+y3scTLYSQ+hjsrGrWoeGZEwU20hDL5ImHvHO95RnITqqyycm7iAY9ZCHJ6F/4jUwl9cHH/qy8EZ/Em7RCDZDuc5uKt8pLbw4byx3dP9uDRHLY5O5NBWvAiPxr/qxPEhYBHHQsByr/5VZ3UJfGFEGBKNg2+JhNL3no/rh5AY7dMHxpYxoUzclajTdRpxRCm1E9rrI3xZOdYFLuMJF1bH2L4YY9B4VTe8NFKrxHsXApaooLjwVusowhH8PR93x4XtzsA3Y9eAsolj+C0cYmeA39UPd451A16NwxO9tMHP3iuCYAh8tQCEMxGICUVxoAJxzpiRr0qUVoi3RCvlWquJWHR/jBtjBM5xKnyXgOW53pvNNtusiMB+hg3hy/up7t6J2OmibE5m671IZF+vh9yPsxvz2modBE/vJz2hvlJbmG0rMHrlz6qAZULxgtqnjuTUCcNHD4rJrREvly1bEYKpT2zTIzjVkzqjzBPC08SYMkAuExDBgpEyEfFUmNwo6eEFYGgIOESbOqwzhCHfRbMIi2V8w6Cpl5DSmEQRGfU0oUVUV3sLYS1ghWG3gBXRJXS2TtAeHhKG1ySOgES4q/37vDtEjKiP9loc2/sNC5coMWUjVGFE6skytroRxBCy2HroHoIVAQXB8RyRWww3UQlOXeX5vPfFPvhIQurzyifSdSU8jLwP8JVfwAUT3iWCDwPVKwKLARFZRGgLQ1YLbDwfhMEIPdYOwiUhoX0hAjAlGDLCxo46wJDhU+4gEVjaT4CLBKvEP1GdDFcd0RZjhDiF1DBu8PN3YhwCwIOlXcafMYt8uLRDSDWyVo/ZCJ+GFxELpsJSlake3gV107d5zS0CKWDNLd75tESgHwJtAUuUjQVVRmD1Q258/t8WsNhI9p/9tLgOR6IWWfSK5JEHCg+ILUm4IV5H9MF7iA9suntc1gcWvriWnDjtbfq4AyHAAvjggw8uP/ubSBPjLez8dASs4GHECzy2juiKBTUM8BHCFCdnCFMwwI3bET6cfnEKoWgXKRk4IOOkvSg3uOdUWwjdSxDRTgt6mOKBHKTEpBDF2s5RUU34tMgxuLhPbiVtwMfwYlyOuKF8deHM85wQ5YLDBzfUbkKivsSPXJyZcIi0Ff5WR2Cpl3aL+NF/+jei/2vcRHdxbtpq5oKb9unbSIehHrgeQVBEmHGiv/DcOPW7LWaIesKd25FneK31RTjLCVCEGhFY0d76LYW7PFZEJdFbwZOVq/9CwII1IYpAZGcHLknMwU/hH3wzPq++RDvrKusU75D/WSuYT43xCAhQBzjC1z3ESP3lbzGmos7q4fnWM6Lm3C/qDd+3Q6ROFF+3UxqQ2CXh3YaxXRfWIJGuoRawYk3lHSZI493ExHpdpXxlOSiK6Gzs+D/hlaOYuBfiWNRF3c0RIa5aZxKw45S5FK3Gx4bMRk1TwJoNVEeszLaAFao94hGJV1XZhEQw4TkToeI+E5LwVMaKMTGREa1M8gyLiyElWjAoddLAgCG8DAzkscceWyZxQpW/M5L+JgrL5e8MqokyImn6CVgmMWTKJC7kOaK5wjiEASbMEct4GGLiJ2ghVDHRKiuSsgundYWAxZiEuBFtC8KgbcJ75XEQHitaqfayhQE3+ZuEeScY3CizNjyImTYTW4iKjB1Dy6D0yiOn/siISDCesCiPR4snjfHvErAYVSIi49QWxgK/drnqQ5yOcmtjCTtGm3HXZoRQX+rfwGMQAYuni+GKSDF4GSe1l8Zzo998J2Lx9voZIVFP4nnk6PB5dUEsGEpki6epbTTrfkMq3EO0ivxqhEUkspfxH7HXf6KqkwLWRHVnNmYCEEgBawI6sU8TagHLQpj4EFvgIto9ijBHu4cDMBKA444cQRbNcXCQRSkbHwtrHIGt9Z3t7sozqTwc0SE6IoHYZKIFroSDqtd0BCy8zvMiuqOXbeccI/7gZziyiC1ihoiSqQQsi3lChMV9OPLqxb3P9hKwYvscwU8ZIpJcIufxPekqcLc66ib6Al5EAI5FfB4+6iwCx2eIINpDMFIfdcMZlan8XhdOiEvh6ngXZ55tO3ZpxEmP7Qgs5eFRMOjaLuZZeDQB07ZS/ags9dPf0Se1gAWTcGKG4NQlPGmP8YcPwgkuUooYj0Q+F0ez+omSa3PCGgfrH6IgEdX4iy2idhTguy7vAKenLZuRp0xUoXUUzt0lvASHlyvL+iHKtUawbqgFLLtXIsCAMIzzh4BV11U/2RFBTI2DtTisjfPYmdDVx3Equ3VebN3jEDburdmMyXYElvr5n7JDTG6XrY12tuhf40wbzQf6RtSbOSWwUT4RnLPYmsG93jPjh3O+LY5N/iycLewaT+ahSOIeObBmZAthRmCNxoBrC1hRqxB2aq9NhKAaCKKtiDcmeSJPeFRN/ISgCKNlEBkygkAIJ3XLQ8AyAQk7ZiR897vPMnoRzcM4hEdoEAErjJc6mmwj1LZroCNKvGCITyj/ooPaCd9iCyEBy30idBjVLgEr2us+k77P2MYm1NuXidffTcb1qSM8NgwPMUQknN/D00G0YQQcQRxh8vaIy70UfRbiUt1O9/JMMazK0peInS9EoEvAivBjXpy2UY1n+BxRjiGJ/BOMMfEvxCH14DVi4BhLn0VSkEpjpU7W30/AUpbQ98idgRwZW/AwLrsIis/EONOOwLomwbxORFfkgtGEvVD2qS79RpjkFYyErPqLGFafaDQab/rk1yIFrMnv42zheCGQAtZ49dd0atsWsEJUqTlklBs21//YWYtaogCHnYUn++zLAlbkj1xOuKX8QSeeeOKCyPQuPhJ2HT8i3uC2+AChAF8Q8T0dAUvd1cHzbZOqBaE2l8WvLMAJdDgO7knQqHmJthNecFl17hKw6nKnErAiwTwHLMEvuLPIFaJJvX2xXdfgRepQO+bUT7mi9R2GFLsNROHb9ibip0tArMsnuBHU8FX36luiDWHE7yFg4Y74KOc2gZLI0ys6Uz1F2ODyxBfbxETl4YORkDwELFyeMOcz/tZ1umLUF9ez7iBguewi0decwrHLQcoJ4xHPnyqyx/PsIoEbR622EddCwPJZY1qkGac64Sjyv+GggWs9XtriI67pnfP+1Pm/9JsILAJWHJw1lYClX22/cwCXehKGLfb1W9dOjnptSPi0hrdlUpu9W9456xDjPpK4Rw4sbYCz59nd0OuCh6hLUVpxuIPtj6IVY5eLz1preJ53yzttbecea8UIUsgIrOnM5pPzGe9DCliT05+dLakFrAj1rvfK1wKWAcFQMIqUeuKOiaM2OCZOhIQy7++ingwi+7p7qeIhhghNFT4qsWN4GESzKE89YgshQzKIgKXBJjOh2USm2FfeNbF5NqVfdI/6EM9MzohTfQ0jYNWGJ8icyZYB42nwTAKIsFkCGuPjMyG82VIY2DFy2iJCiDciEoAyOjww+iWEqdr4+VsQFNFbnht76OM4XWJLl4BFnGNkRYW1r+gz3/U1UiF03CVkHAGQJyAu2wYIVjyE2mhcKFtIeh0VN4iARXRDAHjktB0e+q4+PadXfWsj7OcY3yLGwhgrB+Hi8WmP2SDYQf54GEUlRpi5d4MQ5ntec4tAClhzi3c+LRHoh0AKWP0QGv//twWs4D11RHrNuXAWAovFJueTLVyRsyZ4BfGAwIOfis6R0sGCtdfiNDiOZ3J6WgCLVGHLY5eAKBF1HTaJux6yoJeHKLY4+ls4FWtOwUlnu5zta55t0e7E5Xb6hakErOAWUW4/AUubJALHgfBIGNkSBz8ccqqFfHDGtkjid1FwuDdBR/ttgSMOKrPfJaWEyCgObTjYmuawH7wIl60jsJSFb+GMoul7XcYGIUg7iS/KsbWMABP5rWoBSwSWduCIoi56HZhEIOGMj62WoqJCHOF4VYacUETV9snVXTxTOgprDmsFV1vAwvuJjfiyccuBywkqWi/6PsZL8NMYa20ndfu+toCl3bh5VwSWtQTea1y7YKh/tbXfZS1BPLKu0ga4WLtxSFs7tQUs5dkpQiCL5Pz+Zj1U83btixMqOdxjt4Q+Jh7HVlG52YjDhDQYmEdEmnnHYw5JAatfL072/0PAMl+4jDMi+oxGYEUSd9vRekVPTDbMi7Z1bQHLSy+XUByna3JivExQJvhI4u3nSDpeG3Aht7aJWdQri9EzydVb8eoWx4Ss74kBthoy+CFgCatVn/Bc8MAMKmApW7m8MeoQk1/XxEbYieOa/Z94Ycsfz2B9DSNg+Vw8K5J3hsckftdmid4RDwaNgIYwhHDC80Po0R8uQhBjyzi7Jzw2dZ6JLqMadak9bcpmlAlOXQIW8uXZyGbXFYbCVjpRR7Gt0bvMEDIwxomyefMIZsQ7deChYnBiz3yUz+PV7xRCkVGRm0DINY+RMdLPKxjkoC0s8uYhW/WJOHFvO5qtPXbq//sfL5ExyvOV19wikALW3OKdT0sE+iHAQVOL+XkKYT/Exu//XVsIiVKiMSKvULSKUIFDiuD3P5EbXXYbDxTtIyLDvX43dvrlTmOPRcBYhOMSbDInGUegOuEi0xGwPFd001prrXW77Xg1H/BsIgwxAv/VLpxHZNFsCVi4Oe5HtCOK4FeexcE8FXfrN8rghI9KH+HyHHzOYhDn6ncRqNxPwIYDEZKAFYcM1Tmw1Fe0ftvp2fUMZWin6Cp1Eg0m2iu2jbW3EOo3jnYReG2uGeUTVAmoIbjis0Qf+aYINZGmw7qjdmD2wgBHJ1Da4uZqC1i4PmysJfSdIAB95W8hWLWfE+uBNh+NOsTnhhGw1EP/6iOfF4GGk8duman62Hvp/bS2UidttH1Pu62djJ/6FELli3LjxK6FxK6ghjhQSV04qV2S2/usfsbzcHWO68jdZp3ona/z1fYbo/n/yUbA2PLOGjeuFLAmsL+7IrCo3bZCEahigtH5PB6MRtsY17AQsAgfPC8uHhWDyDY0V5d4FJOysFBbzBgpEzuCI2kmwcLnhOSKbhlGwPI5ZTJIUyXWDuGEEDOTAlZg0xY66olbW4lWthg6+YRng5fGBQNCGrEJEWAchVlHDi79QSQaJueSZzPYlGheE0ahS8BCvghRcktN1W/KI1DBWf+rp8g14fQSaDIyhDKeSeHPDBxPDG9Nm5CKwBJKPdUphIwZcgEzdefZIWJNRwCHvXwVPFFOxAlPF2Idp2UO89rzTsoblhFYw6A2M/emgDUzOGYpicBMIdAlYHUlcU9v+UwhPvfldCVxl0Cc0zBOF67FguCRU9WUWIXrWZCLLpcmwYJ2EAGL8IITxBYkkeQELM5yPEcycOWJkjLuiFISZBNRgpdZ3IuicfCOC6cJAWuqNAUckLZJzaWApc62XcEMb9QmjldRRLEtbthRgQfhQzhgRMlIMI5HT7UFLJ4jVQaBISJkiBaixAhOdQQWIWJhBCyOcZhPJWBxotte1h6LvTDBI/BVPFwUn743XmxVxJunmqv0hegg0VSS44e4U28h5Hwm/OD63h2CLlzhBYt2VFxdzy4Bq64PwafeQjhVBJYxTvSx/VS5dmLg+7HjZaoxQ+TzfuLxEYGlTdrtfe3aQkj8JGK1TwhsP0d53jv3sx8uedk8T7Tc1VdfXeYWwqVLGwlYdnxMZw0w7LuR948HAsY04dqYc6WANR79NlQtRZ9YcAs3jigeBMCkL5JmqqueTCPaSRJ0OQdiUmRYTDzCuLuuiMAyCcdJcMQQf4998cQbQg0Bi1GZCQGrFpA8OyKwBhWwQmBCjggzIm/qkPloaxyp7HdEwD2EtPA61qHv6sSzhACJMAp8bZcTQu9ziBGjg4TpL95JRAtG/a7A2nckAr4+7+d+ApaypxKx9A2jIm+Yi5FCqhgXohVR86yzziptIm4Zc8hM5CiIsgcRsBhZZIJ3jHDnFBUEZZAIrDZG6qN+BCwkwyXa0O88yFMl7OzC2ztD8EPYurxL/foo/z99BFLAmj52+clEYDYQSAFrNlAdrTLbApbaETuIAHUezH61Dv6JC+ASPs+5hEsQxDjyphKwwt5yeuIInLPuF2Xid1ukcDDcFEcdVwHLTgJR+PiK9mm3LXuceA7KiUhwjmhRZ3HVfGQqbhK803YbzuOI6iL0ibohJkx16cc4idxWP7yMSCMZPPFLnWcqAms2BCwRQJKb46jWBfA0nuV8slthKgHLuyD/rx0B1ghdAhY8rbcsrjlhcUZCkIX2dASs6Av1ImAJGqhzYPXaQmj8i2x0cqI+w3vtfuCI7selfRYe+H4EGxCRiF+9cmANKmDBzNZNdXECoTUCUcycwOlN3MLPjS3rQk54Y99aIB0h/WbZ+fP/FLDmQV/XAlYYLqG8ony6BKy2EawhMnmIDBKyxwCY2IguPEG2jEUixbYXwecQC94Y4o3oLfcQAoggDKffedSG3UJYR2DFFkJ1XhgBi2BCaHIhVgSsriTuniGyiyeGJ9FFMNIe+8C7JlueDUlAGR3GEIYMA5FKfxCK/E94LuOnTQyfSXwqcqecOBUlwpPjNB9GcyoBq1/IuHYqXw4pdYljfvWlrXki6yR2J74ZA4wm46TurtprMoiAxWgiF7BgwGwRQOamMmDap16+h9jKYCPH6q6ukXPD33jcRAq0t8nW4z3ErzoJakQqwji9QXM7gaaANbd459MSgX4IpIDVD6Hx/3+XgMVhicfgcNO5cAk22SKVLbUo51i1kO2yq+Gcw3FEguBHFvM4E76BL8QphJx/wwhYYctnOwLL4rzeAhU82fPrUwhxEo7TWsC64ooryiKe6OR+Yh0naJ3vpUvAYjMJNnHhZ6LPYUwME+0euZxEMEnvIb8W3tW1FvBsDkF9L+qNAKlMohd+L/q+TuI+ExFY1iu2BwavkztJn4t00ufDRmAZz+Yt4p0oJfwQZzceYydEL1EQlnaQ4ONxWnt7CyFh1bpGtJL74SFiEK+PUzu71gbWSD7re7TVDo3g0epkzNumKS+tMvSVcv2tfeHl+ilOTNSnDmPyrgSXrsdgrJv8TYSdrbKCDVwCFQimDn6K96y9hXBQAUt5OLVgAmsfYpn3gkPZb1MArgAAIABJREFUYU2EP2tKucrk0lVf/dIVQDCduSc/MzkICHbJCKzJ6c87tKQrAssE3EvA6gVFGDMGkWpOoDCZmlRMLib/Oq+WvwfpMIEzFIQgEzsS4v9EL54JAsqoCFiixIRVS4DokliQgeDpCqMSGGkDYkHEMQlrJ0Jn4heF1D5BhMEhsnjpGBaTuEsOBRFMDAyDJ5KJoZE7yzOJaMLrnRLT3t7pd3gy5oiISZ9BRuwYG/VZWAErDBujz0jxkHiGxP3qJRmoCCkRU56H2MjR0OXlGUTAYjQZfF4m10orrVS2msKBoWsbXTjCX9QWIREBICAS1RBjdRXObfzJBwAPSS95gCWw76pniLXyaXiHXIilMU7M7HVS0QRPJYu8aSlgLfIuyAokArdDIAWsyR8QMy1gsd9SEUjEHtH4hCuigMgLkeNt8YQNxzcdiCNHEmeZv4mMx7fk9fEZtn8UBCxiE2ds5PgiZhDeQoxQ9+CTbQELxyEQEqjCaYk34i+ce8okhOCdolZwveBENW4RaUSM8DxCk6h4Ef74i+gjkWtEq+DkRDZ5jsKpWXOt4PMctp6rL1zEJXxNjqTINWWnhn4ZRQFLOziS5aTCC/FH9ea4jvVIvNVxeE/wbOsD98QhS8pqC1gEPuIgTs8J67L9jcOU4Fhz+HA2q4P0IfrCZ5SL96pjfciSdwCv9/648FscvM7JGmOAA1wCd/0tKszfrWPUA3fHZ2McxlrF7/huCF/KcNmyajyLUHMtzBZCn/cc73Ac/OR30Xt2o/ibKEo4cTRbawoMCKwmf8bNFg6KQApYgyI1pveFgGVrXuy9jgisfnuVQ7jwPTwGJkFCiUmGkMHAMqY8OSZbE1wc0ep5JjqGkoeJqk7kMDHZj00IMwGrx6gIWPa3m/B5OFw8S0JpJYqEQU0Q/C6ajNjEmPsdHrxDDDrDHqfqMFCwYPx5FHz3N0ILosKgxMQuqksZkkSGlxGpMJnDTZmwjXBkXkynORLCCFjqqL6ENyHY7u+3hbDdtq7hjhDxmOhHQhEvIEHL2Iqk/nKhCUOXm6HLyzSIgCUvAbJmfCBWMA0hMULUa2PG4Nt+wNDFmGXkCVo8OC7vAZEVRupuzBJxPUcS+xizgQPvGmMKV2NW38mxwZvldKVhtx6O6fQxUtVOAWukuiMrkwiUSIZ2EvfMgTVZA4Pts12KDY7cpwsTgRVilIhoHCXSMLCvFiSiSogC4QSNPJbGmjxQtqcRqgg3nKByasYpdf4ukkoEFk6ijH45sGYjAgvHwx3wCLk2iSMiS7QrhKDgcOpYR2CFgOVvtdjB+QsvTlN15tDEceQNqnOkRpSUbYfEDU44z8LNcSBbLnEqnFDeKoJgOGzxUc/YbLPNSn5Wzw+eiYsaB/ifHRh+V06IG5Guwv31FkL14dgcNIk78c9zcDL8daYjsLyd2o4L4q/4HXy03Tpmm222KRFHMf7c72fjT9SQcRv8s0vAUhYOb1zqMzhpixxY1gX6IYRJn3c/Xow349LENZzdesp4l2c2LtyVczxSjBgDREjO3VjfxY4BzyB8KsOWz0iYbn1jxwcxq+axcYL6ueeeW95DQQfaKWKPYOlz3rk4oGq6EVgx/rXJO2FNgdtZB4okIw4SAW1LNX5FyvXb8jhZM262ZlAEUsAaFKkxva+XgMXo9Dp2tt3U8MLE302EEkAyNCZeF88SL5hoLJ4Dk5FJyJZDRlLYL2PuEmZsH7Z95GEkQ8AygYvgMUmatIg7QktjwjfRnXLKKYW4BAGIJO6DbCEkdEQduk4hRNCIRyZxdYIRz5JtbCZvEz5DR5zysyip8FbAxWcYP4RFonw/IyTaziBISEn40z5tQrR4HuN4WG3yP1FYREJeGZdnIhVCy4V62x6HWMKXeCYPGYHJ53kwLSKcFonY9BKwEBn39Uri3jXkTz311CIUIVHaxbgS+7RbXxLz1LtXfjXjxefjlEGeVyJSJLiM7aYipXgDg6waT0LFRXbxDjKq2sqzpP36MhLfM3yIAo9nJOVUP7kLCIHqC+Mgisi4dkR4N6PPiCI4Icx5njxlJswUrxbNZJgC1qLBPZ+aCPRCIAWsyR8bwTNwu5kQsGLRLmpcZJIoLNwJTxFRhTuJFIoTDnFYC3ZCBtvN7uNOxA0LYNHUIfT0ErBsT8RLwwFZJ3GfDQELH8Nj8R3tcvgL3kNoU3e8TH1iK9cgAhYcRKLXIocy8FMiFt6D09iGhjdxAMIt8pDi5wSvOK1Pu/Enkegiu9hX+OCXooeICXinSB38VXJtOIrqCTEEFyNABEcPp6Xna68ILH9z3zAClhQeeFa/HFiEIbwQ3oMmcffGGkOi9nFPWzVjLYHn4dmclHixOhCU8Hx8ENe0ronx5nMRgVXnqYW5cY3bc4rDAGfHNX3JHedz7vMeOFnT9rnoA33EWUqYqg+n8mxrH+uviMSTl0rfug8e1lcc3ZH7lrMc78WpXf5ubWJ9QEwL3musqjNuHqJeCG/WRNYo4eBdmAisOghAu4lp5pU6SMI7Y/wRC3Hz3D44+XZmOi1MAWs6qI3RZ2ZCwOoStERVmVx4DRi3OL2QeGLyRD4IKiZnkz9iEZM4EYJ3gvEN8tBLwGLYJVgMBd4ET0ShytcC1lSh1J4hSolBJXT4nXAiDwPjV+dcYNB5zkRdMRAuHjRtYnD8zBNJ/NFWdUDivUjqFe1EUkT2aCMxR7nEkDAM/o948TAw0oxKLRSKQkIqhO3CL0LAGRFkgJHijUHEYAxrn1c/Qgti6PlhLHweBiKTeIdctkrytilvUA+Hz/LoEOIC/6i3aCfkCpnqla9rEAFL3RAk3i7kKryDyBmSxlOLCOofmPp/ECp9om8Y3Ng+GePX2EFWCI4+EyIiz+Hqq6++YOuCNgqBd394IJFqgli/BKdjNDWMXVVTwBq7LssKTzgCKWBNeAf//9uFOIfqCKxI4o7fTOfCGdhvi2tRQXGiG3sbB6Vw/uEYuKYvfMfCGbcQecIes8vhLAvnVx2BpW4iBEXChIDlb07P4+SKbXA+63Pu7ZXbUp2JMLbGEXNwXhzKtq968a18Cc2JFxHJr864C95CaFB/wpPoMJ/FS5Qbwg1HpSinOoodFhxruK7vEZ2O8+FwRBFY4FgEATll4YXb4WS2vnHEqktEEOFAxCbCGLEp8mXhowQhvJdjWFmioog56uHChwkjnI+R87WXgIWL4oz9Tm8WKQQ34w2+TtyDTYwFbbHtD7/Fe90jkh7vHEbAivFnq5ooLA5ZuxdccfI3cQe2uLu2+3/smnBfOO/dE6cQ1u8Crm+9AVv5qDwTrsYAHu87QYqTmpgWkYjawbFtO23dJtjqT5yYOEqoNFaNJ/1EfOOwJb5FcID6WANa61jXGF/KgaP+M2Zw5tgpo562DaqrcgldxqVxGmsE/1Nvbdb/1n/KjET1g+zsCZysc/QlQU6ZsZbQFs5wY8GY9uxe7+V05p/8zGQgkALWZPRjz1aYvHgZTPARWsqLwpANGoHVVbiyGEllyanFoIfgY7IxIcZkZOIxcdv+hfjwQEQeIfdEqC4jGacQhjiibCeyhJBgEWuys50u2iMCa1ABy0Qe0UI8DYxfTRLUm9cKqeJpiqTg7lEnk7PcA8KuERKXCd9neIF4FEKk8r/AIAgD8mBCZpgRGHvi9UN7co68TogXjJEME3xdZpQd2xQZeZ4YhIKBrHNwhYBli18YXl427XRvbKHr9zqoF3Evwn7jfiSHMEnQ9HONaV2mZzOIsNceQlwcMdz+DOOGVCE+wuDDwIcXKMqFnbYyxAit/kEQa+zdCwPvg4hAxlduiDDWdVlxrzIZUkZcNBjxb1Chrx+O+f/hEUgBa3jM8hOJwGwikALWbKI7GmVzyhGQIgKL/WXrbSXDOaZ7sc/4hOh8jkrfiVTsdNhZP4cTzt8sqi3Q2Xkc1iI8TupTjzoHFueWz8o/hEfUicCJBgQsUdkubSKicSZOtVDGR/EX3BenlWcTp6x5mZ9xFw7eyA0aUWfxLEKOxVfkRLIdCxcjlHDUibzBUdqciKOO0IYTwctzImo/7o2tZNqBrxKviH3yJAXnD0yDI8nZJEm3MvV15H6q8Vd3ZaofTEUq4ZtEljYvakdgcSbCzuemugiEdnYQsOCLJ+OK0Xeeo45ED2KM8WBcckpOZywS7IiBsLazg0AX7WyPPbxW/W3hM27skgiMiY3tk8KDcxt7sCVmttdF8I81EFyJrERRDvr2CZ/Be5WDM8s9G+9QiIr627tJNOOkDy7LKau+3jN9HYdOxbiMNViMfX0ajnpjtU4kr0y8GWYEJkJaCFj6bph1pXJgpz36M9rhmQQ3whlceq0npjv35OcmA4EUsCajH3u2oi1gmaAIIibhXtu8poKkNnwmG2INg2ryl+AQaTA5hrhkQuUdYogIUaKOYmKN0OaYnHg6GHziiImeqMKg+VwYfmo/AYuHwT0+axIl0jFmYZDrMNU6AoshUW8RYgxjJFuvJ0hGDDEnHjFuIpc8V30ZVfvkRSHVJ+YQY7SdKMJQELTCA6buSJZIHyIe4iXyS2hsr5Mgw7BFXeArvJenJqKt1Fm5jA1ywuAwsAxfu/3qjpjUEVjIFzImommYbXFyKxCJeDEDN33MA8NzFH3VNY4iBxYCxngRsEShxefCgEa5vF6SuYtukxNM+2ESCfA9A3GRN4MwiqwhS11CU2BKCBPWzfuKDBFfGeEYsz5r3MKUJ9SYRSwY8fQCLboJMwWsRYd9PjkR6EIgBazJHxd4Fg7EFhJ+2FGOSKKByI+FuSISRjQN+y66hr2PqH3/x3FEq8irSTRhl/GoiMoI56B6ELAs0PEJdt2FE4jswROCF0WqCOkc4uoXgeU+5Yjk93n8lJAmyqZ2xLov+JZTA/FIEd3EpnBC4mkhYKk/XsoJi0PisfAlanUt3D0LXsrGoyz85QGN0+t8xqJfRLw+k19VvqN6K1q0Ofiy3/FD3I7QRIBSX1wzItXxXTyIQ0+5IS60OZEyfV4eMG33O344jIBlvMHXVlJCSb3tMSKwZkLA0m580FixrvAsHDNOCPd/3FiEPs5uLSLiSl9pD6xtDSQMcYbXV4hDMBTpRcjiFCfORTSX+41juBJmlaHN2tvV9/6GN4sYs46T6kTUFP7q79YTdiDg1Bzs4Xj3HP/3bvkc7qvN6hHPgbd3RNL4eM+sJeL/dX2MNePTQQwRgSV1CMf+MAJWpAGxLVJbjDWft4vEFsqpTglfmHknPzsZCKSANRn92LMVJmfGlsGLi/EkpixMNEmIAb4zyoQJBo+g5WciA+9Y5GvyPGSHYY2kkGH0o17qynjY3uV/6sdIRoLOICjKN4HHJYKIGBQRRzUYMekS1ZAIhlHZJkbbweLY33py9n8GjADFqFs4a2N4Bhljok+cRFd/loeMgUIoYCGfkrK0QTSPLwKLaCFXEKq2sQovWnhYtJl3Tl3Ui9GApdBtxEKZgW+UW+PAMKiPffBBotQJEYyEqYO+CowlAUhd4mI4RdUpcypvSfQDoxuCoDrEqTdtYxnjzNgyhrVB+/1OUDKuYMnwCvkOb02vOgSuvsPQeFOm8pSLLBsTQdbUy1gJD1V6ggYdJTN/XwpYM49plpgILAwCKWAtDHrj8Vl22iKcMBTbrNhdokh9Ap7WDGsfa4ejZ+B+xCtf7LHLsyzGcSe8yzNre1w769h1tpyAUqdVIGKFs9D9+Kl78LO4RKd7Rq/L5/BBIl6cwI134NN1HWpRyH1EKe0hIEQEDtGDKIJrwAxnJCjgR3gsXicarNelnewh/uI7DoMfekZwTbjBK1JdxNbBusx2vdWXMKS+ysRj/U2Z6kRcwDX1R6+ofWWqEwcnnufCobQneG+vduHn8A0cOJqtAeoIIFxYFJK2xtZMp0N3CXSDvGHRX8aNZ6uDsWeMEKu0HbeMdgeHhU3sLrGWgHf7Cv7qHRIF5QvvNI4EF6hzYEvE8tV10na7XOVx+OPE6mPtFCdJWgfYgRAO/ahDiFnapo2e72fvAIetsWz86yPCFcwjFUj7vVamMRs5atXPOkyut0F3c/iMcWzc2jUS0ZDKkJuXiJZXIjAVAilgTej4qA3TbDSxNtK1CONnEyqF3kTWDj2NiXCq+g1S90Hu6Wp31DvqEVsVp8Kobmsv49/1eUYmtqjBYRjBsKt9YYgIUGGsotx+xDGEsK7cVP0+22WU22R1Jvqj3Te9+g+mQV7auA7bFs/wXHgat5FTIMTJ+P90yp2N924+l5kC1nzu/Wz7KCKQAtYo9srM1amL+7SdffXTFtZOxvMIPbHNKRbSg5Zdc7q6/oN+vh96U5XZiyv2KrMfb5qqzvVn4RXRUvASNeSz8TUIz23XUZkhukWZcc+wWPbjdvX/+2FSCzJtHtqv7wbh+fi1dscaJg5vqrlgv/bEc9ptibqH6GRNANthRJ9+bejqm64x62/aqi6eXwvD0dZBdhwMikVXvT1b9KFdN4QszxN9aPtgRN0tTJ/mZycbgRSwJrt/Z711/YzNrFdgIR8wTP3b5GSYzy5kNWf148OSkVmtTBaeCPRAIAWsHBqJwGghkALWaPXHoqjNbIhEi6IdM/HMYQWsfs9MbtYPofz/OCMgQs8phFJ5EAxFjcmtJweYSLS8EoGpEEgBK8dHIjAgAjNNTgZ87KzfliRp1iHOB8wAAilgzQCIWUQiMIMIpIA1g2COaVEpYP1fx800R0xuNqYvRVZ7IATktnWSoa2wotGk7JA3TTqSQaK/BnpI3jSxCKSANbFdmw1LBBKBRGByEEgBa3L6MlsyGQikgDUZ/ZitSAQSgURgLhGwTVOi/0MPPbRsY5R7a9ttt2323nvvBQd9zWV98lnjh0AKWOPXZ1njRCARSATmHQIpYM27Ls8GjzgCKWCNeAdl9RKBRCARGEEEnMzo1EInvYs0dODA6aefXg6jksNtUlK0jCD0E1OlFLAmpiuzIYlAIpAITC4CKWBNbt9my8YTgRSwxrPfstaJQCKQCCwqBByadNhhhzUEiDhRfMstt2wOP/zwcvJhnvq9qHpmvJ6bAtZ49VfWNhFIBBKBeYlACljzstuz0SOMQApYI9w5WbVEIBFIBEYMAZFV1157bbPXXns1J598cuOETCcOHnTQQc0WW2xRahu53zIH3Ih13ohVJwWsEeuQrE4ikAgkAonAHRFIAStHRSIwWgikgDVa/ZG1SQQSgURglBEgWJ122mnNfvvtV5K3L7744s3666/fvO9972tWWWWVFK9GufNGrG4pYI1Yh2R1EoFEIBFIBFLAyjGQCIw6AilgjXoPZf0SgUQgERgdBAhYV111VXP55Zc3t95664L8V2ussUaz1FJLlYpm5NXo9Nco1yQFrFHunaxbIpAIJAKJQEEgI7ByICQCo4VAClij1R9Zm0QgEUgERhkBWwhrkcrvviLvVQpYo9x7o1W3FLBGqz+yNolAIpAIJAIdCKSAlcMiERgtBFLAGq3+yNokAolAIjDqCNSilbrmiYOj3mOjWb8UsEazX7JWiUAikAgkAhUCKWDlcEgERguBFLBGqz+yNolAIpAIjAMC7Uiscahz1nG0EEgBa7T6I2uTCCQCiUAi0IFAClg5LBKB0UIgBazR6o+sTSKQCCQCiUAiMB8QSAFrPvRytjERSAQSgTFHIAWsMe/ArP7EIZAC1sR1aTYoEUgEEoFEIBEYeQRSwBr5LsoKJgKJQCKQCKSAlWMgERgtBFLAGq3+yNokAolAIpAIJALzAYEUsOZDL2cbE4FEIBEYcwRSwBrzDszqTxwCKWBNXJdmgxKBRCARSAQSgZFHIAWske+irGAikAgkAolAClg5BhKB0UIgBazR6o+sTSKQCCQCiUAiMB8QSAFrPvRytjERSAQSgTFHIAWsMe/ArP7EIZAC1sR1aTYoEUgEEoFEIBEYeQRSwBr5LsoKJgKJQCKQCKSAlWMgERgtBFLAGq3+yNokAolAIpAIJALzAYEUsOZDL2cbE4FEIBEYcwRSwBrzDszqTxwCKWBNXJdmgxKBRCARSAQSgZFHIAWske+irGAikAgkAolAClg5BhKB0UIgBazR6o+sTSKQCCQCiUAiMB8QSAFrPvRytjERSAQSgTFHIAWsMe/ArP7EIZAC1sR1aTYoEUgEEoFEIBEYeQRSwBr5LsoKJgKJQCKQCKSAlWMgERgtBFLAGq3+yNokAolAIpAIJALzAYEUsOZDL2cbE4FEIBEYcwRSwBrzDszqTxwCKWBNXJdmgxKBRCARSAQSgZFHIAWske+irGAikAgkAolAClg5BhKB0UIgBazR6o+sTSKQCCQCiUAiMB8QSAFrPvRytjERSAQSgTFHIAWsMe/ArP7EIZAC1sR1aTYoEUgEEoFEIBEYeQRSwBr5LsoKJgKJQCKQCKSAlWMgERgtBFLAGq3+yNokAolAIpAIJALzAYEUsOZDL2cbE4FEIBEYcwRSwBrzDszqTxwCKWBNXJdmgxKBRCARSAQSgZFHYE4ErMsvv7y5+93v3tz5znceCpDbbrttqPvz5kQgEUgEEoHJRICAtfHGGzeXXXZZaeD973//hm1ZfvnlJ7PB2apEYMQRmErAutOd7jTitc/qJQKJQCKQCCQCicA4IjAnAtYPfvCDImC5BiU1bfEqxaxxHF5Z50QgEUgEZgaBm266KQWsmYEyS0kEZgSBLgHrPe95T7PYYovNSPlZSCKQCCQCiUAikAgkAm0EPvCBDzR77rln+TPOcc455zQbbLBBp850p9sGVJEUeOCBBzZuX2WVVZorrriiWXLJJYdC32dD7BrwsUOVnzcnAolAIpAIjA8CGYE1Pn2VNZ0fCLQFrD322KM54IADmrvc5S63A2BQx+X8QC1bmQgkAolAIpAIJAILg4AIrL322qtoTbMiYD30oQ9tkJyIwBq0srVolQLWoKjlfYlAIpAITCYCIrCe85znFHvCJuQWwsns52zV+CDQFrB23333Zr/99ivpImrelgLW+PRp1jQRSAQSgUQgERh1BA466KDm7W9/e6kmp9mMRGAp9F3velfDY77UUks1L3jBC5rFF1+8RFQNSmSC/PieAtaoD6OsXyKQCCQCs4vArbfeWgzUX/7ylxSwZhfqLD0RGAiBWsDC7VZbbbVmzTXX7PzsoNxvoAfnTYlAIpAIJAKJQCIwLxGgC/3whz8sO/xCwDr33HMXfgvhEUcc0ey7777NDTfccAdP3HSQTgFrOqjlZxKBRCARmBwE6gVwRmBNTr9mS8YXgbaA5R3973//O74NyponAolAIpAIJAKJwEgjIMo7+Ib1QERgPf3pT1+4HFi1gFUjkDmtRno8ZOUSgUQgERhpBGobklsIR7qrsnLzAIH2FsLkePOg07OJiUAikAgkAonAIkKg3s0XAU4ELTs0ZlTAigf57gFz4Z3LiK1FNKrysYlAIpAIzCIC9ZbyFLBmEegsOhEYAIG2gOUjNecboIi8JRFIBBKBRCARSAQSgaEQsB6gKUU01tlnn91suOGGCxeBtc8++zSyw//73/9uHvSgBzWnnnpqs8QSS9yuYrMhMmWOhaH6Pm9OBBKBRGBsELj55pub7bbbrrnyyitLnVPAGpuuy4pOKAJtAeuVr3xls9tuu5Vw/tngeBMKYzYrEUgEEoFEIBFIBAZEgN5z5JFHNgcffPACp1lEYBG02tedbhuQkey5557NgQceWAjMqquuWpJsDXsK4YBtyNsSgUQgEUgE5gECDgXZaKONmssuuywFrHnQ39nE0UegLWC95S1vaQ444IBypHV9pXNx9Psya5gIJAKJQCKQCIwLAh/4wAcaelNEfaeANS49l/VMBBKBRGAeIZAC1jzq7GzqWCCQAtZYdFNWMhFIBBKBRCARmCgEUsCaqO7MxiQCiUAiMJkIpIA1mf2arRpfBFLAGt++y5onAolAIpAIJALjikAKWOPac1nvRCARSATmEQIpYM2jzs6mjgUCKWCNRTdlJROBRCARSAQSgYlCIAWsierObEwikAgkApOJQApYk9mv2arxRSAFrPHtu6x5IpAIJAKJQCIwrgikgDWuPZf1TgQSgURgHiGQAtY86uxs6lggkALWWHRTVjIRSAQSgUQgEZgoBFLAmqjuzMYkAolAIjCZCKSANZn9mq0aXwRSwBrfvsuaJwKJQCKQCCQC44pACljj2nNZ70QgEUgE5hECKWDNo87Opo4FAilgjUU3ZSUTgUQgEUgEEoGJQiAFrInqzmxMIpAIJAKTiUAKWJPZr9mq8UUgBazx7buseSKQCCQCiUAiMK4IpIA1rj2X9U4EEoFEYB4hkALWPOrsbOpYIJAC1lh0U1YyEUgEEoFEIBGYKARSwJqo7szGJAKJQCIwmQikgDWZ/ZqtGl8EUsAa377LmicCiUAikAgkAuOKQApY49pzWe9EIBFIBOYRAilgzaPOzqaOBQLf//73m7XWWmtBXffYY4/mgAMOaBZbbLGxqH9WMhFIBBKBRCARSATGD4EUsMavz7LGiUAikAjMOwRSwJp3XZ4NHnEECFhrr712c9ttt5WapoA14h2W1UsEEoFEIBFIBCYAgRSwJqATswmJQCKQCEw6AilgTXoPZ/vGDYEUsMatx7K+iUAikAgkAonA+COQAtb492G2IBFIBBKBiUcgBayJ7+Js4JghkALWmHVYVjcRSAQSgUQgEZgABFLAmoBOzCYkAolAIjDpCKSANek9nO0bNwRSwBq3Hsv6JgKJQCKQCCQC449ACljj34fZgkQgEUgEJh6BFLAmvouzgWOGQApYY9ZhWd1EIBFIBBKBRGACEEgBawI6MZuQCCQCicCkI5AC1qT3cLZv3BBIAWvceizrmwgkAolAIpAIjD8CKWCNfx9mCxKBRCARmHgEUsCa+C7OBo4ZAilgjVmHZXUTgUQgEUgEEoEJQCAFrAnoxGxCIpAIJAKTjkAKWJPew9m+cUNdhDhtAAAgAElEQVQgBaxx67GsbyKQCCQCiUAiMP4IpIA1/n2YLUgEEoFEYOIRSAFr4rs4GzhmCKSANWYdltVNBBKBRCARSAQmAIEUsCagE7MJiUAikAhMOgIpYE16D2f7xg2BFLDGrceyvolAIpAIJAKJwPgjkALW+PdhtmAMEPjvf//b/Otf/2r+53/+p7ntttvK193vfvfmHve4R/PPf/6zufnmm5v//Oc/pSVLLLFEs/TSSzd3utOdyu/xfQyamVVMBGYNgRSwZg3aLDgRmBYCKWBNC7b8UCIwNgjgqv/+978LR8VV/X7nO9+5WWaZZZrFFlvsdu1Irnr7bsXp//a3vzV///vfG2sAuN373vcuHN/PeSUCicD0EUgBa/rY5ScTgYERYPwvvPDC5uijj25uvfXWZskll2ye/exnN89//vObK664ovnsZz/b/OY3v2nudre7NY95zGOaXXbZpbn//e/f3OUud0kRa2CU88ZJRiAFrEnu3WzbOCKQAtY49lrWORHojwChyuX7T3/60+aEE05ovve975XfH/rQhzZvetObmpVXXjkFrB5QwunGG29szj333Oakk04qQhan9ZZbbtk885nPXOCkDmGrf4/kHYlAIlAjkAJWjodEYJYQYMB4pBioc845p3n/+9/fXHLJJcVr9fSnP73Ze++9m3XWWae5/vrrm8MOO6w55phjipG7173u1ey8887N9ttv36y44ooZgTVL/ZPFjhcCKWCNV39lbScfgRSwJr+Ph2lhcJ4QPjIiZxj0Ruve2Cnw29/+9nb8FCfdddddm2233bZw1frK/r59H4pc+/GPf1y4/xlnnFEi2R784AcX7r/pppveAb/RGgGLpjb1HLJoapBPHRcEUsAal56agHrOt4mJcMVgXXvttc1b3vKWImIJKX7sYx/bvO1tb2ue97znNXe9613L337961+Xv5122mlFxFpppZWaffbZp9lqq63KNsO45huGEzDsswkzhEAKWDMEZBYzrxBgM9iY2O4TkRUzsdhMAWteDaW+jcV5jCtfyVX6wjWyN0Q//ulPf2qOO+64IsDccMMNC5yrO+64Y+Gorkx1MXU3WgNcdNFFzX777ddcfPHFZS5+ylOe0rzjHe8ojuzYZTGyg2GOK5bzxhwDPsaPSwFrjDtvnKoe3pz5tO/bVsGf//znxXCdfvrpZR/8gx70oOJ9efnLX162CwYBQBhsJXz3u99dRCxG7/GPf3wRsZ773OeW/fJJCsdpxGddZxqBFLBmGtEsb1IRiAWo9nGOXHbZZc1DHvKQZvXVVy9Ok7hCbJguDilgTRe5yfwc3oKr+MqtUePbx5Hz6ktf+lLz1re+tYhXtr+9+MUvLo7Whz/84bdrXIoO3X0dzgL5b88888zC7y+//PJm8cUXb571rGc1Bx54YJmX/Z7X/yLQNZZyfOXo6EIgBawcF7OKQEQh8f4uLFme1YrOQuEW3EcddVQRoRgwidl32GGHkjvggQ98YJmoQ8Dy3T3nnXde8+Y3v7n5yU9+UoyaMOP3vOc9hTDkJD4LnZRFjg0CKWCNTVdlRUcAAfaCTUHyPvOZz5S8NS95yUuaZzzjGc0KK6xQahhiw3SrmwLWdJGbzM+JLjFPc87FQTUzEek3mWiNbqv03be//e3CVYnfLtFCuOjaa6+dCcgH7Lrg+G63s+KTn/xkc8ABBzR//OMfm3ve854lVcjuu+9e8t3O1ysOCbjpppuaf/zjH0UoleiebYo1T6595uvomLrdKWDluJhVBJy6J3z2qquuau53v/sV8iz0eD6QGnvf3/jGNzYXXHBBCRNGAD74wQ82q622WicBMEnzdH3iE58oRMGJLw94wANKqDHhq/acz2qnZeGJwAgikALWCHZKVmlkERDxa/H52te+tiRhZnNFAEsg7PCQJzzhCeUksYXZApQC1sh2/5xXDH/50Y9+VA6rsRh93OMe1zztaU9rllpqqTmvSz5w4RDgeCa04KuEl+WWW64ILTvttFM5QW8+8PeFQ/B/P912UtuRAcezzjqr7LLgSCBqeU/aJzrOxPMXtoy5EI484xe/+EVx3rNT7JIDrqROqYMecswtbG9O3udTwJqAPq3zDoxCcyJ03BY6Scv33HPPksjQyXs8Ottss02z7LLLzmpVTYqeTziKPeZzsY2x9hh4uT7ykY80v//975vll1++iFna37WNMrYH8mD+7Gc/KyeVwEx5Fhvvfe97i/CVVyIwXxFIAWu+9ny2ezoI2Dr4+te/vmxd4QwJG2MB+rCHPaxsTd96662bRz7ykWXxVHu8B31eCliDIjX1fe2F7kzmKZuZGk5dCt7CWSk9wle+8pXysxQI73znO5v11ltvLqqwQCwI7GI8x8N7LYDHDevZBBMW+Puf//zn5oUvfGGJwvL7C17wgsJB7QSYaidF8N9RW5PMJmaDlB1jzJrkc5/7XHFQE7PMxaKwbC20Ppqta9C1j/vqfImz1Y/1O+d573vf+5pPf/rTZa3kFHZrJdtV62s2Bax+c0D9/373zlYfZrl3RCAFrBEcFTweCACF3jYyIZW2n7m6XmJH2/7lL39ZQFDrsFX3C1UV9cQThqgK757NxIEx6WnDpz71qUJieOT8HWl+17ve1ay55pqzhrz2C0UVphtbJLRdWGqIa7M5Geo3HgWG6Wtf+1rpx4033rg5+OCDm0c96lF38Mq0+/Xmm28up75InPnXv/61RGF5USV0zyisWRs2WfCII5AC1oh3UFZvZBCwKDj22GNL/hqL0ZoThL0REf3EJz6xLFTZZRwD3xjGNqaAtXBdjhuY10TL6SMLWie7hZ1v94UFnign/esKwSBEBbxOegJ9i+sF55vN9A2RJkJun1e96lXNlVdeWcYQJ+Xb3/72EgE4m5EcMMQvb7nllvJc2BnL2t8lDF533XXlYJ3ggjgZjjXfr8DqxhtvLI7Xj370o40k7ra34fD6thf/DNGLUO4yjvHt5Kv/O6oCW9+9ww51Ovnkk4uT3UnkH/rQh5onPelJszYErYXsgon+6XoQJ7u+tt7Ub/ow1nKzlbsYHtaJcgKfffbZ5XnmPyewi/6r579h7NJUQNa20Fg3b8Sl/b3G7B/+8IcSXABDc4st+SLoZnMtPWsDYkIKTgFrBDvyq1/9anPkkUc2jq9lBJ7znOc0r3zlKxcY5PqFQWT22GOPxmf8Xc4Lk0BcYdCFY3o5GWsRPauuumoRtmbrMkkgFSZpEVgMofrx+CLVsxlNxCjwHNl6px7a7sS/7bbbbsFk0zXpzBTJMiF+/OMfL4LV9ddfX0Q0HgZEDqGsSWcX/vqPKLnbbruV7Zc+r+5w5DmfqYl8tvo+y00EZgOBFLBmA9UscxIRQMz32muvkvuKQ6RLwApusOKKK5bFE9ssaua+973vwDYmBaz/Gz3T4Q+/+93vmuOPP74c8qI/nFBsm9YjHvGIOyRBV76TjPGn6M/geiFQ+Y5jhNNSyob111+/9OnCiAlTtU0d8NBrrrmmec1rXtN861vfKqDYruoAG4vT2bwsLIm1tiDhSrCTaDyi/Ou6qydOSpzBT3HD/fffv3nqU596h8j4cY+0GHY8ul9fyr9qzYG7Gk+2dElrIVLT1eafMCXAEisdRKQcp+w5qTBy7c1m/49D2XVfwNi8bH3yy1/+sqzLvDeisGaL23/zm98s5Ztvel3eBeIRIcv7sOGGG5a6mTesl+q6DTu2ej1TOQQh61sHBvjZe8v5L3dwfc0ENrWQaJ0owOKEE04oj9FOwq35o+uSCoaoZl1OIDe+N9tss2lFzs0kfjOByzi8Q111TAFrBHvOi0yUEmJqApH/iAeEIt6+vPAvfelLmy9/+cs9WxInwhjoJiIiiH3YVO7ZUtajMjxdJqLPf/7zzcorr1w8DU7fGNbTO0w3EfGo+SYXxsJkY0Lcd999F5z81y5vJshKTEoW2ttuu21zxhlnFA+LiDe5SJwAFZNNv0mHx+Sggw4qE6Y2EPw+/OEPNxtttNGs99kwWOe9icBcIZAC1lwhnc8ZdwTYIosW0c6cW2xiXLEYsfAMu4cHiNxht3CNQe3zfBaw2ouQ6SxK8CN2/mMf+1ix6xb+SPm6667bKRQQX0Rih5AQAlbXs5VHyLL9izOMOOYatJ71ff0+4//G09FHH104y29+85vmZS97WRl/FsSzef3qV78q4slxxx1X+C0MLUwJaO32qicxBv8l7N7nPvcp9xJs4qTn+EzUeSquVgvD/TjdTGHQ5qrRN/36qN/z9R++6hRsoqPf5cjjPCW2RC6zLgGLGOiACA5Xc82LXvSiMo5FqcS1sPXrV//Z+v9M1LvdZ6IAOQzM0aJ55CU88cQTixjSxncmnk/cJbiYb6a6vD/mFGtNW385QZ785CffwR7MRJ3UwxjT3lNPPbXYHdGlm2yyScm/Vq+XYr5b2D6OftBGoqvAAjtd1EObL7744mattda6w2Pc771wwJZ1uffCnGNtbo4dZB6o39NB5pZB2jpT/dD1rJlYEw/ShoW5Z14KWDrGgOyKwqmPn3ZfLfDE5+pw7H7GLQaY+wY5Vtj9X/ziF0u0DY9WCFheFqGd7YuxCAHLZ3naRFm5TIxeTPfYlshTFVsNqczCWBkayvtsDWAGUcisbQzqzyNTG8IuY1xPVvXEMMgk5n7P5KkUaeYKAYuQRkyaqq3tZ+u3YSYJ9wqhZ/R5o/QB7zYv6zB5v/TZSSed1Lz61a8uEy3MeA2RwlFM9rgwk1B+NhEYBIEUsAZBKe9JBP4XAZHAbL7oHg6uH/7whyUS2tW2q/6G6+APxJPNN9+8HDpC1OKZrnlMje+4CVhT2fJh7DwMgs+FeIMrdIkgU3FEqQZEahOw3GexSNCyrajG3M++vvCFLxS+Vzsj9REuaysdvofricATQYNH4F3yyViMymHUxaO0Rfk1J45nDuJ0i7p6Luebsade+Ot0ttgMwvviHgIW5+RnP/vZgr8oQg5TaTPqlBFxPwGLoKeOBCy5d0LAirHdXpB2LeYGWbT2m4v68d9eXDX6pI7Ai36NMmP9Mui4dh9RjwApR5OyObst8CXVJmr34uD63Zzx9a9/vfBvYpbFJad1PL8Lw0HwibZ2taNddrS5H26DYlK/53WZdVum0y6pQbyPxxxzTHlvH/3oR5ddG8ZuO1Ah6lrPN8OKpW0B6yEPeUjz4Ac/eMFawjP0of4nPns3zBsisbxbbEKsO2JeiLEQa9uwIW2c+tVVeQRQa0T2ybxhS284Ueq+aq/H6ncwfq5z33U9O+ovzQwBS263WsCS3qb9uS4BCy621fbayRT1DpEudIPpzBu95udBUuKEptFrLVvj236foi/79WG/93i2/j8vBayYlHQKA++lrffPRw4C/ze5+F8MQpMLQlcTlXbnGAQm8chtwICbDIgQU3k2RVN5qSTBJLZQy+UyIFowuHEqg4lEeergObWAtcEGGzSHH354CQWNF1mZRCQnX/CQCYFUBhHLCRhOi+klimhLYBBbEYhAPAW1GNRrgEd+gnhpYQC/uD/Krl/QaFuQcM/VTp8zWXhuLSLWpCNw11be5NhTLUSXeh5h9L57Tl1OTGzGhD4nHMXE5pmRT6Lfy8hL6lmIlf4TTef5w2zZVBfeLEl4CWHqqRzlWmTklQjMNwRSwJpvPZ7tXRgE2D5fFiacYSK7RQUTTeq8H+1n4CiiZmwhEYnBIcbmRD7J+v5RF7DqxSWuQdzBh/yMl7HpviLygM3HIXwu/t+L64V4EFuo8BQ/w0+ZkWu01yJKXfSLfJd4mfts1xJ9sMYaaxS8PQNvUKY6hYClD5SPwBML4l5/JyBxonGanX/++aWvpaKwnY9jTXldkff1wk7dYIEn4XrBXXpF7MfCx0I08Asc6kN0cCs8F07KwsFCGPE5n4ej/3muL/9vC2vaqQx9aRuWbYAiWNyHzx511FELTrtWFqyCew8qYMXCPNYB8IjxoUzl4eTBRwd9V4NTayec/a4MGOPhwUl7cVztjjWJ8aGPjDd1gi0MI9cRfCOnUT8hUT2MHakuiN5+t/3UdjfO1+j7ejy7RxuID/i2iCLv1qabblqitghY8f6oo/8ZA/FewlAfdwlP/hbjxNiIOcvztSlyNPl7tNf/OKwDO+MDb4j/x1hWp/a2uF6iV72o1/+ep1x9pf/VQ1lTrQnbZStHMvdddtml1I1o4wAEET2xLqnXNXAzj8OB6Bpr0EHHXAhY3hWXCET9HO+1NgpuuPrqq8uWOgd/eJ7+kVD9da97XXmfXDFP1OPAONSOWDfF3AnvWFv2WiMqz7sQ80LMObFWi3GgbDj4HUax/jRGfD7WpzHm6/eyPWbhT0Qk1h566KGlXdpq3ShSNcajvlXesAJWYKTcGDO+GyPKjPXkoDugtDHsjbEXa+KYY9Ux3u9eOMe8AUP31GvgWIdHrurQK9Q1dIRRFLHmpYBlIEgcR2kWyum0Ny+uy0sqYmaVVVYpP3uJvcwmaAOEZ4xKHka3nkAMWgNAmU4AspccQdHxPBn2kItAMqmbzNsvFdJhq5kcAjymEbWkPrbdxaRFORcmLYzRwGsLWAQU/2tf2mIfNLJkUlceFfkNb3hDp7jCMBG7fGmLJIBeHvXnyZNHS/4ME2ov42jPtUkBLvBxXCxCHJOTZ3zjG98opNoLRnmPfARwhF94jk3yTqgwwXhuCHrRTp9XT/mvhIIKDY9wWM+FoZfRfcJTkcVIjq9u2mZMOMrVlzqZdNRJmynz+hAZ7PUyex7vFS+qNsMIsfK5YXJQqI86xOkc2ii0lrc2vKiDGq+8LxGYBARSwJqEXpwfbai9mouyxSHUsFfsmzwe8muyj/hFkOKuOvoMu2friW1oeEd7sT7qApZ2WfSJRLN4ww/YVYsXdlzkA8FD2/wuggQPwxHwGjaXE6rrshAPfmRbibItAn0u+BH8lltuudvxRZjrC2kOPMt3/YGbiIyQVJ+AGCdD4i3KwbFEZeN7LnziiCOOKKc6u/R1LBbVX9nSRHCAuWxTwk1CHKvbpC2iHzjd4IQT41+ES+kLItE5/tq1EyDGO+HD5yxGtcHhNeFw027YX3rppYVXWxwRSNxHOAmuh2d6Bs6srrhaJKWPOgeH5+TTPsKsco1ZWwdtzwrRFU8U2RY5nAYRsOI5cFE3fF4f+8IR8X/PUaY64qaxs6BrrIRgY+FpzMBZQmh4wAqfNRZ9NwaMIVcscANf/SqyzrZg/aUe+sa2J++zMYgvw9L/bOHjqIahsrvWLXV9rT8IG95r7SFgiwyK+ru35r7wsbVKW0QT4czuxdPlnY13h1AiikudPSMW8+puDNQL+Sg/gga8K7aWeUeUrSzb27xj4fC3zvA/jnsneBsfcDaWvvOd75Q+M97wcc/0vlvftdcQ7b5TjvdKAIBnwFVb9YE1lv7XX95P70Y/fOu1yg9+8IOSEiTeBfWWg0kb2uKQ/jBPqAdcrUO71ni9bE0IWPpH2Xb0OBHdnNe+jHHOcg4Pl/Z5Z9S1vuAd76E5Q9nW0T6vj7y/xp73G9ax1a4tVvrdmg0exoV2Wd/qK5f/a7cx77uxog/N2+ZxgR762XONGfXVL+7RJ3XAhPKMGWPCfGHeuPDCC8tzzJ3Wwt4TNsPa0FpT9NkwApZ7fV7djDtjBi4wUndjRR3VHzbt/u7qQ7gYc8rQXvMzW6N93gPvufko7Ea7DBgqQ3vNZcYpfAW80EJg5x0zd3inladcOKovu9+ei3qNtbn8+7wRsMIA6BydJcpJmHEM+lB2kQQvtdN5tthii0I+vOjuU4awT1Ex9V7lED8YI2IXL5lBZhAHQQxvnMGAoCAljEqoyO7jMSNYIAC1t0GdIqzUIHJiEG+aSdgLKycCwUs9kBSh1DXpCjVYfS655JKi+jN0JjIeOYMgJkP3wsJLZxuetnj51MfnXepjUvAMBE+uKRNq1zGwjBUS5UXWRsKO+oaAxyiYTO2BZshNGO5nJEygyIP6BBH3DOIir6NnBylRL5/nLTrkkENK/UPR18726YsIDs+CslwmRhgS27773e+W9kZC/BCe9J0tl0Klvfxd0XSeueuuuxYPYGwfVGYkQhz05dYPFuzERlFX2qCtRDkCal6JwHxDYFwErCD7s+mxmotndJGg2WhTr8XRTI/vuXpOkO72Ym+m21M/p/2senwE9/GdTUNg2XY218LBe1V7jOt6smGIPCcaO4/wIvhhE0ddwLJgxnlwKwtgiwpcIrZV4F94lEUhvkfccy+cLL4syvG0mrzHgkp57sVx6sij4BsWJpxxyvUdX/I/nyc2yMtp8WQBG17x4HrxPPjjEra4qWstYPmdgPWKV7yitEe5dbSTttsegw/5vwWl6HxbQ+sxARORM/jPueeeWyJqtB/fUw997Vlrr712aYvPGwNd0QPqggP7rAWk5Opx8Iw6SI8h1w0Bh3ggEoRY5e/GUv1cbeE8lIgeZ7aohWmMe4s5DlhcPvgafCPKISJiLOzcR4TFo2FWbyGUOwu+0TfxHS7eDw5h/RRjR9viORblBCzpKgg0FqZdcySeboFPhMCpiW7Ba6Pf4Kx9+KXyOEwjsir6y7P1FYHBoh0HxYXxb+KhsV5z9TiJkkhkJ4f3NzDsmo+siez+UFeLY8+xXqivun3mDoKqOhk38V5FH8R49I55l3xWNI8FuJ9hJnoOD6/xr5+nn62LRCy5iJFyq2mzd8fz9ZPPw19/copzHFuUEw1hHSKFseydNlatw4gr9ftQt8875D2HizZqb6wLtA3+xpT3W79xlLfF1i6cPY8gYVwb93DTLusX9alFPGsna1ACjnFkvHmHRMgOerUFLOtH69gu8YTAYx70jsDNmstOHe2r50G4OnmUgOkd1B7rn5g3IjLNPGDdBGv9U6+bop3WoIRSoox1jug9YyPGhEOtrL31M9y9y2wShwynQ7uPvTf+b76yJramj/lAnwoEkJIlonHhGLt1vDPabe6RwsU7MKiAFes24+6UU04p7yTnScxr9RgkEFnL+4JRexdUrMXhqo3GM+Et2mosxFpce409a2uCWxzEEvh5LqHKet9cpg/MCdpnfhOp6//6z3P9X33oIIRVfQePUYvGmjcCVghJJguEwCQXRxfHJBDH7ro3jKcXD2kgcLgYQgO6Pk3O/QaYvfTCL+sQdJNlqJ9BEg0qOQkQGAYlDLI6mcwJWHXIoP+HITCAfFaYOUGlvYWQsTfZ8uC0DakyiVEMGbVbvYX6MiwGvPopj4DDyFNrGYiaDMMohKyY9L0IjByFvq3om3C8AEiz+5EpAlV4q3hJ4OklMmmY/ImGcVypNmi7uvt89CPiwDNsYne/S3/qA4Pa8+IzQRDqsGEYyAGGXEU4r3pECGWEeSrDSx1JcJEM4pccZUSsduQZksMwEBGVQWTTNvUeNFw0xqN668sgqNR14wuRyysRmG8IdAlY5vNhkwT3IspT4VmLH/3ui3lxOu/7oH0atqTftpCu8qaKumnfHzZkkjCLxeegWId9HvT+6JthtpTUc/4wz3Fv3Ud1OfWirF0me2bxwTZZfHDQBW/pGgPGmW1E+BDCzQZZ2FiI10lv2VTcZBTyNFoMcYJZrOA94aQMTqFNwWXwNAs0jkciALsv8ogdF00SxB2m+JnFBI5EiIn3CR5svgWGv8WXBRl+ZKGNZ/k7AUv+lNjiF30F+9guGIsqC3c8Tdn1FsIQYyICqy7DZwkKtsdwEEZEWeR7ij7G7yyaLVDNpTFmI/ornLDqjPvgWvjc/9fencDbe033439oECJRQyLEUMQ8lBBJVYNGg1AhpSqNqdUXKirGIOaZGEoqxlJD5EUlhhqTKFFjiCEIQqlZEUSMofV/vZ/+V37b45x7z7n33O/3DJ/n9bqvOz3nefb+7LXXXuuz1l7bO4dFlj0ThohRWMNN2+s+z2DPcERhqJ8cf7YeJ8//K4OlSMZqJ6eM0y2jSxvdi9hgh3Gg6/4ap9ZeRmCxqzm9+jDMwGoJrCJgvve97/VkE6eaPVwESBEWZdPX/cbVSWpseuReOy/NNQFjzzJ+VYeuiE73lr3vb96BnJEJxX6sbCz3FYHlpMoKQrNhvQMePq+P2jX0IRCQTrAkS+1WxVZnaCOyiNPMvvUz3Nr1b0hgIWGQO+0J6LWlrsYDgYXs5aiz/xGWMNV2J0ayx4f+Sv1+yimn9HPF3NRuBBiSDbFujmsfwsr9AvGe712C495f86n1IbQPQWfbIydeBl2rs/SXQ+85MEFIeH6tHUhXY6HP9TcOvjHTF/0dRWTWWuJ/5ECwm/zyQRCWCF8Y1We9Q9/IlQQJf2fvkHs6Zdw7hjp8LQJreK++m7fKnvB9YFV+W23b1C7tpgMRa7Xm+e6e0rW1BZRfWHqjDqho246QtJXaeNIXMkWtM+4hy7KlEGr8SWOK/IE9PdKOi/f5Kpzdx2cno5UsAnc+YhH7da/3lN7zDvMO7uRzUgKL7scFeDZcautqbZWFm7+VPiFHCGhJCtabVgbdQ4bpK3obkVl6pebv0Mel68iUYBP5bu1DvqkxqNNa/d+X9U5/W/6j5ru/y8Yi1/SbcRyuM5PaK1tx38oQWLXgmPiEgTPksvBgGUXbKD8CaGGgkAm6yUjoSlBaAquiXsgtRAo2mEHAkGHUSXNl9PksQTT5MMkMC5NJlEWBREJHUBiU2H5bCEWxCJz7KDYLd9UC0FbEF2EabiFci8CqDCzCKHpDuKUIM/AsBjBi6NlmaKEtJt37sNkiAz6jL9oq8uj9pVCkvyKz2iKE0xBYLTFmMTAujCBkF1xFbYwLXCgtBB6D2YJl0fZ57aLwKTzGUilU2wVhU+y/RULEw5gj86SOera+WLgZDp7vPZQkY8YCQmkaEwqWETEsuMiIoGhFM8kBo1U0ozVoJp3I2s4Aty+evIqWIFNFXqZ1jid9Z+4LAvOKwJDAohcqijhJm81lBjMDftJUf8/l2DMlfO0AACAASURBVMminOYyR+mcSS9rhIABQ3nSSwYDcru2QU/yOfqLs0qHTnrRO94zTQ0/GbDlpEz6Hvpedsc0l/WSwTjpZZ2w7pKDSS/OBScX6TDJVU4op2vUFo1xzzAmAhTWukku6wNjX3/KiG8/J7pMdq2Ffm6vCgZ5J0PbulmEy6h3F+nje0XUZS2RJ+toOfLbm8Aqw9t8QqRwjKzv2l1biMhZbfchp2wytkU52+V8wbYlsPSRfSjgd9RRR/VblMoOYZ+xG+gkThhShuON4CqbQls4FkVycQC9m92IJHFVNhgntcaI88URY3shHGsL4ZDAGo4veWXgO/m5ttZwhthBLsE6GMmCYusWyUVvyYSnV9iq+iJjr2rQcLrYPmzpyiqrd48isOpQIfgh/pAo5XjqI3tK/5BZFYyQAWRu1w6JKkTPMSwnynogY4wdqn22vxgPZIQgY21Z0kbZCcbTVdklVcR9mIHFwaSLZbkgTdzHT6DTPYNjqy/exxk0xt7L1i97tOa9v+sL8q2C2/4mE8W8ITMcRwSefpirtXWuTu1G0LhgRTbZqS2B5X9kw7P4HEWekE8yyG5lG1dWitOs6b9hSQvPL3mx84HtjQBl048jsGClX8YJjhWoNubmRMmHsSD7xgZJQ+bIHxnmGCO9R2UDwdmuDf93PzIYIcvp1+cisMiKC7ZkpbZlItrJlvUeKUnPyWKhDz3bWCLE2BFVGkRf/Z8PZNyMn4tswkLfzA26gAx4Nxkwbv4uewi5NM7GKCwRZHwt67GfbSE1P1u7QRthygewXdY4uo//wUcZpfdH6e9JCSzv03dJHsaoiGtzht4hq/5PX0ogqHWDbPFTfdGtsDHHtZm/SG7JANuLD40UmZbA0h6+sYtO9eVdMqz4puSZzLuHHUUGtBcZLNuK7JAZ85lfah7JRtLGIq+s2Z5VGYRIX2M+CYFVRJtaZuadq+ac5yC2tYlOEbiAoYsdJyAggaJOTi2CkzzQ3+Rcm8ggX1xfzB1/t1UcCVXJF9ovSICcbetUW+uNIVkgg7XewZB+LJ1gLYCNtamyvLQLkYt3gOGkxOkkdsxm7lkJAotgMUKREBZPRouLIiA4UhUNkME2OSkMDot0a/eWwvF9SGBZRC2qBpfSN0mxnBQORVf1AkwahhQlb1sYwaDMKTqMKeVZUROGDeOA4qxjbL23PS2wNbbaGlhFYPnckORg0Chap18UpglvMaDAPdvfGGeEwsQwQaRWSzu0XxeppI0MbEQX4w5J5HcCLfJg0W+Pzl2PwMIqm7icncpysgBTJDLNTEbtMC4mPgLHAlyFPilxafImdLH1nmP8RIv9DbZIO1GblnAqDI2HZ1iE9JFxgHmHoTE3xhYpi5lJ7ZkWY1gNHRRjbOwYVDCl5OFZi+s0k9W7yawIEcWMECM/IhPT1NOa5p25NwjMKwJDAqsM90kW07qHsy+AMWq787h+M+boj0mueo85b4vyJG3zXIaNeV7bJNZ7V0ViGWCtvl3vc4wcEdBaA9e63zvoIDqYkTdNppsAjPR96+4kl3fRmzIlprkY8tawSS7voJPpUOTLpBfDj1NRjsx6n7OukC9rgbVs0svzpeqvd9R5+zxrP4dwaFRWBgHZJYu1TdBnW3umxrgCUetl55XDxFayDjFo2S8VlRVJ3p4ZWNV+Trv1WgCI08eZZJ+wzTjmldXCzuHsyEKy5aOcADix34YZWOwAEXnzQZ8RPeY5LMrmYn/IYGGDcEA4udZrhIXTBhENZasYaw4K+9GFgGCjcXjqarO/JiWwjCfnUmCOc6OtCAUZNZxMl74YL6QJ3MhqZf0gWIyxvrDR3MtuRIh6tmwBThL5ax319Qgs9hsbvLKF9M1clO2hNAICoDLUOKJwQVBrvzax09jrVcLDvRxl9rFsGfNA/+hR/dHWCvyWLl5vCyH7n02KbPNeRBJ7Xl85e5Wl4T4kB2KySn5wLpGb9IX3eT/cyCJZgymHWH+1E+mlfeSOHLL9rU8ILe9hw+pbkYDDDCzjWNuBtJlPU7W/yhHln3BIi2Ax5mz+UQEJsg1zOs94sI2rqHXJ43BN81z3s9e9x5iQA7q5zUQqf4QMCTpzvOFrXpD5ysyp91SWijWb0+25iEn6pbbZDQkszzPXEFfWU2S1rEFYImPpBdu6ZPvUlkekJJLM/Ki+aSPCpMgNc9t7+Vf6pC/6bZ6TU88rckV/6Fz9GZchrZ3eTz+QF+SaRAHPGW4NdC9ClS/Ax+TzmDOjdtmMW2smJbBgbm6SA7oGHogXMmxt0ha2gzWXvmS3OGlUgAupiCy0xnpO1TtD0MnyLZ+XTuJftQXkEXnrZWAZD/5kkS/kk8wb4yJK+aLkio9I/3onXWGNoqe11ed9mbPeC/8KcCCe2oziykidhMCSyOK9vsxT44NEsu7YIovM8hwyK2hhXtP/3kFGrQ0wJjP0LnLePK1ACR8cblU30LwnQ5VggWREJPu7dYS/Wzu8yIU5yiZDnrm8x9yGK71V9bM8k/wbczJHN5k/5qyEm3nKwloZAstiYwFCQBAugmzgkDNIi7oqq4pCMUEtPJXe7J6WwDJJPU8WE0E0CQiCjCYGyFDRu59gYPtF3LzL5GPAYIld/iYqJpJDUZiYBMd7h4Xf3TvMwPJ+URMKt7beEcDKAGOoUVD+Z1HETGur3ylr76GITXBtQ0hhZytlscVJFpdFipGIYDIBRB8sHNX3aQksBBNS0eSrventO7HW3gEj/UdcEeKKRrjX+Jp4Fj4XLEz8lsAqg5uCgz+lY5wpEhlU5KLqgnmPyW9Ct9sLGHDDAq+yvyh/Bp/xImMwdU3qzLaLkOg4o9LCiww1XhaKlsyc1EHKfUFgkREYRWBN0x/zTzYDB2GtgrvDZzIMOByTXDXHGeSycied8wxBThKHedKLvuXcVR2/ST4HQwbapASWZzLY6bNpCCwGKydmGgKLY2s9meZCeJV+Xe9zRWDBWCR40ovBaX2elMDyXLpaJndFVCd5lzHhRE1DYKl5QZ6HBJY1y1hzkJAWglOuIXlV7ar1sM20WK/N1kf1WCraDN/tTWDV+q9WpEg4Ow42nEJ2A2KhnJLWBmCXsXUY93VK2pDAYgMgA8xtzg+yhbxyCtqCyuUgkRsEAOe4DuTxWSRaZU2yxfzfuu7ieLMfyVurO+qZ7RZCjgpCx/v935jTI97FkUGGIJLrFEL2T9k17vU7p7EKJ8uEYa+wjYvYLJmBCVIIWSPQB1NzyPxDZlVbpyGwjAP7iYwipYa1cbSbbHsHooDj5PmIBG2sS3vYXOa1Z7JnkU/mHvt4aLuuRWB5J9zgwGZGhghocroRWe0FQ+PH8SQ37E5ZROZABRnZyBxngQYYITU4/2zqYX/ZomxQ+kxWk7awR33e+2s3SJuBpT0CGBxx/k0rM9rnGXYDVJadcROUrrIhwznO0fc/nzNXtEO/W70wak1DHFhb2b/ey0ald0ZtpdNH84jd7l4knvHjN7RkqCA1P4n/Qyci5sxhtnwRQ0VgwaQuRJD7atttzXf/9z7yYo4hPGteSiQwLuxqfeUTkDPPJ2vGQPvK3i8MKjnC3OArIhvcwyf0+eGJgjWfvMO80wafI2vG0XtHBVfMa8+GifEo+39S+2JIYJEn9kZLIsGiyBA+HQJK+wXhyQUCmVwIALFt6AT/lyFI/mrHSitT7uGL8WdlctYcoLcQMaVnpiWw6Fu6iG9UslAyah6yP7zTmm3+I4thXXPYe/mssEfKkBFznQ/cBg+qL+sRWOauzyKczHnPl+RAx1oja5yqjdYS+sr80g5/J1/0G/kx1tYvekx/yIY5bL0fZir6LGKztv/SeeSDPm991HYLoX5JoDGX+LuVaFMkM3kz98i9tVH/kGF0NXuzSMT1bISt/v9KEFglXNhNE4rAGwwLmUk5zFSqKB6hsBiZzBVhaQksgkcITW4DblKZ2AZ9SDDUXmCGJCEwaQiUCWUyM2pKuSHOMMsMWsqTAjcRqu5WKxTDGljaIBWwDFqCpm1YVf2pSKwJYdFg/BBefbFwcSIqvZZwmFR1UkerLEsBIJIoarUwRJcQSXWcsXZOS2CZVAwWfR4qZ32BnygeowKmFj9GJMOs7jfGMqDGEVhluNaCpr3wtUhSYoxd+DMyPLOIQosZMtBV9SDaTCjPxax7ln4zuPxMQbgmXWza9nEcLa6i+fAVLbA4TrNtaKuVSJ4fBLYFAotAYBUOnNKtJrA4N4ymrSKwSmdtNYFVenGrCSzrvDV0FQmsdlvikKRqyYpp5jEbw5rEqapnWDe3ZwaW9nPE2BCcZH0VCZcFYF0fZl5a27WdzVCH6Mgu97khgcUB41QgBIoU4whzmIc2ZBFOgoEw4WBzzpEMnLXKzEOAILXWI7DKNmyLuHunud8GYPWjjoivk9n0T3aM98qQqAwnth/CQbvYw0pAsB3L/hjaK5zb2vLkHgHGsl3LiVyLwPKZNgOLY4lM4bSzw4c2kvsFiNnXAoeVxWb+Vt1Tn5klgYXw1Cc2OpsfOWd8bFMalU3D/ubow9pV2RScUDh7TtVkZbMhDui52gkwyiZENnDMi8jmCGtD1bwlU+zfcpTZqYg+49FeJYMII2QOG5LNjJhqnfmWVPFcz+IDyCTi+7Rk4Tg71tqMwBJQWY/AgplxlV2mbTBg05qzbZCEv2IN5WMYCySEjNLKINSWIrAq6E5GkAjmnDFobemWdIItB599rb3abpzMJ34Zv09mqwuZjBBhzw9loHxFhLFMG1mPtW3NZypQNoqMLnKRT0mGEa78QvNy1lcRWCVTMgnbE+vgZMyNI1n2M1kmK3DxXb/gDd/KTpTNSicgbFsd2K4x5gciny8EL/4mgtHYFrk4KYFV2aQSF5A/yKFWfgs3Y2gO1eFm+iqjqbJfvXdIYNGD9OFGCCw+tnkji9xaS/asg2Si1pzhusuXld1a9fv47vxfayrSj99Yp0YihOnJyrobPqt0pfmLcPK7MUMiy8ZyDQksZLpkF/Jdz6sx9Dv5lGxDZ8NKBhj/E/E4jT87a1lun7cSBFbt07YtjbBgMBEzGNyhQdMKRkWAKBgT1/9aAovhhjzhrDAcCK3nGug2klALicnrPllEsnkIFAYckUTh1kQsAotStHhQtJMSWEOmtwabYFK+Fk6GGVKE8VATQvpjW9hOX0xIpN+QuKpn6pfMIAuyRcY7KDSLQp1AMQmBhSmvLYRSoBmFItGjLoufZzK44GmyU4bY6VpcpiGwygCCh2hlKViGi2w2k9+CSQHWSZJlrI8i2CoDi2PJYLEQMnrHfWa9yS26XcaK94v2JQNrPdTy/2VEIATWb49qCKyud3omzcBaVQKLQz7MwJqFfrDGV7R4nggsdhOZ4GQZcxmHHPYiSYZ9L/sMIWC9FvxiSyCmaguh/qlRxHkTmS7yBbkwDCy6t7LfOegcYQ67tnAW/O7ZrlEEFnvSfaNIsZbA8g5tr6LFrY3hf76MD+ec7WurFLuUDcWu4JzoM7tC1jvnZNwJdd4hCApT2ajeZfxlrXBEEQfaOwmBJSuAI82RFezVjpaEa+0qJIbgJNtMf9jDnNh2a+56BFYFc+u5a2VgeZasBA4/nNihcGHXjrpKdjy7gp01Dpw+2SucaNgVQVHB6nre0I5EoJIzcuiyVQqxUbV4WgIL5saOzdxmAdaz2bP8FNk2tqHxadj/CIW21lL1g9OMJHKfHRjGm+07zgeo97QEFllho2rzuGLmSBLvku0GJ1uZyH3VQPQMjrjfEbL8NDIsY6aV0eEWQiSTviFUquB4tb3tA5+Q3PFx/CzzEYmCDOSf8WlsNSQ7CA3+xahdKOXI068IYNvXvAcR7PO13XAUgUUmlGDhh8q4oZ8QlebrrK8hgVW+ZvsebSRPtU46lMtcQHTA35iYt7YLqiPmfgkLsjhtMxz2sZ7N56YzBRCqqDl5hLd5T/YmIbCqiLvnGl/kS2UHDgkdc5deomu9kx4ky8a5CqXPisCq8jvkXZvMHcSasdTnUT75KN+xyFbfaysigovOQ3zTm/7XkkyFcWVv0gPGA+bsQwQWEs1VBJZsUe9HylvfzKciEtt20R36JBBEDwt+GCfBkFHE+6xldpLnrQSBRYEbVEYNwRapwJRSiMMi3O3EJhQWeguEFOYhgUVpU4K25RlsxkF7xPSoAaiUU8+rAmkmZtVJ8o7NEFgUTUViSigZF9JvtQ0xQ0kzoOpoUe2kmBBB+uJC2sDMIlYLcinrwkhbKWHkWxUqF8FQU4FRB4/1CCxbOxFYIj2IJ4uqCUNpjjMYZHu5r07IQBBpe03saQkszxEtYajY9lEF/ikmGV6ULMYfbt4LR3LTpiZXW0Vg4GHBgAEDhiJr5WrSyQ/fqoFlwWdoUjiU9zRFqCdRBLknCMw7AotIYLU6cy18p9lCWPqDgSLiPSyIutZ7agvhpNvhvIsRjpjfqi2E1Z9lycDSH7oaOcBpnVTfy7hmVE6zhVBGzyRbCNvThIfy0a7vk+qAKkFgTWS0lwM/D1sIEU0cTjLL9kEyiV6bL6Mi10U8sBNF7UX2hwQWXGRXI1Mq20bwrxywysQo/ApT9iYSixPumT4jE4DD7toMgcUR834OSOvY+F1f2SmyaHyxY8rWZR9xnKtIuSAqIomDVBnlLXmmb0WUKWkg8FnvY7sJwCKjfAZxMTyFsOo3+QwCrggs7URIyL5hi9YpWK08cgYFcAU42cvuETRtychZEljII0Fbz9Rezh+SvGoujbPp9X0oW8YcGWH7IDmAg20+nOi1dAKnVfaG7C33sdUFymVRwaAILLYqPJAMxrKKkLdOrc/DkG5lOyJaPE8A3dytq9ouUF7BdcSvrbhV/L6V7SEO4wisUdsutclc4+fQF7Le+C3sbzWDyKk2I6I47u5vsz9aIqklsNxH7hF1AuHmW83L0k/Vbg4+5x65b5zY9/quxlbVJ5I16XPmh7lURPEQhyIe+HTa7T7yQi/zF0b5mJ4BM1gjHRAE2sD3QRzN+hoSWPRQ1Uqrd5mP9Im21yFkfraWlY5ExEvSQNTxQfjG/MShP9LOBT9b25Bd9J0xqRppbJeNEFjea17KJPM8X+0JfuYbYrBkWd9s82wzKWdFYJGPOlESWU2/Il7N2daPbTEZrrlFIJe9SBb51OSbrhMo0OfKGG5JsRobc1vdMhmrVfsLRpIzXFUDi3zTV/xImAy3D7ayh+zXDzpJ9pp2ITDn5VoJAotSMZAUpIE1EAgPi+1axbAJlShAHa9s0NoMLAJhcaUwPdf9lCbhGCq7tQacwGFcXZslsBBOnoV8KTbd5EWmmOC+2r331S4KhnAy3lwynBAviKzh4lyTpwwbTDcl5jLZGI4Yb+8RLWNk1+kkdRxrpda2BBalI+vJPePSOL2bY0AxGFdt2yyBpd2UmRR5URTF/xidw2OBKSp4WHQZIYVxO7YUNDwoMorfgiii1V5rGS+tkqt916IVZA1mjMNpT+qaF2WTdgSBzSAwJLDMfVmOw8jo8B3tnFJrhRMxTRF3pL45P+ll3nLMOMOTkhd0DSeSo7beVfqYU8oJmIYkEXBgxNFTa12twY+4onekt096MZjpreHpd+M+DzPBIM6wa5h9Mu5ziAlRwkkv486ohcGkF/KHsSezZ72rDFO6mrM/PMp6rc9bf2RncJ4nudga2mXtrbW+PkfmzRdOFCO0TlCsuVCOHTuFA1d1ONZ7b5FzSE2BGg5qW3R4HrYQyn4mS7ZMGW8khMhxuxWqnZet8yDbWSkFOoWdaO7LvoEv4onNyFGoz7Mfy4FaDzv/N2YIiCoUvBkCi33FjlWDpsgfzjKdWIXLfW8dO22ga9SxYRN7P0cWqSSQOnSQqk/+DgOZFAgxcgMDtqs2sDHdQ35l1SAI4MZBWovAYpOzryt7aBQJxGFGfNWp2ObhVhFYbEsZT1W7T7YZB67aN9Tn1V5/L5u/9LOgBAKLw6jtsjLgDo+11gW2JzsUNjA116rWmXe0NbCMr2wtDu64E0/pfDYyWaYTZFLYstrakTWefAeZUMgY40e3DAm3UW2flMBq9RMi0nyTJOCZ6vtopyC798Oeb8XBZkdbt0uWS8+yi8k/TIwFwoX/Qe/WPW1762f9tQ5UyRQElTlA1tjuCEGBcmNZc2sUST1uzlub6V1+1Kh6m9qKnGAnIBb1A976iPQatV11Ev0y7p4hgcU2QRZWDSy4WN9Lb5Sv2D5PmyUkIExhQ/dZ48v3G97bjrU1jR4WXHCZF3RybVmeNgNLiRnYVVBtKJPmmzlDzq19fDVZuOy/si1mQWBVHTFzVnBDQNG8R9YhoStQoc9D3eZvQ71RZJTAgHWI7UFf6EvVRhulgzybP2yNgrO+6TNcrYWuIYGFECd7RWBVe9pxRCJ7Bj+dzq06ipuRxVl+diUILIsRNpMTQnFh6S28BrbY5VGgWoSRGbJobLGjwFoCiyFjQA0yo4CxJPWbQTCp4+K9JhUirIR8MxlYFiUklAW3jI7aPriW4NTefw6B+0UDKFNb6IZscT2nTpqQzWZhdlkcLSa1X5zC2woCi5KvkwjXI7AYdFjoKuJeEZN2wpYRqsYVo842SG23yFpoREiKMLM4iZqI7A4jD+7jiBoDiwAlwfhq3zUJgVVGtc9i3ilkytrvDMhcQWDVEBgSWPQs52AaYoWDN+q47rWwNO85AdNcjNZpCsWb73TPNIQPI5eeHRWQGNfWMpynCbB4Dx06jVHNiGtPvpsEO+vntIdTWAN8TXrRvcZ/XFR81HOsDYy/aTDzHlHuaTDzfAbrNO9hv4za9lXrB9mt+p1t36pPAnTsF05kfWZoaNd6BTNGLENa9jonURYIh7+ueSCwnPrHGWW7Vb1TfeSkjnIiyu5iA7EL6/QtNlB7CiHHmOMk2GdtR965x/wb99yhPLGtEK5Vt24zBBYHkvPIES2nzFitR/6y2zhaslucfFendCFqRtkm+kZezGkOEuezgrXGG+lMDjeSgSVIaktKnfhceJWNxnbflgQWckztVJlY+oyw5DyOKlDdtrW1KevvfAIYy3arzCcONVJjLRuQs48URD67j4xpQ2W+tRlYsyKwtFl/kS6cwtrSRiaMzzB7ZCjX0xJYPs+uRphx9PUTxkg7+Nsyyq9gf8vSQdDVVqiypbWpCCz2OvkTOBdsEWiuraPV1hZz9jQChB1vzXW/d3g3fPkKRayxuyUGGM9J/Tq6n3+JjCsfoT5b80nb3YPwtYZpg1p9iKxJ3zPputcSWHBC0A1PohyuVcOsIG0im8hEu2ysUxWgH66nw0C8eSWzsRIZ+ITGvbYCb4TAkmHFl9euFi/v3pYEFjuPLCNDzXV6krzI8EP+tnqiHa9hm9vf6XVzXrYvjDybHqxdP0N943dZYEgvckxW6VRt8DnXkMBC/PLbi8AaJXMhsPbcs2drW5Zv0kk3q/sIM4UoOkRZWbAVyhNpqOOUR72L4UfBUqpVBLUlsPwfi0/ZMQoYdBSDffMW9Ekv95azQxCLwLKIihpieSetgeWYV5NIv0YRNePaBBf1lSwaFjIOC2Vap8MMP1cKyl5oxiJHklEng8q2t1JoGHe4zzoDazME1iglUouK/1HMxraOw2YQi6bbOyyVEj6MeIt9Oc+FBxxlYJn47kMAiiKVgVeL77hxqOdUzQnPwcb7O0OGwmkdhkllLPcFgUVHYEhg0Y227E66ta304ShnY9bY1DyetSE663bOy/O2xZhsy76OI4G2ZRvGvQtRqiA5gsepdpzEtU6LRJQwoq3t1nLZ0XVsufnXZktvbwIL7ox+dhhj3vzjAAv82FY0jtyxVgu8sWUqm2NYxJ0dgJDg2HJKOdTWegGtmueTzPfaLmd8NkNgaQP7U+R/nGM0Sgb0VUBW5hP7TJtlvyBX2MajMGKPcIBsa0NY+YzsDSSA4GA5v+zqabYQbjWBpd3D+i5r1cBi3xlTNhtH9KY3vWnvJ4w6VRy25M07KjuntjLBh9/BEeVDIIQQqJz22oJTOm8YILY9S5YLwtT/OMF8EMHx4RbCWRNY5gkfh1ySa/4AomNaAotsIcKGWwhbedQXOghp7H38B46638mFpIMiqNpC/y0h0GZg+Tsy33jRU3UC4KiMFbaEDK/amiojF4nCtiYDbO46jIpPZSvl8Bo314tQMZeqNtxwTpETwW5BcNvyYCEwLWNxWIx/FmtGewqhtpi3dFllYI16xyhSHlEjoUPJF32AjR0z7UmkNS/qmdYWOlPR/ir7UlmD/Ezv2QyBNUpf8d22RQaWxBMyx1+UNUnmra/WHORoe9pxa+MUtlXAHVaV7Ud+1E+TEYsD4MvLmDNmQ1K2HTeBFXPXHPZcwSZ6A+6ulsDyDrInK3MtbmZIYNH97YFps5DNzTxjJTKwKAeGllT3OkUOy42waRnSFkiLj1oUBAe7b0K4hqcQEjTRSJMUCTU8urJ9JqEl6NhoAkaIfIbCak8qYABQoISXoeiZIjLuKVa8lKR2YbPrtAWKWKpkZWB5/yRROc/1OYsH5e4zjDkLaVtgs1VOyBokV52yon3qGVi0q8DotiCwTCqscymyYQ0sBqN+GLvKuGujC6KQVSME8WbrAMVahoXnSkPF+COQ3CsdnMFX8lPPo9QpTpjI2lBvAK7qCNR21bWM3FbJcTJEwCyePiMt1UIu7TZXEFg1BDZDYBVBXds71stS2Ci2ZZjU9616z0bbl89tWwTmhcgsR5vTJBiD3LHVruyaISo1Txi3nHeZKJxSAZtav6x180hgsbGsk8gC/eMYy3pCOLGnhjaZ3+kWDgjbhZOmb0MCi5PNDuNkwlMZA59hCwwzsWHExkOmyeyqdR2JIXO0tkJ5Joe7tuFwYjk+kxRxZ8vIkpeh3V6TkGj6J5NK7U/t9F7RepkDwy3ZZdtUfU/BSn9jQ7Nz2JzkxTO3F4ElwCtbTt9tz+TE2Vrdzr/CZS0Cy1ghTxCDfAW2OdnhybSD/QAAIABJREFU7LENW2z1l93PTuMr1DY824ZqiyN82dFIYnNJMJodWXXLhtkjxrFOM0MyGgvjqw3kxlhtdAshfPSJfTvcQui9+lMHFQhMy4b17qpxVzI2Sr7MH46yzD5tlLVFNsYdnFDP4gtxspXZ8H7ZafDyN7XDYKrvSNJhRrOxLQLLbona/lr1laqA/LC9dIJn25HD9i8C13sEw5AsiDtzq7bCIrOQcS2B0D7XPLeNrOq0IR2GW/vb+90ne1VWks/SH2SM3JXvMcuVqk62rFPtyKDsr7UIrNbXq7aQH34UmYA/WeJ/IcDH1ZM2N+g0eBojgUd+jblQ83MjBFZtIZwFgWVsjAFf33o3DKhpt0w5MkNm+ddw4PvDEF8gcQTpZP0wd2DMdx+VVU6uEKXI6goe8evsYOJH+7u5J0Nau5QKgCGZGpXV7XlkGqbIcu1XS80crJMahwQW/d9mYI2StxBYc5CBRVkgILD7Io6IBYs/o8zfpHO32zAIA8WGnURyEbASaAulKCNl6rlIJiQXQXOfZ1G+srBqwSsDwP9NAhEZPyM0RHg8r44Fdq80bdvQ7MdHvlgYGDhFclW0x8Rdi8BqJ+EkRg0DBREkKuKzWGSLicWoPQ7W+2FosbLYS7mFBbKGEVSss2dsDwKLMmGcGwNtMNaINW2lbNqIl75QSkhDytkCps8Wwdr7bmLrH6OYsckJ0FfKoe1rkYUWO89sT5CwANdWj/UIrFo49EGkgixSWkhNz10ra3CWi16eFQTmCYHNEFhloLek9Fb2bV6Ii63sY549GQJDY3iyT23urvad1kNGtfpF7A9fdSjNKCfF3zjbjGlrqPVf9lKbndOSGvOSgdWSx4gDth0n0cWZrePeh06bgBSbh+3CcShMhgQWm4dN6DnIBfad9ZjTwLGozxWZ492yE+rod04PUg1elaHPRuAMsiXoJjj7vS2wXZKgf+0phJslsLyHk6X/nCxbSpRjYMO2BdXZw+TF/YgGOJAPhCB7uE6p075pi7jPIgNL29itgqku7SfjHMJRttZaBJagrEx744qYciHl/M4RhEuV5kB0sJnVEuM8ssXZ8RxNDqd7tc2BAnZV+L9MFb+z6avoeq1JtpHJ8iO3SCq4u7+Ki7NB/Y08qR1FvqbJwFqPwDJ+bFv+DHvYRQ59ThC73aY61E62SLKx+S70DecZIQSz1t4ejge82csC5+xvmHgnAs0cqy2B5swox72KuFfWpD4giWUXkc/Kjizd4H0ynsg5fcgPY08jYdjofDL3mufGAblEX7DzyRifqDL6Cg8EjcxEJJExtBMHcUFvtsR223fvRXjAmhzB1/tkN7W7NQpn5Bh/0PPtxKDPhrXt1loxNkpgDZ9Jhs0t7YS9MTFeyCSke7tdEo78bliaI372f1th6R2yUevI9iCwKkuLTq6EEuuGMjwtiW/c1iOw9IPMIrDIItmwS4gvKXFmmDiBZKLzzS1jChfrTx1ogWwib4hm70f6kSnzvk58rDWeXrBu8U2rhjW5R1BK3CjfPQRWaYF1bCvsNRKnGNrtvYWQ8FGqol1qGNT+XRENW8Hse7boYb4pUQyrSSq9tI6frmORWwKLYBE+ixfl4/hVCtBxtwTRnuZa3E1ego2IojgJOEVnMZPKWgYNzJBh9q0W+2oRsxiIBjGaGJIVxTPxxmVgTUtgUe5SQykTi7f+MeKkDIo26ovJYmGxcFPAIh+w1W+Lgr6YPGXMbYTAEtUctU2uIiwUebuFcJiB5T6kj2eUYrIA2lYgikI5MdgKQwqWEjPuFInF18JCwZIJEV3GAgOOoWvxoaylOFeRvhZr46YuBaUCF21FnFb0dxICi3K1sFsoqiCf91uU24V8EmJyc65QPh0E5gOBWRFYerPV8yYE1nzIzDy0YnsQWLVWWq85bEoosGesY9broW3QBsWseRw2QRyZOeVol8Pms3W/QunzSGDJpBFwktHAhrNmssdsLbIV0lpsbUYwIARkVemLq2qQyZpua2Dpt20asgdkVXM82TpsSoQFx4JtBl/2E7JJhJv9wK6QbcH+qwLT3sUJdI9ta3SSIJef4e/nqtlaUfxZEVj6oo1sJ9n7xtM4I7F8IS+9s+xhDrDaYAgOcsApY0+xbVq5WI/AYtNw6tji+jctgWUcBY3bzB42OAfaeMOLLc3/MM764DMcwAogtgQWG1DGE6e6iBa1ZDiXyEd2GFz0C5GFwDDGSD/EhXnFDqz6SIgp9rMAZ8kSfBEqZE1byBX/QLYbm5o9Cld+AbliU5MtxAkHlI9AXo3RKAIL+SMbZL0i7usRWNqLnCTf/A3vIwd+hs+4HQRkiZwIsHoHexXBIvhqi5nP8Vtkb9Z2pZZspp98VsDW392vn/rPtyFnw10gpddHEVjwNE4IJBldbH7zz73muDlEnsmKvyNgyA5fp9pVdcjcqz9kHMFlDvPHyJIxJ8fGjH2PZPJ576R3+JTjMrC1BUHhPu0gE37mZ2lTO6e8n8x6T/UXkVF19CZZ44YElvmC4BhVP3Gt5+kf/w9Ji1zhCxlTWZh0K3INIQgb5LwkB7qV3nQh6PmJsn+qdqBnrkdgmRPmge/mKZ1LLhDGRSi27R61hVA7yHFhS0/rg6zaqnFqvpE5+oIcwkd/RhFYxk/wgo7RJjqBLvc8P5cvyX/Wb3PYPJEFhwtAOHmv/vNVYVoZsNpmXcID8Eu93/qi5pg5ZX6ZU94ju5OOUboHSVUlkuhZGXKl14rAQtDDYNoMLPOoirhvtf08iUy7ZyW2EBaZ4juBtbipyWQx8SV6RhlYzDhJFkiLUwkNY4hA+bLgVwZWgUzBIEAoGQLlmSYWoWWsEBbPQPpQeJQzYbYXHmPbGjSEGetP+Vsc3et5yBTPtDgjTwgy46klsAhVbSGsvcUlaJMInHdTwiaSRbnIOwujdPEqgkoxmYTa6bkmDCLQhLbgFcHieQgsCz+8XcNTCD2rjVAxiBA1owisWlwY4e4z+b3LRKU02sUCw82YQGQZH0rWeMCwFi2GGuyd/kSBUj7G3P9F7xzdK2paNUMQsd5pgUTU+UydTtNOOGQlthybb3HCgEu7H1VYcjhRy7GwSJicsvX8TdstspRXOeDbwzGaVLHkviAwawRCYM0a0TxvWRGwjllzZUQISqmnU0b6MA5ZBq51nAHN8UNQWANrK2FrP1TUHHbzuIWw2sdZZZcp88B20wdOMVuGM81BgRF7wprNFrBeIxM8Y1jEXX/hygHg5NtuUo62Z7IjPd/fBNlk09TBL2w2QU72WVsftQqjC3hxMLSRc8KOKgIL+cGx5bDMisDSF23jSCHMOEEViGQLG3t2H3uW8wmjsjcEUtlbSJjKuCiZqi2EHEjBveEphAgsOCAIYNWeQtjKZb2rLeIOV/I4JLCMicwwtrlxhCFnSx84l2VrV7mH9QisqjPFya9C3mQFcYEY8UxEAluec6mN3onI1YZhDVy2HL/DV51gyT5HcsEShu4hL8gz/THWiBDyy24sPGBA7jjalYGFiOBYjjucpE4hNBbW0HFbCMkEeaQv+CZwIAOCuZ5fJUyGpIy2+ZztRjAzBu7xHkQj7Mw3vg65rqvGm9yzc5GZdRoqu97nZdXp/7iawkXoVL0wtrl3Ghu4GrMisGBrXsJa34pMRP4pz1Fb4IyluYBY8z9zpHwI7WeLGz/jbm64j4/ged7lM7bUDbcVt2uNdghOazes2PVV+qXVtaVL3CvxwkUGzT/vcO8kvl1LYHlGbSGchsCqenLaxGdC6Jkfxl5f6S1zjh8NG7qVTMNOG/mr5NZX6zetRWCV747MkQU5isDy7KFM0j8ymsw5427OFoFVGVXey0cj25INKtOpxhdxpQY0P3IUgWUMaotgjQE9qoRMFXPXLjJjLaGHzD8y44vc+z95NTcQgN5Zz6IrEFPGijxrA50JYzLAp9U3eoAfXVuYreHIPTJVz9LXlsAyT2xZRd5PWgOrZHtYc3F72lArQ2DVRKC8pPNaxAgtoSiDp4w195pgBIEAW2SRNe6zQIkWUOalPPwd4UXx23JImEzyWnTKQGwNRcwtpYR5by+fqeMwvctiXUUia6IiXmp/uYlKkRF0/2d4MnKGBFaRHmsJW+GAnBJJkY5Y7G9rtHoGZQ0vSonRYr9uncjTTprKwKqjwUUgTYAqsFhFM2W86QtiSgYWg2+UYtYOSkJkuCKrGH2LRqvEYEi5Ugz6UFHVwgH+FCJF4D0UpHFmnNaW0UoXr2i2z3qHwuwMWG1ss6FqQaawpRQbI3LjHgpFW6rf642DLC4kmaicC77kwaI+LqqzPRVJ3h0EthqBEFhbjXCevywImCvWn3/5l385rzbLMOBR65X1RHDKGiMQJVhWW2lGbduZZwKrdY7ZYLZ1qL0iQ8K6Xpn0Zevpi5+RCdZbGQMKeHNg2WacHg5Nrf2+IwQ4njIm1BNja7AR2oLhZTOwLdgqsmTYkqNqznD0ZLkYqyJDKsPN+7RBRhabk23H0XFxuLUB+dVekzi0ZQ+zVQTXEECcOf0uu2doM7FdZKuwnZS+kBVTNm29X9vYcp47jsCyQ0OfBfbYXLKbhoHAlsBSZ8b41dY99t+wtpJsMg4lG7wtjGy8q46VjEIX21/Q1LhxKjlxxqbFzRgjJgRy4VI1Ugu36q/PmCsCrogkGR7DMdYeAVV9UM9UULXmXr2zxtvvgqxwFKSu+mo156oGVhFY+seuFMStTMmhDpOhxkZm03NiyfqoGlg+px2wRMLJGNMemWzsdvOg5ssoQtsOFM62TL1W/v2M3CW7iNh2jhaeSGaJAcbWs8k2B9ucgO84mR4SWDLaEAiIUuNW8ln4lc9GxhGEMlyMfZFz9f+az7LCjBlfqJ0PlfXjPl/GAYltLGRjrlfHilwJgJMLhA8Zt81uaNubj+ULCKCXrkYC01eFy1pzXt8RWLK2+HaujRBYNf98HhaIVDJlzhVxXP9r+wEb2W2IUAR+FfZvx0Z7+M6eQ+/yr+BYMom8Ix/K1fgcH7IysMYRWHQqOZc8gqiz08ZYt34+AqgSNshSG7Ch3+r0+iKwtIFPTl/RNzLBzPfSV8g885vMkPeaQ61PrE/1O5/ZOJrrdTBKOz8Qo/BFDlepnpbod2/Vm0Z+Ia3IEu4Cadfeq3/0Cn1fNdfMr3EEljFGIJNLcmoOI/v0eV6ulSKwSlkiPjC5BANxIevIgksQKE4KngKXLkoAEERIED/LMkJgWXxbpUHAa5sgZWzCieQhZUrpm0QWA2y/Bc9EHipn9xIciw4CxrMYYRaeik6YhCaPz3s+JSxbq8gVxggF2hIv0wocQk4fpCWKZMKIcUXxi4ZQujKU4CSyxQCuiVQT1PsZASYU4hBelLbJWkQOggcxI1KsL6ItVSeineht+40F5cZId4kgMkhapend2msRY1AhK41PRQO0QZabqIF2UxQWCu21TVCExOeL1dZnRhPsRdqQWOOOfPcZRoDnV1FLxKIIE8zWMzD1SxaaFFPjzqCh0Cmf2ks97Xjm/iCw6AiEwFr0EUz7txUC1i6Gp2BQBWTad7Mz2B62Stgyz7lX/FpAauhEjQskeZ41c162EA77p90cQPaCmj7IJs4HMqIyMBj9HFnEA6IJZpxLjgiHXVYE52toi7DPRNHZF+w09hL7omwu2AqOwRbZg4iA9agLKcFeEFjlXCB36LoKXAqGsTvYpu4R+HSxBdgUCKDWQVrPvhi2gd0lU0Lwju0j2MhG9v4qt8B5QV6xXRFT2tJuc6pncm44y1XvSdtrO5172NzsO4FL7ee4Ik1HZbK7n73GabT9tXYjsNmr5li91/84+Gw9pAOHi02nD0gNAU6BXxenTaaQecGOZWuxz4a46QOHnw2uT2THM6sshTEWUOSUw4bj7XlDcsfv5IIjfeKJJ/btY9OXTW0uwoIDW1vf2Jfs+6HjS54FhWFCrrUBMYAgrfquhUk5r6ULEEvkSoad7BRyOepqDzTQZn1ioyPN2lrB5bTXd2PFVyCj5gTn3bvhxT/gDLN/h/PU5/UFCUc+XN6pjYiKUSR6PWNIYBkP81yGEFngv5AFbag5Q3YEyuk8slxbwEbpj6pzZryMHXKi5gb5hwf5Ms/5i3QoP29UlloRNtrGXyFX2sUXNI9rPIZ+JX3F/jd+9I53IbAQZi2BPJTfGn/f+SH8Vpk87kMi0yPjfJhJ1qmaH54NZz6T8aj5wQeV1Wp94K/Rgeb5EJuqL+xgEYQSfWG+8i1d2s8v4/MaB+23zc8cqENFhn3XBrt9ED/ahNy1FqpvVVthCx9zXNCC7qPH4e2qulMyYF18bHrDPfomAYIfWURRtaEIa3PA+oDYNY+KC6A7+XRKDVl74LLWYQd0jv57Ft1BP7dJFqU3rGH0WNUwbMlNfSW3fHHjBQPyiuAbl93oM4hbBB+ZpY/IbQVQJpGRrb5n5QismhCEyQJCsEwaSs5iTWgpJF8mmxR5A0bITTysL8Edx1p6LsXNmEE++NmiQyH7MuEIb5uuOiqjhvBQntqofX4ucku7KGptsDBWCjyB9T8KoC1AvhEholS807t9mdQwqggAJe1dDN61sooshqIqddqRSQCDWpS8w+JVES7KwCJeUaxRxhglbqGsiKfFcWjQ6DNsPN8YaIeIW6Wha7fP1Tj6u+dZhJFqxq7kg/IzZoxdclHH4661sOovAooSRWRi80XoyM5aqcVlzCJNKT59YHhZwLD1uYLAqiKwWQKrjUZN6+RNi/kwwj7t53N/ENgMAuSPsc9gtY6UA+eZZJ/RyrGwVYhRL5DTOqfrvbvke14JrKEzyh6zDjPii6BhY8jOYQfUlkIRdwFAtgDn1lYQW0DGOYeey4aUscM+4ix5LjuSvcBu8DuHYVzmNCyt8z6rjZwT9kNl5dS2HJ9ni7GnfKa2WVXN0fXGbNz/PYt86APbh8Mk4KhvnCO2S23F06+ye1rnuZ7NiWU7absgL5ulDh9yD6w4Q+wy/WEPesdwK2I9z3MQhT5XGSBtEfyy5wtD74YhO64whH29xzP0TRv8XOUixh2M456yBeGiHb58jtyUTcgWbjNBhlkSZY+yXcmgcfQdWekd5IR/QFbYmOZnBYSHgVmfg0kF3X1WW0YV9S6fAXHhncbZs+uk7VEyQfbZzEiCOt1PBiDisXaMjBr7IowLL3LM9/E8Y+Czwy1rNW6IIQQWksDFubetsIrAj5PdUQSWNpNX7YBvnQQKHziRN1iT5SrWPc4e0D5y5MtzvK90CR/O3PAsY1BzYy3Cn9wjyIsU8P7aAtrWMGuJS22gs2puCfIjKYqIGYVNS175P/+KD1sZnvwl5NJaPsxa+qRIS7JLps0p7+AzkR3jTLeSZ3Ok5vg4X5d8+iyc6Q3zFa51kXn3mIMuuFuz1qrLVmNP5uEMM20Z1edqu++1VtbWV/2oBBV6ozJ5YWjcx2Upw4UuqvkAF88sboHepjf8ba2C/CWDZA/OsPC9Mkhh6znWMMRaXSUDhbl2WztquyssrG1r7egxJnC0NtDj+uw983KtFIFFCA1qTb5aVCpC4v+tQqN8pUky8igvCosSl1lTxl6raCqVtJ5bKadlbBCUimpVO8ZN6CJa6v+1eNfnxk2a6kubJrkRYWuVcGUhwcNza/vgRp5bz2r7PcrZW88BbNNZRxkL1bZRC6372+jhqIiZzxuDivqNOlp6LSfYOygL6fYWVBe23aJsX36lIJcBVs+i8GwLkAbNQKGYkKYM640uNhsZp3wmCMwbArMgsEofbAsCa6vfMW/jk/bMFwKMcRFUkWtOt8u6wzGw7czaVMVgS1aLNGl7Ms5Gcc+8ElhlE1RG1NDmK/vKuq5/7uMY2GZjqxc7RUaErUh1QvRwdOuZ5YQXWeA+zx21XnPQRhGF65Hr1Y9xOmW9/08qmdWnCmBqa1tsuWzZ9nlt21v7tLVZW/lqnV8YtTp5aMsN7euSxaHNVtivZ5uOw3kS/Mp/gI3nVLHtVraGzmOL0ygStJzltt0VmPXZzawhra8zzsYdJxf6KtsE0cIRRxjI2pHpVc72cNyHNn1rwxdG4zCw3UpGTdXVlZknQ6iIRZ8bhcUoAkuGXm3hq1Iu1ZZhgfTWTxiHRStbpR/re8nv8DmjZMI9SCT9kmnpGYg25V8QdmsFtn22MjLLB1trTo/yiWZp+wz9s5I1bSwft/Sf//EdK2ljVLvHzftR82nov601T9pxKFlYC+ea461/Vj6a76XT6vtaxGeruwqXWhuKK1iLPBqlY0tP+d4+o9WvlV08nDOtrplEr7RrZ/ntpfcmXU+2+r6VIbAqvVUasIGh4KSzYqFrAhT5U4OLsZT2ikCgKLGP0lrVfBqlUNvJMpzg7UScRHhGKYh2QkzyjFkJT2uobfa943AZZxBNoiDGKcSNfnZWuDGI1d+wbZIsIaOkRNsnj4UfGjeMW6msFnILHUVr64DPSxfOFQRWGYHNElirjF36vnoIMDpFamX92h4hKm6rky1n6jciskYZ8+uRKS2SCCzbZso5snYJ8k1zxPssR6YcKf1WP7IKowsayQCRcT3KnvE399dpaGxEmfcCTpNEnIe230Zsj3FO7yT4bOaz454/ylZb7z2zsO/GvWOtd0/y3vUc/mls2/VwGL5rmvunuXcS2djoPYqX0x0IIWSEUiFKqNhqi4yoOV/Pnwa/1h+ynZRfVZmPMl5s8/S+9fTIuAys2pK6llxMIzPTjsnwfr9rqy21dIpsOD6o5Ag6E0m+EfzWG9tp+rjes4Y+2iTtndR3nBbfadraylr5+uvpgvXum7a9Qxym/fw0/MFa3MN6/VpvLdjo5zcyXpN8ZmUILNFI++gpSspDuqdMKnv2hwXZGS+MP6lzUvBlYfldYTTGGba8BnKSSTzJQOSe5UOAHEn1VkBTjS+pm4grvyuY26bWY8dlbDEY1KKghKQKi3rd/va3XzNdePmQS4+CwO8iEAIrUhEEJkfAGmJdUYtDoWq1VpwwWEeET/6k8Xe2BJa7EEDbk8CqlioxwNlW70OUW/azuioVCBoevmJttt2fc8nRdClYe/jhh59Xnym23iwkJs9YFATMCXWk1L3hM5kzyG/zwhbENsOm+jTtHOFX0U/qDNlGiBhzspsaT4is9S5zlX3MR/Nu7bLjYVxNtfWeN8v/tySFLVjq8PE/1eO1jVMtK/XXqn7wLN+dZwWBVUBgZQgse48RUk62UDMKuYAgkA2j8Bk23F7U2uuqnsGrX/3qfjuXzyIbkFmUtz2nG1XYqyBU6eP/Q0DqrLRohTYZ0zIBORLkSBE9EXBOBpmUaSVSLmXb4s1wcELFWqm3wToIrAoCIbBWZaTTz1khwImyBnGg1FiZ9Tb0eSWwBCwRVk6cq+0P1lLrsG2T7DnZHbKeba98z3ve05+IV8epCzQ5/U/Qss0CmdZBn9U45jlBYFsiUFkciCsnqin2rA6TDEZBVgdHmSObycKqrCTZVupfVbF3mVgI50lq8i0CgcV/dGop+54PADN13JySJ8tskn5uy7HPu4LAoiCwMgQWZcmQEZWjICm+OmJXRhUyS1E1ykahNlEBp31wmkTwnAqiLhHyofbHxphZFDHffu0kd4rtORkFGUq2EFJO2GBQM6b9X60SXwyG2jrI2N6q1OLth0jeHAQ2hkAIrI3hlk+tNgLWoKqXsdGtC+MQnFcCS38VhJbxwI7jHNtCqWyEbZTWXb+rOen/atIIWvqcrZUyQA499NCxJweutkSl96uCgPmAuDrmmGP6XQR8KBlDamHtv//+fdC/yC6YTOMT+ZyDJgRzPdvlZEB+loOcJnmWLcJOsbTd0f2KUn/oQx+aiwws/dFHBPmxxx7b19MTwEYCqrWnMD4dNKoczarIV/oZBDaDwMoQWBWFs6XL6XCORxaVpGDKqKtingWovyMbkFsiDuoXlVIaFnnbzCDks8uPAFkT3ZUFaMFSvNEx3WqwIU0tunV0NqNAXRG1NyYt8rf8CKaHq45ACKxVl4D0f94QmFcCC06cRUfPy3SwPb+Ody+HuzKwClNrrWLVsvRlSyCyJnGi521M0p4gMEsEzBcklrlehbCdjKmuHP9oowQWuxexo5RLETsIZ4dLrHWyeflgviOwEEEILPPXCeyyncadKjlLXCZ5FgJQsoQtzbJCtVEmLCK93eYYPTMJmrknCPw2AktPYBVBpdt1KuBXvvKV/nhkaeOUsmLbrQLxGdlZjBmZMoccckh/Io19y62xE2EKAtMg0EbC6xST9aIvs46YT9Pe3BsE5gmBEFjzNBppSxD4v1MIq4g7PLZ3DaxhAVs6w8EosrFOPfXUviZlnUBo7a112NHtnEo1wnwJLCV4FAkPAv+HQBvob23SoX06DRGjeLutg695zWv6ufZHf/RHffaV3S7r2b01z88666zuoIMO6gPAniFza55qYBV2ZecPsSv5mga3yGQQCAL/h8BKEFitAqbkaluXooEMMNEFaZ6KForKKXIqxVyqrL3Kvvt7q3yicDKFpkWgjIA206+M5DKkSz7b2gKRtWmRzv3LiEAIrGUc1fRpkRGYVwILpkVQqQH27W9/uzv99NO7M844o982aKu+k4FlWanlg7CSEe2kQtnRWXMXWSrT9q1AYEgOe0cbiK05N+m7kU+IZSeGShiQ1bXPPvv0c3I98th7zVHlN9Sqs7PBJavpPve5z28dkDRpe7bivnGYDfVL9M1WoJ9nLjsCK0lglbKgBBXxRFzJwmLQUKQKulOiw+LZo5TRsgtI+jdbBIoEHcpSZGu2OOdpy4dACKzlG9P0aLERmDcCq4KV5Uy325v8zMajR9h7bL+dd965327k+3pO82KPVFofBOYLAfMRudyWcKlDJtYjdNp5zX+TVekyh9WVmue5HFt/vuQwrVlcBFaGwCrDZj3FOOlQzuo5k74v9wWBIBAEVhmBEFirPPrp+zwiMI8E1jzilDYFgSCwbRBYb/vhtmlqaA4SAAAgAElEQVRF3hIEgsBWI7BSBNYswQyBNUs086wgEASCwNoIhMCKhASB+UIgBNZ8jUdaEwRWHYEQWKsuAen/qiCw9ATWqgxk+hkEgkAQWGYEQmAt8+imb4uIQAisRRy1tDkIBIEgEASCwGIjEAJrsccvrQ8CQSAIrAQCIbBWYpjTyQVCIATWAg1WmhoEgkAQCAJBYEkQCIG1JAOZbgSBIBAElhmBEFjLPLrp2yIiEAJrEUctbQ4CQSAIBIEgsNgIhMBa7PFL64NAEAgCK4FACKyVGOZ0coEQCIG1QIOVpgaBIBAEgkAQWBIEQmAtyUCmG0EgCASBZUYgBNYyj276togIhMBaxFFLm4NAEAgCQSAILDYCIbAWe/zS+iAQBILASiAQAmslhjmdXCAEQmAt0GClqUEgCASBIBAElgSBEFhLMpDpRhAIAkFgmREIgbXMo5u+LSICIbAWcdTS5iAQBIJAEAgCi41ACKzFHr+0PggEgSCwEgiEwFqJYU4nFwiBEFgLNFhpahAIAkEgCASBJUEgBNaSDGS6EQSCQBBYZgRCYC3z6KZvi4hACKxFHLW0OQgEgSAQBILAYiMQAmuxxy+tDwJBIAisBAIhsFZimNPJBUIgBNYCDVaaGgSCQBAIAkFgSRAIgbUkA5luBIEgEASWGYEQWMs8uunbIiIQAmsRRy1tDgJBIAgEgSCw2AiEwFrs8Uvrg0AQCAIrgUAIrJUY5nRygRAIgbVAg5WmBoEgEASCQBBYEgRCYC3JQKYbQSAIBIFlRiAE1jKPbvq2iAiEwFrEUUubg0AQCAJBIAgsNgIhsBZ7/NL6IBAEgsBKIBACayWGOZ1cIARCYC3QYKWpQSAIBIEgEASWBIEQWEsykOlGEAgCQWCZEQiBtcyjm74tIgIhsBZx1NLmIBAEgkAQCAKLjUAIrMUev7Q+CASBILASCITAWolhTicXCIEQWAs0WGlqEAgCQSAIBIElQSAE1pIMZLoRBIJAEFhmBEJgLfPopm+LiEAIrEUctbQ5CASBIBAEgsBiIxACa7HHL60PAkEgCKwEAiGwVmKY08kFQiAE1gINVpoaBIJAEAgCQWBJEAiBtSQDmW4EgSAQBJYZgRBYyzy66dsiIhACaxFHLW0OAkEgCASBILDYCITAWuzxS+uDQBAIAiuBQAislRjmdHKBEAiBtUCDlaYGgSAQBIJAEFgSBEJgLclAphtBIAgEgWVGIATWMo9u+raICITAWsRRS5uDQBAIAkEgCCw2AiGwFnv80vogEASCwEogEAJrJYY5nVwgBEJgLdBgpalBIAgEgSAQBJYEgRBYSzKQ6UYQCAJBYJkRCIG1zKObvi0iAiGwFnHU0uYgEASCQBAIAouNQAisxR6/tD4IBIEgsBIIhMBaiWFOJxcIgRBYCzRYaWoQCAJBIAgEgSVBIATWkgxkuhEEgkAQWGYEQmAt8+imb4uIQAisRRy1tDkIBIEgEASCwGIjEAJrsccvrQ8CQSAIrAQCIbBWYpjTyQVCIATWAg1WmhoEgkAQCAJBYEkQCIG1JAOZbgSBIBAElhmBEFjLPLrp2yIiEAJrEUctbQ4CQSAIBIEgsNgIhMBa7PFL64NAEAgCK4FACKyVGOZ0coEQCIG1QIOVpgaBIBAEgkAQWBIEQmAtyUCmG0EgCASBZUYgBNYyj276togIhMBaxFFLm4NAEAgCQSAILDYCIbAWe/zS+iAQBILASiAQAmslhjmdXCAEQmAt0GClqUEgCASBIBAElgSBEFhLMpDpRhAIAkFgmREIgbXMo5u+LSICIbAWcdTS5iAQBIJAEAgCi41ACKzFHr+0PggEgSCwEgiEwFqJYU4nFwiBEFgLNFhpahAIAkEgCASBJUEgBNaSDGS6EQSCQBBYZgRCYC3z6KZvi4hACKxFHLW0OQgEgSAQBILAYiMwJLBOOumk7uY3v3l3/vOf/3c6dr7f/OY3v5mku0cccUR31FFHdW6/ylWu0n3605/udtxxx+585zvfJB/PPUEgCASBIBAEfguBEFgRiCAwXwiEwJqv8UhrgkAQCAJBIAisAgKjCKxb3OIWI7mmTRNYLaAhs1ZBvNLHIBAEgsBsEEBg7b///t3HPvax/oG77rpr98lPfrK77GUvO5sX5ClBIAhMhUAIrKngys1BIAgEgSAQBILADBBoCSyPO/nkk7sQWDMANo8IAkEgCASB2SEQAmt2WOZJQWAWCITAmgWKeUYQCAJBIAgEgSAwDQLbjMC60IUu9FtpXcnAmmaYcm8QCAJBYLURCIG12uOf3s8fAiGw5m9M0qIgEASCQBAIAsuOQAisZR/h9C8IBIEgsAQIhMBagkFMF5YKgRBYSzWc6UwQCAJBIAgEgYVAIATWQgxTGhkEgkAQWG0EQmCt9vin9/OHQAis+RuTtCgIBIEgEASCwLIjEAJr2Uc4/QsCQSAILAECIbCWYBDThaVCIATWUg1nOhMEgkAQCAJBYCEQeMYzntE94hGP6NuqLFWKuC/EsKWRQSAIBIHVQeA3v/lNh8C65S1vmVMIV2fY09M5R6AIrPOf//ydOfqwhz2se8pTntLtsMMOc97yNC8IBIEgEASCQBBYVARaAosNctJJJ23tKYQp3r6oopJ2B4EgEAS2PQIcYxcC68/+7M+6j370o/3vu+66a/fJT36yu+xlL7vtG5U3BoEg0CGwbnjDG/bRzxBYEYggEASCQBAIAkFgqxFgbyCwHvnIR/av2jIC6/TTT+8ufOEL9waOl+QKAkEgCASBILAWAkVc1T0hsCIvQWC+EEAg77XXXuedMP2Qhzyke+pTn9r93u/93m81NIHL+Rq3tCYIBIEgEASCwKIi8L//+789gfWoRz2q7wKb48QTT9x8BtbDH/7w7qijjuofepWrXKX71Kc+1V3kIhfpf48hs6jiknYHgSAQBLYdAi2BVVsIDzjggD4DyzoiA0sGSDKwtt2Y5E1BoEUAgSUDy/w0Jx/84Af3BNYFLnCB/m91xe6L3ASBIBAEgkAQCAKzQACB9fSnP7078sgj+8cpW2AL4c1vfvORjz/fb4Yh8TGtOOKIIzrV4YvAYuTstNNOIa9mMWp5RhAIAkFgBRAYLjdnn312v4XwYx/7WJ/Ju9tuu3Uf//jHu8tc5jIrgEa6GATmDwG23Y1vfOPu17/+9XkElhpYF7zgBUNgzd9wpUVBIAgEgSAQBBYegSGBJWiGwLrZzW62OQJLVXgEFgdkzz337E477bRu5513DoG18CKTDgSBIBAEtg0CQwLrRz/6UV/EHWmFwEJcycYKgbVtxiNvCQJDBGTX77333j2B5aoMLARWriAQBIJAEAgCQSAIzBqB//mf/+kzsB796Ef3j77QhS7UbyHcb7/9Nk5gcTrsSbQ3sQgsEfNddtklBNasRzDPCwJBIAgsKQJDAuuHP/xhn4GFwLLfHXF16qmnhsBa0vFPt+YfAQTWPvvs05177rl9Yx/0oAf1WwgZk7mCQBAIAkEgCASBIDBrBFoCS4kCQTME1p/8yZ+cxzWVD+H/E20h9AF7EmVgeYEMLE7G7//+74fAmvUI5nlBIAgEgSVFoF18dPEHP/hBn4Gl7hUCS+2rj3zkIyGwlnT80635R2BIYB1++OE9gbXjjjvOf+PTwiAQBIJAEAgCQWDhEMAvPe1pT+se85jH9NySoNm73vWunsAaXlMRWB4otcsLFHH/8Ic/3F3iEpfICYQLJyJpcBAIAkFg+yAwJLDOOuusPgOrCKw99tijX1uyhXD7jE/eGgScMH2Tm9yk+9nPftaD8cAHPrAnsJw6nSsIBIEgEASCQBAIArNGQNkCBNZjH/vYnsBic7zzne/sbnrTm26OwHryk5/cKeQprfyKV7xid8opp3ScjeHRyrPuUJ4XBIJAEAgCy4nAd77zne7Wt751f6qttURwxNqy++67L2eH06sgMOcIfPrTn+7233//PjtSwPKwww7rCSw1T3MFgSAQBIJAEAgCQWDWCPziF7/obQ18k4vN8fa3v70PqA2vqTKwPBAz5gVXuMIVupNPPrn7gz/4g/6Yw1xBIAgEgSAQBKZF4Otf/3p34IEHdp/5zGf6teTa1752nzJ86UtfetpH5f4gEARmgAACy7Ze2ZEIrPvd7369UalkRK4gEASCQBAIAkEgCMwaAVnfuCa7/Vx2+b3lLW/pCaxh/dwNEVi//OUvu8tf/vI9K6YWVk6mmfUQ5nlBIAgEgeVHwIL0la98pbv97W/fffazn+0cmXujG92oe9Ob3tTttttuyw9AehgE5hCBlsByrPW9733vnsC61KUuNYetTZOCQBAIAkEgCASBRUfgnHPO6Qmso446qt9CKJB9wgkndPvuu2/HFulJq/Od77xuTlzE3QmEHvzzn/+8J7De+MY39tHyEFiLLjJpfxAIAkFg2yKAvPL1xS9+sbvjHe/Yfe5zn+vXEgvVG97whm7XXXfdtg3K24JAEOgROOOMM7rb3e523de+9rXeaLzXve7VZ9+HVI6ABIEgEASCQBAIAluBwNlnn9098YlP7J773Of2j7fb73Wve11/KrJs8GHJqokJrH/8x3/sH/zjH/+4r3312te+ttt7771ztPJWjGKeGQSCQBBYYgQqHdjWwTvd6U7dmWee2RNYThs57rjjQmAt8dina/ONwOc///nuLne5S09kMRoPPfTQTgAzByvM97ildUEgCASBIBAEFhUBZQue8IQndEcffXSfaXXVq161O/bYY/udGRvOwALGC17wgu5xj3tcX9iTIfOSl7yku/nNb97ttNNOi4pV2h0EgkAQCALbCQEL0mmnndYdcsgh3Ze+9KU+GHLAAQd0L3/5y7NdaTuNSV4bBJDJd7/73fu56VSgO9/5zj2BdaUrXSngBIEgEASCQBAIAkFg5gh8+9vf7nmml73sZT2BdZ3rXKd7xSte0d3gBjfod2z81vZB2wl/M6yMNaZJCKvHPOYx3Xe/+93+hKjnPOc53W1ve9tul112mXkn8sAgEASCQBBYbgQQWB/+8If7DA+1sHbccce+HtYxxxzTXfKSl1zuzqd3QWBOEUAmq3v1gQ98oM/AMicRWFe/+tXntMVpVhAIAkEgCASBILDICDjUCc/0qle9qt8uuNdee3UvfvGLu+td73q/U/9KPycisHBcHnjkkUd23/zmN/taCNK87nrXu3YXu9jFFhmvtD0IBIEgEAS2MQLWFATWu9/97t5Z/sY3vtEHQ6wpCkZf/OIX38YtyuuCQBCAADL5sMMO60466aQ+A0tW5DOf+czeiMwVBIJAEAgCQSAIBIFZIyB49qhHPaqvg4vA2n///btnP/vZ3TWvec3u/Oc//++8bmIC6/Wvf333yEc+sjduHKf80Ic+tLvvfe+bSPmsRzDPCwJBIAgsMQKV9Ov7m9/85u7+979/J3VYMOQ+97lPv85YY3IFgSCw7RFQvP0Rj3hEd/zxx3e/+tWvuv3226971rOe1dehaBP223T+bd/KvDEIBIEgEASCQBBYFgScRn7EEUd0b3vb27oddtihO/jgg/va62phbZjAAs673vWu7vDDD+8U+LzoRS/an0wj1SunRS2L6KQfQSAIBIGtR6BOIPRdvSuEldqK1pJHP/rR3T3vec9u55133vqG5A1BIAj8DgLf+c53+qjnC1/4wu6nP/1pX39CyQg1T0NgRWCCQBAIAkEgCASBWSNw6qmndg95yEO697///X0GliSphz3sYd0Vr3jFka+aKAPLJz1QpPz000/va5U4Zvn5z39+TqaZ9QjmeUEgCASBJUagnGBbCJ1u+5SnPKU/3dbhIBxna8tFLnKRJUYgXQsC84vA97///e6lL31p97SnPa0755xzuqtd7Wr9sdYHHnjg/DY6LQsCQSAIBIEgEAQWCoG2OPspp5zSPfCBD+x5JhlXgtt///d/P5ZnmpjAcqTy3/3d33Uf/OAH+9Sua13rWn2a1+Uud7mFAiuNDQJBIAgEge2LQNXAksX7vOc9r/vFL37RR1le+9rX9hkfTiTMFQSCwLZHAJl8wgkn9Iakn2VGmqPq0+UKAkEgCASBIBAEgsAsEBDIVo6AT/COd7yju9/97tfXWpeBdfTRR3d3uctdxpYUmZjA+t73vtfd4x736N75znf2zJgtHh/72Me6K1/5yr91tOEsOpRnBIEgEASCwPIiYLH65S9/2Wf1vvKVr+wXL4UaRWAUcB+133150UjPgsD8IHDuuef2JxD+5V/+ZScbS8a9DCwBTEZlriAQBIJAEAgCQSAIbBaB2pHhxGMB7Ac84AF96YILXvCC3ete97ruVre6Vf/zqGtiAutnP/tZz4wdd9xx/ck0GLP/+I//6Pbee+/uAhe4wGb7kM8HgSAQBILAiiBg0VJrB4H1lre8pV9P9t133+69731vnOQVkYF0cz4RMDcVUz3ooIP6Q3tcj33sY/saqA5aSPH2+Ry3tCoIBIEgEASCwCIhUASWcgXHHHNMX1tdVpbMb77BjW984z7APcrumJjAEi0/6qij+polZ511Vo/PK17xij6968IXvvAi4ZW2BoEgEASCwHZG4CMf+Uj38Ic/vM/2sGXwDne4Q/ea17wmDvJ2Hpe8Pgh89atf7e52t7v1tU8Zj4ccckhvWF7jGtcIOEEgCASBIBAEgkAQmBkCX/7yl/u6mw52cl3vetfr/YFrX/vaY98xMYHlOOU3velN/SlRZ555Zv9ARy0rsrXLLrvMrBN5UBAIAkEgCCw/AhYnR+T+53/+Z79tUOqwTI9keCz/2KeH843Ad7/73d6+q+29N7nJTfrDFm52s5vNd8PTuiAQBIJAEAgCQWBhELB98LTTTusD2nb2KSFy8MEHd8985jPHnkCocxMTWF4grVxFeBFzlxTzF73oRd3uu+++MECloUEgCASBILB9ERAQefKTn9xn9EoddhiIDN873elO2UK4fYcmbw8C3U9+8pP+lOknPOEJHduvCrnf+c53DsEc+QgCQSAIBIEgEARmggAbQ331v/mbv+nUW1fz6ogjjuge9KAHjS3gPhWB5WYnRf3t3/5t9/rXv75v9HWve93uZS97WX9qVKLmMxnHPCQIBIEgsNQI2N8uw0O0RRaWLUrWkle96lV92nAKuC/18KdzC4CAOXr88cd397rXvTr1T9l3MrAOO+yw7qIXvegC9CBNDAJBIAgEgSAQBOYdAUXb2f9q4rrs6lMPS4mqtQ6OmTgDy0M5Go9//OO7F7zgBd0PfvCD7vKXv3y/5QNr1rNh5zvfvOOU9gWBIBAEgsB2RIBz/L73va971KMe1X3oQx/qWyLz6tnPfna/pmQd2Y6Dk1cHgf/f1nMi6IMf/ODuk5/8ZI+JOlhPetKTuitd6UrBKAgEgSAQBIJAEAgCm0ZAzU31ryREua5//et3z3nOc7r99ttvzWdPTWC9+c1v7o488sjujDPO6C5ykYv0Ry3/0z/9U3/UckXO44BsejzzgCAQBILAUiLgQJAXvvCFfUaHQIjLz/e5z336dOGsH0s57OnUAiEgWKk2HVL5xS9+cR+8vPrVr94HLxmVoqLmaebqAg1qmhoEgkAQCAJBYI4QYFs4LEZ5KryS69BDD+0Pjdlzzz1nS2A5+vye97xnd+KJJ/bGi+2DCKwb3ehGvVGT7R9zJBlpShAIAkFgzhDgGMu++td//dd+vbjABS7Q73+/6U1vmvpXczZWac7qIqBOnTmqbMS5557bnxT60Ic+tK9L4dCFcUdbry5i6XkQCAJBIAgEgSAwKQI///nP++2C6m36mU/w9Kc/vbvvfe/bXfjCF54dgeVJ6iEcffTR/WmEv/71r7uLXexiPVtma+ElLnGJROUmHbXcFwSCQBBYIQQ4vIo1nnDCCX39q6997Ws9eXW7292uX7BEW5LRsUICka7ONQLmq5OBHvKQh/QRUoblda5zne6f//mf+1p1lYU1151I44JAEAgCQSAIBIG5QwCH9M1vfrNPinL6oPIikqL4A7e85S3X9Qem2kKo93Xc4Z//+Z933//+9/so3DWucY1+S4jU8jggcycjaVAQCAJBYLsjYO1AWjka96UvfWm/WO22227d8573vO7AAw/sdt555+3exjQgCKw6Amw6F1vuRz/6Uffc5z63e9azntUf4rPDDjv0xuXd7na3PgtrrQKrq45j+h8EgkAQCAJBIAj8PwTazG0lRN70pjf1QTK2hoC2UiKPfOQju8tc5jLr8klTE1ia4aXqYB133HHd2Wef3ad53e9+9+v3LKphkisIBIEgEASCQIuAbUhOsHU87re+9a3e+b3NbW7T19XZY489+sUqW9AjM0Fg+yLQElhactJJJ/UZk5/61KfOC1i+6EUvypbf7TtMeXsQCAJBIAgEgYVAYGhXyL76+Mc/3h8C+PnPf75PjrIL4xnPeEZ3hzvc4Tzyaq2kqA0RWIrwqmNy73vfu/voRz/abyXca6+9+hMJb3vb2/ZRulxBIAgEgSAQBCBg8frCF77QrxHHH398//ulLnWpPpvjrne9ax8ESU2dyEoQmD8EZNofddRR3Ute8pI+YIlk/od/+Ie+jISyEbmCQBAIAkEgCASBIDApAhKh7L5wgJPdGA4FvPvd794nQsm+muTaEIHlZYwYTBkH5Mc//nFPWh188MHd4x73uP60Gle2E04yBLknCASBILDcCEgPlrVhK5KfXX/1V3/VL1a1Xiw3AuldEFhMBNh7H/zgB7snPvGJ3b//+7/3kdKrXe1q/e8ipYq7h3xezLFNq4NAEAgCQSAIbDUCrY3ApnjrW9/aB8E++9nP9q/eZ599epviT//0TyfeibEhAqs6+olPfKJPLWfUaJxonMic4xAveclLhsDaaonI84NAEAgCc47AOeec05188sn9CWZf/epX+7Xiyle+cvfUpz61L+C+3kkjc969NC8ILDUC5utPfvKT7sUvfnGfifXd7363r1WhkLusrOte97rnZd0naLnUopDOBYEgEASCQBCYGoHaQmjH3plnntmXEnnPe97T19ZUeuqwww7rHvawh3UXvehFJ372pggsJxI6/lz9q+9973s9YXXVq161Z9FsJdxpp50mbkhuDAJBIAgEgeVCQLbGhz/84b4o4wc+8IGevNpll126ww8/vF83dt1114mjLcuFTHoTBBYHARHTL3/5y33A8t/+7d/6LCxZ906gNrfZfbmCQBAIAkEgCASBIACBIq3YDxXccpDTk570pL4e7k9/+tM+GHbrW9+6/5tTjqepg7shAqtNBfvv//7v/kSp5z//+d1ZZ53VGzV77713X1X+Vre6Vb+vMVcQCAJBIAisFgIVabFt8Nhjj+1+9atf9duNDjrooH7r4LWuda1k6a6WSKS3C4hA2XtqnzrqGmGloLv5rY6dWqgPeMADut133z3zeQHHN00OAkEgCASBIDBrBIrAKhtCohO+SO0rtTUd5FSF2w844IDeP5gmi3tDBFbbSZE4Bd05JCeccEJfjEsDbnKTm/RbRG584xt3F7zgBc9j4qZp3KzBzPOCQBAIAkFgaxGwBlgXvvnNb3aPf/zju7e85S193Su6f9999+0dYIuVyEvWg60dizw9CMwKAfNauv/LX/7y3gBl94mWXvrSl+7uda97dQ960IP6MhLmdGpizQr1PCcIBIEgEASCwOIhwA6oL9lWL3zhC/tauEqJuK54xSv2wS/2g22E0/oDmyawNIKzYnuIFDB7Gv2OtJKJ9cxnPrO7wQ1ucB6zNm0DF2/I0uIgEASCwGoiYLHi6H7xi1/sAxhveMMbOpkbHF2L1ZFHHtnd5S53Oa/uVdaD1ZST9HpxEXBoz3Of+9yexKoDGRBXtgTf//7377cFm9fTbAVYXDTS8iAQBIJAEAgCQaAQ4AfggWRY8QecOPiyl72sO/roozu79vzt4he/eG8zCGjbqbcRe2EmBJZGq4d1yimndE972tO6j3zkI/12kR133LEnsRR1/+M//uP+aEQdyhUEgkAQCAKLi0CbYVFpwrUOOFXkmGOO6d785jf3xZ/9/wpXuEK/WDkmd7fddjuv4yGwFlcG0vLVRQBBraj7q171qn4rgGuPPfbo5/chhxzSbwuwHSBXEAgCQSAIBIEgsFoIsPvPPffcPlNbvatXvOIV/a4Mf1eo/a//+q/7wu3XvOY1e2A24gvMjMCqxirwKfLOicHAaZQGShNz4hTnpSWxkmq+WkKd3gaBILCYCIiaVJSk9HZlXOnR2Wef3Rdsf85zntN98IMf7H7+85/3uv7yl798d4973KPfYrTzzjv3zyjSayOL1mKil1YHgeVBgC5wGqHSEW984xv7CKu57ETRgw8+uD+NWkFWQcxxV2y/5ZGH9CQIBIEgEASCQCHA/v/85z/f17w67rjjOqeR44RsFbzNbW7TPfnJT+4D2/yBjWRf9aTXb9rw+Qaxbx+hsOfb3va2Pr38Qx/60HnbR5w8dde73rW75z3v2RfvlTI2rlZCnJoNDkQ+FgSCQBDYIgSqviH9XD/T/bYIfutb3+prIMrKsL+9ghdXutKV+swrkZZxNa+i77dowPLYILCFCJj7X//61/vthK95zWv6Q3xcSGu1T2Xe3+IWt+i3FPrbqHmeub+FA5RHB4EgEASCQBDYhgiwC7797W/3B77YMnjaaaf1O/Ks9Re72MW6v/iLv+ge8YhH9ORVrf9zQ2DBCfP2vve9ry/WdfLJJ/fbC12i77YU3vGOd+y3FDp6uYisbYhvXhUEgkAQCAJTIjCMdUgPlhIs6+rtb397X/9QVoYghkyMP/zDP+xPKLvtbW/bF3oed8WJnXIgcnsQmBMEzPX/+q//6iOsr371q7uvfOUr/fxHVjNQZd07jXqvvfbqiaw2+1IXMvfnZCDTjCAQBIJAEAgCUyJQfoGg9g9/+MPu9NNP75OYlBAR4EJeVQ3cQw89tN86KLC9ww479G/ajKdiBMUAAAmPSURBVA0w8wwsDaoCXp/4xCe6V77ylZ1thd/4xjfOy7jaaaedulve8pbdHe5wh96wucpVrtI7PJvpyJSY5/YgEASCwEoisN7WnXH/r4UKcaUQo4XqxBNP7Au1Ox7XZRGjy6UIW6h8d6DHWlf0/kqKYTq9BAjUtmLZV/TAscce25166ql9VqasK1+MVXWx9ttvv+7qV796d6lLXao3aGdVD3WS7cgz2GiwBKOVLgSBIBAEgsCqILAtbGu7LZQQ+MIXvtC9//3v77Ox1b0SyPI/tTCvd73r9WVE7nznO/eBLH9nA2y2fTMhsFphGBoTUskYNoisT3/6032navuJk2ukmiOzROsRWW1a2WY7typCmn4GgSAQBCZFYBICq42MVJ0rxZplWNDjDuqQcSX7op5XURaBibvd7W59hq0aOOvp8fX+P2m/cl8QCALbBwE6QOb9Rz/60b5Y6zve8Y5+SyFbz/+Q2PSBLYWy7xFZ7D3FXM3/KifR6p1JexICa1Kkcl8QCAJBIAisEgJbYV8joH7605/25UI+97nP9ev+e9/73u4zn/lMH7yqdVy9K1nYDnfZd999O8lLrrYcyWbGYuYE1rAxjAvHLtsHyah561vf2p155pm/VcRXxJ5Bo9j7ta997b7ory/Hriv6bpvhelcZMW2kbZKBm+Se9d6d/weBIBAEticC4/TekKzyu692z/koQkvar6iKLYJIKwuVCIsvB3RIFW7rYF3ykpfss60sVjItBCekCE+iXye5Z3tim3cHgSAwGQIMW7oCuW0LgVISDncofSPrymnU6qCy92Rn+bryla/c23pqZLhneFhEvX3STKrSKZOQW5P1LHcFgSAQBIJAEFhsBKblSIpwUgrK2u6LT+BLkXYBbTVwq+5tHeayzz779BlX+++/fx+sau38hSCwylmq6JptJx/4wAf6/ZHvfve7+20obUaW+0TqLnvZy/ZGju/SzXfffff+u0Lw6mghtDB5UtOQX76ruVCGT32v6vaTOFJxohZ7Uqb1QWAVEWgXoyGJX/rXYuHLAiM68otf/KLXu74sSn73XUQFaaWOlS2B9bPt34gsgQgXXVm6FXFlG/iBBx7YZ1dwRqtY+6Q6ddL7VnF80+cgsEgIlA6iS0RmbTE+/vjjuy9/+cu9fqmMLPex00RoBSsvd7nLdXQJO88WA1/sPV/sPZmc9Iov9h47kV3nGW0tjdqWUFldrW6JnlkkSUpbg0AQCAJBYCMIrOUL1I6KyprmFygLwjeQRc0f8Dt7X/CJPyBgbQeGHXW++AT8A+t5XdZiGdUyrfkDBxxwQHf9619/ZHmoWQWWtkkGVjk9Gi2yX/VTEFmK/yr0NQS8InCME0ZLGTFluJQx43sZMuVUtcZL62xtRBDymSAQBILAvCIwzEgYl3FV99G/vixa/mbR8rtFq75zNP29XWSKBIODhYpjaZHydYMb3KB3Qis9eNim9RzH9f4/r9inXUEgCIxGoAxbBrBtxjKy3vjGN/YHPtT/zPsitMpGZMsJSrL3EFX1VTZeEVZ+L3tvWEujbL5q2agM04xbEAgCQSAIBIFlRWCUb9Cut36uOlX1Mx8AecU/4BPwA/gD5R/UOu176x9Yj+28OOigg/oSARWQGlfncmEIrHHCAaTvfOc7fTpa1VT5+Mc/3rN95VS5pzV2GCbleLWk2LIKYPoVBIJAEJgFAqMyESpDa/j8NgBQDqUMiItf/OLdnnvu2dctlB5s24/s2OEW72lTlENgzWKE84wgMD8IDA1U0Vq2HjILieXri1/8Ym/rsfOKVG8N7OpNS1C1GVz1/+F2wflBIS0JAkEgCASBILD9ENjI+tjWpWwDQLXbjV9gN5ytgTe84Q17f+BqV7taH8gW3HZVEtJW2vdbnoG13rAhpH7yk590P/rRj/o0NanmZ5xxRl9r5Wtf+1pPaNnegiksQ6e2HZYx06axFTM4zjkbtmfSmgrr9SP/DwJBIAhsDwTGbZOpv9f3OjGs/bufLUa1zdr3ynpAWDlUQ13Ca1zjGv2XFGFbfWz9qa071eeN6tKtXOC2x3jknUEgCPwuAvSPLQoCl7Yos+/q9KIvfelL/d/ZgBUFrmzRsvfKtvO9JbJGbaNu781YBIEgEASCQBBYRQSG9vUof6HdqVbZzZXtXNv2ZUYjqNSutE2QX1B1K9W8tTsOaTWr7KpJxmq7E1gtu9eSTmWgnHPOOb2ho2CYrYb2YTJ6fNmj6au2vCC46ktkr7a9tAbQKGdro47XJADnniAQBILAViIwJKQqY6EtnFxbrmVSyZiqLyQVMqpIqT322KPPrFLLqgqxW8hG1ZSZVTAgBNZWSkeeHQTmC4FhuYjKqvddMVhZWuw9tp5yE04zZOchv3yx9wQ120z9svHa+h6jsrXmC4m0JggEgSAQBILA1iBQxJTv7fb72pLv73wC5T9kTvEFqs643RW++AJ2XiCvrKme46vWVz9bu/kb47YMbk3vum67E1ijCCV/a7MGKvuqzbwqo6dIqlFFy8Y9e6vAzHODQBAIAvOEwDALqyWi2hoy7YEXVVew3brjcxVsqEyuEFjzNNJpSxBYLARKn7QBRHZdW6fP776GtTuKqNLj9eoALhYqaW0QCAJBIAgEgdkj0PoDtf4OSa7yEdpMLNlVvkbV2K1alrUWTxLsnlXP5obAmlWH8pwgEASCQBCYPQIphjx7TPPEIBAEgkAQCAJBIAgEgSAQBCZHIATW5FjlziAQBILAyiIQAmtlhz4dDwJBIAgEgSAQBIJAEAgCc4FACKy5GIY0IggEgSAQBIJAEAgCQSAIBIEgEASCQBAIAkFgHAIhsCIbQSAIBIEgEASCQBAIAkEgCASBIBAEgkAQCAJzjUAIrLkenjQuCASBIBAEgkAQCAJBIAgEgSAQBIJAEAgCQSAEVmQgCASBIBAEgkAQCAJBIAgEgSAQBIJAEAgCQWCuEQiBNdfDk8YFgSAQBIJAEAgCQSAIBIEgEASCQBAIAkEgCITAigwEgSAQBIJAEAgCQSAIBIEgEASCQBAIAkEgCMw1AiGw5np40rggEASCQBAIAkEgCASBIBAEgkAQCAJBIAgEgRBYkYEgEASCQBAIAkEgCASBIBAEgkAQCAJBIAgEgblGIATWXA9PGhcEgkAQCAJBIAgEgSAQBIJAEAgCQSAIBIEgEAIrMhAEgkAQCAJBIAgEgSAQBIJAEAgCQSAIBIEgMNcIhMCa6+FJ44JAEAgCQSAIBIEgEASCQBAIAkEgCASBIBAE/j+kIiZOx7CpfQAAAABJRU5ErkJggg==;" vertex="1" parent="1">
          <mxGeometry x="100" y="110" width="650" height="414.38" as="geometry" />
        </mxCell>
      </root>
    </mxGraphModel>
  </diagram>
</mxfile>
